<svg xmlns="http://www.w3.org/2000/svg" xmlns:xlink="http://www.w3.org/1999/xlink" width="19" height="19" viewBox="0 0 19 19">
    <defs>
        <path id="align-text-justify-icon-path" d="M4.2 5h10.6c.11 0 .2.09.2.2v.6a.2.2 0 0 1-.2.2H4.2a.2.2 0 0 1-.2-.2v-.6c0-.11.09-.2.2-.2zm0 6h10.6c.11 0 .2.09.2.2v.6a.2.2 0 0 1-.2.2H4.2a.2.2 0 0 1-.2-.2v-.6c0-.11.09-.2.2-.2zm0-3h10.6c.11 0 .2.09.2.2v.6a.2.2 0 0 1-.2.2H4.2a.2.2 0 0 1-.2-.2v-.6c0-.11.09-.2.2-.2zm0 6h10.6c.11 0 .2.09.2.2v.6a.2.2 0 0 1-.2.2H4.2a.2.2 0 0 1-.2-.2v-.6c0-.11.09-.2.2-.2z"/>
    </defs>
    <use fill-rule="nonzero" transform="matrix(-1 0 0 1 19 0)" xlink:href="#align-text-justify-icon-path"/>
</svg>
