<svg xmlns="http://www.w3.org/2000/svg" xmlns:xlink="http://www.w3.org/1999/xlink" width="19" height="19" viewBox="0 0 19 19">
    <defs>
        <path id="a" d="M14 7l2.842-1.421A.8.8 0 0 1 18 6.294v6.412a.8.8 0 0 1-1.158.715L14 12v2a1 1 0 0 1-1 1H2a1 1 0 0 1-1-1V5a1 1 0 0 1 1-1h11a1 1 0 0 1 1 1v2zm0 3.9l2.708 1.354a.2.2 0 0 0 .29-.179V6.922a.2.2 0 0 0-.29-.178L14 8.098V10.9zM2 5v9h11V5H2z"/>
    </defs>
    <g fill="none" fill-rule="evenodd">
        <mask id="b" fill="#fff">
            <use xlink:href="#a"/>
        </mask>
        <use fill="#333" fill-rule="nonzero" xlink:href="#a"/>
        <g fill="#333" mask="url(#b)">
            <path d="M1 1h17v17H1z"/>
        </g>
    </g>
</svg>
