<svg xmlns="http://www.w3.org/2000/svg" xmlns:xlink="http://www.w3.org/1999/xlink" version="1.1" enable-background="new 0 0 100 100" xml:space="preserve" width="501" height="16"><rect id="backgroundrect" width="100%" height="100%" x="0" y="0" fill="none" stroke="none" class="" style=""/><g class="currentLayer" style=""><title>Layer 1</title><g id="svg_1" class=""><g id="svg_2"><path d="M6.8761318537382605,0.7496622038818239 c-2.7771130069000094,-0.7496621354019479 -5.398707685413618,2.3382318985156005 -6.02633522497302,5.033445766270224 c-0.8497965801114032,3.6471657857253508 1.1719416889118044,7.5918165458165525 4.415609680971015,8.924549230975572 c3.0381616295486107,1.2434871928492632 6.815035318932624,0.04164789641121937 8.65348412950043,-2.8558557539121843 c1.905099522733408,-2.998648541607792 1.2497008531050044,-7.163438182729726 -1.194158592967004,-9.590915573555082 C11.064018268143478,0.6009197166988639 8.87009899269247,0.16064195463741365 6.8761318537382605,0.7496622038818239 z" id="svg_3"/><path d="M27.171273708163536,3.212837791631048 c-1.9550875568576072,-0.17849098461951152 -3.2936560261834127,1.802758944657066 -3.443620128556013,3.7423609775224245 c-0.11663874628980045,1.51122366977853 0.4610007591454019,2.7547108626277934 1.3552311473672047,3.593618490339499 c0.522097245297202,0.8389076277117038 1.2719177571602047,1.51122366977853 2.221690405520008,1.7849098461951152 c1.566291735891606,0.44622746154877885 3.2992102521972124,-0.23798797949268208 4.365621646846815,-1.51122366977853 c1.1497247848566043,-1.3743805815702381 1.760689646374607,-3.7602100759843755 0.38879582096600135,-5.1940876524277835 C30.79262906916114,4.295683098322764 28.94862603257953,3.3734796777886142 27.171273708163536,3.212837791631048 z" id="svg_4"/><path d="M50.08245601508862,0.7496622038818239 c-2.7771130069000094,-0.7496621354019479 -5.398707685413618,2.3382318985156005 -6.02633522497302,5.033445766270224 c-0.8497965801114032,3.6471657857253508 1.1719416889118044,7.5918165458165525 4.415609680971015,8.924549230975572 c3.0381616295486107,1.2434871928492632 6.815035318932624,0.04164789641121937 8.65348412950043,-2.8558557539121843 c1.905099522733408,-2.998648541607792 1.2497008531050044,-7.163438182729726 -1.194158592967004,-9.590915573555082 C54.27034242949382,0.6009197166988639 52.07086892802901,0.16064195463741365 50.08245601508862,0.7496622038818239 z" id="svg_5"/><path d="M70.37759786951388,3.212837791631048 c-1.9550875568576072,-0.17849098461951152 -3.2936560261834127,1.802758944657066 -3.443620128556013,3.7423609775224245 c-0.11663874628980045,1.51122366977853 0.4610007591454019,2.7547108626277934 1.3552311473672047,3.593618490339499 c0.522097245297202,0.8389076277117038 1.2719177571602047,1.51122366977853 2.221690405520008,1.7849098461951152 c1.566291735891606,0.44622746154877885 3.2992102521972124,-0.23798797949268208 4.365621646846815,-1.51122366977853 c1.1497247848566043,-1.3743805815702381 1.760689646374607,-3.7602100759843755 0.38879582096600135,-5.1940876524277835 C73.99895323051147,4.295683098322764 72.14939596791608,3.3734796777886142 70.37759786951388,3.212837791631048 z" id="svg_6"/><path d="M91.43366868782975,0.7496622038818239 c-2.7771130069000094,-0.7496621354019479 -5.398707685413618,2.3382318985156005 -6.02633522497302,5.033445766270224 c-0.8497965801114032,3.6471657857253508 1.1719416889118044,7.5918165458165525 4.415609680971015,8.924549230975572 c3.0381616295486107,1.2434871928492632 6.815035318932624,0.04164789641121937 8.65348412950043,-2.8558557539121843 c1.905099522733408,-2.998648541607792 1.2497008531050044,-7.163438182729726 -1.194158592967004,-9.590915573555082 C95.62155510223495,0.6009197166988639 93.42208160077016,0.16064195463741365 91.43366868782975,0.7496622038818239 z" id="svg_7"/><path d="M111.72881054225502,3.212837791631048 c-1.9550875568576072,-0.17849098461951152 -3.2936560261834127,1.802758944657066 -3.443620128556013,3.7423609775224245 c-0.11663874628980045,1.51122366977853 0.4610007591454019,2.7547108626277934 1.3552311473672047,3.593618490339499 c0.522097245297202,0.8389076277117038 1.2719177571602047,1.51122366977853 2.221690405520008,1.7849098461951152 c1.566291735891606,0.44622746154877885 3.2992102521972124,-0.23798797949268208 4.365621646846815,-1.51122366977853 c1.1497247848566043,-1.3743805815702381 1.7662438723884069,-3.7602100759843755 0.38879582096600135,-5.1940876524277835 C115.34461167723882,4.295683098322764 113.5006086406572,3.3734796777886142 111.72881054225502,3.212837791631048 z" id="svg_8"/><path d="M134.6344386231663,0.7496622038818239 c-2.7771130069000094,-0.7496621354019479 -5.398707685413618,2.3382318985156005 -6.02633522497302,5.033445766270224 c-0.8497965801114032,3.6471657857253508 1.1719416889118044,7.5918165458165525 4.415609680971015,8.924549230975572 c3.0381616295486107,1.2434871928492632 6.815035318932624,0.04164789641121937 8.65348412950043,-2.8558557539121843 c1.905099522733408,-2.998648541607792 1.2497008531050044,-7.163438182729726 -1.194158592967004,-9.590915573555082 C138.82232503757152,0.6009197166988639 136.62840576212048,0.16064195463741365 134.6344386231663,0.7496622038818239 z" id="svg_9"/><path d="M154.93513470360534,3.212837791631048 c-1.9550875568576072,-0.17849098461951152 -3.2936560261834127,1.802758944657066 -3.443620128556013,3.7423609775224245 c-0.11663874628980045,1.51122366977853 0.4610007591454019,2.7547108626277934 1.3552311473672047,3.593618490339499 c0.522097245297202,0.8389076277117038 1.2719177571602047,1.51122366977853 2.221690405520008,1.7849098461951152 c1.566291735891606,0.44622746154877885 3.2992102521972124,-0.23798797949268208 4.365621646846815,-1.51122366977853 c1.1497247848566043,-1.3743805815702381 1.7662438723884069,-3.7602100759843755 0.38879582096600135,-5.1940876524277835 C158.55093583858917,4.295683098322764 156.70693280200754,3.3734796777886142 154.93513470360534,3.212837791631048 z" id="svg_10"/><path d="M175.69683154318983,0.7496622038818239 c-2.7771130069000094,-0.7496621354019479 -5.398707685413618,2.3382318985156005 -6.02633522497302,5.033445766270224 c-0.8497965801114032,3.6471657857253508 1.1719416889118044,7.5918165458165525 4.415609680971015,8.924549230975572 c3.0381616295486107,1.2434871928492632 6.815035318932624,0.04164789641121937 8.65348412950043,-2.8558557539121843 c1.905099522733408,-2.998648541607792 1.2497008531050044,-7.163438182729726 -1.194158592967004,-9.590915573555082 C179.88471795759506,0.6009197166988639 177.68524445613022,0.16064195463741365 175.69683154318983,0.7496622038818239 z" id="svg_11"/><path d="M195.99197339761508,3.212837791631048 c-1.9550875568576072,-0.17849098461951152 -3.2936560261834127,1.802758944657066 -3.443620128556013,3.7423609775224245 c-0.11663874628980045,1.51122366977853 0.4610007591454019,2.7547108626277934 1.3552311473672047,3.593618490339499 c0.522097245297202,0.8389076277117038 1.2719177571602047,1.51122366977853 2.221690405520008,1.7849098461951152 c1.566291735891606,0.44622746154877885 3.2992102521972124,-0.23798797949268208 4.365621646846815,-1.51122366977853 c1.1497247848566043,-1.3743805815702381 1.7662438723884069,-3.7602100759843755 0.38879582096600135,-5.1940876524277835 C199.61332875861268,4.295683098322764 197.76377149601728,3.3734796777886142 195.99197339761508,3.212837791631048 z" id="svg_12"/><path d="M218.90315570454018,0.7496622038818239 c-2.7771130069000094,-0.7496621354019479 -5.398707685413618,2.3382318985156005 -6.02633522497302,5.033445766270224 c-0.8497965801114032,3.6471657857253508 1.1719416889118044,7.5918165458165525 4.415609680971015,8.924549230975572 c3.0381616295486107,1.2434871928492632 6.815035318932624,0.04164789641121937 8.65348412950043,-2.8558557539121843 c1.905099522733408,-2.998648541607792 1.2497008531050044,-7.163438182729726 -1.194158592967004,-9.590915573555082 C223.09104211894538,0.6009197166988639 220.89156861748057,0.16064195463741365 218.90315570454018,0.7496622038818239 z" id="svg_13"/><path d="M239.19829755896546,3.212837791631048 c-1.9550875568576072,-0.17849098461951152 -3.2936560261834127,1.802758944657066 -3.443620128556013,3.7423609775224245 c-0.11663874628980045,1.51122366977853 0.4610007591454019,2.7547108626277934 1.3552311473672047,3.593618490339499 c0.522097245297202,0.8389076277117038 1.2719177571602047,1.51122366977853 2.221690405520008,1.7849098461951152 c1.566291735891606,0.44622746154877885 3.2992102521972124,-0.23798797949268208 4.365621646846815,-1.51122366977853 c1.1497247848566043,-1.3743805815702381 1.7662438723884069,-3.7602100759843755 0.38879582096600135,-5.1940876524277835 C242.8140986939492,4.295683098322764 240.97009565736766,3.3734796777886142 239.19829755896546,3.212837791631048 z" id="svg_14"/><path d="M260.2488141512675,0.7496622038818239 c-2.7771130069000094,-0.7496621354019479 -5.398707685413618,2.3382318985156005 -6.02633522497302,5.033445766270224 c-0.8497965801114032,3.6471657857253508 1.1719416889118044,7.5918165458165525 4.415609680971015,8.924549230975572 c3.0381616295486107,1.2434871928492632 6.815035318932624,0.04164789641121937 8.65348412950043,-2.8558557539121843 c1.905099522733408,-2.998648541607792 1.2497008531050044,-7.163438182729726 -1.194158592967004,-9.590915573555082 C264.4367005656727,0.6009197166988639 262.2427812902217,0.16064195463741365 260.2488141512675,0.7496622038818239 z" id="svg_15"/><path d="M280.5495102317066,3.212837791631048 c-1.9550875568576072,-0.17849098461951152 -3.2936560261834127,1.802758944657066 -3.443620128556013,3.7423609775224245 c-0.11663874628980045,1.51122366977853 0.4610007591454019,2.7547108626277934 1.3552311473672047,3.593618490339499 c0.522097245297202,0.8389076277117038 1.2719177571602047,1.51122366977853 2.221690405520008,1.7849098461951152 c1.566291735891606,0.44622746154877885 3.2992102521972124,-0.23798797949268208 4.365621646846815,-1.51122366977853 c1.1497247848566043,-1.3743805815702381 1.7662438723884069,-3.7602100759843755 0.38879582096600135,-5.1940876524277835 C284.1653113666904,4.295683098322764 282.32130833010876,3.3734796777886142 280.5495102317066,3.212837791631048 z" id="svg_16"/><path d="M303.45513831261786,0.7496622038818239 c-2.7771130069000094,-0.7496621354019479 -5.398707685413618,2.3382318985156005 -6.02633522497302,5.033445766270224 c-0.8497965801114032,3.6471657857253508 1.1719416889118044,7.5918165458165525 4.415609680971015,8.924549230975572 c3.0381616295486107,1.2434871928492632 6.815035318932624,0.04164789641121937 8.65348412950043,-2.8558557539121843 c1.905099522733408,-2.998648541607792 1.2497008531050044,-7.163438182729726 -1.194158592967004,-9.590915573555082 C307.6430247270231,0.6009197166988639 305.4435512255583,0.16064195463741365 303.45513831261786,0.7496622038818239 z" id="svg_17"/><path d="M323.7502801670431,3.212837791631048 c-1.9550875568576072,-0.17849098461951152 -3.2936560261834127,1.802758944657066 -3.443620128556013,3.7423609775224245 c-0.11663874628980045,1.51122366977853 0.4610007591454019,2.7547108626277934 1.3552311473672047,3.593618490339499 c0.522097245297202,0.8389076277117038 1.2719177571602047,1.51122366977853 2.221690405520008,1.7849098461951152 c1.566291735891606,0.44622746154877885 3.2992102521972124,-0.23798797949268208 4.365621646846815,-1.51122366977853 c1.1497247848566043,-1.3743805815702381 1.7662438723884069,-3.7602100759843755 0.38879582096600135,-5.1940876524277835 C327.37163552804077,4.295683098322764 325.5220782654453,3.3734796777886142 323.7502801670431,3.212837791631048 z" id="svg_18"/><path d="M346.8003181243132,0.7496622038818239 c-2.7771130069000094,-0.7496621354019479 -5.398707685413618,2.3382318985156005 -6.02633522497302,5.033445766270224 c-0.8497965801114032,3.6471657857253508 1.1719416889118044,7.5918165458165525 4.415609680971015,8.924549230975572 c3.0381616295486107,1.2434871928492632 6.815035318932624,0.04164789641121937 8.65348412950043,-2.8558557539121843 c1.905099522733408,-2.998648541607792 1.2497008531050044,-7.163438182729726 -1.194158592967004,-9.590915573555082 C350.98820453871843,0.6009197166988639 348.7887310372536,0.16064195463741365 346.8003181243132,0.7496622038818239 z" id="svg_19"/><path d="M367.09545997873846,3.212837791631048 c-1.9550875568576072,-0.17849098461951152 -3.2936560261834127,1.802758944657066 -3.443620128556013,3.7423609775224245 c-0.11663874628980045,1.51122366977853 0.4610007591454019,2.7547108626277934 1.3552311473672047,3.593618490339499 c0.522097245297202,0.8389076277117038 1.2719177571602047,1.51122366977853 2.221690405520008,1.7849098461951152 c1.566291735891606,0.44622746154877885 3.2992102521972124,-0.23798797949268208 4.365621646846815,-1.51122366977853 c1.1497247848566043,-1.3743805815702381 1.7662438723884069,-3.7602100759843755 0.38879582096600135,-5.1940876524277835 C370.71681533973606,4.295683098322764 368.86725807714066,3.3734796777886142 367.09545997873846,3.212837791631048 z" id="svg_20"/><path d="M390.00664228566353,0.7496622038818239 c-2.7771130069000094,-0.7496621354019479 -5.398707685413618,2.3382318985156005 -6.02633522497302,5.033445766270224 c-0.8497965801114032,3.6471657857253508 1.1719416889118044,7.5918165458165525 4.415609680971015,8.924549230975572 c3.0381616295486107,1.2434871928492632 6.815035318932624,0.04164789641121937 8.65348412950043,-2.8558557539121843 c1.905099522733408,-2.998648541607792 1.2497008531050044,-7.163438182729726 -1.194158592967004,-9.590915573555082 C394.19452870006876,0.6009197166988639 391.99505519860395,0.16064195463741365 390.00664228566353,0.7496622038818239 z" id="svg_21"/><path d="M410.30178414008884,3.212837791631048 c-1.9550875568576072,-0.17849098461951152 -3.2936560261834127,1.802758944657066 -3.443620128556013,3.7423609775224245 c-0.11663874628980045,1.51122366977853 0.4610007591454019,2.7547108626277934 1.3552311473672047,3.593618490339499 c0.522097245297202,0.8389076277117038 1.2719177571602047,1.51122366977853 2.221690405520008,1.7849098461951152 c1.566291735891606,0.44622746154877885 3.2992102521972124,-0.23798797949268208 4.365621646846815,-1.51122366977853 c1.1497247848566043,-1.3743805815702381 1.7662438723884069,-3.7602100759843755 0.38879582096600135,-5.1940876524277835 C413.91758527507267,4.295683098322764 412.073582238491,3.3734796777886142 410.30178414008884,3.212837791631048 z" id="svg_22"/><path d="M431.3523007323909,0.7496622038818239 c-2.7771130069000094,-0.7496621354019479 -5.398707685413618,2.3382318985156005 -6.02633522497302,5.033445766270224 c-0.8497965801114032,3.6471657857253508 1.1719416889118044,7.5918165458165525 4.415609680971015,8.924549230975572 c3.0381616295486107,1.2434871928492632 6.815035318932624,0.04164789641121937 8.65348412950043,-2.8558557539121843 c1.905099522733408,-2.998648541607792 1.2497008531050044,-7.163438182729726 -1.194158592967004,-9.590915573555082 C435.5457413728099,0.6009197166988639 433.34626787134516,0.16064195463741365 431.3523007323909,0.7496622038818239 z" id="svg_23"/><path d="M451.65299681282994,3.212837791631048 c-1.9550875568576072,-0.17849098461951152 -3.2936560261834127,1.802758944657066 -3.443620128556013,3.7423609775224245 c-0.11663874628980045,1.51122366977853 0.4610007591454019,2.7547108626277934 1.3552311473672047,3.593618490339499 c0.522097245297202,0.8389076277117038 1.2719177571602047,1.51122366977853 2.221690405520008,1.7849098461951152 c1.566291735891606,0.44622746154877885 3.2992102521972124,-0.23798797949268208 4.365621646846815,-1.51122366977853 c1.1497247848566043,-1.3743805815702381 1.7662438723884069,-3.7602100759843755 0.38879582096600135,-5.1940876524277835 C455.2687979478137,4.295683098322764 453.42479491123214,3.3734796777886142 451.65299681282994,3.212837791631048 z" id="svg_24"/><path d="M474.5586248937412,0.7496622038818239 c-2.7771130069000094,-0.7496621354019479 -5.398707685413618,2.3382318985156005 -6.02633522497302,5.033445766270224 c-0.8497965801114032,3.6471657857253508 1.1719416889118044,7.5918165458165525 4.415609680971015,8.924549230975572 c3.0381616295486107,1.2434871928492632 6.815035318932624,0.04164789641121937 8.65348412950043,-2.8558557539121843 c1.905099522733408,-2.998648541607792 1.2497008531050044,-7.163438182729726 -1.194158592967004,-9.590915573555082 C478.7465113081464,0.6009197166988639 476.55259203269543,0.16064195463741365 474.5586248937412,0.7496622038818239 z" id="svg_25"/><path d="M499.7470398663243,5.622466083994459 c-1.2719177571602047,-1.332732685159019 -3.1214750197556116,-2.248986406205845 -4.8932731181578175,-2.4096282923634047 c-1.9550875568576072,-0.17849098461951152 -3.2936560261834127,1.802758944657066 -3.443620128556013,3.7423609775224245 c-0.11663874628980045,1.51122366977853 0.4610007591454019,2.7547108626277934 1.3552311473672047,3.593618490339499 c0.522097245297202,0.8389076277117038 1.2719177571602047,1.51122366977853 2.221690405520008,1.7849098461951152 c1.566291735891606,0.44622746154877885 3.2992102521972124,-0.23798797949268208 4.365621646846815,-1.51122366977853 C500.5079688302149,9.442173154852021 501.1244879177467,7.056343660437865 499.7470398663243,5.622466083994459 z" id="svg_26"/></g></g></g></svg>