<svg xmlns="http://www.w3.org/2000/svg" width="15" height="15" viewBox="0 0 15 15">
    <g fill="none" fill-rule="evenodd" transform="translate(-2 -2)">
        <path fill="#000" d="M3 6h13a1 1 0 0 1 1 1v9a1 1 0 0 1-1 1H3a1 1 0 0 1-1-1V7a1 1 0 0 1 1-1zm.5 1a.5.5 0 0 0-.5.5v8a.5.5 0 0 0 .5.5h12a.5.5 0 0 0 .5-.5v-8a.5.5 0 0 0-.5-.5h-12z"/>
        <rect width="13" height="1" x="3" y="4" fill="#000" rx=".5"/>
        <rect width="11" height="1" x="4" y="2" fill="#000" rx=".5"/>
        <path fill="#000" fill-rule="nonzero" d="M6 11a1.001 1.001 0 0 0 0-2 1.001 1.001 0 0 0 0 2z"/>
    </g>
</svg>
