<svg
        xmlns="http://www.w3.org/2000/svg"
        width="19"
        viewBox="0 0 19 19"
        role="img"
>
    <path d="M11.4978611,5.32567863 L3,13.8000002 L3,16 L5.19999981,16 L13.6860912,7.51390865 L11.4978611,5.32567863 Z M12.1861842,4.63926227 L14.3845079,6.81549189 L16,5.19999981 L13.8299999,3 L12.1861842,4.63926227 Z M2,13.523002 C2,13.4699587 2.02107137,13.4190879 2.05857864,13.3815806 L13.1590291,2.2811302 C13.5495533,1.89060591 14.1827183,1.89060591 14.5732426,2.2811302 L16.7188698,4.42675739 C17.1093941,4.81728168 17.1093941,5.45044666 16.7188698,5.84097095 L5.61841939,16.9414214 C5.58091212,16.9789286 5.53004133,17 5.47699804,17 L2.2,17 C2.08954305,17 2,16.9104569 2,16.8 L2,13.523002 Z M5,4 L6.8,4 C6.9104569,4 7,4.089543 7,4.2 L7,4.8 C7,4.910457 6.9104569,5 6.8,5 L5,5 L5,6.8 C5,6.910457 4.91045695,7 4.8,7 L4.2,7 C4.08954305,7 4,6.910457 4,6.8 L4,5 L2.2,5 C2.08954305,5 2,4.910457 2,4.8 L2,4.2 C2,4.089543 2.08954305,4 2.2,4 L4,4 L4,2.2 C4,2.089543 4.08954305,2 4.2,2 L4.8,2 C4.91045695,2 5,2.089543 5,2.2 L5,4 Z"></path>
</svg>
