<svg width="19px" height="19px" viewBox="0 0 19 19" version="1.1" xmlns="http://www.w3.org/2000/svg" xmlns:xlink="http://www.w3.org/1999/xlink">
    <g transform="translate(2.000000, 1.000000)" fill="currentColor" stroke="none" fill-rule="nonzero">
        <path d="M9.89900018,10.0292475 L11.464382,8.46386567 L5.30456257,8.46386567 C5.19410562,8.46386567 5.10456257,8.37432262 5.10456257,8.26386567 L5.10456257,7.73543447 C5.10456257,7.62497752 5.19410562,7.53543447 5.30456257,7.53543447 L11.464382,7.53543447 L9.8993994,5.97045189 C9.82129454,5.89234703 9.82129454,5.76571404 9.8993994,5.68760918 L10.2731558,5.31385274 C10.3512607,5.23574788 10.4778937,5.23574788 10.5559986,5.31385274 L13.2417959,7.99965007 L10.5555993,10.6858466 C10.4774945,10.7639515 10.3508615,10.7639515 10.2727566,10.6858466 L9.89900018,10.3120902 C9.82089533,10.2339853 9.82089533,10.1073523 9.89900018,10.0292475 Z M15,1 L16,1 L16,16 L15,16 L15,1 Z M-1,1 L-4.54969395e-13,1 L-4.54969395e-13,16 L-1,16 L-1,1 Z M5.10654714,10.3183374 L4.73279069,10.6920938 C4.65468584,10.7701987 4.52805284,10.7701987 4.44994798,10.6920938 L1.75750426,7.99965007 L4.44377633,5.313378 C4.52188119,5.23527314 4.64851419,5.23527314 4.72661905,5.313378 L5.10037549,5.68713444 C5.17848035,5.7652393 5.17848035,5.89187229 5.10037549,5.96997715 L3.53491817,7.53543447 L9.69473757,7.53543447 C9.80519452,7.53543447 9.89473757,7.62497752 9.89473757,7.73543447 L9.89473757,8.26386567 C9.89473757,8.37432262 9.80519452,8.46386567 9.69473757,8.46386567 L3.53491817,8.46386567 L5.10654714,10.0354946 C5.18465199,10.1135995 5.18465199,10.2402325 5.10654714,10.3183374 Z" id="Expand" transform="translate(7.500000, 8.500000) rotate(-270.000000) translate(-7.500000, -8.500000) "></path>
    </g>
</svg>
