<svg width="19px" height="19px" viewBox="0 0 19 19" version="1.1" xmlns="http://www.w3.org/2000/svg" xmlns:xlink="http://www.w3.org/1999/xlink">
    <g fill="currentColor" stroke="none" transform="translate(9.500000, 9.500000) rotate(-270.000000) translate(-9.500000, -9.500000) translate(2.000000, 1.000000)" >
        <path d="M9.89970004,11.0292475 L11.4650818,9.46386567 L5.30526243,9.46386567 C5.19480548,9.46386567 5.10526243,9.37432262 5.10526243,9.26386567 L5.10526243,8.73543447 C5.10526243,8.62497752 5.19480548,8.53543447 5.30526243,8.53543447 L11.4650818,8.53543447 L9.90009925,6.97045189 C9.8219944,6.89234703 9.8219944,6.76571404 9.90009925,6.68760918 L10.2738557,6.31385274 C10.3519606,6.23574788 10.4785935,6.23574788 10.5566984,6.31385274 L13.2424957,8.99965007 L10.5562992,11.6858466 C10.4781943,11.7639515 10.3515613,11.7639515 10.2734565,11.6858466 L9.89970004,11.3120902 C9.82159518,11.2339853 9.82159518,11.1073523 9.89970004,11.0292475 Z M5.10654714,11.3190372 L4.73279069,11.6927937 C4.65468584,11.7708985 4.52805284,11.7708985 4.44994798,11.6927937 L1.75750426,9.00034993 L4.44377633,6.31407785 C4.52188119,6.23597299 4.64851419,6.23597299 4.72661905,6.31407785 L5.10037549,6.68783429 C5.17848035,6.76593915 5.17848035,6.89257215 5.10037549,6.97067701 L3.53491817,8.53613433 L9.69473757,8.53613433 C9.80519452,8.53613433 9.89473757,8.62567738 9.89473757,8.73613433 L9.89473757,9.26456553 C9.89473757,9.37502248 9.80519452,9.46456553 9.69473757,9.46456553 L3.53491817,9.46456553 L5.10654714,11.0361945 C5.18465199,11.1142994 5.18465199,11.2409324 5.10654714,11.3190372 Z M15,1 L16,1 L16,16 L15,16 L15,1 Z M-1,1 L2.30926389e-14,1 L2.30926389e-14,16 L-1,16 L-1,1 Z" id="Expand" transform="translate(7.500000, 8.500000) rotate(-270.000000) translate(-7.500000, -8.500000) "></path>
    </g>
</svg>
