<svg xmlns="http://www.w3.org/2000/svg" width="19" height="19" viewBox="0 0 19 19">
  <path fill-rule="evenodd" d="M2,2.99994543 L17,2.99994543 C17.5522847,2.99994543 18,3.44766068 18,3.99994543 L18,14.9999454 C18,15.5522302 17.5522847,15.9999454 17,15.9999454 L2,15.9999454 C1.44771525,15.9999454 1,15.5522302 1,14.9999454 L1,3.99994543 C1,3.44766068 1.44771525,2.99994543 2,2.99994543 Z M2,4 L2,15 L17,15 L17,4 L2,4 Z M14.8,13 L9.2,13 C9.08954305,13 9,12.9104569 9,12.8 L9,12.2 C9,12.0895431 9.08954305,12 9.2,12 L14.8,12 C14.9104569,12 15,12.0895431 15,12.2 L15,12.8 C15,12.9104569 14.9104569,13 14.8,13 Z M4.25840302,13.2491825 L4.2584212,13.2492006 C4.25841514,13.2492067 4.25840908,13.2492128 4.25840302,13.2492188 C4.18029817,13.3273237 4.05366517,13.3273237 3.97556031,13.2492188 L3.55144342,12.8250211 C3.47334724,12.746925 3.4733373,12.6203091 3.55142121,12.5422006 L6.59199985,9.500622 L3.55152116,6.46094338 C3.47343438,6.38288114 3.47337971,6.25630809 3.55139902,6.17817842 L3.97557849,5.75304343 C3.97561178,5.75301009 3.97564509,5.75297676 3.9756784,5.75294345 C4.05378326,5.67483859 4.18041625,5.67483859 4.25852111,5.75294345 L7.86456031,9.35921882 C7.94265807,9.43731658 7.94266621,9.56393556 7.86457849,9.64204336 L4.25840302,13.2491825 Z"/>
</svg>
