<svg width="8" viewBox="0 0 8 8">
    <g stroke="none" strokeWidth="1" fillRule="evenodd" transform="translate(-955.000000, -1151.000000)">
        <path d="M960,1154 L960,1152 L960,1152 C960,1151.44772 959.552285,1151 959,1151 L959,1151 L959,1151 C958.447715,1151 958,1151.44772 958,1152 L958,1154 L956,1154 L956,1154 C955.447715,1154 955,1154.44772 955,1155 C955,1155.55228 955.447715,1156 956,1156 L958,1156 L958,1158 C958,1158.55228 958.447715,1159 959,1159 L959,1159 C959.552285,1159 960,1158.55228 960,1158 L960,1156 L962,1156 C962.552285,1156 963,1155.55228 963,1155 C963,1154.44772 962.552285,1154 962,1154 L960,1154 Z"/>
    </g>
</svg>