<svg xmlns="http://www.w3.org/2000/svg" width="20" height="20" viewBox="0 0 20 20">
    <path fill-rule="evenodd" d="M8.97.007h2.054c1.8.003 2.18.018 3.095.06 1.064.048 1.79.217 2.426.464.658.256 1.215.597 1.77 1.153.557.556.898 1.113 1.154 1.77.247.637.416 1.363.465 2.427.043.952.057 1.326.06 3.327v1.59c-.003 2.001-.017 2.375-.06 3.327-.049 1.064-.218 1.79-.465 2.426-.256.658-.597 1.215-1.153 1.771-.556.556-1.113.898-1.77 1.153-.637.247-1.363.416-2.427.465-.952.043-1.326.057-3.327.06h-1.59c-2.001-.003-2.375-.017-3.327-.06-1.064-.049-1.79-.218-2.426-.465-.658-.255-1.215-.597-1.771-1.153-.556-.556-.898-1.113-1.153-1.77-.247-.636-.416-1.363-.465-2.427C.018 13.21.004 12.83 0 11.03V8.976c.004-1.8.018-2.18.06-3.095.049-1.064.218-1.79.465-2.426.255-.658.597-1.215 1.153-1.77C2.234 1.127 2.79.786 3.448.53 4.085.284 4.812.115 5.876.066 6.79.025 7.17.01 8.97.007h2.054zm2.068 1.801H8.955c-1.737.003-2.1.017-2.998.058-.974.044-1.504.207-1.856.344-.467.181-.8.398-1.15.748-.35.35-.566.683-.747 1.15-.137.352-.3.88-.344 1.856-.041.898-.055 1.26-.058 2.998v2.083c.003 1.737.017 2.1.058 2.998.044.974.207 1.504.344 1.856.181.467.398.8.748 1.15.35.35.682.566 1.149.747.352.137.882.3 1.856.344.976.045 1.32.057 3.484.059h1.112c2.164-.002 2.508-.014 3.483-.059.975-.044 1.504-.207 1.857-.344.466-.181.8-.398 1.15-.748.349-.35.566-.682.747-1.149.137-.352.3-.882.344-1.856.045-.976.057-1.32.058-3.484V9.447c-.001-2.164-.013-2.507-.058-3.483-.044-.975-.207-1.504-.344-1.857-.181-.466-.398-.8-.748-1.15-.35-.349-.683-.566-1.15-.747-.352-.137-.88-.3-1.856-.344-.898-.041-1.26-.055-2.998-.058zM9.997 4.87c2.835 0 5.133 2.298 5.133 5.133s-2.298 5.134-5.133 5.134-5.134-2.299-5.134-5.134c0-2.835 2.299-5.133 5.134-5.133zm0 1.8c-1.84 0-3.332 1.493-3.332 3.333s1.491 3.332 3.332 3.332c1.84 0 3.332-1.491 3.332-3.332 0-1.84-1.492-3.332-3.332-3.332zm5.336-3.203c.663 0 1.2.537 1.2 1.2 0 .662-.537 1.2-1.2 1.2-.662 0-1.2-.538-1.2-1.2 0-.663.538-1.2 1.2-1.2z"/>
</svg>
