<svg xmlns="http://www.w3.org/2000/svg" width="20" height="20" viewBox="0 0 20 20">
    <path fill-rule="evenodd" d="M10 0C4.477 0 0 4.459 0 9.959c0 4.221 2.634 7.828 6.354 9.279-.09-.787-.165-2 .033-2.861.18-.779 1.169-4.95 1.169-4.95s-.297-.6-.297-1.476c0-1.385.807-2.418 1.811-2.418.856 0 1.267.64 1.267 1.401 0 .853-.543 2.132-.83 3.32-.24.992.501 1.803 1.48 1.803 1.778 0 3.145-1.868 3.145-4.557 0-2.385-1.72-4.05-4.181-4.05-2.848 0-4.519 2.124-4.519 4.32 0 .853.33 1.771.74 2.271.083.098.091.189.067.287-.074.311-.247.992-.28 1.131-.041.18-.148.221-.338.131-1.25-.582-2.033-2.393-2.033-3.86 0-3.14 2.289-6.025 6.61-6.025 3.465 0 6.164 2.459 6.164 5.754 0 3.434-2.173 6.197-5.185 6.197-1.012 0-1.967-.525-2.288-1.148l-.626 2.369c-.222.869-.83 1.95-1.242 2.615.938.287 1.926.442 2.963.442 5.522 0 10-4.459 10-9.959C20 4.46 15.523 0 10 0z"/>
</svg>
