<svg xmlns="http://www.w3.org/2000/svg" width="20" height="20" viewBox="0 0 20 20">
    <path fill-rule="evenodd" d="M10.247 2.5c1.176.006 6.193.05 7.567.42.86.232 1.538.914 1.768 1.78C20 6.27 20 9.545 20 9.545s0 3.276-.418 4.846c-.23.866-.908 1.548-1.768 1.78-1.374.37-6.391.414-7.567.42h-.494c-1.176-.006-6.193-.05-7.567-.42-.86-.232-1.538-.914-1.768-1.78-.362-1.361-.41-4.002-.417-4.683v-.325C.007 8.703.056 6.06.418 4.7c.23-.866.908-1.548 1.768-1.78 1.374-.37 6.391-.414 7.567-.42zM7.955 6.573v5.947l5.227-2.973-5.227-2.974z"/>
</svg>
