<svg xmlns="http://www.w3.org/2000/svg" width="19" height="19" viewBox="0 0 19 19">
    <path fill-rule="evenodd" d="M9.692 3.876c.893.004 4.64.037 5.668.315.646.173 1.154.685 1.327 1.334C17 6.703 17 9.16 17 9.16s0 2.457-.313 3.634c-.173.65-.681 1.161-1.327 1.335-1.098.296-5.304.314-5.81.315h-.1c-.506-.001-4.712-.019-5.81-.315-.646-.174-1.154-.685-1.327-1.335-.277-1.042-.309-3.084-.313-3.542v-.184c.004-.458.036-2.5.313-3.542.173-.65.681-1.16 1.327-1.334 1.028-.278 4.775-.311 5.668-.315zM7.966 6.929v4.46l3.92-2.23-3.92-2.23z"/>
</svg>