<?xml version="1.0" encoding="UTF-8" standalone="no"?>
<svg width="19px" height="19px" viewBox="0 0 19 19" version="1.1" xmlns="http://www.w3.org/2000/svg" xmlns:xlink="http://www.w3.org/1999/xlink">
    <!-- Generator: Sketch 47.1 (45422) - http://www.bohemiancoding.com/sketch -->
    <title>01. Icons / General / Arrow / 01. Default</title>
    <desc>Created with Sketch.</desc>
    <defs>
        <path d="M5.95117582,9 L14.8670612,9 C14.9775182,9 15.0670612,9.08954305 15.0670612,9.2 L15.0670612,9.8 C15.0670612,9.91045695 14.9775182,10 14.8670612,10 L5.88735703,10 L8.83913454,12.9517775 C8.91783208,13.030475 8.91831254,13.1575885 8.84020769,13.2356934 L8.41594362,13.6599574 C8.33783876,13.7380623 8.2107253,13.7375818 8.13202776,13.6588843 L4.14218163,9.66903816 C4.10283286,9.62968939 4.08303836,9.57823664 4.08284416,9.52685797 C4.08264995,9.47547931 4.10205605,9.42417473 4.14110848,9.3851223 L8.10090646,5.42532432 C8.17901131,5.34721946 8.30612478,5.34769993 8.38482232,5.42639747 L8.81230583,5.85388098 C8.89100337,5.93257853 8.89148384,6.05969199 8.81337898,6.13779685 L5.95117582,9 Z" id="path-1"></path>
    </defs>
    <g id="Symbols" stroke="none" stroke-width="1" fill-rule="evenodd">
        <g id="01.-Icons-/-General-/-Arrow-/-01.-Default">
            <mask id="mask-2">
                <use xlink:href="#path-1"></use>
            </mask>
            <use id="Arrow-Back" fill-rule="nonzero" transform="translate(9.574952, 9.542641) scale(-1, 1) rotate(-180.000000) translate(-9.574952, -9.542641) " xlink:href="#path-1"></use>
        </g>
    </g>
</svg>
