<svg xmlns="http://www.w3.org/2000/svg" width="19" height="19" viewBox="0 0 19 19">
  <path d="M15,15 C15,15.5522847 14.5522847,16 14,16 L5,16 C4.44771525,16 4,15.5522847 4,15 L4,12.2 C4,12.0895431 4.08954305,12 4.2,12 L4.8,12 C4.91045695,12 5,12.0895431 5,12.2 L5,15 L14,15 L14,12.2 C14,12.0895431 14.0895431,12 14.2,12 L14.8,12 C14.9104569,12 15,12.0895431 15,12.2 L15,15 Z M9.99999338,5.73724106 L9.99999338,12.7998125 C9.99999338,12.9102695 9.91045033,12.9998125 9.79999338,12.9998125 L9.19999338,12.9998125 C9.08953643,12.9998125 8.99999338,12.9102695 8.99999338,12.7998125 L8.99999338,5.74926108 L6.70710016,8.02407651 C6.6289953,8.10218137 6.5023623,8.10218137 6.42425745,8.02407651 L5.99999338,7.59981244 C5.92188852,7.52170758 5.92188852,7.39507459 5.99999338,7.31696973 L9.36593133,3.97310971 C9.40498376,3.93405728 9.45616823,3.91453107 9.50735269,3.91453107 C9.55853715,3.91453107 9.60972162,3.93405728 9.64877405,3.97310971 L12.9999934,7.31696973 C13.0780982,7.39507459 13.0780982,7.52170758 12.9999934,7.59981244 L12.5757293,8.02407651 C12.4976245,8.10218137 12.3709915,8.10218137 12.2928866,8.02407651 L9.99999338,5.73724106 Z"/>
</svg>
