<svg xmlns="http://www.w3.org/2000/svg" width="25" height="25" viewBox="0 0 25 25">
  <path fill-rule="evenodd" d="M13,12 L17.8,12 C17.9104569,12 18,12.0895431 18,12.2 L18,12.8 C18,12.9104569 17.9104569,13 17.8,13 L13,13 L13,17.8 C13,17.9104569 12.9104569,18 12.8,18 L12.2,18 C12.0895431,18 12,17.9104569 12,17.8 L12,13 L7.2,13 C7.08954305,13 7,12.9104569 7,12.8 L7,12.2 C7,12.0895431 7.08954305,12 7.2,12 L12,12 L12,7.2 C12,7.08954305 12.0895431,7 12.2,7 L12.8,7 C12.9104569,7 13,7.08954305 13,7.2 L13,12 Z M12.5,25 C5.59644063,25 0,19.4035594 0,12.5 C0,5.59644063 5.59644063,0 12.5,0 C19.4035594,0 25,5.59644063 25,12.5 C25,19.4035594 19.4035594,25 12.5,25 Z M12.5,24 C18.8512746,24 24,18.8512746 24,12.5 C24,6.14872538 18.8512746,1 12.5,1 C6.14872538,1 1,6.14872538 1,12.5 C1,18.8512746 6.14872538,24 12.5,24 Z"/>
</svg>
