<svg xmlns="http://www.w3.org/2000/svg" width="19" height="19" viewBox="0 0 19 19">
  <path d="M6.70710678,15 L4,15 C3.44771525,15 3,14.5522847 3,14 L3,11.2 C3,11.0895431 3.08954305,11 3.2,11 L3.8,11 C3.91045695,11 4,11.0895431 4,11.2 L4,14 L6.70710678,14 L5.93431458,13.2272078 C5.85620972,13.1491029 5.85620972,13.0224699 5.93431458,12.9443651 L6.35857864,12.520101 C6.4366835,12.4419962 6.5633165,12.4419962 6.64142136,12.520101 L8.47989899,14.3585786 C8.55800384,14.4366835 8.55800384,14.5633165 8.47989899,14.6414214 L6.64142136,16.479899 C6.5633165,16.5580038 6.4366835,16.5580038 6.35857864,16.479899 L5.93431458,16.0556349 C5.85620972,15.9775301 5.85620972,15.8508971 5.93431458,15.7727922 L6.70710678,15 Z M12.2928932,4 L15,4 C15.5522847,4 16,4.44771525 16,5 L16,7.8 C16,7.91045695 15.9104569,8 15.8,8 L15.2,8 C15.0895431,8 15,7.91045695 15,7.8 L15,5 L12.2928932,5 L13.0656854,5.7727922 C13.1437903,5.85089706 13.1437903,5.97753006 13.0656854,6.05563492 L12.6414214,6.47989899 C12.5633165,6.55800384 12.4366835,6.55800384 12.3585786,6.47989899 L10.520101,4.64142136 C10.4419962,4.5633165 10.4419962,4.4366835 10.520101,4.35857864 L12.3585786,2.52010101 C12.4366835,2.44199616 12.5633165,2.44199616 12.6414214,2.52010101 L13.0656854,2.94436508 C13.1437903,3.02246994 13.1437903,3.14910294 13.0656854,3.2272078 L12.2928932,4 Z M11,10 L16,10 C16.5522847,10 17,10.4477153 17,11 L17,16 C17,16.5522847 16.5522847,17 16,17 L11,17 C10.4477153,17 10,16.5522847 10,16 L10,11 C10,10.4477153 10.4477153,10 11,10 Z M11,11 L11,16 L16,16 L16,11 L11,11 Z M3,2 L8,2 C8.55228475,2 9,2.44771525 9,3 L9,8 C9,8.55228475 8.55228475,9 8,9 L3,9 C2.44771525,9 2,8.55228475 2,8 L2,3 C2,2.44771525 2.44771525,2 3,2 Z M3,3 L3,8 L8,8 L8,3 L3,3 Z"/>
</svg>
