<svg xmlns="http://www.w3.org/2000/svg" xmlns:xlink="http://www.w3.org/1999/xlink" width="19" height="19">
<path fill="#333" d="M3 7.8V3.2c0-.11045695.08954305-.2.2-.2h.6c.11045695 0 .2.08954305.2.2v2.59219722C5.19002477 4.10459307 7.17019471 3 9.41185475 3 13.0503869 3 16 5.91014913 16 9.5c0 .168236-.0064781.33497919-.0192017.5h-1.0170847c.0150415-.16468102.0227256-.33145515.0227256-.5 0-3.03756612-2.4958265-5.5-5.57458445-5.5-2.16632682 0-4.04404165 1.21916205-4.9667423 3H7.8c.11045695 0 .2.08954305.2.2v.6c0 .11045695-.08954305.2-.2.2H3.2c-.11045695 0-.2-.08954305-.2-.2zm13 3.4v4.6c0 .1104569-.0895431.2-.2.2h-.6c-.1104569 0-.2-.0895431-.2-.2v-2.5921972C13.8099752 14.8954069 11.8298053 16 9.58814525 16 5.9496131 16 3 13.0898509 3 9.5c0-.168236.00647814-.33497919.01920172-.5h1.01708465c-.01504145.16468102-.02272556.33145515-.02272556.5 0 3.0375661 2.49582646 5.5 5.57458444 5.5 2.16632685 0 4.04404165-1.219162 4.96674225-3H11.2c-.1104569 0-.2-.0895431-.2-.2v-.6c0-.1104569.0895431-.2.2-.2h4.6c.1104569 0 .2.0895431.2.2z"/>
</svg>
