<svg xmlns="http://www.w3.org/2000/svg" width="19" height="19" viewBox="0 0 19 19">
    <path fill="#333" stroke="#333" stroke-width=".2" d="M3.75 14.996V11.16h2.66c.71 0 1.288-.1 1.736-.301.448-.2.793-.455 1.036-.763s.408-.642.497-1.001c.089-.36.133-.693.133-1.001 0-.308-.044-.644-.133-1.008-.089-.364-.254-.7-.497-1.008-.243-.308-.588-.565-1.036-.77C7.698 5.103 7.119 5 6.41 5h0H2v9.996h1.75zm2.562-5.264H3.75V6.428h2.59c.233 0 .453.023.658.07.205.047.387.133.546.259.159.126.285.296.378.511.093.215.14.485.14.812 0 .317-.054.581-.161.791-.107.21-.247.378-.42.504s-.362.217-.567.273c-.205.056-.406.084-.602.084h0zm11.2 5.264v-1.428h-4.774c.065-.215.187-.418.364-.609s.385-.376.623-.553c.238-.177.497-.355.777-.532.28-.177.56-.364.84-.56.28-.196.55-.406.812-.63.261-.224.495-.469.7-.735.205-.266.369-.558.49-.875.121-.317.182-.672.182-1.064 0-.317-.051-.651-.154-1.001-.103-.35-.278-.674-.525-.973-.247-.299-.572-.546-.973-.742-.401-.196-.9-.294-1.498-.294-.55 0-1.034.096-1.449.287-.415.191-.768.455-1.057.791-.29.336-.506.735-.651 1.197-.145.462-.217.964-.217 1.505h1.596c.01-.345.044-.667.105-.966.06-.299.154-.558.28-.777.126-.22.294-.392.504-.518.21-.126.474-.189.791-.189.345 0 .625.058.84.175.215.117.383.261.504.434s.203.36.245.56c.042.2.063.39.063.567-.01.383-.107.721-.294 1.015-.187.294-.425.567-.714.819-.29.252-.607.488-.952.707-.345.22-.677.446-.994.679-.663.448-1.185.975-1.568 1.582-.383.607-.579 1.316-.588 2.128h6.692z"/>
</svg>