<svg xmlns="http://www.w3.org/2000/svg" width="11" height="14" viewBox="0 0 11 14">
    <path fill="currentColor" fill-rule="nonzero" d="M10.808 7.886h-.87c0 1.633-1.713 3.65-3.898 3.891V6.145h1.741v-.87h-1.74V3.907a1.738 1.738 0 0 0 1.305-1.679 1.742 1.742 0 0 0-1.74-1.74c-.961 0-1.74.78-1.741 1.74 0 .81.557 1.485 1.305 1.68v1.367H3.43v.87h1.74v5.632c-2.185-.242-3.897-2.258-3.897-3.891h-.87c0 2.477 2.102 4.558 4.767 4.765v1.327h.87v-1.327c2.666-.207 4.768-2.288 4.768-4.765zM4.735 2.228a.871.871 0 1 1 1.742.002.871.871 0 0 1-1.742-.002z"/>
</svg>
