<svg xmlns="http://www.w3.org/2000/svg" xmlns:xlink="http://www.w3.org/1999/xlink" version="1.1" enable-background="new 0 0 100 100" xml:space="preserve" width="500" height="30" style=""><rect id="backgroundrect" width="100%" height="100%" x="0" y="0" fill="none" stroke="none" class="" style=""/><g class="currentLayer" style=""><title>Layer 1</title><g id="svg_1" class=""><path d="M497.4675247819401,14.596030008937532 c-6.871327667236328,-2.853817539215088 -13.47666845703125,-6.62196496963501 -19.85481212234497,-10.428902153015137 c-1.191399555206299,-0.70929833984375 -3.2749634284973155,-0.1219106521606446 -3.5021605529785167,1.4241380729675293 c-0.42668728256225646,2.8759831123352053 -0.7148397331237809,5.7741317977905275 -0.8312089920043956,8.677821876525881 c-37.57618783187866,-2.6543273811340335 -76.01129162216186,-0.4433114624023444 -113.68168313980102,-0.48210121536254946 c-34.05740309906006,-0.0387897529602051 -68.12034759140015,-0.07757950592041025 -102.1777506904602,-0.16070040512084993 c-0.06649671936035169,-0.3491077766418465 -0.10528647232055675,-0.6982155532836928 -0.21057294464111334,-1.0362405433654789 c-1.5571315116882327,-4.981712558746339 -7.0098624992370615,-7.325721916198731 -11.808709079742433,-5.530310493469238 c-3.020059337615967,1.1304442291259766 -4.898591659545899,3.6794851379394546 -5.280947795867921,6.5166784973144525 c-71.11824135589599,-0.29369384384155284 -142.2531068916321,-2.1943917388916026 -213.3713482475281,-1.9616532211303719 c0.22719712448120152,-2.9646454048156743 0.36019056320190485,-5.945914989471436 0.3712733497619633,-8.965974327087403 c0.005541393280029307,-1.884073715209962 -1.9117806816101086,-2.6487859878540045 -3.4412052268981945,-1.9782774009704593 c-7.3478874893188495,3.2361736755371098 -14.640361045837404,6.599799396514893 -21.949458782196047,9.908011184692382 c-1.7289147033691412,0.7813364524841316 -1.4296794662475591,3.3303773612976086 0,4.189293319702149 c6.400309238433838,3.862351116180422 12.839408229827882,7.663746906280518 19.261883041381836,11.487308269500732 c1.6513351974487311,0.9808266105651867 3.119804416656495,-0.1274520454406739 3.463370800018312,-1.5405073318481444 c0.3047766304016114,-0.1496176185607913 0.5485979347229,-0.4100631027221681 0.6317188339233409,-0.8201262054443362 c0.6705085868835456,-3.286046215057374 1.135985622406006,-6.561009643554687 1.457386432647705,-9.85259725189209 c71.19027946853637,2.3107609977722174 142.4858454093933,1.9616532211303719 213.7038318443298,2.6654101676940924 c0.005541393280029307,0.08866229248046902 0,0.17732458496093761 0.011082786560058618,0.2659868774414068 c0.5153495750427245,4.998336738586426 5.82954573059082,8.168013694763184 10.578519771575928,7.237059623718262 c3.6850265312194836,-0.7203811264038092 6.084449821472169,-3.8512683296203636 6.633047756195069,-7.3478874893188495 c34.04077891921997,0.3491077766418465 68.08155783843993,0.648343013763429 102.12233675765991,0.8035020256042477 c37.631601764678955,0.17178319168090841 76.09995391464234,2.4326716499328622 113.63181060028076,-0.2992352371215818 c0.022165573120117275,3.374708507537843 0.3047766304016114,6.749417015075683 0.9642024307250979,10.085335769653321 c0.11636925888061544,0.598470474243165 0.5319737548828125,0.9032471046447764 1.0085335769653323,0.9752852172851566 c0.42668728256225646,1.097195869445801 1.5072589721679686,1.9284048614501965 2.8704417190551768,1.4795520057678224 c7.065276432037353,-2.3329265708923344 13.892272953033448,-6.577633823394776 20.004429740905763,-10.744761569976808 C499.9722345445133,17.870993437434855 499.46242636275065,15.427239000941917 497.4675247819401,14.596030008937532 z" id="svg_2"/></g></g></svg>