<svg xmlns="http://www.w3.org/2000/svg" xmlns:xlink="http://www.w3.org/1999/xlink" version="1.1" enable-background="new 0 0 100 100" xml:space="preserve" width="501" height="46"><rect id="backgroundrect" width="100%" height="100%" x="0" y="0" fill="none" stroke="none" class="" style=""/><g class="currentLayer" style=""><title>Layer 1</title><g id="svg_1" class=""><g id="svg_2"><circle fill="none" cx="24.96143869408551" cy="23.730705285679132" r="2.553304672241211" id="svg_3"/><polygon fill="none" points="250.51617431640625,29.601957082748413 261.5662536621094,23.687345266342163 250.51617431640625,17.4066960811615 239.4661102294922,23.687345266342163 " id="svg_4"/><path fill="none" d="M24.961436740412477,29.943934510659204 c-3.963546601064608,0 -7.186711603896639,-2.788730577235004 -7.186711603896639,-6.218050388964402 c0,-3.4293198117293997 3.2231650028320336,-6.218050388964402 7.186711603896639,-6.218050388964402 c3.289966350040988,0 6.039955143476264,1.9314006243026536 6.886105541456348,4.5467386267872945 h6.769203183840675 l-11.896206582127899,-8.944166980872888 l-20.842020329193666,10.596212901411068 l22.127946262966024,10.292775895597929 l10.905319931861747,-8.602198291781892 h-7.06980924628097 C31.001391883888743,28.012533886356522 28.251403090453476,29.943934510659204 24.961436740412477,29.943934510659204 z" id="svg_5"/><circle fill="none" cx="476.07092187101784" cy="23.730705285679132" r="2.553304672241211" id="svg_6"/><path fill="none" d="M462.410058938248,22.059388819927406 h6.769203183840675 c0.8517171769141654,-2.6153380024846413 3.6017059703494407,-4.5467386267872945 6.886105541456348,-4.5467386267872945 c3.963546601064608,0 7.186711603896639,2.788730577235004 7.186711603896639,6.218050388964402 c0,3.4293198117293997 -3.2231650028320336,6.218050388964402 -7.186711603896639,6.218050388964402 c-3.289966350040988,0 -6.039955143476264,-1.9314006243026536 -6.886105541456348,-4.5467386267872945 h-7.06980924628097 l10.910886710795825,8.602198291781892 l22.127946262966024,-10.292775895597929 l-20.842020329193666,-10.596212901411068 L462.410058938248,22.059388819927406 z" id="svg_7"/><path fill="none" d="M227.38621912034552,23.68735243841693 L250.5161855914458,36.07047215183867 l23.129966471100342,-12.383119713421749 L250.5161855914458,10.538415519847732 L227.38621912034552,23.68735243841693 zM266.2200689644841,22.333927063282133 c0.5511111144738717,0.3130699266326003 0.8795510715845627,0.8476970321128862 0.8684175137164035,1.4208558208710298 c-0.01113355786815902,0.5683423283484126 -0.35627385178108917,1.0981529734189652 -0.9129517451890395,1.396773518822368 l-14.640628596629096,7.836381086634457 C251.22316651607395,33.156513603950614 250.86689266429283,33.23839343091607 250.5161855914458,33.23839343091607 c-0.3507070728470098,0 -0.7069809246280985,-0.08187982696544929 -1.0187205449365493,-0.2504559413060801 l-14.640628596629096,-7.836381086634457 c-0.5622446723420305,-0.2986205454034037 -0.9073849662549605,-0.8284311904739565 -0.9129517451890395,-1.396773518822368 c-0.01113355786815902,-0.5683423283484126 0.3173063992425322,-1.1077858942384298 0.8684175137164035,-1.4208558208710298 l14.640628596629096,-8.32284358801742 c0.645746356353223,-0.36605099113965583 1.4751964175310686,-0.36605099113965583 2.120942773884292,0 L266.2200689644841,22.333927063282133 z" id="svg_8"/><path d="M500.06931842729574,22.333927063282133 l-23.625409796233416,-12.00743580146263 c1.5308642068718634,-4.435960037363451 -0.7626487139688933,-7.349918585251492 -3.651806980756156,-8.64072997505975 c-3.7631425594377474,-1.6857611434063067 -8.673041579295866,-0.8958616362102091 -10.515645406476184,1.6953940642257712 c-1.3861279545857972,1.9506664659415827 -1.324893386310922,3.564180703201905 -1.0242873238706294,4.575637389245688 c0.6290460195509844,2.1336919615114107 2.677620667292242,3.19812971206225 2.9114253825235807,3.3137247618958265 c0.9296520819912778,0.45756373892456903 2.1098092160161332,0.17820903516009556 2.6330864358196067,-0.6213233928554681 c0.5288439987375535,-0.7995324280155626 0.20597082056094196,-1.8206220348788116 -0.7181144824962564,-2.278185773803381 c-0.01113355786815902,-0.0048164604097323226 -0.8572839558482448,-0.4768295805634991 -1.0855218921455037,-1.2378303253012022 c-0.1670033680223856,-0.558709407528948 0.02783389467039759,-1.2330138648914692 0.5733782302101894,-1.9988310700389067 c0.7069809246280985,-0.9970073048145868 3.3623344761840213,-1.411222900051565 5.4498765764638355,-0.4768295805634991 c2.649786772621844,1.184849260794147 2.2990796997748357,3.5400984011532426 1.4417957439265918,5.428150881768304 l-15.943254867203697,11.983353499413967 H277.8156694841717 l-26.2362291163167,-14.916577888940944 c-0.645746356353223,-0.36605099113965583 -1.4751964175310686,-0.36605099113965583 -2.120942773884292,0 l-26.2362291163167,14.916577888940944 H44.51196435689971 l-15.943254867203697,-11.983353499413967 c-0.8517171769141654,-1.8880524806150636 -1.2024242497611732,-4.2384851605644265 1.4417957439265918,-5.428150881768304 c2.0875421002798142,-0.9343933194880675 4.73732887290166,-0.5201777242510888 5.4498765764638355,0.4768295805634991 c0.5399775566057124,0.756184284327973 0.7292480403644167,1.4208558208710298 0.5789450091442684,1.9747487679902445 c-0.2171043784291011,0.7754501259669011 -1.0632547764091858,1.2474632461206665 -1.113355786815901,1.2715455481693276 c-0.9129517451890395,0.4623801993343015 -1.2246913654974911,1.4738368853780854 -0.695847366759939,2.2685528529839156 c0.5288439987375535,0.8043488884252954 1.709001132762409,1.0788871317800355 2.6330864358196067,0.6213233928554681 c0.22823793629726014,-0.11559504983357545 2.282379362972597,-1.1800328003844145 2.9114253825235807,-3.3137247618958265 c0.30060606244029375,-1.011456686043784 0.3618406307151687,-2.6249709233041054 -1.0242873238706294,-4.575637389245688 c-1.8370370482462368,-2.5864392400262464 -6.758069625972516,-3.381155207632078 -10.515645406476184,-1.6953940642257712 c-2.8835914878531828,1.2908113898082574 -5.17710440869394,4.2047699376963 -3.651806980756156,8.64072997505975 l-23.625409796233416,12.00743580146263 C0.36184063071515665,22.63736406909528 -8.771499424227578e-15,23.200889937033942 0.011133557868149034,23.80294748825048 c0.01113355786815902,0.6020575512165386 0.4008080832537248,1.1559504983357534 1.0187205449365493,1.4401216625099593 l24.499394088883893,11.395745329426628 c-1.5586981015422612,2.4034137444564188 -1.8927048375870332,4.898340236697751 -0.7960493875733698,6.815291479771207 c0.6346127984850639,1.1126023546481625 2.3102132576429946,2.9621231519853675 6.412929332059591,2.9621231519853675 c0.07236812614303369,0 0.14473625228606743,0 0.2171043784291011,0 c2.738855235567116,-0.0433481436875909 4.264152663504901,-1.1029694338286975 5.06020205107827,-1.9843816888097092 c2.198877678961405,-2.4371289673245453 1.302626270574605,-6.073556576672432 1.1912906918930144,-6.4781392510899485 c-0.23937149416541897,-0.8958616362102091 -1.2747923759042066,-1.4545710437391564 -2.3102132576429946,-1.2474632461206665 c-1.0354208817387884,0.2071077976184893 -1.6867340170260903,1.1029694338286975 -1.4529293017947509,1.9988310700389067 c0.1670033680223856,0.6357727740846644 0.4286419779241229,2.673135527401428 -0.478742988330838,3.6749592926257484 c-0.1503030312201469,0.16375965393089856 -0.6067789038146658,0.6694879969527904 -2.076408542411656,0.6935702990014525 c-1.1022222289477421,0.01926584163892923 -2.5551515307424926,-0.15894319352116643 -3.0951290873482047,-1.0981529734189652 c-0.5399775566057124,-0.9488427007172644 -0.26163860990173676,-2.793547037644736 1.541997764740023,-4.8164604097323025 l14.913400764398991,-11.76179632056628 h178.59340176313864 l26.25292945311894,14.054431475598856 c0.31173962030845265,0.16857611434063074 0.662446693155461,0.2504559413060801 1.0187205449365493,0.2504559413060801 c0.3507070728470098,0 0.7069809246280985,-0.08187982696544929 1.0187205449365493,-0.2504559413060801 l26.25292945311894,-14.054431475598856 H456.37567057370586 l14.913400764398991,11.76179632056628 c1.8036363746417614,2.0180969116778353 2.081975321345735,3.8676177090150388 1.541997764740023,4.8164604097323025 c-0.5344107776716333,0.9392097798978 -1.9817733005323044,1.1222352754676266 -3.0951290873482047,1.0981529734189652 c-1.46406285966291,-0.024082302048661554 -1.926105511191509,-0.5249941846608215 -2.076408542411656,-0.6935702990014525 c-0.9129517451890395,-1.001823765224319 -0.645746356353223,-3.039186518541084 -0.478742988330838,-3.6749592926257484 c0.23937149416541897,-0.8958616362102091 -0.40637486218780466,-1.791723272420417 -1.4473625228606708,-1.9988310700389067 c-1.0354208817387884,-0.2119242580282217 -2.076408542411656,0.35160160991045886 -2.321346815511153,1.2474632461206665 c-0.11133557868159047,0.40458267441751433 -1.0020202081343121,4.041010283765403 1.1912906918930144,6.4781392510899485 c0.7960493875733698,0.8814122549810115 2.315780036577074,1.941033545122118 5.06020205107827,1.9843816888097092 c0.07236812614303369,0 0.14473625228606743,0 0.2171043784291011,0 c4.097149295482516,0 5.7727497546404445,-1.8447043369274727 6.412929332059591,-2.9621231519853675 c1.096655450013663,-1.9169512430734574 0.7626487139688933,-4.411877735314789 -0.7960493875733698,-6.815291479771207 l24.499394088883893,-11.395745329426628 c0.6123456827487453,-0.2841711641742065 1.0020202081343121,-0.8380641112934214 1.0187205449365493,-1.4401216625099593 C501.0323711828916,23.200889937033942 500.6705305521764,22.63736406909528 500.06931842729574,22.333927063282133 zM28.01203159628805,34.004210636063505 l-22.127946262966024,-10.292775895597929 l20.842020329193666,-10.596212901411068 l11.896206582127899,8.944166980872888 H31.853109060802915 c-0.8517171769141654,-2.6153380024846413 -3.6017059703494407,-4.5467386267872945 -6.886105541456348,-4.5467386267872945 c-3.963546601064608,0 -7.186711603896639,2.788730577235004 -7.186711603896639,6.218050388964402 c0,3.4293198117293997 3.2231650028320336,6.218050388964402 7.186711603896639,6.218050388964402 c3.289966350040988,0 6.039955143476264,-1.9314006243026536 6.886105541456348,-4.5467386267872945 h7.06980924628097 L28.01203159628805,34.004210636063505 zM28.28480376405795,23.73070058210453 c0,1.5846154748019285 -1.4918967543333073,2.8754268646101853 -3.3233670236454653,2.8754268646101853 c-1.8314702693121574,0 -3.3233670236454653,-1.2908113898082574 -3.3233670236454653,-2.8754268646101853 c0,-1.5846154748019285 1.4918967543333073,-2.8754268646101853 3.3233670236454653,-2.8754268646101853 C26.79290700972464,20.85527371749434 28.28480376405795,22.141268646892843 28.28480376405795,23.73070058210453 zM250.5161855914458,36.07047215183867 l-23.129966471100342,-12.383119713421749 L250.5161855914458,10.538415519847732 l23.129966471100342,13.148936918569186 L250.5161855914458,36.07047215183867 zM473.0203395866035,34.004210636063505 l-10.910886710795825,-8.602198291781892 h7.06980924628097 c0.8517171769141654,2.6153380024846413 3.6017059703494407,4.5467386267872945 6.886105541456348,4.5467386267872945 c3.963546601064608,0 7.186711603896639,-2.788730577235004 7.186711603896639,-6.218050388964402 c0,-3.4293198117293997 -3.2231650028320336,-6.218050388964402 -7.186711603896639,-6.218050388964402 c-3.289966350040988,0 -6.039955143476264,1.9314006243026536 -6.886105541456348,4.5467386267872945 h-6.769203183840675 l11.896206582127899,-8.944166980872888 l20.842020329193666,10.596212901411068 L473.0203395866035,34.004210636063505 zM472.7475674188336,23.73070058210453 c0,-1.5846154748019285 1.4918967543333073,-2.8754268646101853 3.3233670236454653,-2.8754268646101853 c1.8314702693121574,0 3.3233670236454653,1.2908113898082574 3.3233670236454653,2.8754268646101853 c0,1.5846154748019285 -1.4918967543333073,2.8754268646101853 -3.3233670236454653,2.8754268646101853 C474.2394641731669,26.601310986304966 472.7475674188336,25.315316056906426 472.7475674188336,23.73070058210453 z" id="svg_9"/><path d="M249.45293081503667,14.006267014854988 l-14.640628596629096,8.32284358801742 c-0.5511111144738717,0.3130699266326003 -0.8795510715845627,0.8476970321128862 -0.8684175137164035,1.4208558208710298 c0.01113355786815902,0.5683423283484126 0.35627385178108917,1.0981529734189652 0.9129517451890395,1.396773518822368 l14.640628596629096,7.836381086634457 C249.80920466681766,33.156513603950614 250.1654785185988,33.23839343091607 250.5161855914458,33.23839343091607 c0.3507070728470098,0 0.7069809246280985,-0.08187982696544929 1.0187205449365493,-0.2504559413060801 l14.640628596629096,-7.836381086634457 c0.5622446723420305,-0.2986205454034037 0.9073849662549605,-0.8284311904739565 0.9129517451890395,-1.396773518822368 c0.01113355786815902,-0.5683423283484126 -0.3173063992425322,-1.1077858942384298 -0.8684175137164035,-1.4208558208710298 l-14.640628596629096,-8.32284358801742 C250.9336940115018,13.640216023715329 250.09867717138982,13.640216023715329 249.45293081503667,14.006267014854988 zM261.56624177559365,23.68735243841693 L250.5161855914458,29.601965821568175 l-11.050056184147813,-5.914613383151266 L250.5161855914458,17.40668806412601 L261.56624177559365,23.68735243841693 z" id="svg_10"/></g></g></g></svg>