<svg xmlns="http://www.w3.org/2000/svg" xmlns:xlink="http://www.w3.org/1999/xlink" version="1.1" enable-background="new 0 0 100 100" xml:space="preserve" width="498" height="27"><rect id="backgroundrect" width="100%" height="100%" x="0" y="0" fill="none" stroke="none" class="" style=""/><g class="currentLayer" style=""><title>Layer 1</title><g id="svg_1" class=""><path d="M492.9232638205087,3.0056629522734752 c-14.940076509475709,17.59278112411499 -37.27573906517029,6.6345190258026125 -55.282143569946285,1.4283794078826908 c-15.331639976501465,-4.434042640686036 -27.823066072463988,-2.6030698089599613 -42.28885443878174,3.794305145263674 c-9.51885273361206,4.2134435043334975 -18.717836719512942,8.564761468887328 -29.36174504852295,8.36070726776123 c-9.414068143844604,-0.18199428749084487 -18.55790234565735,-3.7170954475402853 -27.332232994079593,-6.783423442840576 c-14.59263286972046,-5.101355028152466 -28.738552488327027,-9.331343467712404 -44.18600701141358,-5.553583257675172 c-17.37218198776245,4.246533374786377 -32.472192871093746,15.066921012878419 -50.75434629631042,15.78386820602417 c-18.861226158142088,0.7390071067810059 -36.68012139701843,-7.985688735961914 -55.11669421768188,-10.55015369606018 c-5.983751573562622,-0.8327617397308352 -12.028167909622193,-1.1471155090332035 -18.03949437522888,-0.3033238124847414 c-10.313009624481202,1.4559542999267578 -19.793257509231566,7.2025618019104005 -30.23311163711548,7.7871495132446285 c-16.649719816207888,0.932031351089478 -31.41331701660156,-10.070350574493409 -48.294665925979615,-7.6603050098419185 c-10.103440444946289,1.4394093647003174 -19.24175966835022,6.69518378829956 -29.41137985420227,7.726484750747681 c-11.873748514175416,1.2022652931213382 -21.933069131851195,-4.389922813415527 -33.30495461082458,-6.458039716720581 c-11.211951105117798,-2.040542011260987 -23.333873647689817,0.45774320793151874 -28.766127380371096,11.344310586929321 c-0.5514978408813476,1.1029956817626954 1.0092410488128665,2.040542011260987 1.660008501052857,0.970636199951172 c11.614544528961181,-18.960495769500735 37.011020101547246,-2.250111190795899 52.72319358825684,-0.6507674522399907 c18.910860963821413,1.9247274646759047 34.40243531417847,-11.283645824432371 53.765524507522585,-6.739303615570068 c15.772838249206545,3.7060654907226582 27.867185899734498,8.923235065460206 44.07019246482849,4.0479941520690925 c9.309283554077151,-2.801609031677246 17.741685541152954,-6.06096127128601 27.72931143951416,-5.6252779769897465 c9.893871265411377,0.4301683158874514 19.451328847885133,3.0497830600738527 28.970181581497194,5.581158149719238 c14.476818323135376,3.8439399509429952 29.212840631484983,7.605155225753784 44.22461186027527,4.704276582717896 c17.978829612731932,-3.468921419143678 33.74063790512085,-15.883137817382812 52.39780986213684,-16.318821111679082 c17.692050735473632,-0.4136233806610109 33.37664933013916,9.480247884750368 50.36829780769347,12.789234930038452 c14.664327589035038,2.856758815765381 26.471896362304687,-1.2794749908447267 39.768509305953984,-7.136382061004639 c12.838869735717775,-5.652852869033813 24.10597062492371,-8.410342073440551 38.03680608558655,-4.665671733856202 c9.463702949523928,2.5479200248718263 18.519297496795655,6.7448185939788825 28.258749366760252,8.244892721176148 c12.712025232315064,1.9578173351287846 26.36711177253723,-0.15993437385559095 33.91711721420288,-11.410490327835083 C497.8426245611703,3.6288555124693964 494.5777573431527,1.0533605955535101 492.9232638205087,3.0056629522734752 z" id="svg_2"/></g></g></svg>