<svg width="21px" height="19px" viewBox="0 0 21 19" version="1.1" xmlns="http://www.w3.org/2000/svg" xmlns:xlink="http://www.w3.org/1999/xlink">
    <path d="M18,3.2 L18,3.8 C18,3.91045695 17.9104569,4 17.8,4 L3.2,4 C3.08954305,4 3,3.91045695 3,3.8 L3,3.2 L3,3.2 C3,3.08954305 3.08954305,3 3.2,3 L17.8,3 C17.9104569,3 18,3.08954305 18,3.2 L18,3.2 Z M18,15.2 L18,15.8 C18,15.9104569 17.9104569,16 17.8,16 L3.2,16 C3.08954305,16 3,15.9104569 3,15.8 L3,15.2 C3,15.0895431 3.08954305,15 3.2,15 L17.8,15 C17.9104569,15 18,15.0895431 18,15.2 Z M1.2,6 L19.8,6 C19.9104569,6 20,6.08954305 20,6.2 L20,12.8 L20,12.8 C20,12.9104569 19.9104569,13 19.8,13 L1.2,13 C1.08954305,13 1,12.9104569 1,12.8 L1,6.2 L1,6.2 C1,6.08954305 1.08954305,6 1.2,6 L1.2,6 Z M2,7 L2,12 L19,12 L19,7 L2,7 Z" id="full-width-path"></path>
</svg>
