<svg width="19px" height="19px" viewBox="0 0 19 19" version="1.1" xmlns="http://www.w3.org/2000/svg" xmlns:xlink="http://www.w3.org/1999/xlink">
    <path d="M17,3.2 L17,3.8 L17,3.8 C17,3.91045695 16.9104569,4 16.8,4 L2.2,4 C2.08954305,4 2,3.91045695 2,3.8 L2,3.2 L2,3.2 C2,3.08954305 2.08954305,3 2.2,3 L16.8,3 C16.9104569,3 17,3.08954305 17,3.2 L17,3.2 Z M17,15.2 L17,15.8 L17,15.8 C17,15.9104569 16.9104569,16 16.8,16 L2.2,16 C2.08954305,16 2,15.9104569 2,15.8 L2,15.2 C2,15.0895431 2.08954305,15 2.2,15 L16.8,15 C16.9104569,15 17,15.0895431 17,15.2 L17,15.2 Z M4.2,6 L14.8,6 C14.9104569,6 15,6.08954305 15,6.2 L15,12.8 L15,12.8 C15,12.9104569 14.9104569,13 14.8,13 L4.2,13 C4.08954305,13 4,12.9104569 4,12.8 L4,6.2 C4,6.08954305 4.08954305,6 4.2,6 Z M5,7 L5,12 L14,12 L14,7 L5,7 Z" id="small-size-path"></path>
</svg>
