<svg id="svg" version="1.1" xmlns="http://www.w3.org/2000/svg" xmlns:xlink="http://www.w3.org/1999/xlink" width="400" height="276.54320987654324" viewBox="0, 0, 400,276.54320987654324"><g id="svgg"><path id="path0" d="M153.112 6.088 C 149.481 6.533,143.901 9.550,142.203 11.986 C 141.973 12.316,141.483 12.926,141.114 13.342 C 139.974 14.627,138.602 17.348,137.937 19.646 C 137.415 21.447,137.204 118.693,137.720 119.318 C 137.867 119.495,138.075 120.138,138.182 120.747 C 138.735 123.868,142.134 128.568,145.373 130.692 C 146.852 131.660,148.567 132.503,149.060 132.503 C 149.326 132.503,149.679 132.639,149.844 132.804 C 150.977 133.937,239.522 134.572,246.196 133.495 C 248.516 133.121,251.283 132.230,251.834 131.679 C 251.989 131.524,252.448 131.397,252.853 131.397 C 253.807 131.397,257.082 127.858,258.783 124.989 C 258.935 124.732,259.418 123.922,259.856 123.188 C 260.295 122.454,260.753 121.418,260.875 120.885 C 260.998 120.353,261.227 119.419,261.386 118.811 C 261.898 116.847,261.789 22.912,261.272 20.930 C 261.044 20.054,260.858 19.150,260.858 18.921 C 260.858 18.269,258.767 14.244,257.902 13.233 C 255.180 10.047,253.490 8.858,248.271 6.457 C 247.105 5.920,157.321 5.573,153.112 6.088 M230.118 9.025 C 231.412 9.284,231.179 9.521,229.115 10.044 C 228.088 10.305,226.812 10.638,226.279 10.785 C 225.688 10.948,214.650 11.054,197.924 11.058 C 171.390 11.065,170.477 11.082,168.602 11.618 C 166.267 12.284,164.362 13.252,164.165 13.871 C 164.085 14.121,162.719 15.576,161.130 17.103 C 158.233 19.887,157.813 20.527,157.111 23.237 C 156.967 23.791,156.857 39.192,156.853 59.274 L 156.846 94.344 155.947 95.338 C 154.901 96.495,154.111 97.344,149.558 102.205 C 147.709 104.179,145.450 106.597,144.537 107.579 C 141.152 111.219,140.754 111.572,140.497 111.167 C 140.365 110.957,140.255 91.009,140.252 66.528 L 140.247 22.268 140.857 20.194 C 142.567 14.375,147.766 9.832,153.527 9.121 C 155.451 8.884,228.950 8.791,230.118 9.025 M244.430 14.110 C 247.060 14.652,248.394 15.103,249.020 15.660 C 249.369 15.970,250.359 16.681,251.220 17.239 C 252.964 18.370,254.354 19.958,254.815 21.349 C 254.982 21.855,255.268 22.393,255.449 22.545 C 255.631 22.697,256.206 23.625,256.728 24.608 L 257.676 26.394 257.676 72.187 L 257.676 117.981 256.746 119.779 C 256.235 120.768,255.657 121.763,255.463 121.992 C 255.269 122.220,254.780 123.046,254.375 123.827 C 253.971 124.609,253.428 125.439,253.169 125.672 C 252.372 126.387,248.069 129.165,246.751 129.815 L 245.505 130.429 210.963 130.508 C 173.037 130.595,171.878 130.559,169.571 129.214 C 164.706 126.378,164.281 125.990,162.110 122.393 C 161.582 121.518,160.992 120.644,160.798 120.450 C 159.973 119.625,159.900 115.657,159.902 71.508 C 159.903 28.508,159.968 24.567,160.684 24.073 C 161.006 23.851,162.932 20.861,162.934 20.580 C 162.938 20.032,165.222 17.712,166.457 17.002 C 167.181 16.586,168.025 16.018,168.333 15.740 C 168.812 15.309,171.103 14.471,173.029 14.024 C 174.207 13.750,243.089 13.833,244.430 14.110 M206.312 20.678 C 206.085 20.944,205.748 21.868,205.562 22.731 C 205.273 24.078,205.113 24.339,204.427 24.578 C 203.789 24.800,203.594 25.068,203.457 25.914 C 203.192 27.539,202.875 28.120,201.962 28.659 C 201.141 29.145,200.553 30.255,200.553 31.321 C 200.553 31.614,200.183 32.225,199.730 32.678 C 199.277 33.130,198.778 33.979,198.621 34.563 C 198.460 35.161,197.860 36.099,197.247 36.712 C 196.511 37.448,196.052 38.227,195.827 39.122 C 195.561 40.176,195.339 40.498,194.726 40.712 C 194.036 40.952,193.925 41.176,193.632 42.908 C 193.363 44.503,193.172 44.936,192.529 45.412 C 192.101 45.728,191.546 46.522,191.296 47.177 C 191.047 47.831,190.660 48.517,190.437 48.702 C 189.984 49.078,189.421 50.240,188.939 51.794 C 188.763 52.362,188.323 53.059,187.961 53.344 C 187.600 53.628,187.070 54.476,186.784 55.229 C 186.498 55.982,185.932 57.086,185.527 57.682 C 184.242 59.573,184.318 59.591,194.187 59.751 C 199.487 59.837,202.848 59.997,203.023 60.174 C 203.213 60.364,203.332 70.305,203.383 90.105 C 203.442 113.563,203.531 119.824,203.808 120.101 C 204.290 120.583,209.212 120.757,210.740 120.345 C 213.051 119.723,212.935 121.567,212.980 84.647 C 212.998 70.117,213.113 60.556,213.272 60.304 C 213.492 59.955,214.749 59.876,221.208 59.807 C 226.559 59.750,229.000 59.627,229.272 59.401 C 230.020 58.781,229.359 55.045,228.318 54.004 C 228.118 53.804,227.820 53.117,227.656 52.477 C 227.188 50.646,227.154 50.591,226.296 50.267 C 225.497 49.966,224.945 48.968,224.464 46.954 C 224.364 46.534,223.922 45.934,223.482 45.621 C 223.043 45.308,222.683 44.811,222.683 44.517 C 222.683 43.765,221.806 42.215,220.798 41.183 C 220.328 40.703,219.869 39.967,219.776 39.547 C 219.684 39.128,219.383 38.580,219.107 38.331 C 218.831 38.081,218.445 37.120,218.249 36.197 C 217.871 34.417,217.781 34.284,216.425 33.481 C 215.724 33.065,215.525 32.729,215.369 31.689 C 215.225 30.725,214.946 30.198,214.240 29.555 C 213.550 28.928,213.254 28.381,213.120 27.488 C 212.948 26.343,211.792 24.896,211.049 24.896 C 210.911 24.896,210.723 24.554,210.630 24.136 C 210.283 22.578,210.179 22.392,209.445 22.012 C 209.032 21.799,208.522 21.302,208.311 20.909 C 207.864 20.073,206.921 19.964,206.312 20.678 M18.949 145.084 C 16.905 145.452,14.816 146.190,14.086 146.800 C 13.846 147.000,13.512 147.165,13.344 147.165 C 11.430 147.165,4.979 154.866,4.979 157.152 C 4.979 157.455,4.761 158.102,4.495 158.589 C 4.040 159.421,4.006 162.323,3.933 206.526 C 3.848 257.755,3.884 258.978,5.559 261.976 C 9.060 268.237,13.055 271.160,19.917 272.480 C 21.533 272.791,110.353 272.786,112.172 272.475 C 116.849 271.675,118.806 270.602,122.822 266.636 C 126.588 262.915,127.097 261.981,128.077 256.985 C 128.424 255.216,128.415 161.985,128.067 160.581 C 127.917 159.972,127.674 158.884,127.528 158.163 C 126.246 151.826,119.324 145.820,112.317 144.962 C 108.663 144.515,21.474 144.628,18.949 145.084 M152.420 145.059 C 146.577 145.977,138.313 153.106,138.313 157.227 C 138.313 157.436,138.130 158.125,137.906 158.759 C 137.243 160.638,137.244 256.535,137.907 258.835 C 140.056 266.292,145.553 271.135,153.389 272.475 C 155.218 272.788,244.037 272.790,245.643 272.477 C 249.201 271.784,250.448 271.380,251.407 270.609 C 251.969 270.157,252.738 269.691,253.116 269.572 C 254.283 269.205,256.708 267.527,256.708 267.086 C 256.708 266.856,257.118 266.201,257.620 265.630 C 258.719 264.378,259.428 263.302,260.127 261.826 C 260.622 260.780,260.760 260.306,261.399 257.469 C 262.012 254.745,261.752 161.758,261.124 159.097 C 260.614 156.937,260.109 155.526,259.428 154.357 C 259.295 154.129,259.009 153.558,258.793 153.089 C 258.402 152.243,255.678 149.525,253.899 148.207 C 251.794 146.646,248.782 145.372,246.281 144.984 C 243.391 144.535,155.307 144.606,152.420 145.059 M286.030 145.072 C 284.737 145.257,283.306 145.615,282.849 145.869 C 282.393 146.123,281.937 146.332,281.836 146.333 C 281.735 146.334,280.766 146.846,279.683 147.471 C 275.642 149.800,272.511 153.944,271.343 158.507 C 270.564 161.549,270.667 256.962,271.452 259.474 C 273.394 265.692,278.233 270.345,284.498 272.020 L 286.722 272.614 332.918 272.614 L 379.115 272.614 381.364 271.987 C 383.650 271.350,385.209 270.697,385.476 270.265 C 385.557 270.134,386.065 269.881,386.605 269.703 C 388.802 268.977,391.889 266.500,392.080 265.310 C 392.176 264.709,392.690 263.381,393.223 262.360 C 393.755 261.338,394.193 260.302,394.195 260.057 C 394.197 259.813,394.379 259.115,394.598 258.506 C 395.209 256.810,395.220 161.462,394.609 159.449 C 394.382 158.702,394.196 157.881,394.194 157.623 C 394.175 154.605,386.704 146.335,383.996 146.335 C 383.894 146.335,383.375 146.104,382.845 145.823 C 380.771 144.721,378.629 144.674,332.623 144.706 C 299.606 144.729,287.785 144.822,286.030 145.072 M97.649 147.718 C 97.649 147.870,97.427 147.994,97.157 147.994 C 96.887 147.994,96.379 148.195,96.029 148.440 C 94.120 149.777,94.413 149.763,64.039 149.921 C 38.182 150.055,35.457 150.112,34.578 150.531 C 34.046 150.785,33.340 151.071,33.011 151.165 C 31.999 151.455,25.002 158.617,24.288 160.093 L 23.651 161.411 23.579 196.957 C 23.501 234.868,23.554 233.432,22.215 234.600 C 21.940 234.840,21.171 235.649,20.506 236.398 C 19.841 237.147,17.165 239.986,14.559 242.707 C 11.953 245.427,9.301 248.211,8.667 248.891 C 8.032 249.572,7.378 250.046,7.214 249.944 C 6.567 249.544,6.820 160.813,7.475 158.763 C 9.262 153.171,12.972 149.596,18.672 147.974 C 20.632 147.416,97.649 147.166,97.649 147.718 M231.259 147.718 C 231.259 147.870,230.975 147.994,230.629 147.994 C 230.282 147.994,229.691 148.212,229.315 148.479 C 227.526 149.744,227.485 149.746,197.372 149.912 C 171.551 150.054,168.789 150.112,167.911 150.530 C 167.379 150.784,166.539 151.141,166.044 151.325 C 165.550 151.508,165.145 151.767,165.145 151.901 C 165.145 152.034,164.917 152.362,164.639 152.628 C 157.867 159.100,157.897 159.064,157.112 162.102 C 156.970 162.653,156.857 178.079,156.850 197.878 C 156.840 227.637,156.780 232.792,156.440 233.424 C 155.976 234.283,155.423 234.895,149.609 240.974 C 147.225 243.466,144.274 246.562,143.050 247.854 C 141.489 249.501,140.737 250.115,140.533 249.910 C 139.904 249.281,140.306 160.006,140.946 158.230 C 142.799 153.084,147.029 149.251,152.278 147.959 C 154.563 147.397,231.259 147.163,231.259 147.718 M364.592 147.718 C 364.592 147.870,364.371 147.994,364.100 147.994 C 363.830 147.994,363.357 148.171,363.049 148.386 C 361.077 149.768,361.218 149.761,330.705 149.920 C 304.258 150.058,302.149 150.104,301.328 150.553 C 300.841 150.820,300.248 151.037,300.011 151.037 C 299.290 151.037,291.518 158.917,291.074 160.097 C 290.264 162.256,290.212 164.486,290.196 198.372 L 290.180 233.120 289.557 233.916 C 289.215 234.353,288.748 234.905,288.520 235.142 C 288.292 235.379,286.176 237.609,283.817 240.097 C 275.043 249.355,274.232 250.161,273.906 249.960 C 273.661 249.808,273.582 238.988,273.582 205.427 L 273.582 161.093 274.263 158.821 C 275.936 153.231,279.793 149.487,285.430 147.983 C 287.587 147.408,364.592 147.150,364.592 147.718 M110.469 153.094 C 112.400 153.367,113.365 153.638,113.788 154.025 C 114.116 154.325,115.097 154.968,115.968 155.454 C 117.627 156.380,120.045 158.795,120.789 160.269 C 121.030 160.745,121.452 161.383,121.727 161.687 C 123.318 163.445,123.220 160.428,123.305 210.719 C 123.374 251.284,123.333 256.825,122.964 257.709 C 122.733 258.261,122.545 258.928,122.545 259.193 C 122.545 259.457,122.110 260.220,121.579 260.888 C 121.048 261.556,120.613 262.214,120.611 262.350 C 120.604 263.023,118.326 265.243,116.305 266.546 C 114.594 267.650,113.961 268.229,113.726 268.904 L 113.414 269.800 76.970 269.610 C 35.237 269.394,37.496 269.524,34.331 267.158 C 33.358 266.431,32.480 265.837,32.380 265.837 C 32.040 265.837,29.804 263.489,29.482 262.794 C 28.807 261.336,27.900 260.082,27.431 259.959 C 26.385 259.686,26.277 255.072,26.278 211.025 C 26.280 161.667,26.133 164.622,28.769 160.719 C 29.026 160.339,29.439 159.636,29.686 159.158 C 30.342 157.891,31.571 156.757,33.391 155.743 C 34.272 155.251,35.318 154.546,35.714 154.174 C 37.161 152.820,38.884 152.756,74.827 152.731 C 101.594 152.712,108.254 152.780,110.469 153.094 M243.845 153.075 C 245.786 153.355,246.609 153.619,247.580 154.273 C 248.264 154.735,249.322 155.425,249.931 155.806 C 252.543 157.446,255.255 161.028,256.266 164.177 C 257.010 166.491,256.935 256.223,256.188 258.344 C 254.979 261.778,252.632 264.669,249.242 266.901 C 245.344 269.467,248.890 269.249,209.267 269.361 C 171.624 269.467,170.257 269.423,169.018 268.080 C 168.790 267.832,167.918 267.205,167.082 266.686 C 164.875 265.317,163.589 264.002,162.465 261.964 C 161.920 260.975,161.249 259.917,160.975 259.613 C 160.701 259.308,160.344 258.250,160.182 257.261 C 159.858 255.283,159.754 167.616,160.073 165.234 C 160.376 162.973,164.682 156.320,165.857 156.299 C 166.020 156.296,167.078 155.654,168.208 154.872 C 170.103 153.562,170.456 153.425,172.752 153.107 C 176.437 152.598,240.335 152.570,243.845 153.075 M377.870 153.081 C 381.695 153.623,386.320 156.656,387.911 159.665 C 388.288 160.378,388.859 161.331,389.181 161.782 C 389.502 162.233,389.765 162.722,389.765 162.868 C 389.765 163.015,390.045 163.490,390.387 163.925 L 391.010 164.717 391.010 210.943 L 391.010 257.169 390.210 258.667 C 389.770 259.492,389.194 260.415,388.930 260.719 C 388.666 261.024,388.307 261.718,388.133 262.264 C 387.754 263.450,386.130 265.104,383.679 266.801 C 379.609 269.619,382.283 269.450,342.045 269.438 C 301.342 269.426,304.187 269.634,300.215 266.382 C 300.029 266.230,299.578 265.992,299.213 265.853 C 297.600 265.240,293.857 259.221,293.484 256.640 C 293.146 254.300,293.147 167.145,293.486 165.078 C 293.713 163.693,294.499 162.150,295.776 160.581 C 295.900 160.429,296.288 159.744,296.639 159.059 C 297.863 156.668,302.893 153.532,306.224 153.083 C 309.906 152.587,374.378 152.585,377.870 153.081 M206.565 160.467 C 203.959 160.849,202.828 161.245,202.249 161.981 C 201.907 162.416,201.164 162.816,200.260 163.050 C 199.234 163.316,198.621 163.675,198.139 164.290 C 197.767 164.767,197.115 165.335,196.692 165.554 C 196.252 165.782,195.671 166.487,195.336 167.200 C 195.002 167.911,194.419 168.618,193.983 168.844 C 193.190 169.254,191.978 171.101,191.978 171.900 C 191.978 172.151,191.556 172.605,191.040 172.909 C 190.034 173.503,189.710 174.336,189.323 177.317 C 189.114 178.927,188.311 180.473,186.918 181.944 C 186.107 182.800,186.064 182.972,185.859 186.093 C 185.564 190.605,185.383 191.649,184.841 191.952 C 182.964 193.003,182.904 230.838,184.772 236.515 C 185.218 237.871,185.673 240.099,185.847 241.781 C 186.200 245.204,186.624 246.361,187.997 247.657 C 189.048 248.649,189.754 250.201,189.761 251.540 C 189.766 252.604,190.220 253.365,191.031 253.674 C 191.405 253.816,191.841 254.277,191.999 254.698 C 192.341 255.606,194.151 257.538,194.660 257.538 C 194.856 257.538,195.235 257.996,195.503 258.556 C 195.945 259.481,196.138 259.604,197.615 259.896 C 198.642 260.100,199.407 260.428,199.690 260.786 C 201.864 263.537,212.191 263.863,214.791 261.262 C 215.272 260.782,215.968 260.317,216.339 260.231 C 218.211 259.792,219.553 259.076,220.438 258.042 C 220.964 257.428,221.936 256.692,222.598 256.409 C 223.260 256.125,223.847 255.734,223.903 255.540 C 224.924 252.000,225.181 251.428,226.117 250.606 C 226.663 250.127,227.109 249.504,227.109 249.221 C 227.109 248.938,227.346 248.049,227.635 247.244 C 230.662 238.823,231.139 232.742,228.823 232.099 C 226.518 231.459,224.066 231.999,224.066 233.147 C 224.066 235.069,223.050 239.822,222.166 242.034 C 221.586 243.486,221.029 245.282,220.929 246.025 C 220.558 248.788,220.188 249.538,218.931 250.077 C 217.935 250.504,217.749 250.719,217.586 251.635 C 217.258 253.484,217.149 253.644,216.015 253.950 C 215.286 254.146,214.809 254.476,214.605 254.923 C 214.082 256.071,208.223 257.064,205.408 256.483 C 204.640 256.324,203.549 256.119,202.985 256.026 C 202.279 255.910,201.777 255.602,201.376 255.038 C 201.055 254.587,200.583 254.209,200.327 254.198 C 200.071 254.187,199.488 253.940,199.032 253.648 C 198.575 253.356,197.935 252.978,197.609 252.807 C 196.978 252.477,195.725 250.204,195.412 248.824 C 195.309 248.368,194.867 247.659,194.431 247.249 C 193.995 246.840,193.638 246.288,193.638 246.024 C 193.638 245.760,193.400 244.788,193.110 243.865 C 192.820 242.941,192.388 241.376,192.151 240.387 C 191.451 237.468,190.947 235.803,190.499 234.937 C 189.820 233.623,189.448 223.526,189.602 210.612 C 189.743 198.873,189.799 198.124,190.618 196.957 C 190.900 196.556,191.227 195.280,191.399 193.914 C 191.718 191.372,191.858 190.651,192.933 186.030 C 193.521 183.500,193.774 182.871,194.433 182.296 C 195.153 181.668,195.258 181.339,195.579 178.700 C 195.934 175.785,196.479 174.550,197.411 174.550 C 197.607 174.550,197.915 174.270,198.094 173.928 C 198.274 173.586,198.590 173.206,198.796 173.084 C 199.002 172.963,199.364 172.488,199.602 172.028 C 201.536 168.288,204.851 166.527,209.941 166.534 C 214.952 166.542,217.704 167.739,217.704 169.912 C 217.704 170.119,218.212 170.781,218.832 171.382 C 220.365 172.867,220.461 173.094,220.906 176.265 C 221.217 178.483,221.520 179.482,222.430 181.287 L 223.565 183.541 223.799 190.316 C 224.089 198.712,224.119 198.754,228.997 197.593 C 230.053 197.342,230.155 196.483,229.982 189.271 C 229.829 182.909,229.771 182.314,229.147 180.707 C 228.450 178.912,228.293 178.269,227.377 173.444 C 226.653 169.630,226.681 169.700,225.576 169.047 C 225.045 168.734,224.620 168.261,224.620 167.982 C 224.620 167.052,223.804 166.260,222.656 166.077 C 221.680 165.921,221.482 165.753,220.942 164.624 C 220.337 163.357,220.068 163.179,218.179 162.796 C 217.734 162.706,217.282 162.363,217.109 161.983 C 216.943 161.619,216.485 161.259,216.081 161.176 C 211.137 160.162,209.489 160.039,206.565 160.467 M63.071 160.982 C 62.082 161.092,60.401 161.498,59.336 161.884 C 58.271 162.271,56.484 162.741,55.365 162.928 C 53.826 163.186,53.119 163.458,52.461 164.046 L 51.591 164.824 51.674 175.704 C 51.892 203.977,52.001 225.093,52.009 240.703 C 52.017 257.211,52.034 257.777,52.559 258.444 C 52.857 258.823,53.222 259.451,53.370 259.840 C 53.692 260.687,55.109 261.165,56.474 260.886 C 58.242 260.526,58.239 260.552,58.148 246.357 L 58.066 233.654 59.393 232.296 C 60.122 231.549,61.211 230.683,61.813 230.372 C 62.415 230.061,63.139 229.511,63.424 229.150 C 63.708 228.788,64.124 228.492,64.349 228.492 C 65.121 228.492,66.531 227.587,68.525 225.811 C 72.141 222.590,74.689 222.826,74.689 226.382 C 74.689 226.737,74.999 227.450,75.378 227.967 C 76.489 229.482,76.819 230.437,77.015 232.695 C 77.140 234.141,77.454 235.386,77.996 236.580 C 78.434 237.547,78.993 239.310,79.239 240.498 C 79.769 243.067,80.295 244.410,81.017 245.041 C 81.413 245.387,81.627 246.152,81.857 248.044 C 82.027 249.440,82.465 251.494,82.831 252.608 C 83.197 253.722,83.576 255.194,83.674 255.878 C 83.945 257.783,84.341 258.577,85.115 258.771 C 85.540 258.878,85.928 259.256,86.112 259.743 C 86.841 261.674,90.341 261.480,90.948 259.474 C 91.617 257.265,90.940 252.848,89.633 250.899 C 89.098 250.101,88.713 249.092,88.230 247.221 C 88.042 246.491,87.631 245.567,87.317 245.168 C 87.003 244.769,86.546 243.499,86.301 242.346 C 85.922 240.559,85.746 240.196,85.113 239.888 C 84.698 239.686,84.371 239.298,84.371 239.005 C 84.371 238.718,84.257 238.413,84.118 238.327 C 83.979 238.242,83.784 237.643,83.684 236.997 C 83.460 235.553,83.065 234.151,82.572 233.057 C 82.367 232.600,82.046 231.293,81.858 230.152 C 81.662 228.954,81.307 227.840,81.018 227.516 C 80.370 226.791,79.757 225.062,79.108 222.130 C 78.756 220.543,78.403 219.629,78.021 219.319 C 77.215 218.666,77.321 217.903,78.296 217.327 C 78.768 217.047,79.319 216.374,79.553 215.790 C 79.832 215.094,80.262 214.622,80.856 214.360 C 81.386 214.127,81.776 213.733,81.827 213.382 C 81.873 213.058,82.215 212.507,82.587 212.158 C 82.960 211.808,83.264 211.254,83.264 210.928 C 83.264 210.245,84.441 208.595,85.526 207.756 C 85.934 207.441,86.416 206.719,86.598 206.151 C 86.780 205.582,87.146 204.869,87.412 204.564 C 87.679 204.260,88.233 203.157,88.645 202.112 C 89.056 201.068,89.691 199.947,90.054 199.622 C 90.597 199.138,90.774 198.583,91.036 196.542 C 91.276 194.668,91.512 193.867,91.987 193.301 C 93.600 191.381,93.480 178.094,91.817 174.412 C 91.542 173.804,91.137 172.597,90.917 171.732 C 90.326 169.403,84.957 163.755,82.687 163.075 C 82.320 162.965,81.459 162.567,80.775 162.191 C 78.526 160.958,69.109 160.315,63.071 160.982 M322.269 161.310 C 320.531 161.664,320.658 158.493,320.489 205.947 C 320.405 229.834,320.263 251.120,320.174 253.250 C 319.761 263.144,320.251 263.732,328.354 263.061 C 330.104 262.917,336.763 262.761,343.154 262.716 C 356.737 262.620,356.560 262.651,357.129 260.279 C 358.100 256.233,357.675 256.141,339.891 256.566 C 331.130 256.775,328.272 256.605,327.317 255.818 C 327.047 255.597,326.971 252.002,326.971 239.557 C 326.971 227.108,327.047 223.520,327.317 223.304 C 328.139 222.647,331.666 222.407,340.492 222.407 L 349.679 222.407 350.358 221.728 C 350.732 221.354,351.037 220.926,351.037 220.777 C 351.037 220.628,351.539 220.224,352.153 219.879 C 355.723 217.872,352.023 215.787,345.923 216.367 C 343.410 216.606,342.441 216.601,341.732 216.345 C 341.015 216.085,340.056 216.084,337.417 216.339 C 332.253 216.839,327.847 216.334,327.226 215.173 C 326.868 214.506,326.881 168.596,327.239 167.928 C 327.645 167.169,329.126 167.082,341.569 167.082 C 356.011 167.082,355.451 167.217,355.460 163.736 C 355.466 160.940,356.719 161.134,338.715 161.134 C 330.144 161.134,322.743 161.213,322.269 161.310 M73.597 165.990 C 75.623 166.198,76.626 166.430,77.097 166.801 C 77.461 167.086,78.156 167.404,78.644 167.507 C 80.064 167.808,81.495 168.733,81.989 169.671 C 82.417 170.483,83.363 171.897,84.162 172.919 C 84.353 173.163,84.774 173.502,85.099 173.672 C 85.714 173.995,85.929 174.848,86.596 179.596 C 86.762 180.774,87.011 182.132,87.149 182.615 C 87.744 184.689,85.939 195.394,84.778 196.680 C 84.187 197.335,82.169 202.030,81.778 203.660 C 81.673 204.098,81.265 204.587,80.810 204.823 C 80.377 205.047,79.857 205.640,79.654 206.142 C 79.451 206.644,78.763 207.658,78.124 208.397 C 77.363 209.278,76.904 210.113,76.790 210.822 C 76.640 211.758,76.473 211.960,75.536 212.335 C 74.941 212.573,74.389 212.939,74.308 213.149 C 74.228 213.359,73.658 213.849,73.042 214.238 C 72.350 214.675,71.923 215.153,71.923 215.491 C 71.923 215.827,71.499 216.304,70.824 216.731 C 70.220 217.112,69.532 217.798,69.295 218.256 C 69.059 218.713,68.651 219.089,68.388 219.091 C 67.839 219.095,66.892 219.793,64.947 221.626 C 64.192 222.338,63.131 223.131,62.588 223.388 C 62.046 223.645,61.182 224.277,60.668 224.791 C 58.433 227.026,57.693 225.768,57.632 219.625 C 57.607 217.092,57.452 214.534,57.287 213.941 C 56.795 212.169,56.899 197.960,57.431 194.180 C 57.777 191.727,57.845 189.695,57.732 185.201 C 57.447 173.881,58.052 167.635,59.434 167.635 C 59.669 167.635,60.925 167.306,62.226 166.903 C 64.227 166.284,65.890 166.041,70.164 165.740 C 70.491 165.717,72.035 165.830,73.597 165.990 " stroke="none" fill="#ffffff" fill-rule="evenodd"></path><path id="path1" d="M135.299 3.976 C 134.882 4.478,135.201 5.256,135.823 5.256 C 136.095 5.256,136.395 5.053,136.490 4.806 C 136.659 4.365,136.235 3.596,135.823 3.596 C 135.708 3.596,135.472 3.767,135.299 3.976 M148.824 4.011 C 148.824 4.239,148.626 4.426,148.384 4.426 C 148.141 4.426,147.878 4.675,147.798 4.979 C 147.696 5.368,147.421 5.533,146.869 5.533 C 146.438 5.533,145.986 5.697,145.864 5.899 C 145.743 6.101,145.425 6.346,145.159 6.444 C 144.893 6.542,144.675 6.812,144.675 7.045 C 144.675 7.329,144.408 7.469,143.864 7.469 C 143.295 7.469,143.000 7.635,142.877 8.022 C 142.780 8.326,142.523 8.575,142.305 8.575 C 142.087 8.575,141.909 8.762,141.909 8.990 C 141.909 9.221,141.663 9.405,141.355 9.405 C 141.051 9.405,140.575 9.633,140.297 9.910 C 140.019 10.188,139.583 10.496,139.329 10.593 C 139.074 10.691,138.866 10.885,138.866 11.024 C 138.866 11.163,138.617 11.342,138.313 11.422 C 138.008 11.501,137.759 11.765,137.759 12.007 C 137.759 12.250,137.573 12.448,137.344 12.448 C 137.116 12.448,136.929 12.635,136.929 12.863 C 136.929 13.094,136.684 13.278,136.376 13.278 C 136.007 13.278,135.823 13.462,135.823 13.831 C 135.823 14.139,135.639 14.385,135.408 14.385 C 135.040 14.385,134.993 21.654,134.993 78.147 L 134.993 141.909 75.657 141.909 C 23.098 141.909,16.321 141.956,16.321 142.324 C 16.321 142.603,16.041 142.739,15.465 142.739 C 14.842 142.739,14.570 142.889,14.465 143.292 C 14.363 143.681,14.087 143.845,13.536 143.845 C 13.105 143.845,12.653 144.010,12.531 144.212 C 12.409 144.413,12.092 144.658,11.826 144.756 C 11.559 144.854,11.342 145.125,11.342 145.358 C 11.342 145.624,11.088 145.781,10.660 145.781 C 10.261 145.781,9.855 146.011,9.682 146.335 C 9.519 146.639,9.203 146.888,8.981 146.888 C 8.758 146.888,8.575 147.075,8.575 147.303 C 8.575 147.533,8.329 147.718,8.022 147.718 C 7.653 147.718,7.469 147.902,7.469 148.271 C 7.469 148.575,7.313 148.826,7.123 148.829 C 6.701 148.835,5.533 150.029,5.533 150.454 C 5.533 150.623,5.155 150.761,4.694 150.761 C 4.204 150.761,3.789 150.933,3.696 151.176 C 3.598 151.432,3.177 151.591,2.598 151.591 L 1.660 151.591 1.660 208.437 C 1.660 264.028,1.671 265.284,2.183 265.284 C 2.471 265.284,2.779 265.470,2.866 265.698 C 2.954 265.927,3.341 266.113,3.726 266.113 C 4.182 266.113,4.426 266.267,4.426 266.554 C 4.426 266.797,4.675 267.060,4.979 267.140 C 5.284 267.219,5.533 267.457,5.533 267.667 C 5.533 267.878,5.662 268.050,5.820 268.050 C 6.171 268.050,7.715 269.113,8.331 269.779 C 8.577 270.045,8.920 270.263,9.092 270.263 C 9.264 270.263,9.405 270.450,9.405 270.678 C 9.405 270.908,9.651 271.093,9.959 271.093 C 10.327 271.093,10.512 271.277,10.512 271.646 C 10.512 271.953,10.696 272.199,10.927 272.199 C 11.155 272.199,11.342 272.367,11.342 272.571 C 11.342 272.776,11.591 273.169,11.895 273.444 C 12.199 273.719,12.448 274.237,12.448 274.593 L 12.448 275.242 200.553 275.242 C 388.474 275.242,388.658 275.242,388.658 274.689 C 388.658 274.320,388.843 274.136,389.212 274.136 C 389.580 274.136,389.765 273.951,389.765 273.582 C 389.765 273.155,389.949 273.029,390.575 273.029 C 391.264 273.029,391.482 272.835,392.028 271.738 C 392.690 270.407,394.345 268.539,395.129 268.238 C 395.374 268.144,395.574 267.877,395.574 267.644 C 395.574 267.403,395.842 267.200,396.196 267.173 C 396.539 267.147,397.006 267.098,397.234 267.064 C 397.462 267.030,397.804 266.989,397.994 266.973 C 398.483 266.931,398.426 265.852,397.925 265.660 C 397.558 265.519,397.510 259.016,397.510 209.431 C 397.510 149.890,397.575 152.697,396.210 152.697 C 395.758 152.697,395.574 152.537,395.574 152.144 C 395.574 151.775,395.390 151.591,395.021 151.591 C 394.590 151.591,394.467 151.406,394.467 150.761 C 394.467 150.223,394.327 149.931,394.069 149.931 C 393.809 149.931,393.641 149.572,393.585 148.893 C 393.507 147.946,393.421 147.849,392.600 147.769 C 392.043 147.716,391.701 147.532,391.701 147.285 C 391.701 147.046,391.427 146.888,391.012 146.888 C 390.622 146.888,390.173 146.647,389.977 146.335 C 389.787 146.030,389.351 145.781,389.007 145.781 C 388.663 145.781,388.382 145.654,388.382 145.499 C 388.382 145.344,388.039 145.066,387.621 144.882 C 387.203 144.699,386.761 144.390,386.639 144.197 C 386.517 144.003,385.988 143.845,385.463 143.845 C 384.835 143.845,384.509 143.714,384.509 143.462 C 384.509 143.043,383.688 142.748,382.503 142.742 C 382.013 142.740,381.743 142.591,381.743 142.324 C 381.743 141.956,375.027 141.909,322.960 141.909 L 264.177 141.909 264.177 133.916 C 264.177 127.067,264.236 125.901,264.592 125.764 C 264.820 125.677,265.007 125.348,265.007 125.035 C 265.007 124.721,264.820 124.392,264.592 124.305 C 264.225 124.164,264.177 117.854,264.177 69.818 C 264.177 23.747,264.119 15.491,263.794 15.491 C 263.584 15.491,263.347 15.242,263.267 14.938 C 263.187 14.633,262.938 14.385,262.714 14.385 C 262.489 14.385,262.240 14.136,262.161 13.831 C 262.081 13.527,261.817 13.278,261.575 13.278 C 261.333 13.278,261.134 13.091,261.134 12.863 C 261.134 12.635,260.947 12.448,260.719 12.448 C 260.489 12.448,260.304 12.202,260.304 11.895 C 260.304 11.526,260.120 11.342,259.751 11.342 C 259.444 11.342,259.198 11.157,259.198 10.927 C 259.198 10.698,259.011 10.512,258.783 10.512 C 258.552 10.512,258.368 10.266,258.368 9.959 C 258.368 9.590,258.183 9.405,257.815 9.405 C 257.507 9.405,257.261 9.221,257.261 8.990 C 257.261 8.762,257.075 8.575,256.846 8.575 C 256.616 8.575,256.432 8.329,256.432 8.022 C 256.432 7.653,256.247 7.469,255.878 7.469 C 255.509 7.469,255.325 7.284,255.325 6.916 C 255.325 6.576,255.138 6.360,254.841 6.355 C 254.385 6.349,253.389 4.678,253.389 3.920 C 253.389 3.674,240.902 3.596,201.107 3.596 C 154.818 3.596,148.824 3.644,148.824 4.011 M248.271 6.457 C 253.490 8.858,255.180 10.047,257.902 13.233 C 258.767 14.244,260.858 18.269,260.858 18.921 C 260.858 19.150,261.044 20.054,261.272 20.930 C 261.789 22.912,261.898 116.847,261.386 118.811 C 261.227 119.419,260.998 120.353,260.875 120.885 C 260.753 121.418,260.295 122.454,259.856 123.188 C 259.418 123.922,258.935 124.732,258.783 124.989 C 257.082 127.858,253.807 131.397,252.853 131.397 C 252.448 131.397,251.989 131.524,251.834 131.679 C 251.283 132.230,248.516 133.121,246.196 133.495 C 239.522 134.572,150.977 133.937,149.844 132.804 C 149.679 132.639,149.326 132.503,149.060 132.503 C 148.567 132.503,146.852 131.660,145.373 130.692 C 142.134 128.568,138.735 123.868,138.182 120.747 C 138.075 120.138,137.867 119.495,137.720 119.318 C 137.204 118.693,137.415 21.447,137.937 19.646 C 138.602 17.348,139.974 14.627,141.114 13.342 C 141.483 12.926,141.973 12.316,142.203 11.986 C 143.901 9.550,149.481 6.533,153.112 6.088 C 157.321 5.573,247.105 5.920,248.271 6.457 M153.527 9.121 C 147.766 9.832,142.567 14.375,140.857 20.194 L 140.247 22.268 140.252 66.528 C 140.255 91.009,140.365 110.957,140.497 111.167 C 140.754 111.572,141.152 111.219,144.537 107.579 C 145.450 106.597,147.709 104.179,149.558 102.205 C 154.111 97.344,154.901 96.495,155.947 95.338 L 156.846 94.344 156.853 59.274 C 156.857 39.192,156.967 23.791,157.111 23.237 C 157.813 20.527,158.233 19.887,161.130 17.103 C 162.719 15.576,164.085 14.121,164.165 13.871 C 164.362 13.252,166.267 12.284,168.602 11.618 C 170.477 11.082,171.390 11.065,197.924 11.058 C 214.650 11.054,225.688 10.948,226.279 10.785 C 226.812 10.638,228.088 10.305,229.115 10.044 C 231.179 9.521,231.412 9.284,230.118 9.025 C 228.950 8.791,155.451 8.884,153.527 9.121 M173.029 14.024 C 171.103 14.471,168.812 15.309,168.333 15.740 C 168.025 16.018,167.181 16.586,166.457 17.002 C 165.222 17.712,162.938 20.032,162.934 20.580 C 162.932 20.861,161.006 23.851,160.684 24.073 C 159.968 24.567,159.903 28.508,159.902 71.508 C 159.900 115.657,159.973 119.625,160.798 120.450 C 160.992 120.644,161.582 121.518,162.110 122.393 C 164.281 125.990,164.706 126.378,169.571 129.214 C 171.878 130.559,173.037 130.595,210.963 130.508 L 245.505 130.429 246.751 129.815 C 248.069 129.165,252.372 126.387,253.169 125.672 C 253.428 125.439,253.971 124.609,254.375 123.827 C 254.780 123.046,255.269 122.220,255.463 121.992 C 255.657 121.763,256.235 120.768,256.746 119.779 L 257.676 117.981 257.676 72.187 L 257.676 26.394 256.728 24.608 C 256.206 23.625,255.631 22.697,255.449 22.545 C 255.268 22.393,254.982 21.855,254.815 21.349 C 254.354 19.958,252.964 18.370,251.220 17.239 C 250.359 16.681,249.369 15.970,249.020 15.660 C 248.394 15.103,247.060 14.652,244.430 14.110 C 243.089 13.833,174.207 13.750,173.029 14.024 M208.311 20.909 C 208.522 21.302,209.032 21.799,209.445 22.012 C 210.179 22.392,210.283 22.578,210.630 24.136 C 210.723 24.554,210.911 24.896,211.049 24.896 C 211.792 24.896,212.948 26.343,213.120 27.488 C 213.254 28.381,213.550 28.928,214.240 29.555 C 214.946 30.198,215.225 30.725,215.369 31.689 C 215.525 32.729,215.724 33.065,216.425 33.481 C 217.781 34.284,217.871 34.417,218.249 36.197 C 218.445 37.120,218.831 38.081,219.107 38.331 C 219.383 38.580,219.684 39.128,219.776 39.547 C 219.869 39.967,220.328 40.703,220.798 41.183 C 221.806 42.215,222.683 43.765,222.683 44.517 C 222.683 44.811,223.043 45.308,223.482 45.621 C 223.922 45.934,224.364 46.534,224.464 46.954 C 224.945 48.968,225.497 49.966,226.296 50.267 C 227.154 50.591,227.188 50.646,227.656 52.477 C 227.820 53.117,228.118 53.804,228.318 54.004 C 229.359 55.045,230.020 58.781,229.272 59.401 C 229.000 59.627,226.559 59.750,221.208 59.807 C 214.749 59.876,213.492 59.955,213.272 60.304 C 213.113 60.556,212.998 70.117,212.980 84.647 C 212.935 121.567,213.051 119.723,210.740 120.345 C 209.212 120.757,204.290 120.583,203.808 120.101 C 203.531 119.824,203.442 113.563,203.383 90.105 C 203.332 70.305,203.213 60.364,203.023 60.174 C 202.848 59.997,199.487 59.837,194.187 59.751 C 184.318 59.591,184.242 59.573,185.527 57.682 C 185.932 57.086,186.498 55.982,186.784 55.229 C 187.070 54.476,187.600 53.628,187.961 53.344 C 188.323 53.059,188.763 52.362,188.939 51.794 C 189.421 50.240,189.984 49.078,190.437 48.702 C 190.660 48.517,191.047 47.831,191.296 47.177 C 191.546 46.522,192.101 45.728,192.529 45.412 C 193.172 44.936,193.363 44.503,193.632 42.908 C 193.925 41.176,194.036 40.952,194.726 40.712 C 195.339 40.498,195.561 40.176,195.827 39.122 C 196.052 38.227,196.511 37.448,197.247 36.712 C 197.860 36.099,198.460 35.161,198.621 34.563 C 198.778 33.979,199.277 33.130,199.730 32.678 C 200.183 32.225,200.553 31.614,200.553 31.321 C 200.553 30.255,201.141 29.145,201.962 28.659 C 202.875 28.120,203.192 27.539,203.457 25.914 C 203.594 25.068,203.789 24.800,204.427 24.578 C 205.113 24.339,205.273 24.078,205.562 22.731 C 206.099 20.229,207.464 19.325,208.311 20.909 M112.317 144.962 C 119.324 145.820,126.246 151.826,127.528 158.163 C 127.674 158.884,127.917 159.972,128.067 160.581 C 128.415 161.985,128.424 255.216,128.077 256.985 C 127.097 261.981,126.588 262.915,122.822 266.636 C 118.806 270.602,116.849 271.675,112.172 272.475 C 110.353 272.786,21.533 272.791,19.917 272.480 C 13.055 271.160,9.060 268.237,5.559 261.976 C 3.884 258.978,3.848 257.755,3.933 206.526 C 4.006 162.323,4.040 159.421,4.495 158.589 C 4.761 158.102,4.979 157.455,4.979 157.152 C 4.979 154.866,11.430 147.165,13.344 147.165 C 13.512 147.165,13.846 147.000,14.086 146.800 C 14.816 146.190,16.905 145.452,18.949 145.084 C 21.474 144.628,108.663 144.515,112.317 144.962 M246.281 144.984 C 248.782 145.372,251.794 146.646,253.899 148.207 C 255.678 149.525,258.402 152.243,258.793 153.089 C 259.009 153.558,259.295 154.129,259.428 154.357 C 260.109 155.526,260.614 156.937,261.124 159.097 C 261.752 161.758,262.012 254.745,261.399 257.469 C 260.760 260.306,260.622 260.780,260.127 261.826 C 259.428 263.302,258.719 264.378,257.620 265.630 C 257.118 266.201,256.708 266.856,256.708 267.086 C 256.708 267.527,254.283 269.205,253.116 269.572 C 252.738 269.691,251.969 270.157,251.407 270.609 C 250.448 271.380,249.201 271.784,245.643 272.477 C 244.037 272.790,155.218 272.788,153.389 272.475 C 145.553 271.135,140.056 266.292,137.907 258.835 C 137.244 256.535,137.243 160.638,137.906 158.759 C 138.130 158.125,138.313 157.436,138.313 157.227 C 138.313 153.106,146.577 145.977,152.420 145.059 C 155.307 144.606,243.391 144.535,246.281 144.984 M379.373 144.993 C 380.752 145.168,382.315 145.541,382.845 145.823 C 383.375 146.104,383.894 146.335,383.996 146.335 C 386.704 146.335,394.175 154.605,394.194 157.623 C 394.196 157.881,394.382 158.702,394.609 159.449 C 395.220 161.462,395.209 256.810,394.598 258.506 C 394.379 259.115,394.197 259.813,394.195 260.057 C 394.193 260.302,393.755 261.338,393.223 262.360 C 392.690 263.381,392.176 264.709,392.080 265.310 C 391.889 266.500,388.802 268.977,386.605 269.703 C 386.065 269.881,385.557 270.134,385.476 270.265 C 385.209 270.697,383.650 271.350,381.364 271.987 L 379.115 272.614 332.918 272.614 L 286.722 272.614 284.498 272.020 C 278.233 270.345,273.394 265.692,271.452 259.474 C 270.667 256.962,270.564 161.549,271.343 158.507 C 272.511 153.944,275.642 149.800,279.683 147.471 C 280.766 146.846,281.735 146.334,281.836 146.333 C 281.937 146.332,282.393 146.123,282.849 145.869 C 284.799 144.784,286.767 144.738,332.623 144.706 C 364.478 144.684,377.567 144.764,379.373 144.993 M18.672 147.974 C 12.972 149.596,9.262 153.171,7.475 158.763 C 6.820 160.813,6.567 249.544,7.214 249.944 C 7.378 250.046,8.032 249.572,8.667 248.891 C 9.301 248.211,11.953 245.427,14.559 242.707 C 17.165 239.986,19.841 237.147,20.506 236.398 C 21.171 235.649,21.940 234.840,22.215 234.600 C 23.554 233.432,23.501 234.868,23.579 196.957 L 23.651 161.411 24.288 160.093 C 25.002 158.617,31.999 151.455,33.011 151.165 C 33.340 151.071,34.046 150.785,34.578 150.531 C 35.457 150.112,38.182 150.055,64.039 149.921 C 94.413 149.763,94.120 149.777,96.029 148.440 C 96.379 148.195,96.887 147.994,97.157 147.994 C 97.427 147.994,97.649 147.870,97.649 147.718 C 97.649 147.166,20.632 147.416,18.672 147.974 M152.278 147.959 C 147.029 149.251,142.799 153.084,140.946 158.230 C 140.306 160.006,139.904 249.281,140.533 249.910 C 140.737 250.115,141.489 249.501,143.050 247.854 C 144.274 246.562,147.225 243.466,149.609 240.974 C 155.423 234.895,155.976 234.283,156.440 233.424 C 156.780 232.792,156.840 227.637,156.850 197.878 C 156.857 178.079,156.970 162.653,157.112 162.102 C 157.897 159.064,157.867 159.100,164.639 152.628 C 164.917 152.362,165.145 152.034,165.145 151.901 C 165.145 151.767,165.550 151.508,166.044 151.325 C 166.539 151.141,167.379 150.784,167.911 150.530 C 168.789 150.112,171.551 150.054,197.372 149.912 C 227.485 149.746,227.526 149.744,229.315 148.479 C 229.691 148.212,230.282 147.994,230.629 147.994 C 230.975 147.994,231.259 147.870,231.259 147.718 C 231.259 147.163,154.563 147.397,152.278 147.959 M285.430 147.983 C 279.793 149.487,275.936 153.231,274.263 158.821 L 273.582 161.093 273.582 205.427 C 273.582 238.988,273.661 249.808,273.906 249.960 C 274.232 250.161,275.043 249.355,283.817 240.097 C 286.176 237.609,288.292 235.379,288.520 235.142 C 288.748 234.905,289.215 234.353,289.557 233.916 L 290.180 233.120 290.196 198.372 C 290.212 164.486,290.264 162.256,291.074 160.097 C 291.518 158.917,299.290 151.037,300.011 151.037 C 300.248 151.037,300.841 150.820,301.328 150.553 C 302.149 150.104,304.258 150.058,330.705 149.920 C 361.218 149.761,361.077 149.768,363.049 148.386 C 363.357 148.171,363.830 147.994,364.100 147.994 C 364.371 147.994,364.592 147.870,364.592 147.718 C 364.592 147.150,287.587 147.408,285.430 147.983 M39.172 153.127 C 36.964 153.427,36.296 153.630,35.714 154.174 C 35.318 154.546,34.272 155.251,33.391 155.743 C 31.571 156.757,30.342 157.891,29.686 159.158 C 29.439 159.636,29.026 160.339,28.769 160.719 C 26.133 164.622,26.280 161.667,26.278 211.025 C 26.277 255.072,26.385 259.686,27.431 259.959 C 27.900 260.082,28.807 261.336,29.482 262.794 C 29.804 263.489,32.040 265.837,32.380 265.837 C 32.480 265.837,33.358 266.431,34.331 267.158 C 37.496 269.524,35.237 269.394,76.970 269.610 L 113.414 269.800 113.726 268.904 C 113.961 268.229,114.594 267.650,116.305 266.546 C 118.326 265.243,120.604 263.023,120.611 262.350 C 120.613 262.214,121.048 261.556,121.579 260.888 C 122.110 260.220,122.545 259.457,122.545 259.193 C 122.545 258.928,122.733 258.261,122.964 257.709 C 123.333 256.825,123.374 251.284,123.305 210.719 C 123.220 160.428,123.318 163.445,121.727 161.687 C 121.452 161.383,121.030 160.745,120.789 160.269 C 120.045 158.795,117.627 156.380,115.968 155.454 C 115.097 154.968,114.116 154.325,113.788 154.025 C 112.431 152.783,110.109 152.706,74.827 152.731 C 48.869 152.749,41.330 152.833,39.172 153.127 M172.752 153.107 C 170.456 153.425,170.103 153.562,168.208 154.872 C 167.078 155.654,166.020 156.296,165.857 156.299 C 164.682 156.320,160.376 162.973,160.073 165.234 C 159.754 167.616,159.858 255.283,160.182 257.261 C 160.344 258.250,160.701 259.308,160.975 259.613 C 161.249 259.917,161.920 260.975,162.465 261.964 C 163.589 264.002,164.875 265.317,167.082 266.686 C 167.918 267.205,168.790 267.832,169.018 268.080 C 170.257 269.423,171.624 269.467,209.267 269.361 C 248.890 269.249,245.344 269.467,249.242 266.901 C 252.632 264.669,254.979 261.778,256.188 258.344 C 256.935 256.223,257.010 166.491,256.266 164.177 C 255.255 161.028,252.543 157.446,249.931 155.806 C 249.322 155.425,248.264 154.735,247.580 154.273 C 245.294 152.732,244.832 152.714,208.299 152.740 C 183.583 152.758,174.614 152.850,172.752 153.107 M306.224 153.083 C 302.893 153.532,297.863 156.668,296.639 159.059 C 296.288 159.744,295.900 160.429,295.776 160.581 C 294.499 162.150,293.713 163.693,293.486 165.078 C 293.147 167.145,293.146 254.300,293.484 256.640 C 293.857 259.221,297.600 265.240,299.213 265.853 C 299.578 265.992,300.029 266.230,300.215 266.382 C 304.187 269.634,301.342 269.426,342.045 269.438 C 382.283 269.450,379.609 269.619,383.679 266.801 C 386.130 265.104,387.754 263.450,388.133 262.264 C 388.307 261.718,388.666 261.024,388.930 260.719 C 389.194 260.415,389.770 259.492,390.210 258.667 L 391.010 257.169 391.010 210.943 L 391.010 164.717 390.387 163.925 C 390.045 163.490,389.765 163.015,389.765 162.868 C 389.765 162.722,389.502 162.233,389.181 161.782 C 388.859 161.331,388.288 160.378,387.911 159.665 C 386.320 156.656,381.695 153.623,377.870 153.081 C 374.378 152.585,309.906 152.587,306.224 153.083 M213.001 160.602 C 214.295 160.836,215.681 161.094,216.081 161.176 C 216.485 161.259,216.943 161.619,217.109 161.983 C 217.282 162.363,217.734 162.706,218.179 162.796 C 220.068 163.179,220.337 163.357,220.942 164.624 C 221.482 165.753,221.680 165.921,222.656 166.077 C 223.804 166.260,224.620 167.052,224.620 167.982 C 224.620 168.261,225.045 168.734,225.576 169.047 C 226.681 169.700,226.653 169.630,227.377 173.444 C 228.293 178.269,228.450 178.912,229.147 180.707 C 229.771 182.314,229.829 182.909,229.982 189.271 C 230.155 196.483,230.053 197.342,228.997 197.593 C 224.119 198.754,224.089 198.712,223.799 190.316 L 223.565 183.541 222.430 181.287 C 221.520 179.482,221.217 178.483,220.906 176.265 C 220.461 173.094,220.365 172.867,218.832 171.382 C 218.212 170.781,217.704 170.119,217.704 169.912 C 217.704 167.739,214.952 166.542,209.941 166.534 C 204.851 166.527,201.536 168.288,199.602 172.028 C 199.364 172.488,199.002 172.963,198.796 173.084 C 198.590 173.206,198.274 173.586,198.094 173.928 C 197.915 174.270,197.607 174.550,197.411 174.550 C 196.479 174.550,195.934 175.785,195.579 178.700 C 195.258 181.339,195.153 181.668,194.433 182.296 C 193.774 182.871,193.521 183.500,192.933 186.030 C 191.858 190.651,191.718 191.372,191.399 193.914 C 191.227 195.280,190.900 196.556,190.618 196.957 C 189.799 198.124,189.743 198.873,189.602 210.612 C 189.448 223.526,189.820 233.623,190.499 234.937 C 190.947 235.803,191.451 237.468,192.151 240.387 C 192.388 241.376,192.820 242.941,193.110 243.865 C 193.400 244.788,193.638 245.760,193.638 246.024 C 193.638 246.288,193.995 246.840,194.431 247.249 C 194.867 247.659,195.309 248.368,195.412 248.824 C 195.725 250.204,196.978 252.477,197.609 252.807 C 197.935 252.978,198.575 253.356,199.032 253.648 C 199.488 253.940,200.071 254.187,200.327 254.198 C 200.583 254.209,201.055 254.587,201.376 255.038 C 201.777 255.602,202.279 255.910,202.985 256.026 C 203.549 256.119,204.640 256.324,205.408 256.483 C 208.223 257.064,214.082 256.071,214.605 254.923 C 214.809 254.476,215.286 254.146,216.015 253.950 C 217.149 253.644,217.258 253.484,217.586 251.635 C 217.749 250.719,217.935 250.504,218.931 250.077 C 220.188 249.538,220.558 248.788,220.929 246.025 C 221.029 245.282,221.586 243.486,222.166 242.034 C 223.050 239.822,224.066 235.069,224.066 233.147 C 224.066 231.999,226.518 231.459,228.823 232.099 C 231.139 232.742,230.662 238.823,227.635 247.244 C 227.346 248.049,227.109 248.938,227.109 249.221 C 227.109 249.504,226.663 250.127,226.117 250.606 C 225.181 251.428,224.924 252.000,223.903 255.540 C 223.847 255.734,223.260 256.125,222.598 256.409 C 221.936 256.692,220.964 257.428,220.438 258.042 C 219.553 259.076,218.211 259.792,216.339 260.231 C 215.968 260.317,215.272 260.782,214.791 261.262 C 212.191 263.863,201.864 263.537,199.690 260.786 C 199.407 260.428,198.642 260.100,197.615 259.896 C 196.138 259.604,195.945 259.481,195.503 258.556 C 195.235 257.996,194.856 257.538,194.660 257.538 C 194.151 257.538,192.341 255.606,191.999 254.698 C 191.841 254.277,191.405 253.816,191.031 253.674 C 190.220 253.365,189.766 252.604,189.761 251.540 C 189.754 250.201,189.048 248.649,187.997 247.657 C 186.624 246.361,186.200 245.204,185.847 241.781 C 185.673 240.099,185.218 237.871,184.772 236.515 C 182.904 230.838,182.964 193.003,184.841 191.952 C 185.383 191.649,185.564 190.605,185.859 186.093 C 186.064 182.972,186.107 182.800,186.918 181.944 C 188.311 180.473,189.114 178.927,189.323 177.317 C 189.710 174.336,190.034 173.503,191.040 172.909 C 191.556 172.605,191.978 172.151,191.978 171.900 C 191.978 171.101,193.190 169.254,193.983 168.844 C 194.419 168.618,195.002 167.911,195.336 167.200 C 195.671 166.487,196.252 165.782,196.692 165.554 C 197.115 165.335,197.767 164.767,198.139 164.290 C 198.621 163.675,199.234 163.316,200.260 163.050 C 201.164 162.816,201.907 162.416,202.249 161.981 C 203.426 160.485,208.648 159.815,213.001 160.602 M78.285 161.209 C 78.970 161.374,80.090 161.816,80.775 162.191 C 81.459 162.567,82.320 162.965,82.687 163.075 C 84.957 163.755,90.326 169.403,90.917 171.732 C 91.137 172.597,91.542 173.804,91.817 174.412 C 93.480 178.094,93.600 191.381,91.987 193.301 C 91.512 193.867,91.276 194.668,91.036 196.542 C 90.774 198.583,90.597 199.138,90.054 199.622 C 89.691 199.947,89.056 201.068,88.645 202.112 C 88.233 203.157,87.679 204.260,87.412 204.564 C 87.146 204.869,86.780 205.582,86.598 206.151 C 86.416 206.719,85.934 207.441,85.526 207.756 C 84.441 208.595,83.264 210.245,83.264 210.928 C 83.264 211.254,82.960 211.808,82.587 212.158 C 82.215 212.507,81.873 213.058,81.827 213.382 C 81.776 213.733,81.386 214.127,80.856 214.360 C 80.262 214.622,79.832 215.094,79.553 215.790 C 79.319 216.374,78.768 217.047,78.296 217.327 C 77.321 217.903,77.215 218.666,78.021 219.319 C 78.403 219.629,78.756 220.543,79.108 222.130 C 79.757 225.062,80.370 226.791,81.018 227.516 C 81.307 227.840,81.662 228.954,81.858 230.152 C 82.046 231.293,82.367 232.600,82.572 233.057 C 83.065 234.151,83.460 235.553,83.684 236.997 C 83.784 237.643,83.979 238.242,84.118 238.327 C 84.257 238.413,84.371 238.718,84.371 239.005 C 84.371 239.298,84.698 239.686,85.113 239.888 C 85.746 240.196,85.922 240.559,86.301 242.346 C 86.546 243.499,87.003 244.769,87.317 245.168 C 87.631 245.567,88.042 246.491,88.230 247.221 C 88.713 249.092,89.098 250.101,89.633 250.899 C 90.940 252.848,91.617 257.265,90.948 259.474 C 90.341 261.480,86.841 261.674,86.112 259.743 C 85.928 259.256,85.540 258.878,85.115 258.771 C 84.341 258.577,83.945 257.783,83.674 255.878 C 83.576 255.194,83.197 253.722,82.831 252.608 C 82.465 251.494,82.027 249.440,81.857 248.044 C 81.627 246.152,81.413 245.387,81.017 245.041 C 80.295 244.410,79.769 243.067,79.239 240.498 C 78.993 239.310,78.434 237.547,77.996 236.580 C 77.454 235.386,77.140 234.141,77.015 232.695 C 76.819 230.437,76.489 229.482,75.378 227.967 C 74.999 227.450,74.689 226.737,74.689 226.382 C 74.689 222.826,72.141 222.590,68.525 225.811 C 66.531 227.587,65.121 228.492,64.349 228.492 C 64.124 228.492,63.708 228.788,63.424 229.150 C 63.139 229.511,62.415 230.061,61.813 230.372 C 61.211 230.683,60.122 231.549,59.393 232.296 L 58.066 233.654 58.148 246.357 C 58.239 260.552,58.242 260.526,56.474 260.886 C 55.109 261.165,53.692 260.687,53.370 259.840 C 53.222 259.451,52.857 258.823,52.559 258.444 C 52.034 257.777,52.017 257.211,52.009 240.703 C 52.001 225.093,51.892 203.977,51.674 175.704 L 51.591 164.824 52.461 164.046 C 53.119 163.458,53.826 163.186,55.365 162.928 C 56.484 162.741,58.271 162.271,59.336 161.884 C 62.379 160.779,74.679 160.341,78.285 161.209 M354.881 161.661 C 355.472 162.196,355.691 164.406,355.299 165.869 C 355.004 166.968,353.720 167.082,341.569 167.082 C 329.126 167.082,327.645 167.169,327.239 167.928 C 326.881 168.596,326.868 214.506,327.226 215.173 C 327.847 216.334,332.253 216.839,337.417 216.339 C 340.056 216.084,341.015 216.085,341.732 216.345 C 342.441 216.601,343.410 216.606,345.923 216.367 C 352.023 215.787,355.723 217.872,352.153 219.879 C 351.539 220.224,351.037 220.628,351.037 220.777 C 351.037 220.926,350.732 221.354,350.358 221.728 L 349.679 222.407 340.492 222.407 C 331.666 222.407,328.139 222.647,327.317 223.304 C 327.047 223.520,326.971 227.108,326.971 239.557 C 326.971 252.002,327.047 255.597,327.317 255.818 C 328.272 256.605,331.130 256.775,339.891 256.566 C 357.675 256.141,358.100 256.233,357.129 260.279 C 356.560 262.651,356.737 262.620,343.154 262.716 C 336.763 262.761,330.104 262.917,328.354 263.061 C 320.251 263.732,319.761 263.144,320.174 253.250 C 320.263 251.120,320.405 229.834,320.489 205.947 C 320.658 158.493,320.531 161.664,322.269 161.310 C 324.737 160.807,354.288 161.125,354.881 161.661 M67.082 165.977 C 65.712 166.084,63.528 166.500,62.226 166.903 C 60.925 167.306,59.669 167.635,59.434 167.635 C 58.052 167.635,57.447 173.881,57.732 185.201 C 57.845 189.695,57.777 191.727,57.431 194.180 C 56.899 197.960,56.795 212.169,57.287 213.941 C 57.452 214.534,57.607 217.092,57.632 219.625 C 57.693 225.768,58.433 227.026,60.668 224.791 C 61.182 224.277,62.046 223.645,62.588 223.388 C 63.131 223.131,64.192 222.338,64.947 221.626 C 66.892 219.793,67.839 219.095,68.388 219.091 C 68.651 219.089,69.059 218.713,69.295 218.256 C 69.532 217.798,70.220 217.112,70.824 216.731 C 71.499 216.304,71.923 215.827,71.923 215.491 C 71.923 215.153,72.350 214.675,73.042 214.238 C 73.658 213.849,74.228 213.359,74.308 213.149 C 74.389 212.939,74.941 212.573,75.536 212.335 C 76.473 211.960,76.640 211.758,76.790 210.822 C 76.904 210.113,77.363 209.278,78.124 208.397 C 78.763 207.658,79.451 206.644,79.654 206.142 C 79.857 205.640,80.377 205.047,80.810 204.823 C 81.265 204.587,81.673 204.098,81.778 203.660 C 82.169 202.030,84.187 197.335,84.778 196.680 C 85.939 195.394,87.744 184.689,87.149 182.615 C 87.011 182.132,86.762 180.774,86.596 179.596 C 85.929 174.848,85.714 173.995,85.099 173.672 C 84.774 173.502,84.353 173.163,84.162 172.919 C 83.363 171.897,82.417 170.483,81.989 169.671 C 81.495 168.733,80.064 167.808,78.644 167.507 C 78.156 167.404,77.461 167.086,77.097 166.801 C 76.480 166.315,71.917 165.617,70.164 165.740 C 69.838 165.763,68.451 165.869,67.082 165.977 " stroke="none" fill="#2c2c2c" fill-rule="evenodd"></path></g></svg>