<svg id="svg" version="1.1" xmlns="http://www.w3.org/2000/svg" xmlns:xlink="http://www.w3.org/1999/xlink" width="400" height="276.54320987654324" viewBox="0, 0, 400,276.54320987654324"><g id="svgg"><path id="path0" d="M135.469 3.952 C 135.389 4.159,135.537 4.307,135.823 4.307 C 136.109 4.307,136.256 4.159,136.177 3.952 C 136.102 3.756,135.943 3.596,135.823 3.596 C 135.703 3.596,135.544 3.756,135.469 3.952 M153.112 6.083 C 149.560 6.506,143.880 9.580,142.203 11.986 C 141.973 12.316,141.483 12.926,141.114 13.342 C 139.973 14.628,138.600 17.353,137.941 19.640 C 137.409 21.486,137.180 118.664,137.706 119.301 C 137.860 119.488,138.075 120.138,138.182 120.747 C 139.267 126.872,146.042 132.616,153.340 133.596 C 156.895 134.073,243.193 133.980,246.196 133.495 C 248.516 133.121,251.283 132.230,251.834 131.679 C 251.989 131.524,252.471 131.397,252.904 131.397 C 253.406 131.397,253.950 131.121,254.404 130.636 C 255.194 129.793,258.349 125.722,258.783 124.986 C 258.935 124.728,259.424 123.921,259.869 123.191 C 260.314 122.462,260.773 121.427,260.888 120.891 C 261.003 120.355,261.227 119.419,261.386 118.811 C 261.898 116.847,261.789 22.912,261.272 20.930 C 261.044 20.054,260.858 19.153,260.858 18.929 C 260.858 17.920,258.503 13.838,257.028 12.290 C 254.387 9.517,253.191 8.720,248.271 6.457 C 247.113 5.924,157.409 5.572,153.112 6.083 M230.118 9.025 C 231.412 9.284,231.179 9.521,229.115 10.044 C 228.088 10.305,226.812 10.638,226.279 10.785 C 225.688 10.948,214.650 11.054,197.924 11.058 C 171.390 11.065,170.477 11.082,168.602 11.618 C 166.267 12.284,164.362 13.252,164.165 13.871 C 164.085 14.121,162.719 15.576,161.130 17.103 C 158.233 19.887,157.813 20.527,157.111 23.237 C 156.967 23.791,156.857 39.192,156.853 59.274 L 156.846 94.344 155.947 95.338 C 155.453 95.885,154.613 96.797,154.080 97.365 C 153.548 97.934,151.556 100.060,149.654 102.090 C 144.110 108.010,141.806 110.459,141.254 111.020 C 140.832 111.448,140.693 111.475,140.497 111.167 C 140.365 110.957,140.256 91.001,140.253 66.506 C 140.249 18.510,140.195 20.399,141.634 17.981 C 141.770 17.752,142.135 17.068,142.445 16.459 C 144.190 13.029,149.449 9.589,153.665 9.121 C 155.783 8.885,228.961 8.794,230.118 9.025 M244.430 14.110 C 247.060 14.652,248.394 15.103,249.020 15.660 C 249.369 15.970,250.369 16.687,251.242 17.253 C 253.002 18.395,254.637 20.333,254.918 21.611 C 255.018 22.069,255.264 22.507,255.464 22.584 C 255.664 22.660,255.985 23.119,256.178 23.602 C 256.371 24.086,256.786 24.855,257.102 25.311 L 257.676 26.141 257.676 72.061 L 257.676 117.981 256.746 119.779 C 256.235 120.768,255.662 121.763,255.473 121.992 C 255.285 122.220,254.836 122.967,254.476 123.651 C 253.404 125.689,251.224 127.439,247.026 129.634 L 245.505 130.429 210.973 130.509 C 173.067 130.597,171.880 130.560,169.571 129.214 C 164.612 126.323,164.457 126.177,161.729 121.825 C 159.820 118.780,159.901 120.994,159.895 71.753 C 159.890 29.111,159.964 24.566,160.672 24.081 C 161.011 23.847,162.932 20.863,162.932 20.568 C 162.932 20.049,165.323 17.732,166.856 16.765 C 167.721 16.220,168.498 15.660,168.584 15.521 C 168.719 15.303,171.334 14.423,173.029 14.025 C 174.199 13.751,243.085 13.833,244.430 14.110 M206.312 20.678 C 206.085 20.944,205.748 21.868,205.562 22.731 C 205.273 24.078,205.113 24.339,204.427 24.578 C 203.791 24.799,203.592 25.071,203.450 25.914 C 203.142 27.735,203.026 27.943,201.933 28.633 C 201.014 29.213,200.839 29.489,200.668 30.625 C 200.531 31.543,200.238 32.161,199.706 32.658 C 199.286 33.051,198.804 33.883,198.636 34.508 C 198.462 35.152,197.985 35.934,197.534 36.314 C 196.639 37.067,196.008 38.168,195.730 39.461 C 195.599 40.067,195.300 40.434,194.749 40.662 C 194.039 40.956,193.922 41.192,193.631 42.914 C 193.363 44.503,193.172 44.936,192.529 45.412 C 192.101 45.728,191.542 46.532,191.288 47.198 C 191.034 47.864,190.731 48.409,190.615 48.409 C 190.366 48.409,189.387 50.359,188.951 51.723 C 188.781 52.252,188.282 53.015,187.841 53.418 C 187.399 53.822,186.905 54.645,186.743 55.249 C 186.580 55.852,186.062 56.878,185.590 57.529 C 184.110 59.572,184.177 59.589,194.187 59.751 C 199.511 59.837,202.847 59.997,203.025 60.175 C 203.216 60.366,203.334 70.224,203.384 90.106 C 203.443 114.006,203.528 119.821,203.818 120.111 C 204.530 120.822,211.286 120.600,211.897 119.845 C 212.901 118.604,212.955 117.062,212.990 88.658 C 213.020 64.283,213.077 60.666,213.437 60.304 C 213.780 59.960,215.131 59.875,221.366 59.807 C 226.594 59.750,229.001 59.626,229.272 59.401 C 230.020 58.781,229.359 55.045,228.318 54.004 C 228.118 53.804,227.820 53.117,227.656 52.477 C 227.188 50.646,227.154 50.591,226.296 50.267 C 225.497 49.966,224.945 48.968,224.464 46.954 C 224.364 46.534,223.922 45.934,223.482 45.621 C 223.043 45.308,222.683 44.811,222.683 44.517 C 222.683 43.765,221.806 42.215,220.798 41.183 C 220.328 40.703,219.869 39.967,219.776 39.547 C 219.684 39.128,219.383 38.580,219.107 38.331 C 218.831 38.081,218.445 37.120,218.249 36.197 C 217.871 34.417,217.781 34.284,216.425 33.481 C 215.724 33.065,215.525 32.729,215.369 31.689 C 215.225 30.725,214.946 30.198,214.240 29.555 C 213.550 28.928,213.254 28.381,213.120 27.488 C 212.984 26.585,212.716 26.098,212.071 25.582 C 211.594 25.200,211.048 24.760,210.858 24.605 C 210.667 24.449,210.512 24.043,210.512 23.702 C 210.512 22.930,209.782 21.853,209.258 21.853 C 209.043 21.853,208.673 21.480,208.437 21.024 C 207.943 20.069,206.967 19.910,206.312 20.678 M18.949 145.084 C 16.905 145.452,14.816 146.190,14.086 146.800 C 13.846 147.000,13.512 147.165,13.344 147.165 C 12.028 147.165,7.349 151.962,6.052 154.640 C 3.807 159.276,4.021 154.028,3.934 206.672 C 3.842 261.914,3.672 258.559,6.855 264.337 C 7.370 265.272,11.404 269.291,12.341 269.803 C 17.946 272.864,12.726 272.578,64.705 272.677 C 92.652 272.730,110.835 272.662,111.870 272.500 C 113.988 272.168,117.098 271.388,117.286 271.141 C 117.364 271.038,117.627 270.830,117.870 270.678 C 119.708 269.530,120.769 268.663,122.822 266.636 C 126.588 262.915,127.097 261.981,128.077 256.985 C 128.667 253.974,128.400 162.025,127.793 159.299 C 126.785 154.776,122.215 147.994,120.174 147.994 C 119.956 147.994,119.779 147.901,119.779 147.787 C 119.779 147.575,118.421 146.838,116.183 145.834 C 115.498 145.527,113.891 145.141,112.612 144.976 C 109.049 144.515,21.541 144.616,18.949 145.084 M152.282 145.070 C 146.443 146.081,138.313 153.157,138.313 157.227 C 138.313 157.436,138.131 158.122,137.909 158.752 C 137.224 160.693,137.204 256.468,137.888 258.783 C 139.799 265.249,144.666 270.296,150.484 271.843 C 153.789 272.722,155.992 272.760,200.705 272.687 L 246.058 272.614 248.266 271.987 C 249.588 271.611,250.885 271.029,251.500 270.534 C 252.064 270.081,252.673 269.710,252.852 269.710 C 253.667 269.710,256.508 267.657,256.861 266.814 C 257.063 266.328,257.440 265.756,257.698 265.542 C 258.715 264.698,260.471 261.495,260.874 259.751 C 260.997 259.219,261.227 258.285,261.386 257.676 C 262.022 255.237,261.773 161.571,261.124 158.967 C 260.613 156.916,260.088 155.489,259.428 154.357 C 259.295 154.129,259.009 153.558,258.793 153.089 C 258.402 152.243,255.678 149.525,253.899 148.207 C 251.794 146.646,248.782 145.372,246.281 144.984 C 243.337 144.527,154.952 144.608,152.282 145.070 M285.826 145.064 C 284.572 145.243,283.396 145.539,283.212 145.723 C 283.027 145.908,282.709 146.058,282.504 146.058 C 281.615 146.058,277.617 148.719,275.847 150.490 C 273.709 152.627,272.022 155.671,271.249 158.783 C 270.517 161.734,270.721 256.868,271.466 259.450 C 273.213 265.508,278.226 270.344,284.498 272.020 L 286.722 272.614 332.918 272.614 L 379.115 272.614 381.364 271.987 C 383.650 271.350,385.209 270.697,385.476 270.265 C 385.557 270.134,386.059 269.883,386.591 269.707 C 388.988 268.916,391.776 266.617,392.131 265.140 C 392.313 264.382,392.851 263.024,393.327 262.121 C 393.802 261.218,394.193 260.285,394.195 260.046 C 394.197 259.808,394.379 259.115,394.598 258.506 C 395.209 256.810,395.220 161.462,394.609 159.449 C 394.382 158.702,394.196 157.881,394.194 157.623 C 394.175 154.611,386.752 146.353,384.046 146.333 C 383.920 146.332,383.444 146.128,382.988 145.879 C 380.851 144.714,379.642 144.686,332.780 144.713 C 300.165 144.732,287.490 144.827,285.826 145.064 M97.649 147.718 C 97.649 147.870,97.427 147.994,97.157 147.994 C 96.887 147.994,96.379 148.195,96.029 148.440 C 94.118 149.778,94.418 149.765,64.039 149.922 C 38.181 150.056,35.457 150.112,34.578 150.531 C 34.046 150.785,33.334 151.073,32.997 151.169 C 32.660 151.266,30.699 153.024,28.639 155.075 C 25.105 158.595,24.410 159.536,23.768 161.665 C 23.634 162.110,23.517 178.220,23.507 197.549 C 23.493 224.899,23.413 232.771,23.146 233.287 C 22.957 233.651,22.348 234.432,21.792 235.024 C 21.237 235.616,20.447 236.473,20.038 236.929 C 19.629 237.386,17.162 239.986,14.557 242.707 C 11.952 245.427,9.301 248.211,8.667 248.891 C 8.032 249.572,7.378 250.046,7.214 249.944 C 6.567 249.544,6.820 160.813,7.475 158.763 C 9.254 153.195,12.995 149.590,18.672 147.974 C 20.632 147.416,97.649 147.166,97.649 147.718 M231.120 147.718 C 231.216 147.872,231.005 147.994,230.645 147.994 C 230.289 147.994,229.712 148.195,229.362 148.440 C 227.454 149.777,227.746 149.763,197.372 149.921 C 171.794 150.054,168.781 150.115,167.911 150.521 C 167.379 150.769,166.539 151.127,166.044 151.315 C 165.550 151.504,165.145 151.767,165.145 151.901 C 165.145 152.034,164.919 152.362,164.643 152.628 C 164.367 152.894,162.813 154.380,161.190 155.929 C 158.225 158.760,157.814 159.382,157.112 162.102 C 156.970 162.653,156.857 178.079,156.850 197.878 C 156.840 227.637,156.780 232.792,156.440 233.424 C 155.973 234.289,155.383 234.942,149.604 240.975 C 147.217 243.467,144.266 246.562,143.045 247.854 C 141.487 249.501,140.737 250.115,140.533 249.910 C 139.904 249.281,140.306 160.006,140.946 158.230 C 142.817 153.035,146.973 149.264,152.263 147.963 C 154.561 147.398,230.776 147.161,231.120 147.718 M364.592 147.718 C 364.592 147.870,364.290 147.994,363.920 147.994 C 363.551 147.994,363.070 148.173,362.852 148.391 C 361.497 149.745,361.161 149.761,330.705 149.920 C 304.287 150.058,302.144 150.104,301.271 150.553 C 300.754 150.820,300.161 151.037,299.955 151.037 C 299.749 151.037,297.754 152.842,295.522 155.048 C 291.429 159.093,291.006 159.693,290.447 162.241 C 290.313 162.849,290.198 179.046,290.192 198.234 C 290.178 237.501,290.416 233.120,288.167 235.482 C 287.676 235.997,285.346 238.460,282.988 240.956 C 275.157 249.243,274.231 250.161,273.902 249.957 C 273.662 249.809,273.582 238.651,273.582 205.427 L 273.582 161.093 274.263 158.821 C 275.936 153.231,279.793 149.487,285.430 147.983 C 287.587 147.408,364.592 147.150,364.592 147.718 M110.477 153.105 C 112.393 153.379,113.385 153.656,113.797 154.033 C 114.120 154.329,115.097 154.968,115.968 155.454 C 117.627 156.380,120.045 158.795,120.789 160.269 C 121.030 160.745,121.452 161.383,121.727 161.687 C 123.317 163.445,123.220 160.435,123.305 210.647 C 123.394 263.349,123.689 257.799,120.561 262.410 C 119.024 264.676,118.588 265.091,116.011 266.740 C 114.557 267.670,113.959 268.236,113.727 268.900 L 113.414 269.800 76.873 269.606 C 35.337 269.385,37.682 269.519,34.306 267.182 C 32.271 265.774,29.599 263.391,29.599 262.985 C 29.599 262.450,27.880 260.028,27.501 260.028 C 26.398 260.028,26.279 255.243,26.284 210.948 C 26.290 163.361,26.243 164.557,28.212 161.549 C 28.660 160.864,29.268 159.869,29.562 159.336 C 30.218 158.152,31.973 156.367,32.715 156.132 C 33.015 156.036,33.775 155.594,34.403 155.149 C 35.032 154.703,35.833 154.138,36.183 153.892 C 37.669 152.848,40.732 152.757,74.827 152.735 C 101.781 152.718,108.240 152.785,110.477 153.105 M243.731 153.077 C 245.780 153.350,246.598 153.590,247.327 154.133 C 247.846 154.519,248.831 155.158,249.516 155.551 C 252.367 157.191,255.308 160.990,256.273 164.278 C 257.055 166.944,256.921 256.255,256.132 258.516 C 255.815 259.423,255.331 260.415,255.057 260.719 C 254.782 261.024,254.305 261.770,253.997 262.379 C 252.707 264.923,248.036 268.235,244.708 268.966 C 238.673 270.292,169.548 269.500,169.081 268.100 C 169.024 267.929,168.208 267.331,167.269 266.771 C 164.928 265.378,163.634 264.083,162.465 261.964 C 161.920 260.975,161.247 259.915,160.971 259.608 C 159.907 258.429,159.871 256.659,159.950 209.682 L 160.028 164.177 161.586 161.549 C 163.121 158.960,165.277 156.309,165.857 156.299 C 166.020 156.296,167.078 155.652,168.208 154.869 C 170.144 153.528,170.415 153.425,172.891 153.103 C 176.743 152.602,239.986 152.578,243.731 153.077 M377.732 153.084 C 380.418 153.448,380.574 153.509,383.126 155.197 C 386.481 157.416,386.831 157.740,387.714 159.446 C 388.115 160.223,388.604 161.044,388.800 161.272 C 388.995 161.501,389.573 162.434,390.083 163.347 L 391.010 165.007 391.010 211.088 L 391.010 257.169 390.210 258.667 C 389.770 259.492,389.198 260.415,388.940 260.719 C 388.682 261.024,388.300 261.708,388.091 262.241 C 387.882 262.773,387.582 263.370,387.424 263.566 C 386.912 264.204,385.482 265.558,385.318 265.559 C 385.231 265.560,384.244 266.245,383.126 267.082 C 382.007 267.918,380.834 268.605,380.518 268.606 C 380.203 268.608,379.260 268.794,378.423 269.020 C 377.116 269.372,372.003 269.430,342.185 269.430 C 302.702 269.430,304.413 269.518,301.521 267.337 C 300.685 266.706,299.609 265.990,299.131 265.745 C 297.312 264.814,293.862 259.251,293.484 256.640 C 293.146 254.300,293.147 167.145,293.486 165.078 C 293.722 163.636,294.762 161.658,295.889 160.510 C 296.076 160.319,296.317 159.886,296.425 159.547 C 296.730 158.585,297.656 157.466,298.736 156.757 C 299.279 156.400,300.648 155.497,301.779 154.750 C 303.663 153.506,304.044 153.367,306.343 153.079 C 310.291 152.584,374.081 152.589,377.732 153.084 M206.565 160.467 C 203.936 160.852,202.899 161.226,202.157 162.059 C 201.689 162.584,201.066 162.912,200.307 163.034 C 199.486 163.165,198.870 163.516,198.129 164.276 C 197.560 164.859,196.831 165.475,196.508 165.646 C 196.184 165.818,195.659 166.513,195.339 167.193 C 194.995 167.924,194.446 168.578,193.991 168.795 C 193.485 169.038,192.921 169.771,192.336 170.944 C 191.839 171.941,191.154 172.879,190.780 173.075 C 190.069 173.447,189.680 174.573,189.324 177.296 C 189.116 178.882,188.021 180.856,186.768 181.905 C 186.128 182.441,186.063 182.727,185.859 185.916 C 185.571 190.436,185.456 191.114,184.867 191.764 C 183.881 192.853,183.288 204.838,183.509 219.225 C 183.698 231.524,183.895 234.225,184.782 236.653 C 185.115 237.566,185.554 239.699,185.758 241.393 C 186.272 245.673,186.586 246.572,187.962 247.699 C 188.935 248.497,189.166 248.891,189.456 250.255 C 190.026 252.930,190.162 253.234,190.962 253.618 C 191.386 253.821,191.857 254.319,192.010 254.725 C 192.343 255.611,194.158 257.538,194.660 257.538 C 194.856 257.538,195.235 257.996,195.503 258.556 C 195.945 259.481,196.138 259.604,197.615 259.896 C 198.719 260.115,199.391 260.417,199.707 260.836 C 201.791 263.598,212.319 263.868,214.850 261.224 C 215.334 260.718,215.894 260.300,216.095 260.295 C 217.372 260.264,219.540 259.159,220.431 258.086 C 220.962 257.447,221.938 256.692,222.599 256.408 C 223.260 256.125,223.847 255.734,223.903 255.540 C 224.924 252.000,225.181 251.428,226.117 250.606 C 226.663 250.127,227.109 249.516,227.109 249.248 C 227.109 248.979,227.343 248.152,227.628 247.409 C 230.592 239.696,231.135 232.741,228.823 232.099 C 224.919 231.015,224.221 231.684,223.497 237.206 C 223.318 238.575,222.942 240.148,222.661 240.701 C 221.982 242.041,221.112 244.689,220.901 246.058 C 220.469 248.861,220.121 249.565,218.903 250.088 C 217.829 250.549,217.730 250.686,217.433 252.118 C 217.129 253.581,217.063 253.668,216.040 253.943 C 215.391 254.118,214.742 254.546,214.402 255.023 C 212.921 257.104,202.837 257.091,201.353 255.006 C 201.044 254.573,200.624 254.219,200.418 254.219 C 198.715 254.219,196.217 251.646,195.577 249.232 C 195.390 248.527,194.902 247.674,194.443 247.249 C 194.000 246.840,193.638 246.251,193.638 245.941 C 193.638 245.631,193.462 244.908,193.247 244.335 C 193.032 243.761,192.642 242.296,192.379 241.079 C 192.117 239.862,191.534 237.808,191.084 236.515 C 189.924 233.180,189.757 231.120,189.647 218.811 C 189.511 203.465,189.738 197.973,190.540 197.226 C 190.874 196.914,191.156 196.446,191.165 196.186 C 191.198 195.283,191.670 191.833,191.931 190.595 C 193.274 184.220,193.647 182.982,194.433 182.296 C 195.153 181.668,195.258 181.338,195.579 178.700 C 195.928 175.834,196.479 174.550,197.362 174.550 C 197.690 174.550,199.723 172.245,199.723 171.873 C 199.723 171.312,203.582 167.673,204.824 167.063 C 206.383 166.297,213.407 166.285,215.080 167.045 C 216.189 167.549,217.704 169.202,217.704 169.909 C 217.704 170.115,218.326 170.947,219.087 171.757 C 219.848 172.567,220.470 173.279,220.470 173.339 C 220.470 175.349,221.469 179.456,222.439 181.434 L 223.577 183.754 223.799 190.417 C 224.062 198.323,224.037 198.264,226.924 197.937 C 230.375 197.547,230.256 197.914,229.915 188.658 C 229.694 182.670,229.592 181.688,229.040 180.221 C 228.357 178.407,228.200 177.765,227.378 173.444 C 226.652 169.630,226.681 169.700,225.576 169.047 C 225.012 168.715,224.620 168.265,224.620 167.951 C 224.620 167.098,223.736 166.275,222.568 166.040 C 221.621 165.849,221.432 165.677,221.066 164.676 C 220.632 163.483,219.871 162.932,218.659 162.932 C 218.010 162.932,216.874 162.080,216.874 161.593 C 216.874 161.164,211.430 160.146,209.424 160.200 C 208.729 160.218,207.442 160.339,206.565 160.467 M62.794 161.009 C 61.805 161.137,60.160 161.551,59.139 161.930 C 58.118 162.309,56.686 162.699,55.958 162.798 C 53.933 163.072,52.980 163.434,52.254 164.207 L 51.591 164.913 51.660 175.610 C 51.699 181.493,51.787 201.929,51.857 221.024 C 51.997 259.671,51.957 258.043,52.790 258.876 C 53.119 259.205,53.389 259.658,53.389 259.882 C 53.389 260.577,54.901 261.164,56.168 260.962 C 58.294 260.622,58.230 261.074,58.230 246.426 L 58.230 233.499 59.474 232.218 C 60.159 231.513,61.217 230.681,61.826 230.370 C 62.434 230.058,63.035 229.627,63.161 229.412 C 63.286 229.196,64.074 228.717,64.912 228.347 C 65.750 227.976,67.416 226.808,68.614 225.750 C 72.003 222.759,74.087 222.733,74.557 225.677 C 74.730 226.757,75.139 227.699,76.180 229.409 C 76.646 230.173,76.869 231.067,76.991 232.654 C 77.140 234.580,77.645 236.287,78.553 237.934 C 78.690 238.183,78.992 239.303,79.224 240.424 C 79.812 243.264,80.203 244.311,80.915 244.952 C 81.403 245.392,81.593 246.019,81.844 248.030 C 82.017 249.419,82.456 251.473,82.819 252.594 C 83.182 253.716,83.563 255.194,83.665 255.878 C 83.952 257.796,84.344 258.578,85.115 258.771 C 85.543 258.879,85.929 259.257,86.116 259.754 C 86.850 261.697,90.335 261.495,90.948 259.473 C 91.622 257.247,91.002 253.147,89.645 250.851 C 89.314 250.292,88.749 248.882,88.390 247.717 C 88.031 246.553,87.518 245.358,87.250 245.062 C 86.983 244.767,86.567 243.563,86.327 242.387 C 85.985 240.710,85.763 240.193,85.299 239.989 C 84.584 239.674,83.975 238.330,83.538 236.100 C 83.360 235.187,82.985 233.942,82.707 233.333 C 82.428 232.725,82.049 231.266,81.865 230.092 C 81.643 228.681,81.354 227.798,81.011 227.488 C 80.439 226.970,79.280 223.565,78.969 221.488 C 78.855 220.724,78.489 219.821,78.112 219.373 C 77.249 218.348,77.285 217.941,78.289 217.370 C 78.746 217.110,79.252 216.550,79.413 216.125 C 79.808 215.088,80.478 214.385,81.073 214.385 C 81.388 214.385,81.677 214.034,81.887 213.397 C 82.067 212.854,82.389 212.342,82.604 212.259 C 82.819 212.177,83.130 211.573,83.295 210.917 C 83.510 210.066,84.016 209.310,85.065 208.271 C 85.944 207.401,86.601 206.481,86.702 205.980 C 86.794 205.520,87.100 204.889,87.383 204.578 C 87.665 204.266,88.233 203.157,88.645 202.112 C 89.056 201.068,89.690 199.947,90.054 199.622 C 90.593 199.141,90.776 198.573,91.046 196.542 C 91.290 194.704,91.539 193.856,91.998 193.300 C 93.706 191.234,93.354 174.966,91.579 173.869 C 91.444 173.786,91.247 173.189,91.141 172.544 C 90.860 170.838,90.386 169.863,89.177 168.507 C 87.668 166.815,83.486 163.314,82.687 163.075 C 82.320 162.965,81.494 162.573,80.852 162.205 C 78.678 160.958,68.453 160.281,62.794 161.009 M322.270 161.310 C 320.770 161.615,320.627 162.078,320.618 166.667 C 320.531 208.681,320.333 249.057,320.191 253.942 C 319.934 262.781,320.079 263.078,324.681 263.111 C 330.635 263.153,354.840 262.571,355.463 262.371 C 356.513 262.033,357.056 261.244,357.260 259.760 C 357.663 256.828,356.445 256.249,350.207 256.413 C 338.430 256.722,329.091 256.590,328.008 256.100 L 326.971 255.630 326.971 239.581 C 326.971 224.577,327.002 223.516,327.455 223.281 C 328.696 222.636,332.077 222.406,340.410 222.403 C 350.285 222.399,350.307 222.396,350.778 221.259 C 350.978 220.776,351.552 220.219,352.179 219.899 C 355.895 218.003,351.988 215.801,345.898 216.358 C 343.424 216.584,342.379 216.579,341.710 216.337 C 341.033 216.092,339.998 216.091,337.421 216.331 C 332.430 216.797,328.171 216.349,327.317 215.269 C 326.911 214.757,326.809 168.596,327.211 167.961 C 327.676 167.227,329.819 167.095,341.323 167.088 C 356.055 167.080,355.451 167.224,355.460 163.713 C 355.464 162.008,355.047 161.303,353.991 161.231 C 351.976 161.094,322.976 161.166,322.270 161.310 M73.639 166.008 C 75.599 166.221,76.681 166.473,77.120 166.819 C 77.471 167.094,78.156 167.404,78.644 167.507 C 80.060 167.807,81.546 168.762,81.890 169.593 C 82.065 170.015,82.446 170.576,82.736 170.839 C 83.027 171.102,83.264 171.486,83.264 171.693 C 83.264 171.901,83.835 172.617,84.533 173.286 L 85.802 174.502 86.351 177.915 C 87.502 185.065,86.760 194.634,84.923 196.345 C 84.348 196.881,82.980 199.965,82.101 202.706 C 81.679 204.020,81.358 204.539,80.783 204.837 C 80.365 205.053,79.857 205.640,79.654 206.142 C 79.451 206.644,78.763 207.658,78.124 208.397 C 77.371 209.269,76.903 210.114,76.793 210.805 C 76.643 211.742,76.473 211.936,75.379 212.420 C 74.695 212.723,74.136 213.100,74.136 213.259 C 74.136 213.418,73.638 213.862,73.029 214.246 C 72.387 214.652,71.923 215.160,71.923 215.458 C 71.923 215.748,71.452 216.282,70.838 216.689 C 70.241 217.083,69.530 217.784,69.257 218.247 C 68.984 218.709,68.569 219.087,68.336 219.087 C 68.102 219.088,67.550 219.399,67.108 219.779 C 66.666 220.159,66.134 220.470,65.926 220.470 C 65.718 220.470,65.411 220.771,65.243 221.140 C 64.919 221.851,63.045 223.318,62.072 223.621 C 61.751 223.721,61.094 224.235,60.613 224.764 C 58.474 227.115,57.703 225.759,57.629 219.521 C 57.598 216.924,57.440 214.365,57.279 213.833 C 56.794 212.239,56.903 198.212,57.429 194.456 C 57.768 192.036,57.842 189.913,57.739 185.477 C 57.468 173.760,58.055 167.635,59.448 167.635 C 59.691 167.635,60.885 167.316,62.102 166.927 C 63.416 166.507,65.439 166.130,67.082 166.000 C 68.603 165.879,70.061 165.762,70.321 165.739 C 70.581 165.717,72.074 165.838,73.639 166.008 " stroke="none" fill="#0e0e0e" fill-rule="evenodd"></path><path id="path1" d="M148.824 4.011 C 148.824 4.239,148.626 4.426,148.384 4.426 C 148.141 4.426,147.878 4.675,147.798 4.979 C 147.706 5.332,147.421 5.533,147.010 5.533 C 146.657 5.533,146.286 5.665,146.186 5.826 C 146.086 5.988,145.705 6.234,145.340 6.373 C 144.974 6.512,144.675 6.815,144.675 7.047 C 144.675 7.312,144.419 7.469,143.986 7.469 C 143.596 7.469,143.146 7.709,142.951 8.022 C 142.761 8.326,142.449 8.575,142.257 8.575 C 142.065 8.575,141.909 8.747,141.909 8.956 C 141.909 9.165,141.527 9.412,141.061 9.506 C 140.594 9.599,140.288 9.798,140.380 9.947 C 140.473 10.097,140.229 10.299,139.838 10.397 C 139.447 10.495,139.003 10.809,138.850 11.094 C 138.698 11.379,138.421 11.583,138.235 11.546 C 138.050 11.510,137.932 11.646,137.975 11.850 C 138.017 12.053,137.799 12.285,137.491 12.366 C 137.182 12.447,136.929 12.670,136.929 12.863 C 136.929 13.056,136.680 13.279,136.376 13.358 C 136.072 13.438,135.823 13.701,135.823 13.944 C 135.823 14.186,135.636 14.385,135.408 14.385 C 135.040 14.385,134.993 21.654,134.993 78.147 L 134.993 141.909 75.657 141.909 C 23.098 141.909,16.321 141.956,16.321 142.324 C 16.321 142.685,15.607 142.898,14.845 142.763 C 14.718 142.741,14.547 142.975,14.467 143.284 C 14.366 143.669,14.091 143.845,13.590 143.845 C 13.109 143.845,12.556 144.176,11.971 144.813 C 11.482 145.346,10.834 145.781,10.530 145.781 C 10.226 145.781,9.845 146.030,9.682 146.335 C 9.519 146.639,9.203 146.888,8.981 146.888 C 8.758 146.888,8.575 147.075,8.575 147.303 C 8.575 147.531,8.377 147.718,8.135 147.718 C 7.892 147.718,7.629 147.967,7.549 148.271 C 7.469 148.575,7.263 148.826,7.091 148.829 C 6.694 148.835,5.533 150.046,5.533 150.454 C 5.533 150.623,5.252 150.763,4.910 150.765 C 4.263 150.769,3.249 151.273,3.734 151.349 C 3.887 151.373,3.513 151.468,2.905 151.561 L 1.798 151.729 1.728 208.506 C 1.660 264.079,1.670 265.284,2.183 265.284 C 2.471 265.284,2.779 265.471,2.867 265.701 C 2.955 265.931,3.124 266.103,3.243 266.083 C 3.927 265.971,4.426 266.169,4.426 266.554 C 4.426 266.797,4.666 267.058,4.960 267.135 C 5.254 267.212,5.561 267.449,5.643 267.662 C 5.725 267.875,5.973 268.050,6.193 268.050 C 6.414 268.050,7.098 268.548,7.713 269.156 C 8.327 269.765,8.960 270.263,9.118 270.263 C 9.276 270.263,9.405 270.450,9.405 270.678 C 9.405 270.908,9.651 271.093,9.959 271.093 C 10.327 271.093,10.512 271.277,10.512 271.646 C 10.512 271.953,10.696 272.199,10.927 272.199 C 11.155 272.199,11.342 272.386,11.342 272.614 C 11.342 272.991,11.450 273.049,12.102 273.020 C 12.216 273.015,12.372 273.482,12.448 274.057 L 12.586 275.104 200.622 275.173 C 388.520 275.242,388.658 275.242,388.658 274.689 C 388.658 274.320,388.843 274.136,389.212 274.136 C 389.580 274.136,389.765 273.951,389.765 273.582 C 389.765 273.155,389.949 273.029,390.575 273.029 C 391.264 273.029,391.482 272.835,392.028 271.738 C 392.690 270.407,394.345 268.539,395.129 268.238 C 395.374 268.144,395.574 267.877,395.574 267.644 C 395.574 267.403,395.842 267.200,396.196 267.173 C 396.539 267.147,397.006 267.098,397.234 267.064 C 397.462 267.030,397.804 266.989,397.994 266.973 C 398.483 266.931,398.426 265.852,397.925 265.660 C 397.558 265.519,397.510 259.027,397.510 209.534 C 397.510 148.769,397.607 152.697,396.107 152.697 C 395.758 152.697,395.574 152.506,395.574 152.144 C 395.574 151.775,395.390 151.591,395.021 151.591 C 394.613 151.591,394.467 151.406,394.467 150.890 C 394.467 150.505,394.281 150.118,394.053 150.031 C 393.824 149.943,393.638 149.584,393.638 149.232 C 393.638 148.115,393.340 147.718,392.502 147.718 C 391.975 147.718,391.701 147.576,391.701 147.303 C 391.701 147.045,391.440 146.888,391.012 146.888 C 390.622 146.888,390.173 146.647,389.977 146.335 C 389.765 145.994,389.332 145.781,388.852 145.781 C 388.419 145.781,388.146 145.662,388.238 145.513 C 388.329 145.366,387.963 145.061,387.425 144.836 C 386.886 144.611,386.445 144.322,386.445 144.195 C 386.445 144.067,386.052 143.933,385.571 143.896 C 385.090 143.860,384.557 143.638,384.386 143.404 C 384.215 143.170,383.550 142.908,382.909 142.822 C 382.183 142.725,381.743 142.523,381.743 142.287 C 381.743 141.968,372.513 141.909,322.960 141.909 L 264.177 141.909 264.177 133.916 C 264.177 127.067,264.236 125.901,264.592 125.764 C 264.820 125.677,265.007 125.348,265.007 125.035 C 265.007 124.721,264.820 124.392,264.592 124.305 C 264.225 124.164,264.177 117.854,264.177 69.818 C 264.177 23.747,264.119 15.491,263.794 15.491 C 263.584 15.491,263.347 15.242,263.267 14.938 C 263.187 14.633,262.938 14.385,262.714 14.385 C 262.489 14.385,262.240 14.136,262.161 13.831 C 262.081 13.527,261.817 13.278,261.575 13.278 C 261.333 13.278,261.134 13.091,261.134 12.863 C 261.134 12.635,260.962 12.448,260.751 12.448 C 260.541 12.448,260.304 12.199,260.224 11.895 C 260.145 11.591,259.881 11.342,259.639 11.342 C 259.396 11.342,259.198 11.155,259.198 10.927 C 259.198 10.698,259.026 10.512,258.815 10.512 C 258.605 10.512,258.367 10.263,258.288 9.959 C 258.208 9.654,257.945 9.405,257.702 9.405 C 257.460 9.405,257.261 9.219,257.261 8.990 C 257.261 8.762,257.075 8.575,256.846 8.575 C 256.616 8.575,256.432 8.329,256.432 8.022 C 256.432 7.665,256.247 7.469,255.911 7.469 C 255.622 7.469,255.325 7.222,255.245 6.916 C 255.165 6.611,254.902 6.362,254.659 6.362 C 254.417 6.362,254.219 6.189,254.219 5.977 C 254.219 5.765,254.032 5.520,253.804 5.432 C 253.561 5.339,253.389 4.925,253.389 4.435 L 253.389 3.596 201.107 3.596 C 154.818 3.596,148.824 3.644,148.824 4.011 M135.087 4.221 C 134.769 4.736,135.748 5.386,136.233 4.983 C 136.474 4.783,136.629 4.492,136.577 4.337 C 136.456 3.974,135.296 3.883,135.087 4.221 M248.271 6.457 C 253.191 8.720,254.387 9.517,257.028 12.290 C 258.503 13.838,260.858 17.920,260.858 18.929 C 260.858 19.153,261.044 20.054,261.272 20.930 C 261.789 22.912,261.898 116.847,261.386 118.811 C 261.227 119.419,261.003 120.355,260.888 120.891 C 260.773 121.427,260.314 122.462,259.869 123.191 C 259.424 123.921,258.935 124.728,258.783 124.986 C 258.349 125.722,255.194 129.793,254.404 130.636 C 253.950 131.121,253.406 131.397,252.904 131.397 C 252.471 131.397,251.989 131.524,251.834 131.679 C 251.283 132.230,248.516 133.121,246.196 133.495 C 243.193 133.980,156.895 134.073,153.340 133.596 C 146.042 132.616,139.267 126.872,138.182 120.747 C 138.075 120.138,137.860 119.488,137.706 119.301 C 137.180 118.664,137.409 21.486,137.941 19.640 C 138.600 17.353,139.973 14.628,141.114 13.342 C 141.483 12.926,141.973 12.316,142.203 11.986 C 143.880 9.580,149.560 6.506,153.112 6.083 C 157.409 5.572,247.113 5.924,248.271 6.457 M153.665 9.121 C 149.449 9.589,144.190 13.029,142.445 16.459 C 142.135 17.068,141.770 17.752,141.634 17.981 C 140.195 20.399,140.249 18.510,140.253 66.506 C 140.256 91.001,140.365 110.957,140.497 111.167 C 140.693 111.475,140.832 111.448,141.254 111.020 C 141.806 110.459,144.110 108.010,149.654 102.090 C 151.556 100.060,153.548 97.934,154.080 97.365 C 154.613 96.797,155.453 95.885,155.947 95.338 L 156.846 94.344 156.853 59.274 C 156.857 39.192,156.967 23.791,157.111 23.237 C 157.813 20.527,158.233 19.887,161.130 17.103 C 162.719 15.576,164.085 14.121,164.165 13.871 C 164.362 13.252,166.267 12.284,168.602 11.618 C 170.477 11.082,171.390 11.065,197.924 11.058 C 214.650 11.054,225.688 10.948,226.279 10.785 C 226.812 10.638,228.088 10.305,229.115 10.044 C 231.179 9.521,231.412 9.284,230.118 9.025 C 228.961 8.794,155.783 8.885,153.665 9.121 M173.029 14.025 C 171.334 14.423,168.719 15.303,168.584 15.521 C 168.498 15.660,167.721 16.220,166.856 16.765 C 165.323 17.732,162.932 20.049,162.932 20.568 C 162.932 20.863,161.011 23.847,160.672 24.081 C 159.964 24.566,159.890 29.111,159.895 71.753 C 159.901 120.994,159.820 118.780,161.729 121.825 C 164.457 126.177,164.612 126.323,169.571 129.214 C 171.880 130.560,173.067 130.597,210.973 130.509 L 245.505 130.429 247.026 129.634 C 251.224 127.439,253.404 125.689,254.476 123.651 C 254.836 122.967,255.285 122.220,255.473 121.992 C 255.662 121.763,256.235 120.768,256.746 119.779 L 257.676 117.981 257.676 72.061 L 257.676 26.141 257.102 25.311 C 256.786 24.855,256.371 24.086,256.178 23.602 C 255.985 23.119,255.664 22.660,255.464 22.584 C 255.264 22.507,255.018 22.069,254.918 21.611 C 254.637 20.333,253.002 18.395,251.242 17.253 C 250.369 16.687,249.369 15.970,249.020 15.660 C 248.394 15.103,247.060 14.652,244.430 14.110 C 243.085 13.833,174.199 13.751,173.029 14.025 M208.437 21.024 C 208.673 21.480,209.043 21.853,209.258 21.853 C 209.782 21.853,210.512 22.930,210.512 23.702 C 210.512 24.043,210.667 24.449,210.858 24.605 C 211.048 24.760,211.594 25.200,212.071 25.582 C 212.716 26.098,212.984 26.585,213.120 27.488 C 213.254 28.381,213.550 28.928,214.240 29.555 C 214.946 30.198,215.225 30.725,215.369 31.689 C 215.525 32.729,215.724 33.065,216.425 33.481 C 217.781 34.284,217.871 34.417,218.249 36.197 C 218.445 37.120,218.831 38.081,219.107 38.331 C 219.383 38.580,219.684 39.128,219.776 39.547 C 219.869 39.967,220.328 40.703,220.798 41.183 C 221.806 42.215,222.683 43.765,222.683 44.517 C 222.683 44.811,223.043 45.308,223.482 45.621 C 223.922 45.934,224.364 46.534,224.464 46.954 C 224.945 48.968,225.497 49.966,226.296 50.267 C 227.154 50.591,227.188 50.646,227.656 52.477 C 227.820 53.117,228.118 53.804,228.318 54.004 C 229.359 55.045,230.020 58.781,229.272 59.401 C 229.001 59.626,226.594 59.750,221.366 59.807 C 215.131 59.875,213.780 59.960,213.437 60.304 C 213.077 60.666,213.020 64.283,212.990 88.658 C 212.955 117.062,212.901 118.604,211.897 119.845 C 211.286 120.600,204.530 120.822,203.818 120.111 C 203.528 119.821,203.443 114.006,203.384 90.106 C 203.334 70.224,203.216 60.366,203.025 60.175 C 202.847 59.997,199.511 59.837,194.187 59.751 C 184.177 59.589,184.110 59.572,185.590 57.529 C 186.062 56.878,186.580 55.852,186.743 55.249 C 186.905 54.645,187.399 53.822,187.841 53.418 C 188.282 53.015,188.781 52.252,188.951 51.723 C 189.387 50.359,190.366 48.409,190.615 48.409 C 190.731 48.409,191.034 47.864,191.288 47.198 C 191.542 46.532,192.101 45.728,192.529 45.412 C 193.172 44.936,193.363 44.503,193.631 42.914 C 193.922 41.192,194.039 40.956,194.749 40.662 C 195.300 40.434,195.599 40.067,195.730 39.461 C 196.008 38.168,196.639 37.067,197.534 36.314 C 197.985 35.934,198.462 35.152,198.636 34.508 C 198.804 33.883,199.286 33.051,199.706 32.658 C 200.238 32.161,200.531 31.543,200.668 30.625 C 200.839 29.489,201.014 29.213,201.933 28.633 C 203.026 27.943,203.142 27.735,203.450 25.914 C 203.592 25.071,203.791 24.799,204.427 24.578 C 205.113 24.339,205.273 24.078,205.562 22.731 C 206.119 20.135,207.541 19.290,208.437 21.024 M112.612 144.976 C 113.891 145.141,115.498 145.527,116.183 145.834 C 118.421 146.838,119.779 147.575,119.779 147.787 C 119.779 147.901,119.956 147.994,120.174 147.994 C 122.215 147.994,126.785 154.776,127.793 159.299 C 128.400 162.025,128.667 253.974,128.077 256.985 C 127.097 261.981,126.588 262.915,122.822 266.636 C 120.769 268.663,119.708 269.530,117.870 270.678 C 117.627 270.830,117.364 271.038,117.286 271.141 C 117.098 271.388,113.988 272.168,111.870 272.500 C 110.835 272.662,92.652 272.730,64.705 272.677 C 12.726 272.578,17.946 272.864,12.341 269.803 C 11.404 269.291,7.370 265.272,6.855 264.337 C 3.672 258.559,3.842 261.914,3.934 206.672 C 4.021 154.028,3.807 159.276,6.052 154.640 C 7.349 151.962,12.028 147.165,13.344 147.165 C 13.512 147.165,13.846 147.000,14.086 146.800 C 14.816 146.190,16.905 145.452,18.949 145.084 C 21.541 144.616,109.049 144.515,112.612 144.976 M246.281 144.984 C 248.782 145.372,251.794 146.646,253.899 148.207 C 255.678 149.525,258.402 152.243,258.793 153.089 C 259.009 153.558,259.295 154.129,259.428 154.357 C 260.088 155.489,260.613 156.916,261.124 158.967 C 261.773 161.571,262.022 255.237,261.386 257.676 C 261.227 258.285,260.997 259.219,260.874 259.751 C 260.471 261.495,258.715 264.698,257.698 265.542 C 257.440 265.756,257.063 266.328,256.861 266.814 C 256.508 267.657,253.667 269.710,252.852 269.710 C 252.673 269.710,252.064 270.081,251.500 270.534 C 250.885 271.029,249.588 271.611,248.266 271.987 L 246.058 272.614 200.705 272.687 C 155.992 272.760,153.789 272.722,150.484 271.843 C 144.666 270.296,139.799 265.249,137.888 258.783 C 137.204 256.468,137.224 160.693,137.909 158.752 C 138.131 158.122,138.313 157.436,138.313 157.227 C 138.313 153.157,146.443 146.081,152.282 145.070 C 154.952 144.608,243.337 144.527,246.281 144.984 M379.806 145.057 C 381.100 145.260,382.531 145.630,382.988 145.879 C 383.444 146.128,383.920 146.332,384.046 146.333 C 386.752 146.353,394.175 154.611,394.194 157.623 C 394.196 157.881,394.382 158.702,394.609 159.449 C 395.220 161.462,395.209 256.810,394.598 258.506 C 394.379 259.115,394.197 259.808,394.195 260.046 C 394.193 260.285,393.802 261.218,393.327 262.121 C 392.851 263.024,392.313 264.382,392.131 265.140 C 391.776 266.617,388.988 268.916,386.591 269.707 C 386.059 269.883,385.557 270.134,385.476 270.265 C 385.209 270.697,383.650 271.350,381.364 271.987 L 379.115 272.614 332.918 272.614 L 286.722 272.614 284.498 272.020 C 278.226 270.344,273.213 265.508,271.466 259.450 C 270.721 256.868,270.517 161.734,271.249 158.783 C 272.022 155.671,273.709 152.627,275.847 150.490 C 277.617 148.719,281.615 146.058,282.504 146.058 C 282.709 146.058,283.027 145.908,283.212 145.723 C 284.258 144.677,373.475 144.061,379.806 145.057 M18.672 147.974 C 12.995 149.590,9.254 153.195,7.475 158.763 C 6.820 160.813,6.567 249.544,7.214 249.944 C 7.378 250.046,8.032 249.572,8.667 248.891 C 9.301 248.211,11.952 245.427,14.557 242.707 C 17.162 239.986,19.629 237.386,20.038 236.929 C 20.447 236.473,21.237 235.616,21.792 235.024 C 22.348 234.432,22.957 233.651,23.146 233.287 C 23.413 232.771,23.493 224.899,23.507 197.549 C 23.517 178.220,23.634 162.110,23.768 161.665 C 24.410 159.536,25.105 158.595,28.639 155.075 C 30.699 153.024,32.660 151.266,32.997 151.169 C 33.334 151.073,34.046 150.785,34.578 150.531 C 35.457 150.112,38.181 150.056,64.039 149.922 C 94.418 149.765,94.118 149.778,96.029 148.440 C 96.379 148.195,96.887 147.994,97.157 147.994 C 97.427 147.994,97.649 147.870,97.649 147.718 C 97.649 147.166,20.632 147.416,18.672 147.974 M152.263 147.963 C 146.973 149.264,142.817 153.035,140.946 158.230 C 140.306 160.006,139.904 249.281,140.533 249.910 C 140.737 250.115,141.487 249.501,143.045 247.854 C 144.266 246.562,147.217 243.467,149.604 240.975 C 155.383 234.942,155.973 234.289,156.440 233.424 C 156.780 232.792,156.840 227.637,156.850 197.878 C 156.857 178.079,156.970 162.653,157.112 162.102 C 157.814 159.382,158.225 158.760,161.190 155.929 C 162.813 154.380,164.367 152.894,164.643 152.628 C 164.919 152.362,165.145 152.034,165.145 151.901 C 165.145 151.767,165.550 151.504,166.044 151.315 C 166.539 151.127,167.379 150.769,167.911 150.521 C 168.781 150.115,171.794 150.054,197.372 149.921 C 227.746 149.763,227.454 149.777,229.362 148.440 C 229.712 148.195,230.289 147.994,230.645 147.994 C 231.005 147.994,231.216 147.872,231.120 147.718 C 230.776 147.161,154.561 147.398,152.263 147.963 M285.430 147.983 C 279.793 149.487,275.936 153.231,274.263 158.821 L 273.582 161.093 273.582 205.427 C 273.582 238.651,273.662 249.809,273.902 249.957 C 274.231 250.161,275.157 249.243,282.988 240.956 C 285.346 238.460,287.676 235.997,288.167 235.482 C 290.416 233.120,290.178 237.501,290.192 198.234 C 290.198 179.046,290.313 162.849,290.447 162.241 C 291.006 159.693,291.429 159.093,295.522 155.048 C 297.754 152.842,299.749 151.037,299.955 151.037 C 300.161 151.037,300.754 150.820,301.271 150.553 C 302.144 150.104,304.287 150.058,330.705 149.920 C 361.161 149.761,361.497 149.745,362.852 148.391 C 363.070 148.173,363.551 147.994,363.920 147.994 C 364.290 147.994,364.592 147.870,364.592 147.718 C 364.592 147.150,287.587 147.408,285.430 147.983 M39.364 153.100 C 37.965 153.290,36.533 153.646,36.183 153.892 C 35.833 154.138,35.032 154.703,34.403 155.149 C 33.775 155.594,33.015 156.036,32.715 156.132 C 31.973 156.367,30.218 158.152,29.562 159.336 C 29.268 159.869,28.660 160.864,28.212 161.549 C 26.243 164.557,26.290 163.361,26.284 210.948 C 26.279 255.243,26.398 260.028,27.501 260.028 C 27.880 260.028,29.599 262.450,29.599 262.985 C 29.599 263.391,32.271 265.774,34.306 267.182 C 37.682 269.519,35.337 269.385,76.873 269.606 L 113.414 269.800 113.727 268.900 C 113.959 268.236,114.557 267.670,116.011 266.740 C 118.588 265.091,119.024 264.676,120.561 262.410 C 123.689 257.799,123.394 263.349,123.305 210.647 C 123.220 160.435,123.317 163.445,121.727 161.687 C 121.452 161.383,121.030 160.745,120.789 160.269 C 120.045 158.795,117.627 156.380,115.968 155.454 C 115.097 154.968,114.120 154.329,113.797 154.033 C 112.439 152.792,110.087 152.713,74.827 152.735 C 50.213 152.751,41.267 152.843,39.364 153.100 M172.891 153.103 C 170.415 153.425,170.144 153.528,168.208 154.869 C 167.078 155.652,166.020 156.296,165.857 156.299 C 165.277 156.309,163.121 158.960,161.586 161.549 L 160.028 164.177 159.950 209.682 C 159.871 256.659,159.907 258.429,160.971 259.608 C 161.247 259.915,161.920 260.975,162.465 261.964 C 163.634 264.083,164.928 265.378,167.269 266.771 C 168.208 267.331,169.024 267.929,169.081 268.100 C 169.548 269.500,238.673 270.292,244.708 268.966 C 248.036 268.235,252.707 264.923,253.997 262.379 C 254.305 261.770,254.782 261.024,255.057 260.719 C 255.331 260.415,255.815 259.423,256.132 258.516 C 256.921 256.255,257.055 166.944,256.273 164.278 C 255.308 160.990,252.367 157.191,249.516 155.551 C 248.831 155.158,247.846 154.519,247.327 154.133 C 245.503 152.775,244.025 152.722,208.299 152.742 C 183.959 152.756,174.842 152.849,172.891 153.103 M306.343 153.079 C 304.044 153.367,303.663 153.506,301.779 154.750 C 300.648 155.497,299.279 156.400,298.736 156.757 C 297.656 157.466,296.730 158.585,296.425 159.547 C 296.317 159.886,296.076 160.319,295.889 160.510 C 294.762 161.658,293.722 163.636,293.486 165.078 C 293.147 167.145,293.146 254.300,293.484 256.640 C 293.862 259.251,297.312 264.814,299.131 265.745 C 299.609 265.990,300.685 266.706,301.521 267.337 C 304.413 269.518,302.702 269.430,342.185 269.430 C 372.003 269.430,377.116 269.372,378.423 269.020 C 379.260 268.794,380.203 268.608,380.518 268.606 C 380.834 268.605,382.007 267.918,383.126 267.082 C 384.244 266.245,385.231 265.560,385.318 265.559 C 385.482 265.558,386.912 264.204,387.424 263.566 C 387.582 263.370,387.882 262.773,388.091 262.241 C 388.300 261.708,388.682 261.024,388.940 260.719 C 389.198 260.415,389.770 259.492,390.210 258.667 L 391.010 257.169 391.010 211.088 L 391.010 165.007 390.083 163.347 C 389.573 162.434,388.995 161.501,388.800 161.272 C 388.604 161.044,388.115 160.223,387.714 159.446 C 386.831 157.740,386.481 157.416,383.126 155.197 C 379.174 152.584,381.188 152.704,341.909 152.737 C 319.051 152.756,308.078 152.861,306.343 153.079 M212.328 160.443 C 215.171 160.921,216.874 161.353,216.874 161.593 C 216.874 162.080,218.010 162.932,218.659 162.932 C 219.871 162.932,220.632 163.483,221.066 164.676 C 221.432 165.677,221.621 165.849,222.568 166.040 C 223.736 166.275,224.620 167.098,224.620 167.951 C 224.620 168.265,225.012 168.715,225.576 169.047 C 226.681 169.700,226.652 169.630,227.378 173.444 C 228.200 177.765,228.357 178.407,229.040 180.221 C 229.592 181.688,229.694 182.670,229.915 188.658 C 230.256 197.914,230.375 197.547,226.924 197.937 C 224.037 198.264,224.062 198.323,223.799 190.417 L 223.577 183.754 222.439 181.434 C 221.469 179.456,220.470 175.349,220.470 173.339 C 220.470 173.279,219.848 172.567,219.087 171.757 C 218.326 170.947,217.704 170.115,217.704 169.909 C 217.704 165.825,206.342 165.019,202.490 168.829 C 200.408 170.889,199.723 171.642,199.723 171.873 C 199.723 172.245,197.690 174.550,197.362 174.550 C 196.479 174.550,195.928 175.834,195.579 178.700 C 195.258 181.338,195.153 181.668,194.433 182.296 C 193.375 183.220,191.318 191.961,191.165 196.186 C 191.156 196.446,190.874 196.914,190.540 197.226 C 189.738 197.973,189.511 203.465,189.647 218.811 C 189.757 231.120,189.924 233.180,191.084 236.515 C 191.534 237.808,192.117 239.862,192.379 241.079 C 192.642 242.296,193.032 243.761,193.247 244.335 C 193.462 244.908,193.638 245.631,193.638 245.941 C 193.638 246.251,194.000 246.840,194.443 247.249 C 194.902 247.674,195.390 248.527,195.577 249.232 C 196.217 251.646,198.715 254.219,200.418 254.219 C 200.624 254.219,201.044 254.573,201.353 255.006 C 202.837 257.091,212.921 257.104,214.402 255.023 C 214.742 254.546,215.391 254.118,216.040 253.943 C 217.063 253.668,217.129 253.581,217.433 252.118 C 217.730 250.686,217.829 250.549,218.903 250.088 C 220.121 249.565,220.469 248.861,220.901 246.058 C 221.112 244.689,221.982 242.041,222.661 240.701 C 222.942 240.148,223.318 238.575,223.497 237.206 C 224.221 231.684,224.919 231.015,228.823 232.099 C 231.135 232.741,230.592 239.696,227.628 247.409 C 227.343 248.152,227.109 248.979,227.109 249.248 C 227.109 249.516,226.663 250.127,226.117 250.606 C 225.181 251.428,224.924 252.000,223.903 255.540 C 223.847 255.734,223.260 256.125,222.599 256.408 C 221.938 256.692,220.962 257.447,220.431 258.086 C 219.540 259.159,217.372 260.264,216.095 260.295 C 215.894 260.300,215.334 260.718,214.850 261.224 C 212.319 263.868,201.791 263.598,199.707 260.836 C 199.391 260.417,198.719 260.115,197.615 259.896 C 196.138 259.604,195.945 259.481,195.503 258.556 C 195.235 257.996,194.856 257.538,194.660 257.538 C 194.158 257.538,192.343 255.611,192.010 254.725 C 191.857 254.319,191.386 253.821,190.962 253.618 C 190.162 253.234,190.026 252.930,189.456 250.255 C 189.166 248.891,188.935 248.497,187.962 247.699 C 186.586 246.572,186.272 245.673,185.758 241.393 C 185.554 239.699,185.115 237.566,184.782 236.653 C 183.895 234.225,183.698 231.524,183.509 219.225 C 183.288 204.838,183.881 192.853,184.867 191.764 C 185.456 191.114,185.571 190.436,185.859 185.916 C 186.063 182.727,186.128 182.441,186.768 181.905 C 188.021 180.856,189.116 178.882,189.324 177.296 C 189.680 174.573,190.069 173.447,190.780 173.075 C 191.154 172.879,191.839 171.941,192.336 170.944 C 192.921 169.771,193.485 169.038,193.991 168.795 C 194.446 168.578,194.995 167.924,195.339 167.193 C 195.659 166.513,196.184 165.818,196.508 165.646 C 196.831 165.475,197.560 164.859,198.129 164.276 C 198.870 163.516,199.486 163.165,200.307 163.034 C 201.066 162.912,201.689 162.584,202.157 162.059 C 203.452 160.605,208.516 159.800,212.328 160.443 M78.362 161.222 C 79.090 161.394,80.210 161.837,80.852 162.205 C 81.494 162.573,82.320 162.965,82.687 163.075 C 83.486 163.314,87.668 166.815,89.177 168.507 C 90.386 169.863,90.860 170.838,91.141 172.544 C 91.247 173.189,91.444 173.786,91.579 173.869 C 93.354 174.966,93.706 191.234,91.998 193.300 C 91.539 193.856,91.290 194.704,91.046 196.542 C 90.776 198.573,90.593 199.141,90.054 199.622 C 89.690 199.947,89.056 201.068,88.645 202.112 C 88.233 203.157,87.665 204.266,87.383 204.578 C 87.100 204.889,86.794 205.520,86.702 205.980 C 86.601 206.481,85.944 207.401,85.065 208.271 C 84.016 209.310,83.510 210.066,83.295 210.917 C 83.130 211.573,82.819 212.177,82.604 212.259 C 82.389 212.342,82.067 212.854,81.887 213.397 C 81.677 214.034,81.388 214.385,81.073 214.385 C 80.478 214.385,79.808 215.088,79.413 216.125 C 79.252 216.550,78.746 217.110,78.289 217.370 C 77.285 217.941,77.249 218.348,78.112 219.373 C 78.489 219.821,78.855 220.724,78.969 221.488 C 79.280 223.565,80.439 226.970,81.011 227.488 C 81.354 227.798,81.643 228.681,81.865 230.092 C 82.049 231.266,82.428 232.725,82.707 233.333 C 82.985 233.942,83.360 235.187,83.538 236.100 C 83.975 238.330,84.584 239.674,85.299 239.989 C 85.763 240.193,85.985 240.710,86.327 242.387 C 86.567 243.563,86.983 244.767,87.250 245.062 C 87.518 245.358,88.031 246.553,88.390 247.717 C 88.749 248.882,89.314 250.292,89.645 250.851 C 91.002 253.147,91.622 257.247,90.948 259.473 C 90.335 261.495,86.850 261.697,86.116 259.754 C 85.929 259.257,85.543 258.879,85.115 258.771 C 84.344 258.578,83.952 257.796,83.665 255.878 C 83.563 255.194,83.182 253.716,82.819 252.594 C 82.456 251.473,82.017 249.419,81.844 248.030 C 81.593 246.019,81.403 245.392,80.915 244.952 C 80.203 244.311,79.812 243.264,79.224 240.424 C 78.992 239.303,78.690 238.183,78.553 237.934 C 77.645 236.287,77.140 234.580,76.991 232.654 C 76.869 231.067,76.646 230.173,76.180 229.409 C 75.139 227.699,74.730 226.757,74.557 225.677 C 74.087 222.733,72.003 222.759,68.614 225.750 C 67.416 226.808,65.750 227.976,64.912 228.347 C 64.074 228.717,63.286 229.196,63.161 229.412 C 63.035 229.627,62.434 230.058,61.826 230.370 C 61.217 230.681,60.159 231.513,59.474 232.218 L 58.230 233.499 58.230 246.426 C 58.230 261.074,58.294 260.622,56.168 260.962 C 54.901 261.164,53.389 260.577,53.389 259.882 C 53.389 259.658,53.119 259.205,52.790 258.876 C 51.957 258.043,51.997 259.671,51.857 221.024 C 51.787 201.929,51.699 181.493,51.660 175.610 L 51.591 164.913 52.254 164.207 C 52.980 163.434,53.933 163.072,55.958 162.798 C 56.686 162.699,58.118 162.309,59.139 161.930 C 62.247 160.777,74.571 160.323,78.362 161.222 M353.991 161.231 C 355.047 161.303,355.464 162.008,355.460 163.713 C 355.451 167.224,356.055 167.080,341.323 167.088 C 329.819 167.095,327.676 167.227,327.211 167.961 C 326.809 168.596,326.911 214.757,327.317 215.269 C 328.171 216.349,332.430 216.797,337.421 216.331 C 339.998 216.091,341.033 216.092,341.710 216.337 C 342.379 216.579,343.424 216.584,345.898 216.358 C 351.988 215.801,355.895 218.003,352.179 219.899 C 351.552 220.219,350.978 220.776,350.778 221.259 C 350.307 222.396,350.285 222.399,340.410 222.403 C 332.077 222.406,328.696 222.636,327.455 223.281 C 327.002 223.516,326.971 224.577,326.971 239.581 L 326.971 255.630 328.008 256.100 C 329.091 256.590,338.430 256.722,350.207 256.413 C 356.445 256.249,357.663 256.828,357.260 259.760 C 357.056 261.244,356.513 262.033,355.463 262.371 C 354.840 262.571,330.635 263.153,324.681 263.111 C 320.079 263.078,319.934 262.781,320.191 253.942 C 320.333 249.057,320.531 208.681,320.618 166.667 C 320.627 162.078,320.770 161.615,322.270 161.310 C 322.976 161.166,351.976 161.094,353.991 161.231 M67.082 166.000 C 65.439 166.130,63.416 166.507,62.102 166.927 C 60.885 167.316,59.691 167.635,59.448 167.635 C 58.055 167.635,57.468 173.760,57.739 185.477 C 57.842 189.913,57.768 192.036,57.429 194.456 C 56.903 198.212,56.794 212.239,57.279 213.833 C 57.440 214.365,57.598 216.924,57.629 219.521 C 57.703 225.759,58.474 227.115,60.613 224.764 C 61.094 224.235,61.751 223.721,62.072 223.621 C 63.045 223.318,64.919 221.851,65.243 221.140 C 65.411 220.771,65.718 220.470,65.926 220.470 C 66.134 220.470,66.666 220.159,67.108 219.779 C 67.550 219.399,68.102 219.088,68.336 219.087 C 68.569 219.087,68.984 218.709,69.257 218.247 C 69.530 217.784,70.241 217.083,70.838 216.689 C 71.452 216.282,71.923 215.748,71.923 215.458 C 71.923 215.160,72.387 214.652,73.029 214.246 C 73.638 213.862,74.136 213.418,74.136 213.259 C 74.136 213.100,74.695 212.723,75.379 212.420 C 76.473 211.936,76.643 211.742,76.793 210.805 C 76.903 210.114,77.371 209.269,78.124 208.397 C 78.763 207.658,79.451 206.644,79.654 206.142 C 79.857 205.640,80.365 205.053,80.783 204.837 C 81.358 204.539,81.679 204.020,82.101 202.706 C 82.980 199.965,84.348 196.881,84.923 196.345 C 86.760 194.634,87.502 185.065,86.351 177.915 L 85.802 174.502 84.533 173.286 C 83.835 172.617,83.264 171.901,83.264 171.693 C 83.264 171.486,83.027 171.102,82.736 170.839 C 82.446 170.576,82.065 170.015,81.890 169.593 C 81.546 168.762,80.060 167.807,78.644 167.507 C 78.156 167.404,77.471 167.094,77.120 166.819 C 76.540 166.362,71.805 165.611,70.321 165.739 C 70.061 165.762,68.603 165.879,67.082 166.000 " stroke="none" fill="#ffffff" fill-rule="evenodd"></path></g></svg>