<svg xmlns="http://www.w3.org/2000/svg" width="40" height="42" viewBox="0 0 40 42">
    <g fill="none" fill-rule="evenodd">
        <path fill="#EFEFF4" d="M0 0H4823V3877H0z" transform="translate(-1761 -3612)"/>
        <path d="M1761 3612H1801V3654H1761z" transform="translate(-1761 -3612)"/>
        <g stroke="#FFF">
            <path fill="#17B05E" d="M.716 29.29V1.726c0-.552.448-1 1-1h.003l13.104.039c.307 0 .597.143.786.385l3.812 4.888c.189.243.48.385.788.385h16.072c.552 0 1 .447 1 1V29.29h0H.716z" transform="translate(-1761 -3612) translate(1762 3619)"/>
            <path d="M0.656 6.431L20.482 6.431" transform="translate(-1761 -3612) translate(1762 3619)"/>
        </g>
    </g>
</svg>
