<svg xmlns="http://www.w3.org/2000/svg" width="40" height="42" viewBox="0 0 40 42">
    <g fill="none" fill-rule="evenodd">
        <path fill="#EFEFF4" d="M0 0H4823V3877H0z" transform="translate(-1671 -3612)"/>
        <path d="M1671 3612H1711V3654H1671z" transform="translate(-1671 -3612)"/>
        <g>
            <g stroke="#FFF" stroke-linejoin="bevel" stroke-width="1.003">
                <path fill="#17B05E" d="M32.5 41.5L0.5 41.5 0.5 0.5 20 0.5 32.5 13.3z" transform="translate(-1671 -3612) translate(1674 3613)"/>
                <path d="M19.6 13.4L32.5 13.3 31.9 12.7 20.6 1.1 20 0.5z" transform="translate(-1671 -3612) translate(1674 3613)"/>
            </g>
            <path fill="#FFF" d="M13.6 0.9L7.9 8.3 4.9 4.7 0.5 9.9 6.7 9.9 9.2 9.9 20.5 9.9z" transform="translate(-1671 -3612) translate(1674 3613) translate(6 21)"/>
        </g>
    </g>
</svg>
