<svg xmlns="http://www.w3.org/2000/svg" xmlns:xlink="http://www.w3.org/1999/xlink" width="15" height="12" viewBox="0 0 15 12">
    <defs>
        <path id="camera-icon-path" d="M2 6a1 1 0 0 1 1-1h2.75l.668-1.424A1 1 0 0 1 7.323 3h4.354a1 1 0 0 1 .905.576L13.25 5H16a1 1 0 0 1 1 1v8a1 1 0 0 1-1 1H3a1 1 0 0 1-1-1V6zm1 0v8h13V6h-3.5l-1.018-2H7.518L6.5 6H3zm6.5 6a2.5 2.5 0 1 1 0-5 2.5 2.5 0 0 1 0 5zm0-1a1.5 1.5 0 1 0 0-3 1.5 1.5 0 0 0 0 3z"/>
    </defs>
    <g fill-rule="evenodd" transform="translate(-2 -3)">
        <mask id="camera-icon-mask">
            <use xlink:href="#camera-icon-path"/>
        </mask>
        <use fill-rule="nonzero" xlink:href="#camera-icon-path"/>
        <g mask="url(#camera-icon-mask)">
            <path d="M1 1h17v17H1z"/>
        </g>
    </g>
</svg>
