<svg xmlns="http://www.w3.org/2000/svg" xmlns:xlink="http://www.w3.org/1999/xlink" viewBox="0 0 19 15">
    <defs>
        <path id="image-plugin-path" d="M0 3a1 1 0 0 1 1-1h2.75L4.418.576A1 1 0 0 1 5.323 0h4.354a1 1 0 0 1 .905.576L11.25 2H14a1 1 0 0 1 1 1v8a1 1 0 0 1-1 1H1a1 1 0 0 1-1-1V3zm1 0v8h13V3h-3.5L9.482 1H5.518L4.5 3H1zm6.5 6a2.5 2.5 0 1 1 0-5 2.5 2.5 0 0 1 0 5zm0-1a1.5 1.5 0 1 0 0-3 1.5 1.5 0 0 0 0 3z"/>
    </defs>
    <g fill-rule="evenodd">
        <mask id="image-plugin-mask" fill="#fff">
            <use xlink:href="#image-plugin-path"/>
        </mask>
        <use fill-rule="nonzero" xlink:href="#image-plugin-path"/>
        <g mask="url(#image-plugin-mask)">
            <path d="M-1-2h17v17H-1z"/>
        </g>
    </g>
</svg>
