<svg width="19px" height="19px" viewBox="0 0 19 19" version="1.1" xmlns="http://www.w3.org/2000/svg" xmlns:xlink="http://www.w3.org/1999/xlink">
    <g stroke="none" stroke-width="1" fill-rule="evenodd">
        <path d="M2,6 C2,5.44771525 2.44771525,5 3,5 L5.75006104,5 L6.41777794,3.57556046 C6.58241983,3.22433014 6.93532999,3 7.32323422,3 L11.6770099,3 C12.0649142,3 12.4178243,3.22433014 12.5824662,3.57556046 L13.2501831,5 L16.0002441,5 C16.5525289,5 17.0002441,5.44771525 17.0002441,6 L17.0002441,14 C17.0002441,14.5522847 16.5525289,15 16.0002441,15 L3,15 C2.44771525,15 2,14.5522847 2,14 L2,6 Z M3,6 L3,14 L16,14 L16,6 L12.5,6 L11.4816224,4 L7.5183776,4 L6.5,6 L3,6 Z M9.5,12 C8.11928813,12 7,10.8807119 7,9.5 C7,8.11928813 8.11928813,7 9.5,7 C10.8807119,7 12,8.11928813 12,9.5 C12,10.8807119 10.8807119,12 9.5,12 Z M9.5,11 C10.3284271,11 11,10.3284271 11,9.5 C11,8.67157288 10.3284271,8 9.5,8 C8.67157288,8 8,8.67157288 8,9.5 C8,10.3284271 8.67157288,11 9.5,11 Z" id="path-1"></path>
    </g>
</svg>
