<svg viewBox="0 0 15 15" version="1.1" xmlns="http://www.w3.org/2000/svg">
    <path d="M7.5,15 C3.35786438,15 0,11.6421356 0,7.5 C0,3.35786438 3.35786438,0 7.5,0 C11.6421356,0 15,3.35786438 15,7.5 C15,11.6421356 11.6421356,15 7.5,15 Z M7.5,14 C11.0898509,14 14,11.0898509 14,7.5 C14,3.91014913 11.0898509,1 7.5,1 C3.91014913,1 1,3.91014913 1,7.5 C1,11.0898509 3.91014913,14 7.5,14 Z M5,7 C4.44771525,7 4,6.55228475 4,6 C4,5.44771525 4.44771525,5 5,5 C5.55228475,5 6,5.44771525 6,6 C6,6.55228475 5.55228475,7 5,7 Z M9.5300293,11.575 C8.89114041,12.0194444 8.5,12.2833333 7.5,12.2833333 C6.5,12.2833333 5.93611111,12.0888889 5.325,11.6166667 C4.71388889,11.1444444 4.325,10.75 4.075,10 C4.01944444,9.83333333 3.99166667,9.46388889 4.075,9.325 C4.15833333,9.18611111 4.26944444,9.08888889 4.40833333,9.03333333 C4.575,8.97777778 4.76113553,8.99166667 4.90002441,9.075 C5.0389133,9.15833333 5.10277778,9.26944444 5.15833333,9.40833333 C5.325,9.90833333 5.61666667,10.3111111 6.03333333,10.6166667 C6.45,10.9222222 7,11.075 7.5,11.075 C8,11.075 8.38055556,10.9222222 8.825,10.6166667 C9.26944444,10.3111111 9.56111111,9.90833333 9.7,9.40833333 C9.75555556,9.26944444 9.85277778,9.15833333 9.99166667,9.075 C10.1305556,8.99166667 10.2833333,8.97777778 10.45,9.03333333 C10.6166667,9.08888889 10.7277778,9.18611111 10.7833333,9.325 C10.8388889,9.46388889 10.8527778,9.61666667 10.825,9.78333333 C10.6027778,10.5333333 10.1689182,11.1305556 9.5300293,11.575 Z M10,7 C9.44771525,7 9,6.55228475 9,6 C9,5.44771525 9.44771525,5 10,5 C10.5522847,5 11,5.44771525 11,6 C11,6.55228475 10.5522847,7 10,7 Z" id="path-1"></path>
</svg>
