<svg xmlns="http://www.w3.org/2000/svg" width="50" height="50" viewBox="0 0 50 50">
  <path fill-rule="evenodd" fill="currentColor" d="M3,2 L14,2 C14.5522847,2 15,2.44771525 15,3 L15,47 C15,47.5522847 14.5522847,48 14,48 L3,48 C2.44771525,48 2,47.5522847 2,47 L2,3 C2,2.44771525 2.44771525,2 3,2 Z M3,3 L3,47 L14,47 L14,3 L3,3 Z M18,2 L32,2 C32.5522847,2 33,2.44771525 33,3 L33,47 C33,47.5522847 32.5522847,48 32,48 L18,48 C17.4477153,48 17,47.5522847 17,47 L17,3 C17,2.44771525 17.4477153,2 18,2 Z M18,3 L18,47 L32,47 L32,3 L18,3 Z M36,2 L47,2 C47.5522847,2 48,2.44771525 48,3 L48,47 C48,47.5522847 47.5522847,48 47,48 L36,48 C35.4477153,48 35,47.5522847 35,47 L35,3 C35,2.44771525 35.4477153,2 36,2 Z M36,3 L36,47 L47,47 L47,3 L36,3 Z"/>
</svg>
