<svg xmlns="http://www.w3.org/2000/svg" width="50" height="50" viewBox="0 0 50 50">
  <path fill="currentColor" d="M3,2 L47,2 C47.5522847,2 48,2.44771525 48,3 L48,47 C48,47.5522847 47.5522847,48 47,48 L3,48 C2.44771525,48 2,47.5522847 2,47 L2,3 C2,2.44771525 2.44771525,2 3,2 Z M3,3 L3,47 L47,47 L47,3 L3,3 Z M11.3200922,27.6158894 C11.5322306,27.7926714 11.5608927,28.1079538 11.3841106,28.3200922 C11.2073286,28.5322306 10.8920462,28.5608927 10.6799078,28.3841106 L7.6799078,25.8841106 C7.44003073,25.6842131 7.44003073,25.3157869 7.6799078,25.1158894 L10.6799078,22.6158894 C10.8920462,22.4391073 11.2073286,22.4677694 11.3841106,22.6799078 C11.5608927,22.8920462 11.5322306,23.2073286 11.3200922,23.3841106 L8.78102497,25.5 L11.3200922,27.6158894 Z M38.6799078,23.3841106 C38.4677694,23.2073286 38.4391073,22.8920462 38.6158894,22.6799078 C38.7926714,22.4677694 39.1079538,22.4391073 39.3200922,22.6158894 L42.3200922,25.1158894 C42.5599693,25.3157869 42.5599693,25.6842131 42.3200922,25.8841106 L39.3200922,28.3841106 C39.1079538,28.5608927 38.7926714,28.5322306 38.6158894,28.3200922 C38.4391073,28.1079538 38.4677694,27.7926714 38.6799078,27.6158894 L41.218975,25.5 L38.6799078,23.3841106 Z"/>
</svg>
