<svg xmlns="http://www.w3.org/2000/svg" width="50" height="50" viewBox="0 0 50 50">
  <path fill="currentColor" d="M3,2 L47,2 C47.5522847,2 48,2.44771525 48,3 L48,17 C48,17.5522847 47.5522847,18 47,18 L3,18 C2.44771525,18 2,17.5522847 2,17 L2,3 C2,2.44771525 2.44771525,2 3,2 Z M3,3 L3,17 L47,17 L47,3 L3,3 Z M3,20 L47,20 C47.5522847,20 48,20.4477153 48,21 L48,28 C48,28.5522847 47.5522847,29 47,29 L3,29 C2.44771525,29 2,28.5522847 2,28 L2,21 C2,20.4477153 2.44771525,20 3,20 Z M3,21 L3,28 L47,28 L47,21 L3,21 Z M3,31 L47,31 C47.5522847,31 48,31.4477153 48,32 L48,47 C48,47.5522847 47.5522847,48 47,48 L3,48 C2.44771525,48 2,47.5522847 2,47 L2,32 C2,31.4477153 2.44771525,31 3,31 Z M3,32 L3,47 L47,47 L47,32 L3,32 Z"/>
</svg>
