<svg xmlns="http://www.w3.org/2000/svg" width="50" height="50" viewBox="0 0 50 50">
  <path fill="currentColor" d="M3,2 L8,2 C8.55228475,2 9,2.44771525 9,3 L9,47 C9,47.5522847 8.55228475,48 8,48 L3,48 C2.44771525,48 2,47.5522847 2,47 L2,3 C2,2.44771525 2.44771525,2 3,2 Z M3,3 L3,47 L8,47 L8,3 L3,3 Z M12,2 L38,2 C38.5522847,2 39,2.44771525 39,3 L39,47 C39,47.5522847 38.5522847,48 38,48 L12,48 C11.4477153,48 11,47.5522847 11,47 L11,3 C11,2.44771525 11.4477153,2 12,2 Z M12,3 L12,47 L38,47 L38,3 L12,3 Z M42,2 L47,2 C47.5522847,2 48,2.44771525 48,3 L48,47 C48,47.5522847 47.5522847,48 47,48 L42,48 C41.4477153,48 41,47.5522847 41,47 L41,3 C41,2.44771525 41.4477153,2 42,2 Z M42,3 L42,47 L47,47 L47,3 L42,3 Z"/>
</svg>
