<svg xmlns="http://www.w3.org/2000/svg" width="50" height="50" viewBox="0 0 50 50">
  <path fill="currentColor" d="M3,2 L30,2 C30.5522847,2 31,2.44771525 31,3 L31,23 C31,23.5522847 30.5522847,24 30,24 L3,24 C2.44771525,24 2,23.5522847 2,23 L2,3 C2,2.44771525 2.44771525,2 3,2 Z M3,3 L3,23 L30,23 L30,3 L3,3 Z M34,2 L47,2 C47.5522847,2 48,2.44771525 48,3 L48,23 C48,23.5522847 47.5522847,24 47,24 L34,24 C33.4477153,24 33,23.5522847 33,23 L33,3 C33,2.44771525 33.4477153,2 34,2 Z M34,3 L34,23 L47,23 L47,3 L34,3 Z M3,26 L16,26 C16.5522847,26 17,26.4477153 17,27 L17,47 C17,47.5522847 16.5522847,48 16,48 L3,48 C2.44771525,48 2,47.5522847 2,47 L2,27 C2,26.4477153 2.44771525,26 3,26 Z M3,27 L3,47 L16,47 L16,27 L3,27 Z M20,26 L47,26 C47.5522847,26 48,26.4477153 48,27 L48,47 C48,47.5522847 47.5522847,48 47,48 L20,48 C19.4477153,48 19,47.5522847 19,47 L19,27 C19,26.4477153 19.4477153,26 20,26 Z M20,27 L20,47 L47,47 L47,27 L20,27 Z"/>
</svg>
