<svg xmlns="http://www.w3.org/2000/svg" width="50" height="50" viewBox="0 0 50 50">
  <path fill="currentColor" d="M3,2 L47,2 C47.5522847,2 48,2.44771525 48,3 L48,34 C48,34.5522847 47.5522847,35 47,35 L3,35 C2.44771525,35 2,34.5522847 2,34 L2,3 C2,2.44771525 2.44771525,2 3,2 Z M3,3 L3,34 L47,34 L47,3 L3,3 Z M3,37 L15,37 C15.5522847,37 16,37.4477153 16,38 L16,47 C16,47.5522847 15.5522847,48 15,48 L3,48 C2.44771525,48 2,47.5522847 2,47 L2,38 C2,37.4477153 2.44771525,37 3,37 Z M3,38 L3,47 L15,47 L15,38 L3,38 Z M19,37 L31,37 C31.5522847,37 32,37.4477153 32,38 L32,47 C32,47.5522847 31.5522847,48 31,48 L19,48 C18.4477153,48 18,47.5522847 18,47 L18,38 C18,37.4477153 18.4477153,37 19,37 Z M19,38 L19,47 L31,47 L31,38 L19,38 Z M35,37 L47,37 C47.5522847,37 48,37.4477153 48,38 L48,47 C48,47.5522847 47.5522847,48 47,48 L35,48 C34.4477153,48 34,47.5522847 34,47 L34,38 C34,37.4477153 34.4477153,37 35,37 Z M35,38 L35,47 L47,47 L47,38 L35,38 Z M11.3200922,20.6158894 C11.5322306,20.7926714 11.5608927,21.1079538 11.3841106,21.3200922 C11.2073286,21.5322306 10.8920462,21.5608927 10.6799078,21.3841106 L7.6799078,18.8841106 C7.44003073,18.6842131 7.44003073,18.3157869 7.6799078,18.1158894 L10.6799078,15.6158894 C10.8920462,15.4391073 11.2073286,15.4677694 11.3841106,15.6799078 C11.5608927,15.8920462 11.5322306,16.2073286 11.3200922,16.3841106 L8.78102497,18.5 L11.3200922,20.6158894 Z M38.6799078,16.3841106 C38.4677694,16.2073286 38.4391073,15.8920462 38.6158894,15.6799078 C38.7926714,15.4677694 39.1079538,15.4391073 39.3200922,15.6158894 L42.3200922,18.1158894 C42.5599693,18.3157869 42.5599693,18.6842131 42.3200922,18.8841106 L39.3200922,21.3841106 C39.1079538,21.5608927 38.7926714,21.5322306 38.6158894,21.3200922 C38.4391073,21.1079538 38.4677694,20.7926714 38.6799078,20.6158894 L41.218975,18.5 L38.6799078,16.3841106 Z"/>
</svg>
