<svg xmlns="http://www.w3.org/2000/svg" xmlns:xlink="http://www.w3.org/1999/xlink" width="25" height="25" viewBox="0 0 25 25">
    <defs>
        <path id="a" d="M11.496 9.7l-5.43 5.176a.208.208 0 0 0 0 .304l.48.457a.234.234 0 0 0 .319 0l6.069-5.785a.21.21 0 0 0 0-.304l-6.07-5.785a.234.234 0 0 0-.319 0l-.479.457a.208.208 0 0 0 0 .304l5.43 5.176z"/>
    </defs>
    <g fill="none" fill-rule="evenodd" transform="rotate(-180 12.5 12.5)">
        <circle cx="12.5" cy="12.5" r="12.5" fill="#333" opacity=".75"/>
        <g transform="rotate(-90 12.5 9.5)">
            <mask id="b" fill="#fff">
                <use xlink:href="#a"/>
            </mask>
            <use fill="#fff" fill-rule="nonzero" transform="rotate(90 9.5 9.7)" xlink:href="#a"/>
            <g fill="#FFF" mask="url(#b)">
                <!-- <path d="M1 1h17v17H1z"/> -->
            </g>
        </g>
    </g>
</svg>
