<svg width="19px" height="19px" viewBox="0 0 19 19" version="1.1" xmlns="http://www.w3.org/2000/svg" xmlns:xlink="http://www.w3.org/1999/xlink">
        <path d="M17,3.2 L17,3.8 L17,3.8 C17,3.91045695 16.9104569,4 16.8,4 L2.2,4 C2.08954305,4 2,3.91045695 2,3.8 L2,3.2 L2,3.2 C2,3.08954305 2.08954305,3 2.2,3 L16.8,3 C16.9104569,3 17,3.08954305 17,3.2 L17,3.2 Z M17,15.2 L17,15.8 L17,15.8 C17,15.9104569 16.9104569,16 16.8,16 L2.2,16 C2.08954305,16 2,15.9104569 2,15.8 L2,15.2 C2,15.0895431 2.08954305,15 2.2,15 L16.8,15 C16.9104569,15 17,15.0895431 17,15.2 L17,15.2 Z M2.2,6 L16.8,6 C16.9104569,6 17,6.08954305 17,6.2 L17,12.8 C17,12.9104569 16.9104569,13 16.8,13 L2.2,13 C2.08954305,13 2,12.9104569 2,12.8 L2,6.2 C2,6.08954305 2.08954305,6 2.2,6 L2.2,6 Z M3,7 L3,12 L16,12 L16,7 L3,7 Z" id="best-fit-path"></path>
</svg>
