<svg width="19px" height="19px" viewBox="0 0 19 19" version="1.1" xmlns="http://www.w3.org/2000/svg" xmlns:xlink="http://www.w3.org/1999/xlink">
    <path d="M1.2,3 L17.8,3 L17.8,3 C17.9104569,3 18,3.08954305 18,3.2 L18,15.8 C18,15.9104569 17.9104569,16 17.8,16 L1.2,16 L1.2,16 C1.08954305,16 1,15.9104569 1,15.8 L1,3.2 L1,3.2 C1,3.08954305 1.08954305,3 1.2,3 L1.2,3 Z M2,4 L2,15 L17,15 L17,4 L2,4 Z M4,7.16 C4.2400012,7.16 4.4733322,7.1400002 4.7,7.1 C4.9266678,7.0599998 5.13166575,6.9933338 5.315,6.9 C5.49833425,6.8066662 5.65499935,6.6866674 5.785,6.54 C5.91500065,6.3933326 5.9999998,6.2133344 6.04,6 L6.97,6 L6.97,13 L6,13 L6,8 L4,8 L4,7.16 Z M9,8 L10,8 L10,9 L9,9 L9,8 Z M9,11 L10,11 L10,12 L9,12 L9,11 Z M11,7.16 C11.2400012,7.16 11.4733322,7.1400002 11.7,7.1 C11.9266678,7.0599998 12.1316657,6.9933338 12.315,6.9 C12.4983342,6.8066662 12.6549994,6.6866674 12.785,6.54 C12.9150006,6.3933326 12.9999998,6.2133344 13.04,6 L13.97,6 L13.97,13 L13,13 L13,8 L11,8 L11,7.16 Z" id="original-size-path"></path>
</svg>
