<?xml version="1.0" encoding="UTF-8" standalone="no"?>
<!-- Created with Inkscape (http://www.inkscape.org/) -->

<svg
   xmlns:dc="http://purl.org/dc/elements/1.1/"
   xmlns:cc="http://creativecommons.org/ns#"
   xmlns:rdf="http://www.w3.org/1999/02/22-rdf-syntax-ns#"
   xmlns:svg="http://www.w3.org/2000/svg"
   xmlns="http://www.w3.org/2000/svg"
   xmlns:sodipodi="http://sodipodi.sourceforge.net/DTD/sodipodi-0.dtd"
   xmlns:inkscape="http://www.inkscape.org/namespaces/inkscape"
   width="744.09448819"
   height="1052.3622047"
   id="svg2996"
   version="1.1"
   inkscape:version="0.48.1 "
   sodipodi:docname="ornament kazachstański.svg">
  <defs
     id="defs2998">
    <inkscape:path-effect
       effect="spiro"
       id="path-effect2990"
       is_visible="true" />
    <inkscape:path-effect
       effect="spiro"
       id="path-effect2994"
       is_visible="true" />
    <inkscape:path-effect
       effect="spiro"
       id="path-effect2990-1"
       is_visible="true" />
    <inkscape:path-effect
       effect="spiro"
       id="path-effect2990-4"
       is_visible="true" />
    <inkscape:path-effect
       effect="spiro"
       id="path-effect2990-9"
       is_visible="true" />
    <inkscape:path-effect
       effect="spiro"
       id="path-effect2990-8"
       is_visible="true" />
  </defs>
  <sodipodi:namedview
     id="base"
     pagecolor="#ffffff"
     bordercolor="#666666"
     borderopacity="1.0"
     inkscape:pageopacity="0.0"
     inkscape:pageshadow="2"
     inkscape:zoom="1"
     inkscape:cx="434.66984"
     inkscape:cy="751.1976"
     inkscape:document-units="px"
     inkscape:current-layer="layer1"
     showgrid="false"
     showguides="true"
     inkscape:guide-bbox="true"
     inkscape:window-width="1600"
     inkscape:window-height="840"
     inkscape:window-x="-4"
     inkscape:window-y="-4"
     inkscape:window-maximized="1">
    <sodipodi:guide
       orientation="0,1"
       position="-133,450"
       id="guide3836" />
  </sodipodi:namedview>
  <metadata
     id="metadata3001">
    <rdf:RDF>
      <cc:Work
         rdf:about="">
        <dc:format>image/svg+xml</dc:format>
        <dc:type
           rdf:resource="http://purl.org/dc/dcmitype/StillImage" />
      </cc:Work>
    </rdf:RDF>
  </metadata>
  <g
     inkscape:label="Layer 1"
     inkscape:groupmode="layer"
     id="layer1">
    <path
       style="fill:#0169c9;stroke:#0169c9;stroke-width:8.51438332px;stroke-linecap:butt;stroke-linejoin:miter;stroke-opacity:1;display:inline"
       d="m 117.36569,335.3037 c -11.77709,-2.32641 -23.702488,-4.21674 -35.707157,-4.22041 -12.00467,-0.004 -24.148722,1.93928 -35.040128,6.98798 -17.504466,8.11418 -30.951537,24.3166 -36.14969,42.89684 -4.0455952,14.46055 -3.1817114,30.34095 2.93106,44.05621 6.082832,13.64808 17.155436,24.811 30.241498,32.02391 13.086062,7.21291 28.095162,10.59855 43.034899,10.87293 15.397268,0.28278 30.846608,-2.68725 45.041498,-8.65894 -9.60529,12.34951 -13.70511,28.82623 -11.0073,44.23706 1.56784,8.95602 5.34711,17.51649 10.90868,24.70936 -1.05345,-18.13461 1.97373,-36.4947 8.79316,-53.33124 12.09121,-29.85205 35.28601,-53.68413 58.96118,-75.52054 21.59388,-19.91676 44.2625,-39.01794 70.00532,-53.16997 7.66827,-4.2156 15.83082,-8.04547 24.56037,-8.65262 6.60337,-0.45927 13.32895,0.99941 19.14874,4.15307 5.81978,3.15365 10.71415,7.99167 13.93499,13.77454 6.25158,10.76271 7.51069,24.29461 3.35213,36.02596 -3.7382,10.5455 -11.7821,19.51846 -21.91548,24.26149 -5.41311,2.53366 -11.37649,3.88371 -17.35305,3.92854 -8.00846,0.74661 -16.29158,-2.75404 -21.33732,-9.01769 -3.09752,-3.84518 -4.99074,-8.64658 -5.35113,-13.57103 -3.22574,4.54875 -5.53916,9.7417 -6.76348,15.18206 -2.10445,9.35127 -0.86901,19.51507 3.90807,27.82497 1.74715,3.03923 3.94548,5.81858 6.50061,8.21874 -9.56212,3.70337 -19.22415,7.14879 -28.97203,10.33125 -7.41366,2.42039 -14.87698,4.68869 -22.38367,6.80299 l 21.58909,8.39514 c 1.48702,0.36602 2.84878,1.22325 3.82178,2.40581 0.973,1.18257 1.55186,2.68396 1.62459,4.21363 0.0697,1.46576 -0.31808,2.93571 -1.00631,4.23172 -0.68823,1.29601 -1.66897,2.42357 -2.78865,3.37205 -2.23936,1.89697 -4.98618,3.07351 -7.69598,4.20054 -8.0426,3.34497 -16.18972,6.43865 -24.42546,9.27499 -4.2563,1.46585 -8.53641,2.86303 -12.77513,4.37898 -4.90046,1.75261 -9.74429,3.66356 -14.52139,5.72886 l 34.13565,9.60151 4.8851,5.79688 c -10.75686,3.27236 -20.46915,9.89309 -27.44646,18.70987 -9.94701,12.5694 -14.06203,29.57086 -10.96384,45.29772 5.48294,-8.98326 11.54938,-17.61032 18.1484,-25.80877 6.41103,-7.9649 13.32788,-15.52847 20.782,-22.52683 20.09808,-18.86924 43.85789,-33.42282 64.59473,-51.58775 19.12077,-16.74929 35.57745,-36.53356 48.56477,-58.3847 l 16.94046,-27.88549 c 6.48428,-11.26878 9.65525,-24.41794 9.02002,-37.40363 -0.63524,-12.98568 -5.07445,-25.76256 -12.62764,-36.34466 -9.00518,-12.61636 -22.79112,-22.14468 -38.1344,-24.34685 -11.21227,-1.60926 -22.73751,0.68282 -33.18798,5.05231 -10.45047,4.3695 -19.93722,10.74797 -28.99581,17.54847 -24.72726,18.56337 -46.73167,40.49606 -67.72905,63.19289 -13.76148,14.87528 -27.43834,30.36811 -44.94286,40.57809 -9.92058,5.78644 -20.90785,9.73734 -32.24163,11.59373 -11.469342,2.84784 -23.540693,3.24575 -35.17268,1.15939 -5.514111,-0.98903 -11.043703,-2.58309 -15.632295,-5.79688 -4.861707,-3.40507 -8.394264,-8.46324 -10.747208,-13.91249 -1.311709,-3.03783 -2.291495,-6.25274 -2.505778,-9.55472 -0.214284,-3.30198 0.37085,-6.70471 2.017268,-9.57495 1.3189,-2.29927 3.268752,-4.18534 5.409809,-5.74803 2.141056,-1.5627 4.482702,-2.82497 6.802929,-4.10665 1.361138,-0.75188 2.727613,-1.51661 4.202858,-2.00822 1.475245,-0.4916 3.084443,-0.69832 4.590309,-0.31052 1.190627,0.30662 2.26731,0.97254 3.182396,1.79366 0.915085,0.82111 1.67908,1.79592 2.391236,2.79814 1.424311,2.00444 2.711396,4.19325 4.707553,5.62915 1.950066,1.40274 4.43814,1.9474 6.834589,1.78164 2.39645,-0.16576 4.709371,-1.00307 6.821192,-2.14791 7.014513,-3.80264 11.809145,-10.92732 14.166769,-18.54999 2.492313,-8.05814 2.492313,-16.8684 0,-24.92654 10.377413,-0.51282 20.692523,-2.27498 30.651653,-5.23631 11.80057,-3.50888 23.09836,-8.70396 33.44334,-15.37831 -6.77538,0.26393 -13.57191,-0.0173 -20.30232,-0.84012 -8.35074,-1.0209 -16.57396,-2.86995 -24.82739,-4.50031"
       id="path2988"
       inkscape:path-effect="#path-effect2990"
       inkscape:original-d="m 117.36569,335.3037 c -25.841061,-13.27353 -49.960508,-6.88342 -70.747285,2.76757 -18.045816,8.37841 -29.076469,24.63373 -36.14969,42.89684 -5.8542946,15.11573 -2.4450449,28.69237 2.93106,44.05621 5.922758,16.92612 60.460817,35.11474 73.276397,42.89684 17.984268,10.92075 43.928658,-16.02459 45.041498,-8.65894 7.8787,6.2166 -21.27232,30.7579 -11.0073,44.23706 5.47632,7.19109 10.90868,24.70936 10.90868,24.70936 0,0 0.58294,-36.83085 8.79316,-53.33124 13.71212,-27.55776 36.15691,-52.88425 58.96118,-75.52054 20.35886,-20.20889 43.95627,-39.72688 70.00532,-53.16997 9.98749,-5.15422 13.49612,-11.78776 24.56037,-8.65262 7.86835,2.22952 33.08373,17.92761 33.08373,17.92761 8.41917,8.41316 12.44474,22.83849 3.35213,36.02596 0,0 -13.78192,19.01555 -21.91548,24.26149 -5.18219,3.34243 -17.35305,3.92854 -17.35305,3.92854 0,0 -18.89541,-4.25655 -21.33732,-9.01769 -4.59965,-8.96817 36.56097,-7.36783 -5.35113,-13.57103 -12.83324,-16.30225 -2.77725,9.85256 -6.76348,15.18206 -10.86313,14.52371 0.14395,19.13038 3.90807,27.82497 1.361,3.14369 6.50061,8.21874 6.50061,8.21874 l -28.97203,10.33125 -22.38367,6.80299 21.58909,8.39514 c 0,0 2.44303,1.2096 5.44637,6.61944 3.30366,5.95065 -11.49094,11.80431 -11.49094,11.80431 l -24.42546,9.27499 -12.77513,4.37898 -14.52139,5.72886 34.13565,9.60151 4.8851,5.79688 c 0,0 -20.58523,10.57689 -27.44646,18.70987 -4.94984,5.86729 -17.18489,12.9587 -10.96384,45.29772 3.33498,1.22064 20.84787,-29.40118 18.1484,-25.80877 -9.2445,12.3025 -3.06937,2.31837 20.782,-22.52683 24.129,-25.1343 62.80352,-50.88971 64.59473,-51.58775 25.55378,-9.95834 48.56477,-58.3847 48.56477,-58.3847 l 16.94046,-27.88549 c 0,0 -1.35297,-67.32713 -3.60762,-73.74829 -4.88509,-13.91249 -26.52817,-20.47906 -38.1344,-24.34685 -17.44161,-5.81243 -49.64877,16.89766 -62.18379,22.60078 -37.67993,17.14345 -44.96436,42.29879 -67.72905,63.19289 -14.85902,13.63804 -27.29685,30.07864 -44.94286,40.57809 -9.67966,5.75944 -32.24163,11.59373 -32.24163,11.59373 0,0 -23.619221,3.02316 -35.17268,1.15939 -5.537393,-0.89328 -11.023966,-2.32358 -15.632295,-5.79688 -4.475216,-3.37295 -5.862107,-4.6375 -10.747208,-13.91249 -4.8851,-9.27499 -2.999603,-13.22372 -0.48851,-19.12967 2.365483,-5.56341 7.314745,-7.60763 12.212738,-9.85468 2.80052,-1.28477 5.901578,-3.27843 8.793167,-2.31874 5.212903,1.73016 4.750166,7.04427 10.281185,10.22095 3.981783,2.28694 18.038209,4.25379 13.655781,-0.36627 -2.97764,-3.13904 11.943159,-15.70006 14.166769,-18.54999 9.737823,-12.48052 0,-24.92654 0,-24.92654 5.683273,-1.1915 18.837603,-3.209 30.651653,-5.23631 28.65752,-4.9177 61.68073,-13.88211 33.44334,-15.37831 0,0 -23.63396,5.06332 -20.30232,-0.84012 3.80551,-6.74319 -18.55102,-1.27632 -24.82739,-4.50031 z"
       inkscape:connector-curvature="0"
       sodipodi:nodetypes="ssssscscssssssscscssccccsccccccscsssccssssscssssssssscscss" />
    <path
       style="fill:#0169c9;stroke:#0169c9;stroke-width:8.25270557px;stroke-linecap:butt;stroke-linejoin:miter;stroke-opacity:1"
       d="m 377.60857,451.91708 -27.50627,-0.61139 c -1.42729,10.31199 -4.27157,20.42689 -8.42791,29.97148 -3.11349,7.14982 -6.96096,13.97977 -11.46235,20.34775 l -4.90102,5.63827 21.70728,-0.0571 c -0.88396,6.57538 -0.82422,13.2769 0.17682,19.83548 2.00958,13.16621 7.8828,25.71899 16.7028,35.69872 l 8.5144,-15.16185 c 3.74046,-6.66076 7.73546,-13.31564 9.67777,-20.70375 1.72377,-6.55683 1.61847,-13.58442 -0.30099,-20.08665 l 22.36617,-0.11486 c -6.25903,-8.59621 -11.71811,-17.77462 -16.28374,-27.37802 -4.18971,-8.81269 -7.62723,-17.98283 -10.26296,-27.37805 l 0,-3e-5"
       id="path2992"
       inkscape:path-effect="#path-effect2994"
       inkscape:original-d="m 377.60857,451.91708 -27.50627,-0.61139 c 0,0 -4.47095,21.08104 -8.42791,29.97148 -2.80116,6.29361 -11.46235,20.34775 -11.46235,20.34775 l -4.90102,5.63827 21.70728,-0.0571 c 0,0 -1.28416,13.39197 0.17682,19.83548 2.91094,12.8385 16.7028,35.69872 16.7028,35.69872 l 8.5144,-15.16185 c 0,0 8.08027,-13.2387 9.67777,-20.70375 1.40033,-6.5436 -0.30099,-20.08665 -0.30099,-20.08665 l 22.36617,-0.11486 c 0,0 -11.85929,-18.25202 -16.28374,-27.37802 -4.42445,-9.12604 -10.26296,-27.37805 -10.26296,-27.37805 z"
       inkscape:connector-curvature="0"
       sodipodi:nodetypes="ccscccsccsccsc" />
    <path
       style="fill:#0169c9;stroke:#0169c9;stroke-width:8.51438332px;stroke-linecap:butt;stroke-linejoin:miter;stroke-opacity:1;display:inline"
       d="m 610.01546,334.76093 c 11.77709,-2.32641 23.70249,-4.21674 35.70715,-4.22041 12.00467,-0.004 24.14872,1.93928 35.04013,6.98798 17.50447,8.11418 30.95154,24.3166 36.14969,42.89684 4.0456,14.46055 3.18171,30.34095 -2.93106,44.05621 -6.08283,13.64808 -17.15543,24.811 -30.24149,32.02391 -13.08607,7.21291 -28.09516,10.59855 -43.0349,10.87293 -15.39727,0.28278 -30.84661,-2.68725 -45.0415,-8.65894 9.60529,12.34951 13.70511,28.82623 11.0073,44.23706 -1.56784,8.95602 -5.34711,17.51649 -10.90868,24.70936 1.05345,-18.13461 -1.97373,-36.4947 -8.79316,-53.33124 -12.09121,-29.85205 -35.28601,-53.68413 -58.96118,-75.52054 -21.59388,-19.91676 -44.2625,-39.01794 -70.00532,-53.16997 -7.66827,-4.2156 -15.83082,-8.04547 -24.56037,-8.65262 -6.60337,-0.45927 -13.32895,0.99941 -19.14874,4.15307 -5.81978,3.15365 -10.71415,7.99167 -13.93499,13.77454 -6.25158,10.76271 -7.51069,24.29461 -3.35213,36.02596 3.7382,10.5455 11.7821,19.51846 21.91548,24.26149 5.41311,2.53366 11.37649,3.88371 17.35305,3.92854 8.00846,0.74661 16.29158,-2.75404 21.33732,-9.01769 3.09752,-3.84518 4.99074,-8.64658 5.35113,-13.57103 3.22574,4.54875 5.53916,9.7417 6.76348,15.18206 2.10445,9.35127 0.86901,19.51507 -3.90807,27.82497 -1.74715,3.03923 -3.94548,5.81858 -6.50061,8.21874 9.56212,3.70337 19.22415,7.14879 28.97203,10.33125 7.41366,2.42039 14.87698,4.68869 22.38367,6.80299 l -21.58909,8.39514 c -1.48702,0.36602 -2.84878,1.22325 -3.82178,2.40581 -0.973,1.18257 -1.55186,2.68396 -1.62459,4.21363 -0.0697,1.46576 0.31808,2.93571 1.00631,4.23172 0.68823,1.29601 1.66897,2.42357 2.78865,3.37205 2.23936,1.89697 4.98618,3.07351 7.69598,4.20054 8.0426,3.34497 16.18972,6.43865 24.42546,9.27499 4.2563,1.46585 8.53641,2.86303 12.77513,4.37898 4.90046,1.75261 9.74429,3.66356 14.52139,5.72886 l -34.13565,9.60151 -4.8851,5.79688 c 10.75686,3.27236 20.46915,9.89309 27.44646,18.70987 9.94701,12.5694 14.06203,29.57086 10.96384,45.29772 -5.48294,-8.98326 -11.54938,-17.61032 -18.1484,-25.80877 -6.41103,-7.9649 -13.32788,-15.52847 -20.782,-22.52683 -20.09808,-18.86924 -43.85789,-33.42282 -64.59473,-51.58775 -19.12077,-16.74929 -35.57745,-36.53356 -48.56477,-58.3847 l -16.94046,-27.88549 c -6.48428,-11.26878 -9.65525,-24.41794 -9.02002,-37.40363 0.63524,-12.98568 5.07445,-25.76256 12.62764,-36.34466 9.00518,-12.61636 22.79112,-22.14468 38.1344,-24.34685 11.21227,-1.60926 22.73751,0.68282 33.18798,5.05231 10.45047,4.3695 19.93722,10.74797 28.99581,17.54847 24.72726,18.56337 46.73167,40.49606 67.72905,63.19289 13.76148,14.87528 27.43834,30.36811 44.94286,40.57809 9.92058,5.78644 20.90785,9.73734 32.24163,11.59373 11.46934,2.84785 23.54069,3.24575 35.17268,1.15939 5.51411,-0.98903 11.0437,-2.58309 15.63229,-5.79688 4.86171,-3.40507 8.39427,-8.46324 10.74721,-13.91249 1.31171,-3.03783 2.2915,-6.25274 2.50578,-9.55472 0.21428,-3.30198 -0.37085,-6.70471 -2.01727,-9.57495 -1.3189,-2.29927 -3.26875,-4.18534 -5.40981,-5.74803 -2.14106,-1.5627 -4.4827,-2.82497 -6.80293,-4.10665 -1.36114,-0.75188 -2.72761,-1.51661 -4.20285,-2.00822 -1.47525,-0.4916 -3.08445,-0.69832 -4.59031,-0.31052 -1.19063,0.30662 -2.26731,0.97254 -3.1824,1.79365 -0.91508,0.82112 -1.67908,1.79593 -2.39123,2.79815 -1.42432,2.00444 -2.7114,4.19325 -4.70756,5.62915 -1.95007,1.40274 -4.43814,1.9474 -6.83459,1.78164 -2.39645,-0.16576 -4.70937,-1.00307 -6.82119,-2.14791 -7.01451,-3.80264 -11.80915,-10.92732 -14.16677,-18.54999 -2.49231,-8.05814 -2.49231,-16.8684 0,-24.92654 -10.37741,-0.51282 -20.69252,-2.27498 -30.65165,-5.23631 -11.80057,-3.50888 -23.09836,-8.70396 -33.44334,-15.37831 6.77538,0.26393 13.57191,-0.0173 20.30232,-0.84012 8.35074,-1.0209 16.57396,-2.86995 24.82739,-4.50031"
       id="path2988-8"
       inkscape:path-effect="#path-effect2990-8"
       inkscape:original-d="m 610.01546,334.76093 c 25.84106,-13.27353 49.96051,-6.88342 70.74728,2.76757 18.04582,8.37841 29.07647,24.63373 36.14969,42.89684 5.8543,15.11573 2.44505,28.69237 -2.93106,44.05621 -5.92276,16.92612 -60.46081,35.11474 -73.27639,42.89684 -17.98427,10.92075 -43.92866,-16.02459 -45.0415,-8.65894 -7.8787,6.2166 21.27232,30.7579 11.0073,44.23706 -5.47632,7.19109 -10.90868,24.70936 -10.90868,24.70936 0,0 -0.58294,-36.83085 -8.79316,-53.33124 -13.71212,-27.55776 -36.15691,-52.88425 -58.96118,-75.52054 -20.35886,-20.20889 -43.95627,-39.72688 -70.00532,-53.16997 -9.98749,-5.15422 -13.49612,-11.78776 -24.56037,-8.65262 -7.86835,2.22952 -33.08373,17.92761 -33.08373,17.92761 -8.41917,8.41316 -12.44474,22.83849 -3.35213,36.02596 0,0 13.78192,19.01555 21.91548,24.26149 5.18219,3.34243 17.35305,3.92854 17.35305,3.92854 0,0 18.89541,-4.25655 21.33732,-9.01769 4.59965,-8.96817 -36.56097,-7.36783 5.35113,-13.57103 12.83324,-16.30225 2.77725,9.85256 6.76348,15.18206 10.86313,14.52371 -0.14395,19.13038 -3.90807,27.82497 -1.361,3.14369 -6.50061,8.21874 -6.50061,8.21874 l 28.97203,10.33125 22.38367,6.80299 -21.58909,8.39514 c 0,0 -2.44303,1.2096 -5.44637,6.61944 -3.30366,5.95065 11.49094,11.80431 11.49094,11.80431 l 24.42546,9.27499 12.77513,4.37898 14.52139,5.72886 -34.13565,9.60151 -4.8851,5.79688 c 0,0 20.58523,10.57689 27.44646,18.70987 4.94984,5.86729 17.18489,12.9587 10.96384,45.29772 -3.33498,1.22064 -20.84787,-29.40118 -18.1484,-25.80877 9.2445,12.3025 3.06937,2.31837 -20.782,-22.52683 -24.129,-25.1343 -62.80352,-50.88971 -64.59473,-51.58775 -25.55378,-9.95834 -48.56477,-58.3847 -48.56477,-58.3847 l -16.94046,-27.88549 c 0,0 1.35297,-67.32713 3.60762,-73.74829 4.88509,-13.91249 26.52817,-20.47906 38.1344,-24.34685 17.44161,-5.81243 49.64877,16.89766 62.18379,22.60078 37.67993,17.14345 44.96436,42.29879 67.72905,63.19289 14.85902,13.63804 27.29685,30.07864 44.94286,40.57809 9.67966,5.75944 32.24163,11.59373 32.24163,11.59373 0,0 23.61922,3.02316 35.17268,1.15939 5.53739,-0.89328 11.02396,-2.32358 15.63229,-5.79688 4.47522,-3.37295 5.86211,-4.6375 10.74721,-13.91249 4.8851,-9.27499 2.9996,-13.22372 0.48851,-19.12967 -2.36548,-5.56341 -7.31474,-7.60763 -12.21274,-9.85468 -2.80052,-1.28477 -5.90158,-3.27843 -8.79316,-2.31874 -5.21291,1.73016 -4.75017,7.04427 -10.28119,10.22095 -3.98178,2.28694 -18.03821,4.25379 -13.65578,-0.36627 2.97764,-3.13904 -11.94316,-15.70006 -14.16677,-18.54999 -9.73782,-12.48052 0,-24.92654 0,-24.92654 -5.68327,-1.1915 -18.8376,-3.209 -30.65165,-5.23631 -28.65752,-4.9177 -61.68073,-13.88211 -33.44334,-15.37831 0,0 23.63396,5.06332 20.30232,-0.84012 -3.80551,-6.74319 18.55102,-1.27632 24.82739,-4.50031 z"
       inkscape:connector-curvature="0"
       sodipodi:nodetypes="ssssscscssssssscscssccccsccccccscsssccssssscssssssssscscss" />
  </g>
</svg>
