<?xml version="1.0" encoding="UTF-8" standalone="no"?>
<!DOCTYPE svg PUBLIC "-//W3C//DTD SVG 20010904//EN"
"http://www.w3.org/TR/2001/REC-SVG-20010904/DTD/svg10.dtd">
<!-- Created with Sodipodi ("http://www.sodipodi.com/") -->
<svg
   xmlns="http://www.w3.org/2000/svg"
   xmlns:sodipodi="http://sodipodi.sourceforge.net/DTD/sodipodi-0.dtd"
   xmlns:xlink="http://www.w3.org/1999/xlink"
   id="svg3363"
   sodipodi:version="0.34"
   width="349.28pt"
   height="20.89pt"
   xml:space="preserve"
   sodipodi:docbase="/tmp/"
   sodipodi:docname="/tmp/printing-ornament-border.svg"><defs
   id="defs3365" /><sodipodi:namedview
   id="base" /><g
   id="g1818"
   transform="matrix(0.999992,0,0,1,2.865421,-4.904903)"
   style="font-size:12;"><g
   id="g776"
   transform="translate(-7.019044e-3,0)"
   style="font-size:12;"><g
   id="g650"><g
   id="g630"
   transform="matrix(0.620952,0,0,0.612946,-107.3817,-8.458714)"><g
   id="g618"><path
   style="font-size:12;fill:none;fill-rule:evenodd;stroke:#000000;"
   d="M 187.6375 61.73 C 169.318 44.64982 192.9775 41.21452 192.9775 41.21452 L 173.7657 40.9149 C 173.7657 40.9149 187.523 36.88505 183.1942 37.71444 C 178.8656 38.54391 179.1026 38.89966 178.8656 38.54391 C 178.6284 38.1881 170.9793 37.89034 177.6799 36.7648 C 184.3805 35.63924 184.3805 35.63924 184.3805 35.63924 L 184.3805 35.63924 L 184.3805 35.63924 "
   id="path615" /><path
   style="font-size:12;fill:none;fill-rule:evenodd;stroke:#000000;stroke-width:0.999953;"
   d="M 187.0156 61.62311 C 205.3334 44.54293 181.6761 41.10763 181.6761 41.10763 L 200.8861 40.80801 C 200.8861 40.80801 187.1301 36.77816 191.4585 37.60755 C 195.7867 38.43702 195.5497 38.79277 195.7867 38.43702 C 196.0239 38.08121 203.6722 37.78345 196.9723 36.65791 C 190.2723 35.53235 190.2723 35.53235 190.2723 35.53235 L 190.2723 35.53235 L 190.2723 35.53235 "
   id="path617" /></g><g
   id="g621"
   transform="matrix(-1,0,0,1,374.6518,0)"><path
   style="font-size:12;fill:none;fill-rule:evenodd;stroke:#000000;"
   d="M 187.6375 61.73 C 169.318 44.64982 192.9775 41.21452 192.9775 41.21452 L 173.7657 40.9149 C 173.7657 40.9149 187.523 36.88505 183.1942 37.71444 C 178.8656 38.54391 179.1026 38.89966 178.8656 38.54391 C 178.6284 38.1881 170.9793 37.89034 177.6799 36.7648 C 184.3805 35.63924 184.3805 35.63924 184.3805 35.63924 L 184.3805 35.63924 L 184.3805 35.63924 "
   id="path622" /><path
   style="font-size:12;fill:none;fill-rule:evenodd;stroke:#000000;stroke-width:0.999953;"
   d="M 187.0156 61.62311 C 205.3334 44.54293 181.6761 41.10763 181.6761 41.10763 L 200.8861 40.80801 C 200.8861 40.80801 187.1301 36.77816 191.4585 37.60755 C 195.7867 38.43702 195.5497 38.79277 195.7867 38.43702 C 196.0239 38.08121 203.6722 37.78345 196.9723 36.65791 C 190.2723 35.53235 190.2723 35.53235 190.2723 35.53235 L 190.2723 35.53235 L 190.2723 35.53235 "
   id="path623" /></g><g
   id="g627"
   transform="matrix(-0.217597,-2.976814e-17,2.664706e-17,-0.243084,228.0607,48.61383)"><path
   style="font-size:12;fill:none;fill-rule:evenodd;stroke:#000000;"
   d="M 187.6375 61.73 C 169.318 44.64982 192.9775 41.21452 192.9775 41.21452 L 173.7657 40.9149 C 173.7657 40.9149 187.523 36.88505 183.1942 37.71444 C 178.8656 38.54391 179.1026 38.89966 178.8656 38.54391 C 178.6284 38.1881 170.9793 37.89034 177.6799 36.7648 C 184.3805 35.63924 184.3805 35.63924 184.3805 35.63924 L 184.3805 35.63924 L 184.3805 35.63924 "
   id="path628" /><path
   style="font-size:12;fill:none;fill-rule:evenodd;stroke:#000000;stroke-width:0.999953;"
   d="M 187.0156 61.62311 C 205.3334 44.54293 181.6761 41.10763 181.6761 41.10763 L 200.8861 40.80801 C 200.8861 40.80801 187.1301 36.77816 191.4585 37.60755 C 195.7867 38.43702 195.5497 38.79277 195.7867 38.43702 C 196.0239 38.08121 203.6722 37.78345 196.9723 36.65791 C 190.2723 35.53235 190.2723 35.53235 190.2723 35.53235 L 190.2723 35.53235 L 190.2723 35.53235 "
   id="path629" /></g></g><g
   id="g640"
   transform="matrix(0.620952,0,0,0.612946,-84.38015,-8.457153)"><g
   id="g641"><path
   style="font-size:12;fill:none;fill-rule:evenodd;stroke:#000000;"
   d="M 187.6375 61.73 C 169.318 44.64982 192.9775 41.21452 192.9775 41.21452 L 173.7657 40.9149 C 173.7657 40.9149 187.523 36.88505 183.1942 37.71444 C 178.8656 38.54391 179.1026 38.89966 178.8656 38.54391 C 178.6284 38.1881 170.9793 37.89034 177.6799 36.7648 C 184.3805 35.63924 184.3805 35.63924 184.3805 35.63924 L 184.3805 35.63924 L 184.3805 35.63924 "
   id="path642" /><path
   style="font-size:12;fill:none;fill-rule:evenodd;stroke:#000000;stroke-width:0.999953;"
   d="M 187.0156 61.62311 C 205.3334 44.54293 181.6761 41.10763 181.6761 41.10763 L 200.8861 40.80801 C 200.8861 40.80801 187.1301 36.77816 191.4585 37.60755 C 195.7867 38.43702 195.5497 38.79277 195.7867 38.43702 C 196.0239 38.08121 203.6722 37.78345 196.9723 36.65791 C 190.2723 35.53235 190.2723 35.53235 190.2723 35.53235 L 190.2723 35.53235 L 190.2723 35.53235 "
   id="path643" /></g><g
   id="g644"
   transform="matrix(-1,0,0,1,374.6518,0)"><path
   style="font-size:12;fill:none;fill-rule:evenodd;stroke:#000000;"
   d="M 187.6375 61.73 C 169.318 44.64982 192.9775 41.21452 192.9775 41.21452 L 173.7657 40.9149 C 173.7657 40.9149 187.523 36.88505 183.1942 37.71444 C 178.8656 38.54391 179.1026 38.89966 178.8656 38.54391 C 178.6284 38.1881 170.9793 37.89034 177.6799 36.7648 C 184.3805 35.63924 184.3805 35.63924 184.3805 35.63924 L 184.3805 35.63924 L 184.3805 35.63924 "
   id="path645" /><path
   style="font-size:12;fill:none;fill-rule:evenodd;stroke:#000000;stroke-width:0.999953;"
   d="M 187.0156 61.62311 C 205.3334 44.54293 181.6761 41.10763 181.6761 41.10763 L 200.8861 40.80801 C 200.8861 40.80801 187.1301 36.77816 191.4585 37.60755 C 195.7867 38.43702 195.5497 38.79277 195.7867 38.43702 C 196.0239 38.08121 203.6722 37.78345 196.9723 36.65791 C 190.2723 35.53235 190.2723 35.53235 190.2723 35.53235 L 190.2723 35.53235 L 190.2723 35.53235 "
   id="path646" /></g><g
   id="g647"
   transform="matrix(-0.217597,-2.976814e-17,2.664706e-17,-0.243084,228.0607,48.61383)"><path
   style="font-size:12;fill:none;fill-rule:evenodd;stroke:#000000;"
   d="M 187.6375 61.73 C 169.318 44.64982 192.9775 41.21452 192.9775 41.21452 L 173.7657 40.9149 C 173.7657 40.9149 187.523 36.88505 183.1942 37.71444 C 178.8656 38.54391 179.1026 38.89966 178.8656 38.54391 C 178.6284 38.1881 170.9793 37.89034 177.6799 36.7648 C 184.3805 35.63924 184.3805 35.63924 184.3805 35.63924 L 184.3805 35.63924 L 184.3805 35.63924 "
   id="path648" /><path
   style="font-size:12;fill:none;fill-rule:evenodd;stroke:#000000;stroke-width:0.999953;"
   d="M 187.0156 61.62311 C 205.3334 44.54293 181.6761 41.10763 181.6761 41.10763 L 200.8861 40.80801 C 200.8861 40.80801 187.1301 36.77816 191.4585 37.60755 C 195.7867 38.43702 195.5497 38.79277 195.7867 38.43702 C 196.0239 38.08121 203.6722 37.78345 196.9723 36.65791 C 190.2723 35.53235 190.2723 35.53235 190.2723 35.53235 L 190.2723 35.53235 L 190.2723 35.53235 "
   id="path649" /></g></g></g><g
   id="g671"
   transform="translate(46.00154,0)"><g
   id="g672"
   transform="matrix(0.620952,0,0,0.612946,-107.3817,-8.458714)"><g
   id="g673"><path
   style="font-size:12;fill:none;fill-rule:evenodd;stroke:#000000;"
   d="M 187.6375 61.73 C 169.318 44.64982 192.9775 41.21452 192.9775 41.21452 L 173.7657 40.9149 C 173.7657 40.9149 187.523 36.88505 183.1942 37.71444 C 178.8656 38.54391 179.1026 38.89966 178.8656 38.54391 C 178.6284 38.1881 170.9793 37.89034 177.6799 36.7648 C 184.3805 35.63924 184.3805 35.63924 184.3805 35.63924 L 184.3805 35.63924 L 184.3805 35.63924 "
   id="path674" /><path
   style="font-size:12;fill:none;fill-rule:evenodd;stroke:#000000;stroke-width:0.999953;"
   d="M 187.0156 61.62311 C 205.3334 44.54293 181.6761 41.10763 181.6761 41.10763 L 200.8861 40.80801 C 200.8861 40.80801 187.1301 36.77816 191.4585 37.60755 C 195.7867 38.43702 195.5497 38.79277 195.7867 38.43702 C 196.0239 38.08121 203.6722 37.78345 196.9723 36.65791 C 190.2723 35.53235 190.2723 35.53235 190.2723 35.53235 L 190.2723 35.53235 L 190.2723 35.53235 "
   id="path675" /></g><g
   id="g676"
   transform="matrix(-1,0,0,1,374.6518,0)"><path
   style="font-size:12;fill:none;fill-rule:evenodd;stroke:#000000;"
   d="M 187.6375 61.73 C 169.318 44.64982 192.9775 41.21452 192.9775 41.21452 L 173.7657 40.9149 C 173.7657 40.9149 187.523 36.88505 183.1942 37.71444 C 178.8656 38.54391 179.1026 38.89966 178.8656 38.54391 C 178.6284 38.1881 170.9793 37.89034 177.6799 36.7648 C 184.3805 35.63924 184.3805 35.63924 184.3805 35.63924 L 184.3805 35.63924 L 184.3805 35.63924 "
   id="path677" /><path
   style="font-size:12;fill:none;fill-rule:evenodd;stroke:#000000;stroke-width:0.999953;"
   d="M 187.0156 61.62311 C 205.3334 44.54293 181.6761 41.10763 181.6761 41.10763 L 200.8861 40.80801 C 200.8861 40.80801 187.1301 36.77816 191.4585 37.60755 C 195.7867 38.43702 195.5497 38.79277 195.7867 38.43702 C 196.0239 38.08121 203.6722 37.78345 196.9723 36.65791 C 190.2723 35.53235 190.2723 35.53235 190.2723 35.53235 L 190.2723 35.53235 L 190.2723 35.53235 "
   id="path678" /></g><g
   id="g679"
   transform="matrix(-0.217597,-2.976814e-17,2.664706e-17,-0.243084,228.0607,48.61383)"><path
   style="font-size:12;fill:none;fill-rule:evenodd;stroke:#000000;"
   d="M 187.6375 61.73 C 169.318 44.64982 192.9775 41.21452 192.9775 41.21452 L 173.7657 40.9149 C 173.7657 40.9149 187.523 36.88505 183.1942 37.71444 C 178.8656 38.54391 179.1026 38.89966 178.8656 38.54391 C 178.6284 38.1881 170.9793 37.89034 177.6799 36.7648 C 184.3805 35.63924 184.3805 35.63924 184.3805 35.63924 L 184.3805 35.63924 L 184.3805 35.63924 "
   id="path680" /><path
   style="font-size:12;fill:none;fill-rule:evenodd;stroke:#000000;stroke-width:0.999953;"
   d="M 187.0156 61.62311 C 205.3334 44.54293 181.6761 41.10763 181.6761 41.10763 L 200.8861 40.80801 C 200.8861 40.80801 187.1301 36.77816 191.4585 37.60755 C 195.7867 38.43702 195.5497 38.79277 195.7867 38.43702 C 196.0239 38.08121 203.6722 37.78345 196.9723 36.65791 C 190.2723 35.53235 190.2723 35.53235 190.2723 35.53235 L 190.2723 35.53235 L 190.2723 35.53235 "
   id="path681" /></g></g><g
   id="g682"
   transform="matrix(0.620952,0,0,0.612946,-84.38015,-8.457153)"><g
   id="g683"><path
   style="font-size:12;fill:none;fill-rule:evenodd;stroke:#000000;"
   d="M 187.6375 61.73 C 169.318 44.64982 192.9775 41.21452 192.9775 41.21452 L 173.7657 40.9149 C 173.7657 40.9149 187.523 36.88505 183.1942 37.71444 C 178.8656 38.54391 179.1026 38.89966 178.8656 38.54391 C 178.6284 38.1881 170.9793 37.89034 177.6799 36.7648 C 184.3805 35.63924 184.3805 35.63924 184.3805 35.63924 L 184.3805 35.63924 L 184.3805 35.63924 "
   id="path684" /><path
   style="font-size:12;fill:none;fill-rule:evenodd;stroke:#000000;stroke-width:0.999953;"
   d="M 187.0156 61.62311 C 205.3334 44.54293 181.6761 41.10763 181.6761 41.10763 L 200.8861 40.80801 C 200.8861 40.80801 187.1301 36.77816 191.4585 37.60755 C 195.7867 38.43702 195.5497 38.79277 195.7867 38.43702 C 196.0239 38.08121 203.6722 37.78345 196.9723 36.65791 C 190.2723 35.53235 190.2723 35.53235 190.2723 35.53235 L 190.2723 35.53235 L 190.2723 35.53235 "
   id="path685" /></g><g
   id="g686"
   transform="matrix(-1,0,0,1,374.6518,0)"><path
   style="font-size:12;fill:none;fill-rule:evenodd;stroke:#000000;"
   d="M 187.6375 61.73 C 169.318 44.64982 192.9775 41.21452 192.9775 41.21452 L 173.7657 40.9149 C 173.7657 40.9149 187.523 36.88505 183.1942 37.71444 C 178.8656 38.54391 179.1026 38.89966 178.8656 38.54391 C 178.6284 38.1881 170.9793 37.89034 177.6799 36.7648 C 184.3805 35.63924 184.3805 35.63924 184.3805 35.63924 L 184.3805 35.63924 L 184.3805 35.63924 "
   id="path687" /><path
   style="font-size:12;fill:none;fill-rule:evenodd;stroke:#000000;stroke-width:0.999953;"
   d="M 187.0156 61.62311 C 205.3334 44.54293 181.6761 41.10763 181.6761 41.10763 L 200.8861 40.80801 C 200.8861 40.80801 187.1301 36.77816 191.4585 37.60755 C 195.7867 38.43702 195.5497 38.79277 195.7867 38.43702 C 196.0239 38.08121 203.6722 37.78345 196.9723 36.65791 C 190.2723 35.53235 190.2723 35.53235 190.2723 35.53235 L 190.2723 35.53235 L 190.2723 35.53235 "
   id="path688" /></g><g
   id="g689"
   transform="matrix(-0.217597,-2.976814e-17,2.664706e-17,-0.243084,228.0607,48.61383)"><path
   style="font-size:12;fill:none;fill-rule:evenodd;stroke:#000000;"
   d="M 187.6375 61.73 C 169.318 44.64982 192.9775 41.21452 192.9775 41.21452 L 173.7657 40.9149 C 173.7657 40.9149 187.523 36.88505 183.1942 37.71444 C 178.8656 38.54391 179.1026 38.89966 178.8656 38.54391 C 178.6284 38.1881 170.9793 37.89034 177.6799 36.7648 C 184.3805 35.63924 184.3805 35.63924 184.3805 35.63924 L 184.3805 35.63924 L 184.3805 35.63924 "
   id="path690" /><path
   style="font-size:12;fill:none;fill-rule:evenodd;stroke:#000000;stroke-width:0.999953;"
   d="M 187.0156 61.62311 C 205.3334 44.54293 181.6761 41.10763 181.6761 41.10763 L 200.8861 40.80801 C 200.8861 40.80801 187.1301 36.77816 191.4585 37.60755 C 195.7867 38.43702 195.5497 38.79277 195.7867 38.43702 C 196.0239 38.08121 203.6722 37.78345 196.9723 36.65791 C 190.2723 35.53235 190.2723 35.53235 190.2723 35.53235 L 190.2723 35.53235 L 190.2723 35.53235 "
   id="path691" /></g></g></g><g
   id="g692"
   transform="translate(92.00155,0)"><g
   id="g693"
   transform="matrix(0.620952,0,0,0.612946,-107.3817,-8.458714)"><g
   id="g694"><path
   style="font-size:12;fill:none;fill-rule:evenodd;stroke:#000000;"
   d="M 187.6375 61.73 C 169.318 44.64982 192.9775 41.21452 192.9775 41.21452 L 173.7657 40.9149 C 173.7657 40.9149 187.523 36.88505 183.1942 37.71444 C 178.8656 38.54391 179.1026 38.89966 178.8656 38.54391 C 178.6284 38.1881 170.9793 37.89034 177.6799 36.7648 C 184.3805 35.63924 184.3805 35.63924 184.3805 35.63924 L 184.3805 35.63924 L 184.3805 35.63924 "
   id="path695" /><path
   style="font-size:12;fill:none;fill-rule:evenodd;stroke:#000000;stroke-width:0.999953;"
   d="M 187.0156 61.62311 C 205.3334 44.54293 181.6761 41.10763 181.6761 41.10763 L 200.8861 40.80801 C 200.8861 40.80801 187.1301 36.77816 191.4585 37.60755 C 195.7867 38.43702 195.5497 38.79277 195.7867 38.43702 C 196.0239 38.08121 203.6722 37.78345 196.9723 36.65791 C 190.2723 35.53235 190.2723 35.53235 190.2723 35.53235 L 190.2723 35.53235 L 190.2723 35.53235 "
   id="path696" /></g><g
   id="g697"
   transform="matrix(-1,0,0,1,374.6518,0)"><path
   style="font-size:12;fill:none;fill-rule:evenodd;stroke:#000000;"
   d="M 187.6375 61.73 C 169.318 44.64982 192.9775 41.21452 192.9775 41.21452 L 173.7657 40.9149 C 173.7657 40.9149 187.523 36.88505 183.1942 37.71444 C 178.8656 38.54391 179.1026 38.89966 178.8656 38.54391 C 178.6284 38.1881 170.9793 37.89034 177.6799 36.7648 C 184.3805 35.63924 184.3805 35.63924 184.3805 35.63924 L 184.3805 35.63924 L 184.3805 35.63924 "
   id="path698" /><path
   style="font-size:12;fill:none;fill-rule:evenodd;stroke:#000000;stroke-width:0.999953;"
   d="M 187.0156 61.62311 C 205.3334 44.54293 181.6761 41.10763 181.6761 41.10763 L 200.8861 40.80801 C 200.8861 40.80801 187.1301 36.77816 191.4585 37.60755 C 195.7867 38.43702 195.5497 38.79277 195.7867 38.43702 C 196.0239 38.08121 203.6722 37.78345 196.9723 36.65791 C 190.2723 35.53235 190.2723 35.53235 190.2723 35.53235 L 190.2723 35.53235 L 190.2723 35.53235 "
   id="path699" /></g><g
   id="g700"
   transform="matrix(-0.217597,-2.976814e-17,2.664706e-17,-0.243084,228.0607,48.61383)"><path
   style="font-size:12;fill:none;fill-rule:evenodd;stroke:#000000;"
   d="M 187.6375 61.73 C 169.318 44.64982 192.9775 41.21452 192.9775 41.21452 L 173.7657 40.9149 C 173.7657 40.9149 187.523 36.88505 183.1942 37.71444 C 178.8656 38.54391 179.1026 38.89966 178.8656 38.54391 C 178.6284 38.1881 170.9793 37.89034 177.6799 36.7648 C 184.3805 35.63924 184.3805 35.63924 184.3805 35.63924 L 184.3805 35.63924 L 184.3805 35.63924 "
   id="path701" /><path
   style="font-size:12;fill:none;fill-rule:evenodd;stroke:#000000;stroke-width:0.999953;"
   d="M 187.0156 61.62311 C 205.3334 44.54293 181.6761 41.10763 181.6761 41.10763 L 200.8861 40.80801 C 200.8861 40.80801 187.1301 36.77816 191.4585 37.60755 C 195.7867 38.43702 195.5497 38.79277 195.7867 38.43702 C 196.0239 38.08121 203.6722 37.78345 196.9723 36.65791 C 190.2723 35.53235 190.2723 35.53235 190.2723 35.53235 L 190.2723 35.53235 L 190.2723 35.53235 "
   id="path702" /></g></g><g
   id="g703"
   transform="matrix(0.620952,0,0,0.612946,-84.38015,-8.457153)"><g
   id="g704"><path
   style="font-size:12;fill:none;fill-rule:evenodd;stroke:#000000;"
   d="M 187.6375 61.73 C 169.318 44.64982 192.9775 41.21452 192.9775 41.21452 L 173.7657 40.9149 C 173.7657 40.9149 187.523 36.88505 183.1942 37.71444 C 178.8656 38.54391 179.1026 38.89966 178.8656 38.54391 C 178.6284 38.1881 170.9793 37.89034 177.6799 36.7648 C 184.3805 35.63924 184.3805 35.63924 184.3805 35.63924 L 184.3805 35.63924 L 184.3805 35.63924 "
   id="path705" /><path
   style="font-size:12;fill:none;fill-rule:evenodd;stroke:#000000;stroke-width:0.999953;"
   d="M 187.0156 61.62311 C 205.3334 44.54293 181.6761 41.10763 181.6761 41.10763 L 200.8861 40.80801 C 200.8861 40.80801 187.1301 36.77816 191.4585 37.60755 C 195.7867 38.43702 195.5497 38.79277 195.7867 38.43702 C 196.0239 38.08121 203.6722 37.78345 196.9723 36.65791 C 190.2723 35.53235 190.2723 35.53235 190.2723 35.53235 L 190.2723 35.53235 L 190.2723 35.53235 "
   id="path706" /></g><g
   id="g707"
   transform="matrix(-1,0,0,1,374.6518,0)"><path
   style="font-size:12;fill:none;fill-rule:evenodd;stroke:#000000;"
   d="M 187.6375 61.73 C 169.318 44.64982 192.9775 41.21452 192.9775 41.21452 L 173.7657 40.9149 C 173.7657 40.9149 187.523 36.88505 183.1942 37.71444 C 178.8656 38.54391 179.1026 38.89966 178.8656 38.54391 C 178.6284 38.1881 170.9793 37.89034 177.6799 36.7648 C 184.3805 35.63924 184.3805 35.63924 184.3805 35.63924 L 184.3805 35.63924 L 184.3805 35.63924 "
   id="path708" /><path
   style="font-size:12;fill:none;fill-rule:evenodd;stroke:#000000;stroke-width:0.999953;"
   d="M 187.0156 61.62311 C 205.3334 44.54293 181.6761 41.10763 181.6761 41.10763 L 200.8861 40.80801 C 200.8861 40.80801 187.1301 36.77816 191.4585 37.60755 C 195.7867 38.43702 195.5497 38.79277 195.7867 38.43702 C 196.0239 38.08121 203.6722 37.78345 196.9723 36.65791 C 190.2723 35.53235 190.2723 35.53235 190.2723 35.53235 L 190.2723 35.53235 L 190.2723 35.53235 "
   id="path709" /></g><g
   id="g710"
   transform="matrix(-0.217597,-2.976814e-17,2.664706e-17,-0.243084,228.0607,48.61383)"><path
   style="font-size:12;fill:none;fill-rule:evenodd;stroke:#000000;"
   d="M 187.6375 61.73 C 169.318 44.64982 192.9775 41.21452 192.9775 41.21452 L 173.7657 40.9149 C 173.7657 40.9149 187.523 36.88505 183.1942 37.71444 C 178.8656 38.54391 179.1026 38.89966 178.8656 38.54391 C 178.6284 38.1881 170.9793 37.89034 177.6799 36.7648 C 184.3805 35.63924 184.3805 35.63924 184.3805 35.63924 L 184.3805 35.63924 L 184.3805 35.63924 "
   id="path711" /><path
   style="font-size:12;fill:none;fill-rule:evenodd;stroke:#000000;stroke-width:0.999953;"
   d="M 187.0156 61.62311 C 205.3334 44.54293 181.6761 41.10763 181.6761 41.10763 L 200.8861 40.80801 C 200.8861 40.80801 187.1301 36.77816 191.4585 37.60755 C 195.7867 38.43702 195.5497 38.79277 195.7867 38.43702 C 196.0239 38.08121 203.6722 37.78345 196.9723 36.65791 C 190.2723 35.53235 190.2723 35.53235 190.2723 35.53235 L 190.2723 35.53235 L 190.2723 35.53235 "
   id="path712" /></g></g></g><g
   id="g734"
   transform="translate(115.0015,0)"><g
   id="g735"
   transform="matrix(0.620952,0,0,0.612946,-107.3817,-8.458714)"><g
   id="g736"><path
   style="font-size:12;fill:none;fill-rule:evenodd;stroke:#000000;"
   d="M 187.6375 61.73 C 169.318 44.64982 192.9775 41.21452 192.9775 41.21452 L 173.7657 40.9149 C 173.7657 40.9149 187.523 36.88505 183.1942 37.71444 C 178.8656 38.54391 179.1026 38.89966 178.8656 38.54391 C 178.6284 38.1881 170.9793 37.89034 177.6799 36.7648 C 184.3805 35.63924 184.3805 35.63924 184.3805 35.63924 L 184.3805 35.63924 L 184.3805 35.63924 "
   id="path737" /><path
   style="font-size:12;fill:none;fill-rule:evenodd;stroke:#000000;stroke-width:0.999953;"
   d="M 187.0156 61.62311 C 205.3334 44.54293 181.6761 41.10763 181.6761 41.10763 L 200.8861 40.80801 C 200.8861 40.80801 187.1301 36.77816 191.4585 37.60755 C 195.7867 38.43702 195.5497 38.79277 195.7867 38.43702 C 196.0239 38.08121 203.6722 37.78345 196.9723 36.65791 C 190.2723 35.53235 190.2723 35.53235 190.2723 35.53235 L 190.2723 35.53235 L 190.2723 35.53235 "
   id="path738" /></g><g
   id="g739"
   transform="matrix(-1,0,0,1,374.6518,0)"><path
   style="font-size:12;fill:none;fill-rule:evenodd;stroke:#000000;"
   d="M 187.6375 61.73 C 169.318 44.64982 192.9775 41.21452 192.9775 41.21452 L 173.7657 40.9149 C 173.7657 40.9149 187.523 36.88505 183.1942 37.71444 C 178.8656 38.54391 179.1026 38.89966 178.8656 38.54391 C 178.6284 38.1881 170.9793 37.89034 177.6799 36.7648 C 184.3805 35.63924 184.3805 35.63924 184.3805 35.63924 L 184.3805 35.63924 L 184.3805 35.63924 "
   id="path740" /><path
   style="font-size:12;fill:none;fill-rule:evenodd;stroke:#000000;stroke-width:0.999953;"
   d="M 187.0156 61.62311 C 205.3334 44.54293 181.6761 41.10763 181.6761 41.10763 L 200.8861 40.80801 C 200.8861 40.80801 187.1301 36.77816 191.4585 37.60755 C 195.7867 38.43702 195.5497 38.79277 195.7867 38.43702 C 196.0239 38.08121 203.6722 37.78345 196.9723 36.65791 C 190.2723 35.53235 190.2723 35.53235 190.2723 35.53235 L 190.2723 35.53235 L 190.2723 35.53235 "
   id="path741" /></g><g
   id="g742"
   transform="matrix(-0.217597,-2.976814e-17,2.664706e-17,-0.243084,228.0607,48.61383)"><path
   style="font-size:12;fill:none;fill-rule:evenodd;stroke:#000000;"
   d="M 187.6375 61.73 C 169.318 44.64982 192.9775 41.21452 192.9775 41.21452 L 173.7657 40.9149 C 173.7657 40.9149 187.523 36.88505 183.1942 37.71444 C 178.8656 38.54391 179.1026 38.89966 178.8656 38.54391 C 178.6284 38.1881 170.9793 37.89034 177.6799 36.7648 C 184.3805 35.63924 184.3805 35.63924 184.3805 35.63924 L 184.3805 35.63924 L 184.3805 35.63924 "
   id="path743" /><path
   style="font-size:12;fill:none;fill-rule:evenodd;stroke:#000000;stroke-width:0.999953;"
   d="M 187.0156 61.62311 C 205.3334 44.54293 181.6761 41.10763 181.6761 41.10763 L 200.8861 40.80801 C 200.8861 40.80801 187.1301 36.77816 191.4585 37.60755 C 195.7867 38.43702 195.5497 38.79277 195.7867 38.43702 C 196.0239 38.08121 203.6722 37.78345 196.9723 36.65791 C 190.2723 35.53235 190.2723 35.53235 190.2723 35.53235 L 190.2723 35.53235 L 190.2723 35.53235 "
   id="path744" /></g></g><g
   id="g745"
   transform="matrix(0.620952,0,0,0.612946,-84.38015,-8.457153)"><g
   id="g746"><path
   style="font-size:12;fill:none;fill-rule:evenodd;stroke:#000000;"
   d="M 187.6375 61.73 C 169.318 44.64982 192.9775 41.21452 192.9775 41.21452 L 173.7657 40.9149 C 173.7657 40.9149 187.523 36.88505 183.1942 37.71444 C 178.8656 38.54391 179.1026 38.89966 178.8656 38.54391 C 178.6284 38.1881 170.9793 37.89034 177.6799 36.7648 C 184.3805 35.63924 184.3805 35.63924 184.3805 35.63924 L 184.3805 35.63924 L 184.3805 35.63924 "
   id="path747" /><path
   style="font-size:12;fill:none;fill-rule:evenodd;stroke:#000000;stroke-width:0.999953;"
   d="M 187.0156 61.62311 C 205.3334 44.54293 181.6761 41.10763 181.6761 41.10763 L 200.8861 40.80801 C 200.8861 40.80801 187.1301 36.77816 191.4585 37.60755 C 195.7867 38.43702 195.5497 38.79277 195.7867 38.43702 C 196.0239 38.08121 203.6722 37.78345 196.9723 36.65791 C 190.2723 35.53235 190.2723 35.53235 190.2723 35.53235 L 190.2723 35.53235 L 190.2723 35.53235 "
   id="path748" /></g><g
   id="g749"
   transform="matrix(-1,0,0,1,374.6518,0)"><path
   style="font-size:12;fill:none;fill-rule:evenodd;stroke:#000000;"
   d="M 187.6375 61.73 C 169.318 44.64982 192.9775 41.21452 192.9775 41.21452 L 173.7657 40.9149 C 173.7657 40.9149 187.523 36.88505 183.1942 37.71444 C 178.8656 38.54391 179.1026 38.89966 178.8656 38.54391 C 178.6284 38.1881 170.9793 37.89034 177.6799 36.7648 C 184.3805 35.63924 184.3805 35.63924 184.3805 35.63924 L 184.3805 35.63924 L 184.3805 35.63924 "
   id="path750" /><path
   style="font-size:12;fill:none;fill-rule:evenodd;stroke:#000000;stroke-width:0.999953;"
   d="M 187.0156 61.62311 C 205.3334 44.54293 181.6761 41.10763 181.6761 41.10763 L 200.8861 40.80801 C 200.8861 40.80801 187.1301 36.77816 191.4585 37.60755 C 195.7867 38.43702 195.5497 38.79277 195.7867 38.43702 C 196.0239 38.08121 203.6722 37.78345 196.9723 36.65791 C 190.2723 35.53235 190.2723 35.53235 190.2723 35.53235 L 190.2723 35.53235 L 190.2723 35.53235 "
   id="path751" /></g><g
   id="g752"
   transform="matrix(-0.217597,-2.976814e-17,2.664706e-17,-0.243084,228.0607,48.61383)"><path
   style="font-size:12;fill:none;fill-rule:evenodd;stroke:#000000;"
   d="M 187.6375 61.73 C 169.318 44.64982 192.9775 41.21452 192.9775 41.21452 L 173.7657 40.9149 C 173.7657 40.9149 187.523 36.88505 183.1942 37.71444 C 178.8656 38.54391 179.1026 38.89966 178.8656 38.54391 C 178.6284 38.1881 170.9793 37.89034 177.6799 36.7648 C 184.3805 35.63924 184.3805 35.63924 184.3805 35.63924 L 184.3805 35.63924 L 184.3805 35.63924 "
   id="path753" /><path
   style="font-size:12;fill:none;fill-rule:evenodd;stroke:#000000;stroke-width:0.999953;"
   d="M 187.0156 61.62311 C 205.3334 44.54293 181.6761 41.10763 181.6761 41.10763 L 200.8861 40.80801 C 200.8861 40.80801 187.1301 36.77816 191.4585 37.60755 C 195.7867 38.43702 195.5497 38.79277 195.7867 38.43702 C 196.0239 38.08121 203.6722 37.78345 196.9723 36.65791 C 190.2723 35.53235 190.2723 35.53235 190.2723 35.53235 L 190.2723 35.53235 L 190.2723 35.53235 "
   id="path754" /></g></g></g><g
   id="g755"
   transform="translate(138.0016,0)"><g
   id="g756"
   transform="matrix(0.620952,0,0,0.612946,-107.3817,-8.458714)"><g
   id="g757"><path
   style="font-size:12;fill:none;fill-rule:evenodd;stroke:#000000;"
   d="M 187.6375 61.73 C 169.318 44.64982 192.9775 41.21452 192.9775 41.21452 L 173.7657 40.9149 C 173.7657 40.9149 187.523 36.88505 183.1942 37.71444 C 178.8656 38.54391 179.1026 38.89966 178.8656 38.54391 C 178.6284 38.1881 170.9793 37.89034 177.6799 36.7648 C 184.3805 35.63924 184.3805 35.63924 184.3805 35.63924 L 184.3805 35.63924 L 184.3805 35.63924 "
   id="path758" /><path
   style="font-size:12;fill:none;fill-rule:evenodd;stroke:#000000;stroke-width:0.999953;"
   d="M 187.0156 61.62311 C 205.3334 44.54293 181.6761 41.10763 181.6761 41.10763 L 200.8861 40.80801 C 200.8861 40.80801 187.1301 36.77816 191.4585 37.60755 C 195.7867 38.43702 195.5497 38.79277 195.7867 38.43702 C 196.0239 38.08121 203.6722 37.78345 196.9723 36.65791 C 190.2723 35.53235 190.2723 35.53235 190.2723 35.53235 L 190.2723 35.53235 L 190.2723 35.53235 "
   id="path759" /></g><g
   id="g760"
   transform="matrix(-1,0,0,1,374.6518,0)"><path
   style="font-size:12;fill:none;fill-rule:evenodd;stroke:#000000;"
   d="M 187.6375 61.73 C 169.318 44.64982 192.9775 41.21452 192.9775 41.21452 L 173.7657 40.9149 C 173.7657 40.9149 187.523 36.88505 183.1942 37.71444 C 178.8656 38.54391 179.1026 38.89966 178.8656 38.54391 C 178.6284 38.1881 170.9793 37.89034 177.6799 36.7648 C 184.3805 35.63924 184.3805 35.63924 184.3805 35.63924 L 184.3805 35.63924 L 184.3805 35.63924 "
   id="path761" /><path
   style="font-size:12;fill:none;fill-rule:evenodd;stroke:#000000;stroke-width:0.999953;"
   d="M 187.0156 61.62311 C 205.3334 44.54293 181.6761 41.10763 181.6761 41.10763 L 200.8861 40.80801 C 200.8861 40.80801 187.1301 36.77816 191.4585 37.60755 C 195.7867 38.43702 195.5497 38.79277 195.7867 38.43702 C 196.0239 38.08121 203.6722 37.78345 196.9723 36.65791 C 190.2723 35.53235 190.2723 35.53235 190.2723 35.53235 L 190.2723 35.53235 L 190.2723 35.53235 "
   id="path762" /></g><g
   id="g763"
   transform="matrix(-0.217597,-2.976814e-17,2.664706e-17,-0.243084,228.0607,48.61383)"><path
   style="font-size:12;fill:none;fill-rule:evenodd;stroke:#000000;"
   d="M 187.6375 61.73 C 169.318 44.64982 192.9775 41.21452 192.9775 41.21452 L 173.7657 40.9149 C 173.7657 40.9149 187.523 36.88505 183.1942 37.71444 C 178.8656 38.54391 179.1026 38.89966 178.8656 38.54391 C 178.6284 38.1881 170.9793 37.89034 177.6799 36.7648 C 184.3805 35.63924 184.3805 35.63924 184.3805 35.63924 L 184.3805 35.63924 L 184.3805 35.63924 "
   id="path764" /><path
   style="font-size:12;fill:none;fill-rule:evenodd;stroke:#000000;stroke-width:0.999953;"
   d="M 187.0156 61.62311 C 205.3334 44.54293 181.6761 41.10763 181.6761 41.10763 L 200.8861 40.80801 C 200.8861 40.80801 187.1301 36.77816 191.4585 37.60755 C 195.7867 38.43702 195.5497 38.79277 195.7867 38.43702 C 196.0239 38.08121 203.6722 37.78345 196.9723 36.65791 C 190.2723 35.53235 190.2723 35.53235 190.2723 35.53235 L 190.2723 35.53235 L 190.2723 35.53235 "
   id="path765" /></g></g><g
   id="g766"
   transform="matrix(0.620952,0,0,0.612946,-84.38015,-8.457153)"><g
   id="g767"><path
   style="font-size:12;fill:none;fill-rule:evenodd;stroke:#000000;"
   d="M 187.6375 61.73 C 169.318 44.64982 192.9775 41.21452 192.9775 41.21452 L 173.7657 40.9149 C 173.7657 40.9149 187.523 36.88505 183.1942 37.71444 C 178.8656 38.54391 179.1026 38.89966 178.8656 38.54391 C 178.6284 38.1881 170.9793 37.89034 177.6799 36.7648 C 184.3805 35.63924 184.3805 35.63924 184.3805 35.63924 L 184.3805 35.63924 L 184.3805 35.63924 "
   id="path768" /><path
   style="font-size:12;fill:none;fill-rule:evenodd;stroke:#000000;stroke-width:0.999953;"
   d="M 187.0156 61.62311 C 205.3334 44.54293 181.6761 41.10763 181.6761 41.10763 L 200.8861 40.80801 C 200.8861 40.80801 187.1301 36.77816 191.4585 37.60755 C 195.7867 38.43702 195.5497 38.79277 195.7867 38.43702 C 196.0239 38.08121 203.6722 37.78345 196.9723 36.65791 C 190.2723 35.53235 190.2723 35.53235 190.2723 35.53235 L 190.2723 35.53235 L 190.2723 35.53235 "
   id="path769" /></g><g
   id="g770"
   transform="matrix(-1,0,0,1,374.6518,0)"><path
   style="font-size:12;fill:none;fill-rule:evenodd;stroke:#000000;"
   d="M 187.6375 61.73 C 169.318 44.64982 192.9775 41.21452 192.9775 41.21452 L 173.7657 40.9149 C 173.7657 40.9149 187.523 36.88505 183.1942 37.71444 C 178.8656 38.54391 179.1026 38.89966 178.8656 38.54391 C 178.6284 38.1881 170.9793 37.89034 177.6799 36.7648 C 184.3805 35.63924 184.3805 35.63924 184.3805 35.63924 L 184.3805 35.63924 L 184.3805 35.63924 "
   id="path771" /><path
   style="font-size:12;fill:none;fill-rule:evenodd;stroke:#000000;stroke-width:0.999953;"
   d="M 187.0156 61.62311 C 205.3334 44.54293 181.6761 41.10763 181.6761 41.10763 L 200.8861 40.80801 C 200.8861 40.80801 187.1301 36.77816 191.4585 37.60755 C 195.7867 38.43702 195.5497 38.79277 195.7867 38.43702 C 196.0239 38.08121 203.6722 37.78345 196.9723 36.65791 C 190.2723 35.53235 190.2723 35.53235 190.2723 35.53235 L 190.2723 35.53235 L 190.2723 35.53235 "
   id="path772" /></g><g
   id="g773"
   transform="matrix(-0.217597,-2.976814e-17,2.664706e-17,-0.243084,228.0607,48.61383)"><path
   style="font-size:12;fill:none;fill-rule:evenodd;stroke:#000000;"
   d="M 187.6375 61.73 C 169.318 44.64982 192.9775 41.21452 192.9775 41.21452 L 173.7657 40.9149 C 173.7657 40.9149 187.523 36.88505 183.1942 37.71444 C 178.8656 38.54391 179.1026 38.89966 178.8656 38.54391 C 178.6284 38.1881 170.9793 37.89034 177.6799 36.7648 C 184.3805 35.63924 184.3805 35.63924 184.3805 35.63924 L 184.3805 35.63924 L 184.3805 35.63924 "
   id="path774" /><path
   style="font-size:12;fill:none;fill-rule:evenodd;stroke:#000000;stroke-width:0.999953;"
   d="M 187.0156 61.62311 C 205.3334 44.54293 181.6761 41.10763 181.6761 41.10763 L 200.8861 40.80801 C 200.8861 40.80801 187.1301 36.77816 191.4585 37.60755 C 195.7867 38.43702 195.5497 38.79277 195.7867 38.43702 C 196.0239 38.08121 203.6722 37.78345 196.9723 36.65791 C 190.2723 35.53235 190.2723 35.53235 190.2723 35.53235 L 190.2723 35.53235 L 190.2723 35.53235 "
   id="path775" /></g></g></g></g><g
   id="g882"
   transform="translate(160.9945,0)"
   style="font-size:12;"><g
   id="g883"><g
   id="g884"
   transform="matrix(0.620952,0,0,0.612946,-107.3817,-8.458714)"><g
   id="g885"><path
   style="font-size:12;fill:none;fill-rule:evenodd;stroke:#000000;"
   d="M 187.6375 61.73 C 169.318 44.64982 192.9775 41.21452 192.9775 41.21452 L 173.7657 40.9149 C 173.7657 40.9149 187.523 36.88505 183.1942 37.71444 C 178.8656 38.54391 179.1026 38.89966 178.8656 38.54391 C 178.6284 38.1881 170.9793 37.89034 177.6799 36.7648 C 184.3805 35.63924 184.3805 35.63924 184.3805 35.63924 L 184.3805 35.63924 L 184.3805 35.63924 "
   id="path886" /><path
   style="font-size:12;fill:none;fill-rule:evenodd;stroke:#000000;stroke-width:0.999953;"
   d="M 187.0156 61.62311 C 205.3334 44.54293 181.6761 41.10763 181.6761 41.10763 L 200.8861 40.80801 C 200.8861 40.80801 187.1301 36.77816 191.4585 37.60755 C 195.7867 38.43702 195.5497 38.79277 195.7867 38.43702 C 196.0239 38.08121 203.6722 37.78345 196.9723 36.65791 C 190.2723 35.53235 190.2723 35.53235 190.2723 35.53235 L 190.2723 35.53235 L 190.2723 35.53235 "
   id="path887" /></g><g
   id="g888"
   transform="matrix(-1,0,0,1,374.6518,0)"><path
   style="font-size:12;fill:none;fill-rule:evenodd;stroke:#000000;"
   d="M 187.6375 61.73 C 169.318 44.64982 192.9775 41.21452 192.9775 41.21452 L 173.7657 40.9149 C 173.7657 40.9149 187.523 36.88505 183.1942 37.71444 C 178.8656 38.54391 179.1026 38.89966 178.8656 38.54391 C 178.6284 38.1881 170.9793 37.89034 177.6799 36.7648 C 184.3805 35.63924 184.3805 35.63924 184.3805 35.63924 L 184.3805 35.63924 L 184.3805 35.63924 "
   id="path889" /><path
   style="font-size:12;fill:none;fill-rule:evenodd;stroke:#000000;stroke-width:0.999953;"
   d="M 187.0156 61.62311 C 205.3334 44.54293 181.6761 41.10763 181.6761 41.10763 L 200.8861 40.80801 C 200.8861 40.80801 187.1301 36.77816 191.4585 37.60755 C 195.7867 38.43702 195.5497 38.79277 195.7867 38.43702 C 196.0239 38.08121 203.6722 37.78345 196.9723 36.65791 C 190.2723 35.53235 190.2723 35.53235 190.2723 35.53235 L 190.2723 35.53235 L 190.2723 35.53235 "
   id="path890" /></g><g
   id="g891"
   transform="matrix(-0.217597,-2.976814e-17,2.664706e-17,-0.243084,228.0607,48.61383)"><path
   style="font-size:12;fill:none;fill-rule:evenodd;stroke:#000000;"
   d="M 187.6375 61.73 C 169.318 44.64982 192.9775 41.21452 192.9775 41.21452 L 173.7657 40.9149 C 173.7657 40.9149 187.523 36.88505 183.1942 37.71444 C 178.8656 38.54391 179.1026 38.89966 178.8656 38.54391 C 178.6284 38.1881 170.9793 37.89034 177.6799 36.7648 C 184.3805 35.63924 184.3805 35.63924 184.3805 35.63924 L 184.3805 35.63924 L 184.3805 35.63924 "
   id="path892" /><path
   style="font-size:12;fill:none;fill-rule:evenodd;stroke:#000000;stroke-width:0.999953;"
   d="M 187.0156 61.62311 C 205.3334 44.54293 181.6761 41.10763 181.6761 41.10763 L 200.8861 40.80801 C 200.8861 40.80801 187.1301 36.77816 191.4585 37.60755 C 195.7867 38.43702 195.5497 38.79277 195.7867 38.43702 C 196.0239 38.08121 203.6722 37.78345 196.9723 36.65791 C 190.2723 35.53235 190.2723 35.53235 190.2723 35.53235 L 190.2723 35.53235 L 190.2723 35.53235 "
   id="path893" /></g></g><g
   id="g894"
   transform="matrix(0.620952,0,0,0.612946,-84.38015,-8.457153)"><g
   id="g895"><path
   style="font-size:12;fill:none;fill-rule:evenodd;stroke:#000000;"
   d="M 187.6375 61.73 C 169.318 44.64982 192.9775 41.21452 192.9775 41.21452 L 173.7657 40.9149 C 173.7657 40.9149 187.523 36.88505 183.1942 37.71444 C 178.8656 38.54391 179.1026 38.89966 178.8656 38.54391 C 178.6284 38.1881 170.9793 37.89034 177.6799 36.7648 C 184.3805 35.63924 184.3805 35.63924 184.3805 35.63924 L 184.3805 35.63924 L 184.3805 35.63924 "
   id="path896" /><path
   style="font-size:12;fill:none;fill-rule:evenodd;stroke:#000000;stroke-width:0.999953;"
   d="M 187.0156 61.62311 C 205.3334 44.54293 181.6761 41.10763 181.6761 41.10763 L 200.8861 40.80801 C 200.8861 40.80801 187.1301 36.77816 191.4585 37.60755 C 195.7867 38.43702 195.5497 38.79277 195.7867 38.43702 C 196.0239 38.08121 203.6722 37.78345 196.9723 36.65791 C 190.2723 35.53235 190.2723 35.53235 190.2723 35.53235 L 190.2723 35.53235 L 190.2723 35.53235 "
   id="path897" /></g><g
   id="g898"
   transform="matrix(-1,0,0,1,374.6518,0)"><path
   style="font-size:12;fill:none;fill-rule:evenodd;stroke:#000000;"
   d="M 187.6375 61.73 C 169.318 44.64982 192.9775 41.21452 192.9775 41.21452 L 173.7657 40.9149 C 173.7657 40.9149 187.523 36.88505 183.1942 37.71444 C 178.8656 38.54391 179.1026 38.89966 178.8656 38.54391 C 178.6284 38.1881 170.9793 37.89034 177.6799 36.7648 C 184.3805 35.63924 184.3805 35.63924 184.3805 35.63924 L 184.3805 35.63924 L 184.3805 35.63924 "
   id="path899" /><path
   style="font-size:12;fill:none;fill-rule:evenodd;stroke:#000000;stroke-width:0.999953;"
   d="M 187.0156 61.62311 C 205.3334 44.54293 181.6761 41.10763 181.6761 41.10763 L 200.8861 40.80801 C 200.8861 40.80801 187.1301 36.77816 191.4585 37.60755 C 195.7867 38.43702 195.5497 38.79277 195.7867 38.43702 C 196.0239 38.08121 203.6722 37.78345 196.9723 36.65791 C 190.2723 35.53235 190.2723 35.53235 190.2723 35.53235 L 190.2723 35.53235 L 190.2723 35.53235 "
   id="path900" /></g><g
   id="g901"
   transform="matrix(-0.217597,-2.976814e-17,2.664706e-17,-0.243084,228.0607,48.61383)"><path
   style="font-size:12;fill:none;fill-rule:evenodd;stroke:#000000;"
   d="M 187.6375 61.73 C 169.318 44.64982 192.9775 41.21452 192.9775 41.21452 L 173.7657 40.9149 C 173.7657 40.9149 187.523 36.88505 183.1942 37.71444 C 178.8656 38.54391 179.1026 38.89966 178.8656 38.54391 C 178.6284 38.1881 170.9793 37.89034 177.6799 36.7648 C 184.3805 35.63924 184.3805 35.63924 184.3805 35.63924 L 184.3805 35.63924 L 184.3805 35.63924 "
   id="path902" /><path
   style="font-size:12;fill:none;fill-rule:evenodd;stroke:#000000;stroke-width:0.999953;"
   d="M 187.0156 61.62311 C 205.3334 44.54293 181.6761 41.10763 181.6761 41.10763 L 200.8861 40.80801 C 200.8861 40.80801 187.1301 36.77816 191.4585 37.60755 C 195.7867 38.43702 195.5497 38.79277 195.7867 38.43702 C 196.0239 38.08121 203.6722 37.78345 196.9723 36.65791 C 190.2723 35.53235 190.2723 35.53235 190.2723 35.53235 L 190.2723 35.53235 L 190.2723 35.53235 "
   id="path903" /></g></g></g><g
   id="g904"
   transform="translate(46.00154,0)"><g
   id="g905"
   transform="matrix(0.620952,0,0,0.612946,-107.3817,-8.458714)"><g
   id="g906"><path
   style="font-size:12;fill:none;fill-rule:evenodd;stroke:#000000;"
   d="M 187.6375 61.73 C 169.318 44.64982 192.9775 41.21452 192.9775 41.21452 L 173.7657 40.9149 C 173.7657 40.9149 187.523 36.88505 183.1942 37.71444 C 178.8656 38.54391 179.1026 38.89966 178.8656 38.54391 C 178.6284 38.1881 170.9793 37.89034 177.6799 36.7648 C 184.3805 35.63924 184.3805 35.63924 184.3805 35.63924 L 184.3805 35.63924 L 184.3805 35.63924 "
   id="path907" /><path
   style="font-size:12;fill:none;fill-rule:evenodd;stroke:#000000;stroke-width:0.999953;"
   d="M 187.0156 61.62311 C 205.3334 44.54293 181.6761 41.10763 181.6761 41.10763 L 200.8861 40.80801 C 200.8861 40.80801 187.1301 36.77816 191.4585 37.60755 C 195.7867 38.43702 195.5497 38.79277 195.7867 38.43702 C 196.0239 38.08121 203.6722 37.78345 196.9723 36.65791 C 190.2723 35.53235 190.2723 35.53235 190.2723 35.53235 L 190.2723 35.53235 L 190.2723 35.53235 "
   id="path908" /></g><g
   id="g909"
   transform="matrix(-1,0,0,1,374.6518,0)"><path
   style="font-size:12;fill:none;fill-rule:evenodd;stroke:#000000;"
   d="M 187.6375 61.73 C 169.318 44.64982 192.9775 41.21452 192.9775 41.21452 L 173.7657 40.9149 C 173.7657 40.9149 187.523 36.88505 183.1942 37.71444 C 178.8656 38.54391 179.1026 38.89966 178.8656 38.54391 C 178.6284 38.1881 170.9793 37.89034 177.6799 36.7648 C 184.3805 35.63924 184.3805 35.63924 184.3805 35.63924 L 184.3805 35.63924 L 184.3805 35.63924 "
   id="path910" /><path
   style="font-size:12;fill:none;fill-rule:evenodd;stroke:#000000;stroke-width:0.999953;"
   d="M 187.0156 61.62311 C 205.3334 44.54293 181.6761 41.10763 181.6761 41.10763 L 200.8861 40.80801 C 200.8861 40.80801 187.1301 36.77816 191.4585 37.60755 C 195.7867 38.43702 195.5497 38.79277 195.7867 38.43702 C 196.0239 38.08121 203.6722 37.78345 196.9723 36.65791 C 190.2723 35.53235 190.2723 35.53235 190.2723 35.53235 L 190.2723 35.53235 L 190.2723 35.53235 "
   id="path911" /></g><g
   id="g912"
   transform="matrix(-0.217597,-2.976814e-17,2.664706e-17,-0.243084,228.0607,48.61383)"><path
   style="font-size:12;fill:none;fill-rule:evenodd;stroke:#000000;"
   d="M 187.6375 61.73 C 169.318 44.64982 192.9775 41.21452 192.9775 41.21452 L 173.7657 40.9149 C 173.7657 40.9149 187.523 36.88505 183.1942 37.71444 C 178.8656 38.54391 179.1026 38.89966 178.8656 38.54391 C 178.6284 38.1881 170.9793 37.89034 177.6799 36.7648 C 184.3805 35.63924 184.3805 35.63924 184.3805 35.63924 L 184.3805 35.63924 L 184.3805 35.63924 "
   id="path913" /><path
   style="font-size:12;fill:none;fill-rule:evenodd;stroke:#000000;stroke-width:0.999953;"
   d="M 187.0156 61.62311 C 205.3334 44.54293 181.6761 41.10763 181.6761 41.10763 L 200.8861 40.80801 C 200.8861 40.80801 187.1301 36.77816 191.4585 37.60755 C 195.7867 38.43702 195.5497 38.79277 195.7867 38.43702 C 196.0239 38.08121 203.6722 37.78345 196.9723 36.65791 C 190.2723 35.53235 190.2723 35.53235 190.2723 35.53235 L 190.2723 35.53235 L 190.2723 35.53235 "
   id="path914" /></g></g><g
   id="g915"
   transform="matrix(0.620952,0,0,0.612946,-84.38015,-8.457153)"><g
   id="g916"><path
   style="font-size:12;fill:none;fill-rule:evenodd;stroke:#000000;"
   d="M 187.6375 61.73 C 169.318 44.64982 192.9775 41.21452 192.9775 41.21452 L 173.7657 40.9149 C 173.7657 40.9149 187.523 36.88505 183.1942 37.71444 C 178.8656 38.54391 179.1026 38.89966 178.8656 38.54391 C 178.6284 38.1881 170.9793 37.89034 177.6799 36.7648 C 184.3805 35.63924 184.3805 35.63924 184.3805 35.63924 L 184.3805 35.63924 L 184.3805 35.63924 "
   id="path917" /><path
   style="font-size:12;fill:none;fill-rule:evenodd;stroke:#000000;stroke-width:0.999953;"
   d="M 187.0156 61.62311 C 205.3334 44.54293 181.6761 41.10763 181.6761 41.10763 L 200.8861 40.80801 C 200.8861 40.80801 187.1301 36.77816 191.4585 37.60755 C 195.7867 38.43702 195.5497 38.79277 195.7867 38.43702 C 196.0239 38.08121 203.6722 37.78345 196.9723 36.65791 C 190.2723 35.53235 190.2723 35.53235 190.2723 35.53235 L 190.2723 35.53235 L 190.2723 35.53235 "
   id="path918" /></g><g
   id="g919"
   transform="matrix(-1,0,0,1,374.6518,0)"><path
   style="font-size:12;fill:none;fill-rule:evenodd;stroke:#000000;"
   d="M 187.6375 61.73 C 169.318 44.64982 192.9775 41.21452 192.9775 41.21452 L 173.7657 40.9149 C 173.7657 40.9149 187.523 36.88505 183.1942 37.71444 C 178.8656 38.54391 179.1026 38.89966 178.8656 38.54391 C 178.6284 38.1881 170.9793 37.89034 177.6799 36.7648 C 184.3805 35.63924 184.3805 35.63924 184.3805 35.63924 L 184.3805 35.63924 L 184.3805 35.63924 "
   id="path920" /><path
   style="font-size:12;fill:none;fill-rule:evenodd;stroke:#000000;stroke-width:0.999953;"
   d="M 187.0156 61.62311 C 205.3334 44.54293 181.6761 41.10763 181.6761 41.10763 L 200.8861 40.80801 C 200.8861 40.80801 187.1301 36.77816 191.4585 37.60755 C 195.7867 38.43702 195.5497 38.79277 195.7867 38.43702 C 196.0239 38.08121 203.6722 37.78345 196.9723 36.65791 C 190.2723 35.53235 190.2723 35.53235 190.2723 35.53235 L 190.2723 35.53235 L 190.2723 35.53235 "
   id="path921" /></g><g
   id="g922"
   transform="matrix(-0.217597,-2.976814e-17,2.664706e-17,-0.243084,228.0607,48.61383)"><path
   style="font-size:12;fill:none;fill-rule:evenodd;stroke:#000000;"
   d="M 187.6375 61.73 C 169.318 44.64982 192.9775 41.21452 192.9775 41.21452 L 173.7657 40.9149 C 173.7657 40.9149 187.523 36.88505 183.1942 37.71444 C 178.8656 38.54391 179.1026 38.89966 178.8656 38.54391 C 178.6284 38.1881 170.9793 37.89034 177.6799 36.7648 C 184.3805 35.63924 184.3805 35.63924 184.3805 35.63924 L 184.3805 35.63924 L 184.3805 35.63924 "
   id="path923" /><path
   style="font-size:12;fill:none;fill-rule:evenodd;stroke:#000000;stroke-width:0.999953;"
   d="M 187.0156 61.62311 C 205.3334 44.54293 181.6761 41.10763 181.6761 41.10763 L 200.8861 40.80801 C 200.8861 40.80801 187.1301 36.77816 191.4585 37.60755 C 195.7867 38.43702 195.5497 38.79277 195.7867 38.43702 C 196.0239 38.08121 203.6722 37.78345 196.9723 36.65791 C 190.2723 35.53235 190.2723 35.53235 190.2723 35.53235 L 190.2723 35.53235 L 190.2723 35.53235 "
   id="path924" /></g></g></g><g
   id="g925"
   transform="translate(92.00155,0)"><g
   id="g926"
   transform="matrix(0.620952,0,0,0.612946,-107.3817,-8.458714)"><g
   id="g927"><path
   style="font-size:12;fill:none;fill-rule:evenodd;stroke:#000000;"
   d="M 187.6375 61.73 C 169.318 44.64982 192.9775 41.21452 192.9775 41.21452 L 173.7657 40.9149 C 173.7657 40.9149 187.523 36.88505 183.1942 37.71444 C 178.8656 38.54391 179.1026 38.89966 178.8656 38.54391 C 178.6284 38.1881 170.9793 37.89034 177.6799 36.7648 C 184.3805 35.63924 184.3805 35.63924 184.3805 35.63924 L 184.3805 35.63924 L 184.3805 35.63924 "
   id="path928" /><path
   style="font-size:12;fill:none;fill-rule:evenodd;stroke:#000000;stroke-width:0.999953;"
   d="M 187.0156 61.62311 C 205.3334 44.54293 181.6761 41.10763 181.6761 41.10763 L 200.8861 40.80801 C 200.8861 40.80801 187.1301 36.77816 191.4585 37.60755 C 195.7867 38.43702 195.5497 38.79277 195.7867 38.43702 C 196.0239 38.08121 203.6722 37.78345 196.9723 36.65791 C 190.2723 35.53235 190.2723 35.53235 190.2723 35.53235 L 190.2723 35.53235 L 190.2723 35.53235 "
   id="path929" /></g><g
   id="g930"
   transform="matrix(-1,0,0,1,374.6518,0)"><path
   style="font-size:12;fill:none;fill-rule:evenodd;stroke:#000000;"
   d="M 187.6375 61.73 C 169.318 44.64982 192.9775 41.21452 192.9775 41.21452 L 173.7657 40.9149 C 173.7657 40.9149 187.523 36.88505 183.1942 37.71444 C 178.8656 38.54391 179.1026 38.89966 178.8656 38.54391 C 178.6284 38.1881 170.9793 37.89034 177.6799 36.7648 C 184.3805 35.63924 184.3805 35.63924 184.3805 35.63924 L 184.3805 35.63924 L 184.3805 35.63924 "
   id="path931" /><path
   style="font-size:12;fill:none;fill-rule:evenodd;stroke:#000000;stroke-width:0.999953;"
   d="M 187.0156 61.62311 C 205.3334 44.54293 181.6761 41.10763 181.6761 41.10763 L 200.8861 40.80801 C 200.8861 40.80801 187.1301 36.77816 191.4585 37.60755 C 195.7867 38.43702 195.5497 38.79277 195.7867 38.43702 C 196.0239 38.08121 203.6722 37.78345 196.9723 36.65791 C 190.2723 35.53235 190.2723 35.53235 190.2723 35.53235 L 190.2723 35.53235 L 190.2723 35.53235 "
   id="path932" /></g><g
   id="g933"
   transform="matrix(-0.217597,-2.976814e-17,2.664706e-17,-0.243084,228.0607,48.61383)"><path
   style="font-size:12;fill:none;fill-rule:evenodd;stroke:#000000;"
   d="M 187.6375 61.73 C 169.318 44.64982 192.9775 41.21452 192.9775 41.21452 L 173.7657 40.9149 C 173.7657 40.9149 187.523 36.88505 183.1942 37.71444 C 178.8656 38.54391 179.1026 38.89966 178.8656 38.54391 C 178.6284 38.1881 170.9793 37.89034 177.6799 36.7648 C 184.3805 35.63924 184.3805 35.63924 184.3805 35.63924 L 184.3805 35.63924 L 184.3805 35.63924 "
   id="path934" /><path
   style="font-size:12;fill:none;fill-rule:evenodd;stroke:#000000;stroke-width:0.999953;"
   d="M 187.0156 61.62311 C 205.3334 44.54293 181.6761 41.10763 181.6761 41.10763 L 200.8861 40.80801 C 200.8861 40.80801 187.1301 36.77816 191.4585 37.60755 C 195.7867 38.43702 195.5497 38.79277 195.7867 38.43702 C 196.0239 38.08121 203.6722 37.78345 196.9723 36.65791 C 190.2723 35.53235 190.2723 35.53235 190.2723 35.53235 L 190.2723 35.53235 L 190.2723 35.53235 "
   id="path935" /></g></g><g
   id="g936"
   transform="matrix(0.620952,0,0,0.612946,-84.38015,-8.457153)"><g
   id="g937"><path
   style="font-size:12;fill:none;fill-rule:evenodd;stroke:#000000;"
   d="M 187.6375 61.73 C 169.318 44.64982 192.9775 41.21452 192.9775 41.21452 L 173.7657 40.9149 C 173.7657 40.9149 187.523 36.88505 183.1942 37.71444 C 178.8656 38.54391 179.1026 38.89966 178.8656 38.54391 C 178.6284 38.1881 170.9793 37.89034 177.6799 36.7648 C 184.3805 35.63924 184.3805 35.63924 184.3805 35.63924 L 184.3805 35.63924 L 184.3805 35.63924 "
   id="path938" /><path
   style="font-size:12;fill:none;fill-rule:evenodd;stroke:#000000;stroke-width:0.999953;"
   d="M 187.0156 61.62311 C 205.3334 44.54293 181.6761 41.10763 181.6761 41.10763 L 200.8861 40.80801 C 200.8861 40.80801 187.1301 36.77816 191.4585 37.60755 C 195.7867 38.43702 195.5497 38.79277 195.7867 38.43702 C 196.0239 38.08121 203.6722 37.78345 196.9723 36.65791 C 190.2723 35.53235 190.2723 35.53235 190.2723 35.53235 L 190.2723 35.53235 L 190.2723 35.53235 "
   id="path939" /></g><g
   id="g940"
   transform="matrix(-1,0,0,1,374.6518,0)"><path
   style="font-size:12;fill:none;fill-rule:evenodd;stroke:#000000;"
   d="M 187.6375 61.73 C 169.318 44.64982 192.9775 41.21452 192.9775 41.21452 L 173.7657 40.9149 C 173.7657 40.9149 187.523 36.88505 183.1942 37.71444 C 178.8656 38.54391 179.1026 38.89966 178.8656 38.54391 C 178.6284 38.1881 170.9793 37.89034 177.6799 36.7648 C 184.3805 35.63924 184.3805 35.63924 184.3805 35.63924 L 184.3805 35.63924 L 184.3805 35.63924 "
   id="path941" /><path
   style="font-size:12;fill:none;fill-rule:evenodd;stroke:#000000;stroke-width:0.999953;"
   d="M 187.0156 61.62311 C 205.3334 44.54293 181.6761 41.10763 181.6761 41.10763 L 200.8861 40.80801 C 200.8861 40.80801 187.1301 36.77816 191.4585 37.60755 C 195.7867 38.43702 195.5497 38.79277 195.7867 38.43702 C 196.0239 38.08121 203.6722 37.78345 196.9723 36.65791 C 190.2723 35.53235 190.2723 35.53235 190.2723 35.53235 L 190.2723 35.53235 L 190.2723 35.53235 "
   id="path942" /></g><g
   id="g943"
   transform="matrix(-0.217597,-2.976814e-17,2.664706e-17,-0.243084,228.0607,48.61383)"><path
   style="font-size:12;fill:none;fill-rule:evenodd;stroke:#000000;"
   d="M 187.6375 61.73 C 169.318 44.64982 192.9775 41.21452 192.9775 41.21452 L 173.7657 40.9149 C 173.7657 40.9149 187.523 36.88505 183.1942 37.71444 C 178.8656 38.54391 179.1026 38.89966 178.8656 38.54391 C 178.6284 38.1881 170.9793 37.89034 177.6799 36.7648 C 184.3805 35.63924 184.3805 35.63924 184.3805 35.63924 L 184.3805 35.63924 L 184.3805 35.63924 "
   id="path944" /><path
   style="font-size:12;fill:none;fill-rule:evenodd;stroke:#000000;stroke-width:0.999953;"
   d="M 187.0156 61.62311 C 205.3334 44.54293 181.6761 41.10763 181.6761 41.10763 L 200.8861 40.80801 C 200.8861 40.80801 187.1301 36.77816 191.4585 37.60755 C 195.7867 38.43702 195.5497 38.79277 195.7867 38.43702 C 196.0239 38.08121 203.6722 37.78345 196.9723 36.65791 C 190.2723 35.53235 190.2723 35.53235 190.2723 35.53235 L 190.2723 35.53235 L 190.2723 35.53235 "
   id="path945" /></g></g></g><g
   id="g946"
   transform="translate(115.0015,0)"><g
   id="g947"
   transform="matrix(0.620952,0,0,0.612946,-107.3817,-8.458714)"><g
   id="g948"><path
   style="font-size:12;fill:none;fill-rule:evenodd;stroke:#000000;"
   d="M 187.6375 61.73 C 169.318 44.64982 192.9775 41.21452 192.9775 41.21452 L 173.7657 40.9149 C 173.7657 40.9149 187.523 36.88505 183.1942 37.71444 C 178.8656 38.54391 179.1026 38.89966 178.8656 38.54391 C 178.6284 38.1881 170.9793 37.89034 177.6799 36.7648 C 184.3805 35.63924 184.3805 35.63924 184.3805 35.63924 L 184.3805 35.63924 L 184.3805 35.63924 "
   id="path949" /><path
   style="font-size:12;fill:none;fill-rule:evenodd;stroke:#000000;stroke-width:0.999953;"
   d="M 187.0156 61.62311 C 205.3334 44.54293 181.6761 41.10763 181.6761 41.10763 L 200.8861 40.80801 C 200.8861 40.80801 187.1301 36.77816 191.4585 37.60755 C 195.7867 38.43702 195.5497 38.79277 195.7867 38.43702 C 196.0239 38.08121 203.6722 37.78345 196.9723 36.65791 C 190.2723 35.53235 190.2723 35.53235 190.2723 35.53235 L 190.2723 35.53235 L 190.2723 35.53235 "
   id="path950" /></g><g
   id="g951"
   transform="matrix(-1,0,0,1,374.6518,0)"><path
   style="font-size:12;fill:none;fill-rule:evenodd;stroke:#000000;"
   d="M 187.6375 61.73 C 169.318 44.64982 192.9775 41.21452 192.9775 41.21452 L 173.7657 40.9149 C 173.7657 40.9149 187.523 36.88505 183.1942 37.71444 C 178.8656 38.54391 179.1026 38.89966 178.8656 38.54391 C 178.6284 38.1881 170.9793 37.89034 177.6799 36.7648 C 184.3805 35.63924 184.3805 35.63924 184.3805 35.63924 L 184.3805 35.63924 L 184.3805 35.63924 "
   id="path952" /><path
   style="font-size:12;fill:none;fill-rule:evenodd;stroke:#000000;stroke-width:0.999953;"
   d="M 187.0156 61.62311 C 205.3334 44.54293 181.6761 41.10763 181.6761 41.10763 L 200.8861 40.80801 C 200.8861 40.80801 187.1301 36.77816 191.4585 37.60755 C 195.7867 38.43702 195.5497 38.79277 195.7867 38.43702 C 196.0239 38.08121 203.6722 37.78345 196.9723 36.65791 C 190.2723 35.53235 190.2723 35.53235 190.2723 35.53235 L 190.2723 35.53235 L 190.2723 35.53235 "
   id="path953" /></g><g
   id="g954"
   transform="matrix(-0.217597,-2.976814e-17,2.664706e-17,-0.243084,228.0607,48.61383)"><path
   style="font-size:12;fill:none;fill-rule:evenodd;stroke:#000000;"
   d="M 187.6375 61.73 C 169.318 44.64982 192.9775 41.21452 192.9775 41.21452 L 173.7657 40.9149 C 173.7657 40.9149 187.523 36.88505 183.1942 37.71444 C 178.8656 38.54391 179.1026 38.89966 178.8656 38.54391 C 178.6284 38.1881 170.9793 37.89034 177.6799 36.7648 C 184.3805 35.63924 184.3805 35.63924 184.3805 35.63924 L 184.3805 35.63924 L 184.3805 35.63924 "
   id="path955" /><path
   style="font-size:12;fill:none;fill-rule:evenodd;stroke:#000000;stroke-width:0.999953;"
   d="M 187.0156 61.62311 C 205.3334 44.54293 181.6761 41.10763 181.6761 41.10763 L 200.8861 40.80801 C 200.8861 40.80801 187.1301 36.77816 191.4585 37.60755 C 195.7867 38.43702 195.5497 38.79277 195.7867 38.43702 C 196.0239 38.08121 203.6722 37.78345 196.9723 36.65791 C 190.2723 35.53235 190.2723 35.53235 190.2723 35.53235 L 190.2723 35.53235 L 190.2723 35.53235 "
   id="path956" /></g></g><g
   id="g957"
   transform="matrix(0.620952,0,0,0.612946,-84.38015,-8.457153)"><g
   id="g958"><path
   style="font-size:12;fill:none;fill-rule:evenodd;stroke:#000000;"
   d="M 187.6375 61.73 C 169.318 44.64982 192.9775 41.21452 192.9775 41.21452 L 173.7657 40.9149 C 173.7657 40.9149 187.523 36.88505 183.1942 37.71444 C 178.8656 38.54391 179.1026 38.89966 178.8656 38.54391 C 178.6284 38.1881 170.9793 37.89034 177.6799 36.7648 C 184.3805 35.63924 184.3805 35.63924 184.3805 35.63924 L 184.3805 35.63924 L 184.3805 35.63924 "
   id="path959" /><path
   style="font-size:12;fill:none;fill-rule:evenodd;stroke:#000000;stroke-width:0.999953;"
   d="M 187.0156 61.62311 C 205.3334 44.54293 181.6761 41.10763 181.6761 41.10763 L 200.8861 40.80801 C 200.8861 40.80801 187.1301 36.77816 191.4585 37.60755 C 195.7867 38.43702 195.5497 38.79277 195.7867 38.43702 C 196.0239 38.08121 203.6722 37.78345 196.9723 36.65791 C 190.2723 35.53235 190.2723 35.53235 190.2723 35.53235 L 190.2723 35.53235 L 190.2723 35.53235 "
   id="path960" /></g><g
   id="g961"
   transform="matrix(-1,0,0,1,374.6518,0)"><path
   style="font-size:12;fill:none;fill-rule:evenodd;stroke:#000000;"
   d="M 187.6375 61.73 C 169.318 44.64982 192.9775 41.21452 192.9775 41.21452 L 173.7657 40.9149 C 173.7657 40.9149 187.523 36.88505 183.1942 37.71444 C 178.8656 38.54391 179.1026 38.89966 178.8656 38.54391 C 178.6284 38.1881 170.9793 37.89034 177.6799 36.7648 C 184.3805 35.63924 184.3805 35.63924 184.3805 35.63924 L 184.3805 35.63924 L 184.3805 35.63924 "
   id="path962" /><path
   style="font-size:12;fill:none;fill-rule:evenodd;stroke:#000000;stroke-width:0.999953;"
   d="M 187.0156 61.62311 C 205.3334 44.54293 181.6761 41.10763 181.6761 41.10763 L 200.8861 40.80801 C 200.8861 40.80801 187.1301 36.77816 191.4585 37.60755 C 195.7867 38.43702 195.5497 38.79277 195.7867 38.43702 C 196.0239 38.08121 203.6722 37.78345 196.9723 36.65791 C 190.2723 35.53235 190.2723 35.53235 190.2723 35.53235 L 190.2723 35.53235 L 190.2723 35.53235 "
   id="path963" /></g><g
   id="g964"
   transform="matrix(-0.217597,-2.976814e-17,2.664706e-17,-0.243084,228.0607,48.61383)"><path
   style="font-size:12;fill:none;fill-rule:evenodd;stroke:#000000;"
   d="M 187.6375 61.73 C 169.318 44.64982 192.9775 41.21452 192.9775 41.21452 L 173.7657 40.9149 C 173.7657 40.9149 187.523 36.88505 183.1942 37.71444 C 178.8656 38.54391 179.1026 38.89966 178.8656 38.54391 C 178.6284 38.1881 170.9793 37.89034 177.6799 36.7648 C 184.3805 35.63924 184.3805 35.63924 184.3805 35.63924 L 184.3805 35.63924 L 184.3805 35.63924 "
   id="path965" /><path
   style="font-size:12;fill:none;fill-rule:evenodd;stroke:#000000;stroke-width:0.999953;"
   d="M 187.0156 61.62311 C 205.3334 44.54293 181.6761 41.10763 181.6761 41.10763 L 200.8861 40.80801 C 200.8861 40.80801 187.1301 36.77816 191.4585 37.60755 C 195.7867 38.43702 195.5497 38.79277 195.7867 38.43702 C 196.0239 38.08121 203.6722 37.78345 196.9723 36.65791 C 190.2723 35.53235 190.2723 35.53235 190.2723 35.53235 L 190.2723 35.53235 L 190.2723 35.53235 "
   id="path966" /></g></g></g><g
   id="g967"
   transform="translate(138.0016,0)"><g
   id="g968"
   transform="matrix(0.620952,0,0,0.612946,-107.3817,-8.458714)"><g
   id="g969"><path
   style="font-size:12;fill:none;fill-rule:evenodd;stroke:#000000;"
   d="M 187.6375 61.73 C 169.318 44.64982 192.9775 41.21452 192.9775 41.21452 L 173.7657 40.9149 C 173.7657 40.9149 187.523 36.88505 183.1942 37.71444 C 178.8656 38.54391 179.1026 38.89966 178.8656 38.54391 C 178.6284 38.1881 170.9793 37.89034 177.6799 36.7648 C 184.3805 35.63924 184.3805 35.63924 184.3805 35.63924 L 184.3805 35.63924 L 184.3805 35.63924 "
   id="path970" /><path
   style="font-size:12;fill:none;fill-rule:evenodd;stroke:#000000;stroke-width:0.999953;"
   d="M 187.0156 61.62311 C 205.3334 44.54293 181.6761 41.10763 181.6761 41.10763 L 200.8861 40.80801 C 200.8861 40.80801 187.1301 36.77816 191.4585 37.60755 C 195.7867 38.43702 195.5497 38.79277 195.7867 38.43702 C 196.0239 38.08121 203.6722 37.78345 196.9723 36.65791 C 190.2723 35.53235 190.2723 35.53235 190.2723 35.53235 L 190.2723 35.53235 L 190.2723 35.53235 "
   id="path971" /></g><g
   id="g972"
   transform="matrix(-1,0,0,1,374.6518,0)"><path
   style="font-size:12;fill:none;fill-rule:evenodd;stroke:#000000;"
   d="M 187.6375 61.73 C 169.318 44.64982 192.9775 41.21452 192.9775 41.21452 L 173.7657 40.9149 C 173.7657 40.9149 187.523 36.88505 183.1942 37.71444 C 178.8656 38.54391 179.1026 38.89966 178.8656 38.54391 C 178.6284 38.1881 170.9793 37.89034 177.6799 36.7648 C 184.3805 35.63924 184.3805 35.63924 184.3805 35.63924 L 184.3805 35.63924 L 184.3805 35.63924 "
   id="path973" /><path
   style="font-size:12;fill:none;fill-rule:evenodd;stroke:#000000;stroke-width:0.999953;"
   d="M 187.0156 61.62311 C 205.3334 44.54293 181.6761 41.10763 181.6761 41.10763 L 200.8861 40.80801 C 200.8861 40.80801 187.1301 36.77816 191.4585 37.60755 C 195.7867 38.43702 195.5497 38.79277 195.7867 38.43702 C 196.0239 38.08121 203.6722 37.78345 196.9723 36.65791 C 190.2723 35.53235 190.2723 35.53235 190.2723 35.53235 L 190.2723 35.53235 L 190.2723 35.53235 "
   id="path974" /></g><g
   id="g975"
   transform="matrix(-0.217597,-2.976814e-17,2.664706e-17,-0.243084,228.0607,48.61383)"><path
   style="font-size:12;fill:none;fill-rule:evenodd;stroke:#000000;"
   d="M 187.6375 61.73 C 169.318 44.64982 192.9775 41.21452 192.9775 41.21452 L 173.7657 40.9149 C 173.7657 40.9149 187.523 36.88505 183.1942 37.71444 C 178.8656 38.54391 179.1026 38.89966 178.8656 38.54391 C 178.6284 38.1881 170.9793 37.89034 177.6799 36.7648 C 184.3805 35.63924 184.3805 35.63924 184.3805 35.63924 L 184.3805 35.63924 L 184.3805 35.63924 "
   id="path976" /><path
   style="font-size:12;fill:none;fill-rule:evenodd;stroke:#000000;stroke-width:0.999953;"
   d="M 187.0156 61.62311 C 205.3334 44.54293 181.6761 41.10763 181.6761 41.10763 L 200.8861 40.80801 C 200.8861 40.80801 187.1301 36.77816 191.4585 37.60755 C 195.7867 38.43702 195.5497 38.79277 195.7867 38.43702 C 196.0239 38.08121 203.6722 37.78345 196.9723 36.65791 C 190.2723 35.53235 190.2723 35.53235 190.2723 35.53235 L 190.2723 35.53235 L 190.2723 35.53235 "
   id="path977" /></g></g><g
   id="g978"
   transform="matrix(0.620952,0,0,0.612946,-84.38015,-8.457153)"><g
   id="g979"><path
   style="font-size:12;fill:none;fill-rule:evenodd;stroke:#000000;"
   d="M 187.6375 61.73 C 169.318 44.64982 192.9775 41.21452 192.9775 41.21452 L 173.7657 40.9149 C 173.7657 40.9149 187.523 36.88505 183.1942 37.71444 C 178.8656 38.54391 179.1026 38.89966 178.8656 38.54391 C 178.6284 38.1881 170.9793 37.89034 177.6799 36.7648 C 184.3805 35.63924 184.3805 35.63924 184.3805 35.63924 L 184.3805 35.63924 L 184.3805 35.63924 "
   id="path980" /><path
   style="font-size:12;fill:none;fill-rule:evenodd;stroke:#000000;stroke-width:0.999953;"
   d="M 187.0156 61.62311 C 205.3334 44.54293 181.6761 41.10763 181.6761 41.10763 L 200.8861 40.80801 C 200.8861 40.80801 187.1301 36.77816 191.4585 37.60755 C 195.7867 38.43702 195.5497 38.79277 195.7867 38.43702 C 196.0239 38.08121 203.6722 37.78345 196.9723 36.65791 C 190.2723 35.53235 190.2723 35.53235 190.2723 35.53235 L 190.2723 35.53235 L 190.2723 35.53235 "
   id="path981" /></g><g
   id="g982"
   transform="matrix(-1,0,0,1,374.6518,0)"><path
   style="font-size:12;fill:none;fill-rule:evenodd;stroke:#000000;"
   d="M 187.6375 61.73 C 169.318 44.64982 192.9775 41.21452 192.9775 41.21452 L 173.7657 40.9149 C 173.7657 40.9149 187.523 36.88505 183.1942 37.71444 C 178.8656 38.54391 179.1026 38.89966 178.8656 38.54391 C 178.6284 38.1881 170.9793 37.89034 177.6799 36.7648 C 184.3805 35.63924 184.3805 35.63924 184.3805 35.63924 L 184.3805 35.63924 L 184.3805 35.63924 "
   id="path983" /><path
   style="font-size:12;fill:none;fill-rule:evenodd;stroke:#000000;stroke-width:0.999953;"
   d="M 187.0156 61.62311 C 205.3334 44.54293 181.6761 41.10763 181.6761 41.10763 L 200.8861 40.80801 C 200.8861 40.80801 187.1301 36.77816 191.4585 37.60755 C 195.7867 38.43702 195.5497 38.79277 195.7867 38.43702 C 196.0239 38.08121 203.6722 37.78345 196.9723 36.65791 C 190.2723 35.53235 190.2723 35.53235 190.2723 35.53235 L 190.2723 35.53235 L 190.2723 35.53235 "
   id="path984" /></g><g
   id="g985"
   transform="matrix(-0.217597,-2.976814e-17,2.664706e-17,-0.243084,228.0607,48.61383)"><path
   style="font-size:12;fill:none;fill-rule:evenodd;stroke:#000000;"
   d="M 187.6375 61.73 C 169.318 44.64982 192.9775 41.21452 192.9775 41.21452 L 173.7657 40.9149 C 173.7657 40.9149 187.523 36.88505 183.1942 37.71444 C 178.8656 38.54391 179.1026 38.89966 178.8656 38.54391 C 178.6284 38.1881 170.9793 37.89034 177.6799 36.7648 C 184.3805 35.63924 184.3805 35.63924 184.3805 35.63924 L 184.3805 35.63924 L 184.3805 35.63924 "
   id="path986" /><path
   style="font-size:12;fill:none;fill-rule:evenodd;stroke:#000000;stroke-width:0.999953;"
   d="M 187.0156 61.62311 C 205.3334 44.54293 181.6761 41.10763 181.6761 41.10763 L 200.8861 40.80801 C 200.8861 40.80801 187.1301 36.77816 191.4585 37.60755 C 195.7867 38.43702 195.5497 38.79277 195.7867 38.43702 C 196.0239 38.08121 203.6722 37.78345 196.9723 36.65791 C 190.2723 35.53235 190.2723 35.53235 190.2723 35.53235 L 190.2723 35.53235 L 190.2723 35.53235 "
   id="path987" /></g></g></g></g><g
   id="g1095"
   transform="translate(343.9383,0)"
   style="font-size:12;"><g
   id="g1096"
   transform="matrix(0.620952,0,0,0.612946,-107.3817,-8.458714)"><g
   id="g1097"><path
   style="font-size:12;fill:none;fill-rule:evenodd;stroke:#000000;"
   d="M 187.6375 61.73 C 169.318 44.64982 192.9775 41.21452 192.9775 41.21452 L 173.7657 40.9149 C 173.7657 40.9149 187.523 36.88505 183.1942 37.71444 C 178.8656 38.54391 179.1026 38.89966 178.8656 38.54391 C 178.6284 38.1881 170.9793 37.89034 177.6799 36.7648 C 184.3805 35.63924 184.3805 35.63924 184.3805 35.63924 L 184.3805 35.63924 L 184.3805 35.63924 "
   id="path1098" /><path
   style="font-size:12;fill:none;fill-rule:evenodd;stroke:#000000;stroke-width:0.999953;"
   d="M 187.0156 61.62311 C 205.3334 44.54293 181.6761 41.10763 181.6761 41.10763 L 200.8861 40.80801 C 200.8861 40.80801 187.1301 36.77816 191.4585 37.60755 C 195.7867 38.43702 195.5497 38.79277 195.7867 38.43702 C 196.0239 38.08121 203.6722 37.78345 196.9723 36.65791 C 190.2723 35.53235 190.2723 35.53235 190.2723 35.53235 L 190.2723 35.53235 L 190.2723 35.53235 "
   id="path1099" /></g><g
   id="g1100"
   transform="matrix(-1,0,0,1,374.6518,0)"><path
   style="font-size:12;fill:none;fill-rule:evenodd;stroke:#000000;"
   d="M 187.6375 61.73 C 169.318 44.64982 192.9775 41.21452 192.9775 41.21452 L 173.7657 40.9149 C 173.7657 40.9149 187.523 36.88505 183.1942 37.71444 C 178.8656 38.54391 179.1026 38.89966 178.8656 38.54391 C 178.6284 38.1881 170.9793 37.89034 177.6799 36.7648 C 184.3805 35.63924 184.3805 35.63924 184.3805 35.63924 L 184.3805 35.63924 L 184.3805 35.63924 "
   id="path1101" /><path
   style="font-size:12;fill:none;fill-rule:evenodd;stroke:#000000;stroke-width:0.999953;"
   d="M 187.0156 61.62311 C 205.3334 44.54293 181.6761 41.10763 181.6761 41.10763 L 200.8861 40.80801 C 200.8861 40.80801 187.1301 36.77816 191.4585 37.60755 C 195.7867 38.43702 195.5497 38.79277 195.7867 38.43702 C 196.0239 38.08121 203.6722 37.78345 196.9723 36.65791 C 190.2723 35.53235 190.2723 35.53235 190.2723 35.53235 L 190.2723 35.53235 L 190.2723 35.53235 "
   id="path1102" /></g><g
   id="g1103"
   transform="matrix(-0.217597,-2.976814e-17,2.664706e-17,-0.243084,228.0607,48.61383)"><path
   style="font-size:12;fill:none;fill-rule:evenodd;stroke:#000000;"
   d="M 187.6375 61.73 C 169.318 44.64982 192.9775 41.21452 192.9775 41.21452 L 173.7657 40.9149 C 173.7657 40.9149 187.523 36.88505 183.1942 37.71444 C 178.8656 38.54391 179.1026 38.89966 178.8656 38.54391 C 178.6284 38.1881 170.9793 37.89034 177.6799 36.7648 C 184.3805 35.63924 184.3805 35.63924 184.3805 35.63924 L 184.3805 35.63924 L 184.3805 35.63924 "
   id="path1104" /><path
   style="font-size:12;fill:none;fill-rule:evenodd;stroke:#000000;stroke-width:0.999953;"
   d="M 187.0156 61.62311 C 205.3334 44.54293 181.6761 41.10763 181.6761 41.10763 L 200.8861 40.80801 C 200.8861 40.80801 187.1301 36.77816 191.4585 37.60755 C 195.7867 38.43702 195.5497 38.79277 195.7867 38.43702 C 196.0239 38.08121 203.6722 37.78345 196.9723 36.65791 C 190.2723 35.53235 190.2723 35.53235 190.2723 35.53235 L 190.2723 35.53235 L 190.2723 35.53235 "
   id="path1105" /></g></g><g
   id="g1106"
   transform="matrix(0.620952,0,0,0.612946,-84.38015,-8.457153)"><g
   id="g1107"><path
   style="font-size:12;fill:none;fill-rule:evenodd;stroke:#000000;"
   d="M 187.6375 61.73 C 169.318 44.64982 192.9775 41.21452 192.9775 41.21452 L 173.7657 40.9149 C 173.7657 40.9149 187.523 36.88505 183.1942 37.71444 C 178.8656 38.54391 179.1026 38.89966 178.8656 38.54391 C 178.6284 38.1881 170.9793 37.89034 177.6799 36.7648 C 184.3805 35.63924 184.3805 35.63924 184.3805 35.63924 L 184.3805 35.63924 L 184.3805 35.63924 "
   id="path1108" /><path
   style="font-size:12;fill:none;fill-rule:evenodd;stroke:#000000;stroke-width:0.999953;"
   d="M 187.0156 61.62311 C 205.3334 44.54293 181.6761 41.10763 181.6761 41.10763 L 200.8861 40.80801 C 200.8861 40.80801 187.1301 36.77816 191.4585 37.60755 C 195.7867 38.43702 195.5497 38.79277 195.7867 38.43702 C 196.0239 38.08121 203.6722 37.78345 196.9723 36.65791 C 190.2723 35.53235 190.2723 35.53235 190.2723 35.53235 L 190.2723 35.53235 L 190.2723 35.53235 "
   id="path1109" /></g><g
   id="g1110"
   transform="matrix(-1,0,0,1,374.6518,0)"><path
   style="font-size:12;fill:none;fill-rule:evenodd;stroke:#000000;"
   d="M 187.6375 61.73 C 169.318 44.64982 192.9775 41.21452 192.9775 41.21452 L 173.7657 40.9149 C 173.7657 40.9149 187.523 36.88505 183.1942 37.71444 C 178.8656 38.54391 179.1026 38.89966 178.8656 38.54391 C 178.6284 38.1881 170.9793 37.89034 177.6799 36.7648 C 184.3805 35.63924 184.3805 35.63924 184.3805 35.63924 L 184.3805 35.63924 L 184.3805 35.63924 "
   id="path1111" /><path
   style="font-size:12;fill:none;fill-rule:evenodd;stroke:#000000;stroke-width:0.999953;"
   d="M 187.0156 61.62311 C 205.3334 44.54293 181.6761 41.10763 181.6761 41.10763 L 200.8861 40.80801 C 200.8861 40.80801 187.1301 36.77816 191.4585 37.60755 C 195.7867 38.43702 195.5497 38.79277 195.7867 38.43702 C 196.0239 38.08121 203.6722 37.78345 196.9723 36.65791 C 190.2723 35.53235 190.2723 35.53235 190.2723 35.53235 L 190.2723 35.53235 L 190.2723 35.53235 "
   id="path1112" /></g><g
   id="g1113"
   transform="matrix(-0.217597,-2.976814e-17,2.664706e-17,-0.243084,228.0607,48.61383)"><path
   style="font-size:12;fill:none;fill-rule:evenodd;stroke:#000000;"
   d="M 187.6375 61.73 C 169.318 44.64982 192.9775 41.21452 192.9775 41.21452 L 173.7657 40.9149 C 173.7657 40.9149 187.523 36.88505 183.1942 37.71444 C 178.8656 38.54391 179.1026 38.89966 178.8656 38.54391 C 178.6284 38.1881 170.9793 37.89034 177.6799 36.7648 C 184.3805 35.63924 184.3805 35.63924 184.3805 35.63924 L 184.3805 35.63924 L 184.3805 35.63924 "
   id="path1114" /><path
   style="font-size:12;fill:none;fill-rule:evenodd;stroke:#000000;stroke-width:0.999953;"
   d="M 187.0156 61.62311 C 205.3334 44.54293 181.6761 41.10763 181.6761 41.10763 L 200.8861 40.80801 C 200.8861 40.80801 187.1301 36.77816 191.4585 37.60755 C 195.7867 38.43702 195.5497 38.79277 195.7867 38.43702 C 196.0239 38.08121 203.6722 37.78345 196.9723 36.65791 C 190.2723 35.53235 190.2723 35.53235 190.2723 35.53235 L 190.2723 35.53235 L 190.2723 35.53235 "
   id="path1115" /></g></g></g><g
   id="g1116"
   transform="translate(389.9398,0)"
   style="font-size:12;"><g
   id="g1117"
   transform="matrix(0.620952,0,0,0.612946,-107.3817,-8.458714)"><g
   id="g1118"><path
   style="font-size:12;fill:none;fill-rule:evenodd;stroke:#000000;"
   d="M 187.6375 61.73 C 169.318 44.64982 192.9775 41.21452 192.9775 41.21452 L 173.7657 40.9149 C 173.7657 40.9149 187.523 36.88505 183.1942 37.71444 C 178.8656 38.54391 179.1026 38.89966 178.8656 38.54391 C 178.6284 38.1881 170.9793 37.89034 177.6799 36.7648 C 184.3805 35.63924 184.3805 35.63924 184.3805 35.63924 L 184.3805 35.63924 L 184.3805 35.63924 "
   id="path1119" /><path
   style="font-size:12;fill:none;fill-rule:evenodd;stroke:#000000;stroke-width:0.999953;"
   d="M 187.0156 61.62311 C 205.3334 44.54293 181.6761 41.10763 181.6761 41.10763 L 200.8861 40.80801 C 200.8861 40.80801 187.1301 36.77816 191.4585 37.60755 C 195.7867 38.43702 195.5497 38.79277 195.7867 38.43702 C 196.0239 38.08121 203.6722 37.78345 196.9723 36.65791 C 190.2723 35.53235 190.2723 35.53235 190.2723 35.53235 L 190.2723 35.53235 L 190.2723 35.53235 "
   id="path1120" /></g><g
   id="g1121"
   transform="matrix(-1,0,0,1,374.6518,0)"><path
   style="font-size:12;fill:none;fill-rule:evenodd;stroke:#000000;"
   d="M 187.6375 61.73 C 169.318 44.64982 192.9775 41.21452 192.9775 41.21452 L 173.7657 40.9149 C 173.7657 40.9149 187.523 36.88505 183.1942 37.71444 C 178.8656 38.54391 179.1026 38.89966 178.8656 38.54391 C 178.6284 38.1881 170.9793 37.89034 177.6799 36.7648 C 184.3805 35.63924 184.3805 35.63924 184.3805 35.63924 L 184.3805 35.63924 L 184.3805 35.63924 "
   id="path1122" /><path
   style="font-size:12;fill:none;fill-rule:evenodd;stroke:#000000;stroke-width:0.999953;"
   d="M 187.0156 61.62311 C 205.3334 44.54293 181.6761 41.10763 181.6761 41.10763 L 200.8861 40.80801 C 200.8861 40.80801 187.1301 36.77816 191.4585 37.60755 C 195.7867 38.43702 195.5497 38.79277 195.7867 38.43702 C 196.0239 38.08121 203.6722 37.78345 196.9723 36.65791 C 190.2723 35.53235 190.2723 35.53235 190.2723 35.53235 L 190.2723 35.53235 L 190.2723 35.53235 "
   id="path1123" /></g><g
   id="g1124"
   transform="matrix(-0.217597,-2.976814e-17,2.664706e-17,-0.243084,228.0607,48.61383)"><path
   style="font-size:12;fill:none;fill-rule:evenodd;stroke:#000000;"
   d="M 187.6375 61.73 C 169.318 44.64982 192.9775 41.21452 192.9775 41.21452 L 173.7657 40.9149 C 173.7657 40.9149 187.523 36.88505 183.1942 37.71444 C 178.8656 38.54391 179.1026 38.89966 178.8656 38.54391 C 178.6284 38.1881 170.9793 37.89034 177.6799 36.7648 C 184.3805 35.63924 184.3805 35.63924 184.3805 35.63924 L 184.3805 35.63924 L 184.3805 35.63924 "
   id="path1125" /><path
   style="font-size:12;fill:none;fill-rule:evenodd;stroke:#000000;stroke-width:0.999953;"
   d="M 187.0156 61.62311 C 205.3334 44.54293 181.6761 41.10763 181.6761 41.10763 L 200.8861 40.80801 C 200.8861 40.80801 187.1301 36.77816 191.4585 37.60755 C 195.7867 38.43702 195.5497 38.79277 195.7867 38.43702 C 196.0239 38.08121 203.6722 37.78345 196.9723 36.65791 C 190.2723 35.53235 190.2723 35.53235 190.2723 35.53235 L 190.2723 35.53235 L 190.2723 35.53235 "
   id="path1126" /></g></g><g
   id="g1127"
   transform="matrix(0.620952,0,0,0.612946,-84.38015,-8.457153)"><g
   id="g1128"><path
   style="font-size:12;fill:none;fill-rule:evenodd;stroke:#000000;"
   d="M 187.6375 61.73 C 169.318 44.64982 192.9775 41.21452 192.9775 41.21452 L 173.7657 40.9149 C 173.7657 40.9149 187.523 36.88505 183.1942 37.71444 C 178.8656 38.54391 179.1026 38.89966 178.8656 38.54391 C 178.6284 38.1881 170.9793 37.89034 177.6799 36.7648 C 184.3805 35.63924 184.3805 35.63924 184.3805 35.63924 L 184.3805 35.63924 L 184.3805 35.63924 "
   id="path1129" /><path
   style="font-size:12;fill:none;fill-rule:evenodd;stroke:#000000;stroke-width:0.999953;"
   d="M 187.0156 61.62311 C 205.3334 44.54293 181.6761 41.10763 181.6761 41.10763 L 200.8861 40.80801 C 200.8861 40.80801 187.1301 36.77816 191.4585 37.60755 C 195.7867 38.43702 195.5497 38.79277 195.7867 38.43702 C 196.0239 38.08121 203.6722 37.78345 196.9723 36.65791 C 190.2723 35.53235 190.2723 35.53235 190.2723 35.53235 L 190.2723 35.53235 L 190.2723 35.53235 "
   id="path1130" /></g><g
   id="g1131"
   transform="matrix(-1,0,0,1,374.6518,0)"><path
   style="font-size:12;fill:none;fill-rule:evenodd;stroke:#000000;"
   d="M 187.6375 61.73 C 169.318 44.64982 192.9775 41.21452 192.9775 41.21452 L 173.7657 40.9149 C 173.7657 40.9149 187.523 36.88505 183.1942 37.71444 C 178.8656 38.54391 179.1026 38.89966 178.8656 38.54391 C 178.6284 38.1881 170.9793 37.89034 177.6799 36.7648 C 184.3805 35.63924 184.3805 35.63924 184.3805 35.63924 L 184.3805 35.63924 L 184.3805 35.63924 "
   id="path1132" /><path
   style="font-size:12;fill:none;fill-rule:evenodd;stroke:#000000;stroke-width:0.999953;"
   d="M 187.0156 61.62311 C 205.3334 44.54293 181.6761 41.10763 181.6761 41.10763 L 200.8861 40.80801 C 200.8861 40.80801 187.1301 36.77816 191.4585 37.60755 C 195.7867 38.43702 195.5497 38.79277 195.7867 38.43702 C 196.0239 38.08121 203.6722 37.78345 196.9723 36.65791 C 190.2723 35.53235 190.2723 35.53235 190.2723 35.53235 L 190.2723 35.53235 L 190.2723 35.53235 "
   id="path1133" /></g><g
   id="g1134"
   transform="matrix(-0.217597,-2.976814e-17,2.664706e-17,-0.243084,228.0607,48.61383)"><path
   style="font-size:12;fill:none;fill-rule:evenodd;stroke:#000000;"
   d="M 187.6375 61.73 C 169.318 44.64982 192.9775 41.21452 192.9775 41.21452 L 173.7657 40.9149 C 173.7657 40.9149 187.523 36.88505 183.1942 37.71444 C 178.8656 38.54391 179.1026 38.89966 178.8656 38.54391 C 178.6284 38.1881 170.9793 37.89034 177.6799 36.7648 C 184.3805 35.63924 184.3805 35.63924 184.3805 35.63924 L 184.3805 35.63924 L 184.3805 35.63924 "
   id="path1135" /><path
   style="font-size:12;fill:none;fill-rule:evenodd;stroke:#000000;stroke-width:0.999953;"
   d="M 187.0156 61.62311 C 205.3334 44.54293 181.6761 41.10763 181.6761 41.10763 L 200.8861 40.80801 C 200.8861 40.80801 187.1301 36.77816 191.4585 37.60755 C 195.7867 38.43702 195.5497 38.79277 195.7867 38.43702 C 196.0239 38.08121 203.6722 37.78345 196.9723 36.65791 C 190.2723 35.53235 190.2723 35.53235 190.2723 35.53235 L 190.2723 35.53235 L 190.2723 35.53235 "
   id="path1136" /></g></g></g></g><g
   id="g2839"
   transform="matrix(0.918327,0,0,1.000475,3.43967,-3.07103)"
   style="font-size:12;"><path
   d="M0 2390 l0 -120 22640 0 22640 0 0 120 0 120 -22640 0 -22640 0 0 -120z"
   id="path605"
   style="font-size:12;"
   transform="matrix(1.0336e-2,0,0,-1.0336e-2,-7.019044e-3,32)" /><path
   d="M0 2110 l0 -40 22640 0 22640 0 0 40 0 40 -22640 0 -22640 0 0 -40z"
   id="path606"
   transform="matrix(1.0336e-2,0,0,-1.0336e-2,-7.019044e-3,32)"
   style="font-size:12;" /></g></svg>
