<?xml version="1.0" encoding="UTF-8" standalone="no"?>
<!DOCTYPE svg PUBLIC "-//W3C//DTD SVG 1.0//EN"
"http://www.w3.org/TR/2001/REC-SVG-20010904/DTD/svg10.dtd">
<!-- Created with Sodipodi ("http://www.sodipodi.com/") -->
<svg
   id="svg3363"
   sodipodi:version="0.34"
   xmlns="http://www.w3.org/2000/svg"
   xmlns:sodipodi="http://sodipodi.sourceforge.net/DTD/sodipodi-0.dtd"
   xmlns:xlink="http://www.w3.org/1999/xlink"
   width="354.28pt"
   height="38.89pt"
   xml:space="preserve"
   sodipodi:docbase="/tmp"
   sodipodi:docname="/tmp/printing-ornament2.svg"><defs
   id="defs3365" /><sodipodi:namedview
   id="base" /><g
   id="g8302"
   transform="translate(3.125019,3.788118)"><g
   id="g2839"
   transform="matrix(0.931997,0,0,1.000475,0.212684,-7.305245)"
   style="font-size:12;"><path
   d="M0 2390 l0 -120 22640 0 22640 0 0 120 0 120 -22640 0 -22640 0 0 -120z"
   id="path605"
   style="font-size:12;"
   transform="matrix(1.0336e-2,0,0,-1.0336e-2,-7.019044e-3,32)" /><path
   d="M0 2110 l0 -40 22640 0 22640 0 0 40 0 40 -22640 0 -22640 0 0 -40z"
   id="path606"
   transform="matrix(1.0336e-2,0,0,-1.0336e-2,-7.019044e-3,32)"
   style="font-size:12;" /></g><g
   id="g2842"
   transform="matrix(0.931997,0,0,1.000475,0.21268,31.67247)"
   style="font-size:12;"><path
   d="M0 2390 l0 -120 22640 0 22640 0 0 120 0 120 -22640 0 -22640 0 0 -120z"
   id="path2843"
   style="font-size:12;"
   transform="matrix(1.0336e-2,0,0,-1.0336e-2,-7.019044e-3,32)" /><path
   d="M0 2110 l0 -40 22640 0 22640 0 0 40 0 40 -22640 0 -22640 0 0 -40z"
   id="path2844"
   transform="matrix(1.0336e-2,0,0,-1.0336e-2,-7.019044e-3,32)"
   style="font-size:12;" /></g><g
   id="g7957"
   transform="translate(1.718807,0)"><g
   id="g6168"
   transform="translate(-1.51262,-1.581741)"
   style="font-size:12;"><g
   id="g6126"
   transform="translate(6.389873e-2,-3.466606e-3)"><g
   id="g630"
   transform="matrix(0.620947,0,0,0.612946,-104.5224,-13.36362)"
   style="font-size:12;"><g
   id="g618"><path
   style="font-size:12;fill:none;fill-rule:evenodd;stroke:#000000;"
   d="M 187.6375 61.73 C 169.318 44.64982 192.9775 41.21452 192.9775 41.21452 L 173.7657 40.9149 C 173.7657 40.9149 187.523 36.88505 183.1942 37.71444 C 178.8656 38.54391 179.1026 38.89966 178.8656 38.54391 C 178.6284 38.1881 170.9793 37.89034 177.6799 36.7648 C 184.3805 35.63924 184.3805 35.63924 184.3805 35.63924 L 184.3805 35.63924 L 184.3805 35.63924 "
   id="path615" /><path
   style="font-size:12;fill:none;fill-rule:evenodd;stroke:#000000;stroke-width:0.999953;"
   d="M 187.0156 61.62311 C 205.3334 44.54293 181.6761 41.10763 181.6761 41.10763 L 200.8861 40.80801 C 200.8861 40.80801 187.1301 36.77816 191.4585 37.60755 C 195.7867 38.43702 195.5497 38.79277 195.7867 38.43702 C 196.0239 38.08121 203.6722 37.78345 196.9723 36.65791 C 190.2723 35.53235 190.2723 35.53235 190.2723 35.53235 L 190.2723 35.53235 L 190.2723 35.53235 "
   id="path617" /></g><g
   id="g621"
   transform="matrix(-1,0,0,1,374.6518,0)"><path
   style="font-size:12;fill:none;fill-rule:evenodd;stroke:#000000;"
   d="M 187.6375 61.73 C 169.318 44.64982 192.9775 41.21452 192.9775 41.21452 L 173.7657 40.9149 C 173.7657 40.9149 187.523 36.88505 183.1942 37.71444 C 178.8656 38.54391 179.1026 38.89966 178.8656 38.54391 C 178.6284 38.1881 170.9793 37.89034 177.6799 36.7648 C 184.3805 35.63924 184.3805 35.63924 184.3805 35.63924 L 184.3805 35.63924 L 184.3805 35.63924 "
   id="path622" /><path
   style="font-size:12;fill:none;fill-rule:evenodd;stroke:#000000;stroke-width:0.999953;"
   d="M 187.0156 61.62311 C 205.3334 44.54293 181.6761 41.10763 181.6761 41.10763 L 200.8861 40.80801 C 200.8861 40.80801 187.1301 36.77816 191.4585 37.60755 C 195.7867 38.43702 195.5497 38.79277 195.7867 38.43702 C 196.0239 38.08121 203.6722 37.78345 196.9723 36.65791 C 190.2723 35.53235 190.2723 35.53235 190.2723 35.53235 L 190.2723 35.53235 L 190.2723 35.53235 "
   id="path623" /></g><g
   id="g627"
   transform="matrix(-0.217597,-2.976814e-17,2.664706e-17,-0.243084,228.0607,48.61383)"><path
   style="font-size:12;fill:none;fill-rule:evenodd;stroke:#000000;"
   d="M 187.6375 61.73 C 169.318 44.64982 192.9775 41.21452 192.9775 41.21452 L 173.7657 40.9149 C 173.7657 40.9149 187.523 36.88505 183.1942 37.71444 C 178.8656 38.54391 179.1026 38.89966 178.8656 38.54391 C 178.6284 38.1881 170.9793 37.89034 177.6799 36.7648 C 184.3805 35.63924 184.3805 35.63924 184.3805 35.63924 L 184.3805 35.63924 L 184.3805 35.63924 "
   id="path628" /><path
   style="font-size:12;fill:none;fill-rule:evenodd;stroke:#000000;stroke-width:0.999953;"
   d="M 187.0156 61.62311 C 205.3334 44.54293 181.6761 41.10763 181.6761 41.10763 L 200.8861 40.80801 C 200.8861 40.80801 187.1301 36.77816 191.4585 37.60755 C 195.7867 38.43702 195.5497 38.79277 195.7867 38.43702 C 196.0239 38.08121 203.6722 37.78345 196.9723 36.65791 C 190.2723 35.53235 190.2723 35.53235 190.2723 35.53235 L 190.2723 35.53235 L 190.2723 35.53235 "
   id="path629" /></g></g><g
   id="g5330"
   transform="matrix(0.999829,-1.849385e-2,1.849385e-2,0.999829,-0.360528,0.5334)"><g
   id="g5321"><path
   style="font-size:12;fill:none;fill-rule:evenodd;stroke:#000000;"
   d="M 187.6375 61.73 C 169.318 44.64982 186.7364 42.82987 186.838 43.4588 "
   id="path5292"
   transform="matrix(0.100235,-0.612803,0.604908,9.894416e-2,-45.0161,133.9729)"
   sodipodi:nodetypes="cc" /><path
   style="font-size:12;fill:none;fill-rule:evenodd;stroke:#000000;stroke-width:0.999953;"
   d="M 187.0156 61.62311 C 205.3334 44.54293 187.1224 42.46533 185.8886 43.50928 "
   id="path5293"
   transform="matrix(0.100235,-0.612803,0.604908,9.894416e-2,-45.0161,133.9729)"
   sodipodi:nodetypes="cc" /></g><g
   id="g5324"
   transform="matrix(-0.970244,0.242131,-0.242131,-0.970244,29.14801,47.12188)"><path
   style="font-size:12;fill:none;fill-rule:evenodd;stroke:#000000;"
   d="M 187.6375 61.73 C 169.318 44.64982 186.7364 42.82987 186.838 43.4588 "
   id="path5325"
   transform="matrix(0.100235,-0.612803,0.604908,9.894416e-2,-45.0161,133.9729)"
   sodipodi:nodetypes="cc" /><path
   style="font-size:12;fill:none;fill-rule:evenodd;stroke:#000000;stroke-width:0.999953;"
   d="M 187.0156 61.62311 C 205.3334 44.54293 187.1224 42.46533 185.8886 43.50928 "
   id="path5326"
   transform="matrix(0.100235,-0.612803,0.604908,9.894416e-2,-45.0161,133.9729)"
   sodipodi:nodetypes="cc" /></g><g
   id="g5327"
   transform="matrix(-0.134063,-0.990973,0.990973,-0.134063,-11.89367,39.97605)"><path
   style="font-size:12;fill:none;fill-rule:evenodd;stroke:#000000;"
   d="M 187.6375 61.73 C 169.318 44.64982 186.7364 42.82987 186.838 43.4588 "
   id="path5328"
   transform="matrix(0.100235,-0.612803,0.604908,9.894416e-2,-45.0161,133.9729)"
   sodipodi:nodetypes="cc" /><path
   style="font-size:12;fill:none;fill-rule:evenodd;stroke:#000000;stroke-width:0.999953;"
   d="M 187.0156 61.62311 C 205.3334 44.54293 187.1224 42.46533 185.8886 43.50928 "
   id="path5329"
   transform="matrix(0.100235,-0.612803,0.604908,9.894416e-2,-45.0161,133.9729)"
   sodipodi:nodetypes="cc" /></g></g></g><g
   id="g6147"
   transform="translate(0.759349,-0.445542)"><g
   id="g672"
   transform="matrix(0.620947,0,0,0.612946,-77.53062,-12.92154)"
   style="font-size:12;"><g
   id="g673"><path
   style="font-size:12;fill:none;fill-rule:evenodd;stroke:#000000;"
   d="M 187.6375 61.73 C 169.318 44.64982 192.9775 41.21452 192.9775 41.21452 L 173.7657 40.9149 C 173.7657 40.9149 187.523 36.88505 183.1942 37.71444 C 178.8656 38.54391 179.1026 38.89966 178.8656 38.54391 C 178.6284 38.1881 170.9793 37.89034 177.6799 36.7648 C 184.3805 35.63924 184.3805 35.63924 184.3805 35.63924 L 184.3805 35.63924 L 184.3805 35.63924 "
   id="path674" /><path
   style="font-size:12;fill:none;fill-rule:evenodd;stroke:#000000;stroke-width:0.999953;"
   d="M 187.0156 61.62311 C 205.3334 44.54293 181.6761 41.10763 181.6761 41.10763 L 200.8861 40.80801 C 200.8861 40.80801 187.1301 36.77816 191.4585 37.60755 C 195.7867 38.43702 195.5497 38.79277 195.7867 38.43702 C 196.0239 38.08121 203.6722 37.78345 196.9723 36.65791 C 190.2723 35.53235 190.2723 35.53235 190.2723 35.53235 L 190.2723 35.53235 L 190.2723 35.53235 "
   id="path675" /></g><g
   id="g676"
   transform="matrix(-1,0,0,1,374.6518,0)"><path
   style="font-size:12;fill:none;fill-rule:evenodd;stroke:#000000;"
   d="M 187.6375 61.73 C 169.318 44.64982 192.9775 41.21452 192.9775 41.21452 L 173.7657 40.9149 C 173.7657 40.9149 187.523 36.88505 183.1942 37.71444 C 178.8656 38.54391 179.1026 38.89966 178.8656 38.54391 C 178.6284 38.1881 170.9793 37.89034 177.6799 36.7648 C 184.3805 35.63924 184.3805 35.63924 184.3805 35.63924 L 184.3805 35.63924 L 184.3805 35.63924 "
   id="path677" /><path
   style="font-size:12;fill:none;fill-rule:evenodd;stroke:#000000;stroke-width:0.999953;"
   d="M 187.0156 61.62311 C 205.3334 44.54293 181.6761 41.10763 181.6761 41.10763 L 200.8861 40.80801 C 200.8861 40.80801 187.1301 36.77816 191.4585 37.60755 C 195.7867 38.43702 195.5497 38.79277 195.7867 38.43702 C 196.0239 38.08121 203.6722 37.78345 196.9723 36.65791 C 190.2723 35.53235 190.2723 35.53235 190.2723 35.53235 L 190.2723 35.53235 L 190.2723 35.53235 "
   id="path678" /></g><g
   id="g679"
   transform="matrix(-0.217597,-2.976814e-17,2.664706e-17,-0.243084,228.0607,48.61383)"><path
   style="font-size:12;fill:none;fill-rule:evenodd;stroke:#000000;"
   d="M 187.6375 61.73 C 169.318 44.64982 192.9775 41.21452 192.9775 41.21452 L 173.7657 40.9149 C 173.7657 40.9149 187.523 36.88505 183.1942 37.71444 C 178.8656 38.54391 179.1026 38.89966 178.8656 38.54391 C 178.6284 38.1881 170.9793 37.89034 177.6799 36.7648 C 184.3805 35.63924 184.3805 35.63924 184.3805 35.63924 L 184.3805 35.63924 L 184.3805 35.63924 "
   id="path680" /><path
   style="font-size:12;fill:none;fill-rule:evenodd;stroke:#000000;stroke-width:0.999953;"
   d="M 187.0156 61.62311 C 205.3334 44.54293 181.6761 41.10763 181.6761 41.10763 L 200.8861 40.80801 C 200.8861 40.80801 187.1301 36.77816 191.4585 37.60755 C 195.7867 38.43702 195.5497 38.79277 195.7867 38.43702 C 196.0239 38.08121 203.6722 37.78345 196.9723 36.65791 C 190.2723 35.53235 190.2723 35.53235 190.2723 35.53235 L 190.2723 35.53235 L 190.2723 35.53235 "
   id="path681" /></g></g><g
   id="g5341"
   transform="matrix(0.999829,-1.849385e-2,1.849385e-2,0.999829,26.44402,0.975475)"><g
   id="g5342"><path
   style="font-size:12;fill:none;fill-rule:evenodd;stroke:#000000;"
   d="M 187.6375 61.73 C 169.318 44.64982 186.7364 42.82987 186.838 43.4588 "
   id="path5343"
   transform="matrix(0.100235,-0.612803,0.604908,9.894416e-2,-45.0161,133.9729)"
   sodipodi:nodetypes="cc" /><path
   style="font-size:12;fill:none;fill-rule:evenodd;stroke:#000000;stroke-width:0.999953;"
   d="M 187.0156 61.62311 C 205.3334 44.54293 187.1224 42.46533 185.8886 43.50928 "
   id="path5344"
   transform="matrix(0.100235,-0.612803,0.604908,9.894416e-2,-45.0161,133.9729)"
   sodipodi:nodetypes="cc" /></g><g
   id="g5345"
   transform="matrix(-0.970244,0.242131,-0.242131,-0.970244,29.14801,47.12188)"><path
   style="font-size:12;fill:none;fill-rule:evenodd;stroke:#000000;"
   d="M 187.6375 61.73 C 169.318 44.64982 186.7364 42.82987 186.838 43.4588 "
   id="path5346"
   transform="matrix(0.100235,-0.612803,0.604908,9.894416e-2,-45.0161,133.9729)"
   sodipodi:nodetypes="cc" /><path
   style="font-size:12;fill:none;fill-rule:evenodd;stroke:#000000;stroke-width:0.999953;"
   d="M 187.0156 61.62311 C 205.3334 44.54293 187.1224 42.46533 185.8886 43.50928 "
   id="path5347"
   transform="matrix(0.100235,-0.612803,0.604908,9.894416e-2,-45.0161,133.9729)"
   sodipodi:nodetypes="cc" /></g><g
   id="g5348"
   transform="matrix(-0.134063,-0.990973,0.990973,-0.134063,-11.89367,39.97605)"><path
   style="font-size:12;fill:none;fill-rule:evenodd;stroke:#000000;"
   d="M 187.6375 61.73 C 169.318 44.64982 186.7364 42.82987 186.838 43.4588 "
   id="path5349"
   transform="matrix(0.100235,-0.612803,0.604908,9.894416e-2,-45.0161,133.9729)"
   sodipodi:nodetypes="cc" /><path
   style="font-size:12;fill:none;fill-rule:evenodd;stroke:#000000;stroke-width:0.999953;"
   d="M 187.0156 61.62311 C 205.3334 44.54293 187.1224 42.46533 185.8886 43.50928 "
   id="path5350"
   transform="matrix(0.100235,-0.612803,0.604908,9.894416e-2,-45.0161,133.9729)"
   sodipodi:nodetypes="cc" /></g></g></g></g><g
   id="g6211"
   transform="translate(53.48738,-1.581741)"
   style="font-size:12;"><g
   id="g6212"
   transform="translate(6.389873e-2,-3.466606e-3)"><g
   id="g6213"
   transform="matrix(0.620947,0,0,0.612946,-104.5224,-13.36362)"
   style="font-size:12;"><g
   id="g6214"><path
   style="font-size:12;fill:none;fill-rule:evenodd;stroke:#000000;"
   d="M 187.6375 61.73 C 169.318 44.64982 192.9775 41.21452 192.9775 41.21452 L 173.7657 40.9149 C 173.7657 40.9149 187.523 36.88505 183.1942 37.71444 C 178.8656 38.54391 179.1026 38.89966 178.8656 38.54391 C 178.6284 38.1881 170.9793 37.89034 177.6799 36.7648 C 184.3805 35.63924 184.3805 35.63924 184.3805 35.63924 L 184.3805 35.63924 L 184.3805 35.63924 "
   id="path6215" /><path
   style="font-size:12;fill:none;fill-rule:evenodd;stroke:#000000;stroke-width:0.999953;"
   d="M 187.0156 61.62311 C 205.3334 44.54293 181.6761 41.10763 181.6761 41.10763 L 200.8861 40.80801 C 200.8861 40.80801 187.1301 36.77816 191.4585 37.60755 C 195.7867 38.43702 195.5497 38.79277 195.7867 38.43702 C 196.0239 38.08121 203.6722 37.78345 196.9723 36.65791 C 190.2723 35.53235 190.2723 35.53235 190.2723 35.53235 L 190.2723 35.53235 L 190.2723 35.53235 "
   id="path6216" /></g><g
   id="g6217"
   transform="matrix(-1,0,0,1,374.6518,0)"><path
   style="font-size:12;fill:none;fill-rule:evenodd;stroke:#000000;"
   d="M 187.6375 61.73 C 169.318 44.64982 192.9775 41.21452 192.9775 41.21452 L 173.7657 40.9149 C 173.7657 40.9149 187.523 36.88505 183.1942 37.71444 C 178.8656 38.54391 179.1026 38.89966 178.8656 38.54391 C 178.6284 38.1881 170.9793 37.89034 177.6799 36.7648 C 184.3805 35.63924 184.3805 35.63924 184.3805 35.63924 L 184.3805 35.63924 L 184.3805 35.63924 "
   id="path6218" /><path
   style="font-size:12;fill:none;fill-rule:evenodd;stroke:#000000;stroke-width:0.999953;"
   d="M 187.0156 61.62311 C 205.3334 44.54293 181.6761 41.10763 181.6761 41.10763 L 200.8861 40.80801 C 200.8861 40.80801 187.1301 36.77816 191.4585 37.60755 C 195.7867 38.43702 195.5497 38.79277 195.7867 38.43702 C 196.0239 38.08121 203.6722 37.78345 196.9723 36.65791 C 190.2723 35.53235 190.2723 35.53235 190.2723 35.53235 L 190.2723 35.53235 L 190.2723 35.53235 "
   id="path6219" /></g><g
   id="g6220"
   transform="matrix(-0.217597,-2.976814e-17,2.664706e-17,-0.243084,228.0607,48.61383)"><path
   style="font-size:12;fill:none;fill-rule:evenodd;stroke:#000000;"
   d="M 187.6375 61.73 C 169.318 44.64982 192.9775 41.21452 192.9775 41.21452 L 173.7657 40.9149 C 173.7657 40.9149 187.523 36.88505 183.1942 37.71444 C 178.8656 38.54391 179.1026 38.89966 178.8656 38.54391 C 178.6284 38.1881 170.9793 37.89034 177.6799 36.7648 C 184.3805 35.63924 184.3805 35.63924 184.3805 35.63924 L 184.3805 35.63924 L 184.3805 35.63924 "
   id="path6221" /><path
   style="font-size:12;fill:none;fill-rule:evenodd;stroke:#000000;stroke-width:0.999953;"
   d="M 187.0156 61.62311 C 205.3334 44.54293 181.6761 41.10763 181.6761 41.10763 L 200.8861 40.80801 C 200.8861 40.80801 187.1301 36.77816 191.4585 37.60755 C 195.7867 38.43702 195.5497 38.79277 195.7867 38.43702 C 196.0239 38.08121 203.6722 37.78345 196.9723 36.65791 C 190.2723 35.53235 190.2723 35.53235 190.2723 35.53235 L 190.2723 35.53235 L 190.2723 35.53235 "
   id="path6222" /></g></g><g
   id="g6223"
   transform="matrix(0.999829,-1.849385e-2,1.849385e-2,0.999829,-0.360528,0.5334)"><g
   id="g6224"><path
   style="font-size:12;fill:none;fill-rule:evenodd;stroke:#000000;"
   d="M 187.6375 61.73 C 169.318 44.64982 186.7364 42.82987 186.838 43.4588 "
   id="path6225"
   transform="matrix(0.100235,-0.612803,0.604908,9.894416e-2,-45.0161,133.9729)"
   sodipodi:nodetypes="cc" /><path
   style="font-size:12;fill:none;fill-rule:evenodd;stroke:#000000;stroke-width:0.999953;"
   d="M 187.0156 61.62311 C 205.3334 44.54293 187.1224 42.46533 185.8886 43.50928 "
   id="path6226"
   transform="matrix(0.100235,-0.612803,0.604908,9.894416e-2,-45.0161,133.9729)"
   sodipodi:nodetypes="cc" /></g><g
   id="g6227"
   transform="matrix(-0.970244,0.242131,-0.242131,-0.970244,29.14801,47.12188)"><path
   style="font-size:12;fill:none;fill-rule:evenodd;stroke:#000000;"
   d="M 187.6375 61.73 C 169.318 44.64982 186.7364 42.82987 186.838 43.4588 "
   id="path6228"
   transform="matrix(0.100235,-0.612803,0.604908,9.894416e-2,-45.0161,133.9729)"
   sodipodi:nodetypes="cc" /><path
   style="font-size:12;fill:none;fill-rule:evenodd;stroke:#000000;stroke-width:0.999953;"
   d="M 187.0156 61.62311 C 205.3334 44.54293 187.1224 42.46533 185.8886 43.50928 "
   id="path6229"
   transform="matrix(0.100235,-0.612803,0.604908,9.894416e-2,-45.0161,133.9729)"
   sodipodi:nodetypes="cc" /></g><g
   id="g6230"
   transform="matrix(-0.134063,-0.990973,0.990973,-0.134063,-11.89367,39.97605)"><path
   style="font-size:12;fill:none;fill-rule:evenodd;stroke:#000000;"
   d="M 187.6375 61.73 C 169.318 44.64982 186.7364 42.82987 186.838 43.4588 "
   id="path6231"
   transform="matrix(0.100235,-0.612803,0.604908,9.894416e-2,-45.0161,133.9729)"
   sodipodi:nodetypes="cc" /><path
   style="font-size:12;fill:none;fill-rule:evenodd;stroke:#000000;stroke-width:0.999953;"
   d="M 187.0156 61.62311 C 205.3334 44.54293 187.1224 42.46533 185.8886 43.50928 "
   id="path6232"
   transform="matrix(0.100235,-0.612803,0.604908,9.894416e-2,-45.0161,133.9729)"
   sodipodi:nodetypes="cc" /></g></g></g><g
   id="g6233"
   transform="translate(0.759349,-0.445542)"><g
   id="g6234"
   transform="matrix(0.620947,0,0,0.612946,-77.53062,-12.92154)"
   style="font-size:12;"><g
   id="g6235"><path
   style="font-size:12;fill:none;fill-rule:evenodd;stroke:#000000;"
   d="M 187.6375 61.73 C 169.318 44.64982 192.9775 41.21452 192.9775 41.21452 L 173.7657 40.9149 C 173.7657 40.9149 187.523 36.88505 183.1942 37.71444 C 178.8656 38.54391 179.1026 38.89966 178.8656 38.54391 C 178.6284 38.1881 170.9793 37.89034 177.6799 36.7648 C 184.3805 35.63924 184.3805 35.63924 184.3805 35.63924 L 184.3805 35.63924 L 184.3805 35.63924 "
   id="path6236" /><path
   style="font-size:12;fill:none;fill-rule:evenodd;stroke:#000000;stroke-width:0.999953;"
   d="M 187.0156 61.62311 C 205.3334 44.54293 181.6761 41.10763 181.6761 41.10763 L 200.8861 40.80801 C 200.8861 40.80801 187.1301 36.77816 191.4585 37.60755 C 195.7867 38.43702 195.5497 38.79277 195.7867 38.43702 C 196.0239 38.08121 203.6722 37.78345 196.9723 36.65791 C 190.2723 35.53235 190.2723 35.53235 190.2723 35.53235 L 190.2723 35.53235 L 190.2723 35.53235 "
   id="path6237" /></g><g
   id="g6238"
   transform="matrix(-1,0,0,1,374.6518,0)"><path
   style="font-size:12;fill:none;fill-rule:evenodd;stroke:#000000;"
   d="M 187.6375 61.73 C 169.318 44.64982 192.9775 41.21452 192.9775 41.21452 L 173.7657 40.9149 C 173.7657 40.9149 187.523 36.88505 183.1942 37.71444 C 178.8656 38.54391 179.1026 38.89966 178.8656 38.54391 C 178.6284 38.1881 170.9793 37.89034 177.6799 36.7648 C 184.3805 35.63924 184.3805 35.63924 184.3805 35.63924 L 184.3805 35.63924 L 184.3805 35.63924 "
   id="path6239" /><path
   style="font-size:12;fill:none;fill-rule:evenodd;stroke:#000000;stroke-width:0.999953;"
   d="M 187.0156 61.62311 C 205.3334 44.54293 181.6761 41.10763 181.6761 41.10763 L 200.8861 40.80801 C 200.8861 40.80801 187.1301 36.77816 191.4585 37.60755 C 195.7867 38.43702 195.5497 38.79277 195.7867 38.43702 C 196.0239 38.08121 203.6722 37.78345 196.9723 36.65791 C 190.2723 35.53235 190.2723 35.53235 190.2723 35.53235 L 190.2723 35.53235 L 190.2723 35.53235 "
   id="path6240" /></g><g
   id="g6241"
   transform="matrix(-0.217597,-2.976814e-17,2.664706e-17,-0.243084,228.0607,48.61383)"><path
   style="font-size:12;fill:none;fill-rule:evenodd;stroke:#000000;"
   d="M 187.6375 61.73 C 169.318 44.64982 192.9775 41.21452 192.9775 41.21452 L 173.7657 40.9149 C 173.7657 40.9149 187.523 36.88505 183.1942 37.71444 C 178.8656 38.54391 179.1026 38.89966 178.8656 38.54391 C 178.6284 38.1881 170.9793 37.89034 177.6799 36.7648 C 184.3805 35.63924 184.3805 35.63924 184.3805 35.63924 L 184.3805 35.63924 L 184.3805 35.63924 "
   id="path6242" /><path
   style="font-size:12;fill:none;fill-rule:evenodd;stroke:#000000;stroke-width:0.999953;"
   d="M 187.0156 61.62311 C 205.3334 44.54293 181.6761 41.10763 181.6761 41.10763 L 200.8861 40.80801 C 200.8861 40.80801 187.1301 36.77816 191.4585 37.60755 C 195.7867 38.43702 195.5497 38.79277 195.7867 38.43702 C 196.0239 38.08121 203.6722 37.78345 196.9723 36.65791 C 190.2723 35.53235 190.2723 35.53235 190.2723 35.53235 L 190.2723 35.53235 L 190.2723 35.53235 "
   id="path6243" /></g></g><g
   id="g6244"
   transform="matrix(0.999829,-1.849385e-2,1.849385e-2,0.999829,26.44402,0.975475)"><g
   id="g6245"><path
   style="font-size:12;fill:none;fill-rule:evenodd;stroke:#000000;"
   d="M 187.6375 61.73 C 169.318 44.64982 186.7364 42.82987 186.838 43.4588 "
   id="path6246"
   transform="matrix(0.100235,-0.612803,0.604908,9.894416e-2,-45.0161,133.9729)"
   sodipodi:nodetypes="cc" /><path
   style="font-size:12;fill:none;fill-rule:evenodd;stroke:#000000;stroke-width:0.999953;"
   d="M 187.0156 61.62311 C 205.3334 44.54293 187.1224 42.46533 185.8886 43.50928 "
   id="path6247"
   transform="matrix(0.100235,-0.612803,0.604908,9.894416e-2,-45.0161,133.9729)"
   sodipodi:nodetypes="cc" /></g><g
   id="g6248"
   transform="matrix(-0.970244,0.242131,-0.242131,-0.970244,29.14801,47.12188)"><path
   style="font-size:12;fill:none;fill-rule:evenodd;stroke:#000000;"
   d="M 187.6375 61.73 C 169.318 44.64982 186.7364 42.82987 186.838 43.4588 "
   id="path6249"
   transform="matrix(0.100235,-0.612803,0.604908,9.894416e-2,-45.0161,133.9729)"
   sodipodi:nodetypes="cc" /><path
   style="font-size:12;fill:none;fill-rule:evenodd;stroke:#000000;stroke-width:0.999953;"
   d="M 187.0156 61.62311 C 205.3334 44.54293 187.1224 42.46533 185.8886 43.50928 "
   id="path6250"
   transform="matrix(0.100235,-0.612803,0.604908,9.894416e-2,-45.0161,133.9729)"
   sodipodi:nodetypes="cc" /></g><g
   id="g6251"
   transform="matrix(-0.134063,-0.990973,0.990973,-0.134063,-11.89367,39.97605)"><path
   style="font-size:12;fill:none;fill-rule:evenodd;stroke:#000000;"
   d="M 187.6375 61.73 C 169.318 44.64982 186.7364 42.82987 186.838 43.4588 "
   id="path6252"
   transform="matrix(0.100235,-0.612803,0.604908,9.894416e-2,-45.0161,133.9729)"
   sodipodi:nodetypes="cc" /><path
   style="font-size:12;fill:none;fill-rule:evenodd;stroke:#000000;stroke-width:0.999953;"
   d="M 187.0156 61.62311 C 205.3334 44.54293 187.1224 42.46533 185.8886 43.50928 "
   id="path6253"
   transform="matrix(0.100235,-0.612803,0.604908,9.894416e-2,-45.0161,133.9729)"
   sodipodi:nodetypes="cc" /></g></g></g></g><g
   id="g6254"
   transform="translate(108.4874,-1.581741)"
   style="font-size:12;"><g
   id="g6255"
   transform="translate(6.389873e-2,-3.466606e-3)"><g
   id="g6256"
   transform="matrix(0.620947,0,0,0.612946,-104.5224,-13.36362)"
   style="font-size:12;"><g
   id="g6257"><path
   style="font-size:12;fill:none;fill-rule:evenodd;stroke:#000000;"
   d="M 187.6375 61.73 C 169.318 44.64982 192.9775 41.21452 192.9775 41.21452 L 173.7657 40.9149 C 173.7657 40.9149 187.523 36.88505 183.1942 37.71444 C 178.8656 38.54391 179.1026 38.89966 178.8656 38.54391 C 178.6284 38.1881 170.9793 37.89034 177.6799 36.7648 C 184.3805 35.63924 184.3805 35.63924 184.3805 35.63924 L 184.3805 35.63924 L 184.3805 35.63924 "
   id="path6258" /><path
   style="font-size:12;fill:none;fill-rule:evenodd;stroke:#000000;stroke-width:0.999953;"
   d="M 187.0156 61.62311 C 205.3334 44.54293 181.6761 41.10763 181.6761 41.10763 L 200.8861 40.80801 C 200.8861 40.80801 187.1301 36.77816 191.4585 37.60755 C 195.7867 38.43702 195.5497 38.79277 195.7867 38.43702 C 196.0239 38.08121 203.6722 37.78345 196.9723 36.65791 C 190.2723 35.53235 190.2723 35.53235 190.2723 35.53235 L 190.2723 35.53235 L 190.2723 35.53235 "
   id="path6259" /></g><g
   id="g6260"
   transform="matrix(-1,0,0,1,374.6518,0)"><path
   style="font-size:12;fill:none;fill-rule:evenodd;stroke:#000000;"
   d="M 187.6375 61.73 C 169.318 44.64982 192.9775 41.21452 192.9775 41.21452 L 173.7657 40.9149 C 173.7657 40.9149 187.523 36.88505 183.1942 37.71444 C 178.8656 38.54391 179.1026 38.89966 178.8656 38.54391 C 178.6284 38.1881 170.9793 37.89034 177.6799 36.7648 C 184.3805 35.63924 184.3805 35.63924 184.3805 35.63924 L 184.3805 35.63924 L 184.3805 35.63924 "
   id="path6261" /><path
   style="font-size:12;fill:none;fill-rule:evenodd;stroke:#000000;stroke-width:0.999953;"
   d="M 187.0156 61.62311 C 205.3334 44.54293 181.6761 41.10763 181.6761 41.10763 L 200.8861 40.80801 C 200.8861 40.80801 187.1301 36.77816 191.4585 37.60755 C 195.7867 38.43702 195.5497 38.79277 195.7867 38.43702 C 196.0239 38.08121 203.6722 37.78345 196.9723 36.65791 C 190.2723 35.53235 190.2723 35.53235 190.2723 35.53235 L 190.2723 35.53235 L 190.2723 35.53235 "
   id="path6262" /></g><g
   id="g6263"
   transform="matrix(-0.217597,-2.976814e-17,2.664706e-17,-0.243084,228.0607,48.61383)"><path
   style="font-size:12;fill:none;fill-rule:evenodd;stroke:#000000;"
   d="M 187.6375 61.73 C 169.318 44.64982 192.9775 41.21452 192.9775 41.21452 L 173.7657 40.9149 C 173.7657 40.9149 187.523 36.88505 183.1942 37.71444 C 178.8656 38.54391 179.1026 38.89966 178.8656 38.54391 C 178.6284 38.1881 170.9793 37.89034 177.6799 36.7648 C 184.3805 35.63924 184.3805 35.63924 184.3805 35.63924 L 184.3805 35.63924 L 184.3805 35.63924 "
   id="path6264" /><path
   style="font-size:12;fill:none;fill-rule:evenodd;stroke:#000000;stroke-width:0.999953;"
   d="M 187.0156 61.62311 C 205.3334 44.54293 181.6761 41.10763 181.6761 41.10763 L 200.8861 40.80801 C 200.8861 40.80801 187.1301 36.77816 191.4585 37.60755 C 195.7867 38.43702 195.5497 38.79277 195.7867 38.43702 C 196.0239 38.08121 203.6722 37.78345 196.9723 36.65791 C 190.2723 35.53235 190.2723 35.53235 190.2723 35.53235 L 190.2723 35.53235 L 190.2723 35.53235 "
   id="path6265" /></g></g><g
   id="g6266"
   transform="matrix(0.999829,-1.849385e-2,1.849385e-2,0.999829,-0.360528,0.5334)"><g
   id="g6267"><path
   style="font-size:12;fill:none;fill-rule:evenodd;stroke:#000000;"
   d="M 187.6375 61.73 C 169.318 44.64982 186.7364 42.82987 186.838 43.4588 "
   id="path6268"
   transform="matrix(0.100235,-0.612803,0.604908,9.894416e-2,-45.0161,133.9729)"
   sodipodi:nodetypes="cc" /><path
   style="font-size:12;fill:none;fill-rule:evenodd;stroke:#000000;stroke-width:0.999953;"
   d="M 187.0156 61.62311 C 205.3334 44.54293 187.1224 42.46533 185.8886 43.50928 "
   id="path6269"
   transform="matrix(0.100235,-0.612803,0.604908,9.894416e-2,-45.0161,133.9729)"
   sodipodi:nodetypes="cc" /></g><g
   id="g6270"
   transform="matrix(-0.970244,0.242131,-0.242131,-0.970244,29.14801,47.12188)"><path
   style="font-size:12;fill:none;fill-rule:evenodd;stroke:#000000;"
   d="M 187.6375 61.73 C 169.318 44.64982 186.7364 42.82987 186.838 43.4588 "
   id="path6271"
   transform="matrix(0.100235,-0.612803,0.604908,9.894416e-2,-45.0161,133.9729)"
   sodipodi:nodetypes="cc" /><path
   style="font-size:12;fill:none;fill-rule:evenodd;stroke:#000000;stroke-width:0.999953;"
   d="M 187.0156 61.62311 C 205.3334 44.54293 187.1224 42.46533 185.8886 43.50928 "
   id="path6272"
   transform="matrix(0.100235,-0.612803,0.604908,9.894416e-2,-45.0161,133.9729)"
   sodipodi:nodetypes="cc" /></g><g
   id="g6273"
   transform="matrix(-0.134063,-0.990973,0.990973,-0.134063,-11.89367,39.97605)"><path
   style="font-size:12;fill:none;fill-rule:evenodd;stroke:#000000;"
   d="M 187.6375 61.73 C 169.318 44.64982 186.7364 42.82987 186.838 43.4588 "
   id="path6274"
   transform="matrix(0.100235,-0.612803,0.604908,9.894416e-2,-45.0161,133.9729)"
   sodipodi:nodetypes="cc" /><path
   style="font-size:12;fill:none;fill-rule:evenodd;stroke:#000000;stroke-width:0.999953;"
   d="M 187.0156 61.62311 C 205.3334 44.54293 187.1224 42.46533 185.8886 43.50928 "
   id="path6275"
   transform="matrix(0.100235,-0.612803,0.604908,9.894416e-2,-45.0161,133.9729)"
   sodipodi:nodetypes="cc" /></g></g></g><g
   id="g6276"
   transform="translate(0.759349,-0.445542)"><g
   id="g6277"
   transform="matrix(0.620947,0,0,0.612946,-77.53062,-12.92154)"
   style="font-size:12;"><g
   id="g6278"><path
   style="font-size:12;fill:none;fill-rule:evenodd;stroke:#000000;"
   d="M 187.6375 61.73 C 169.318 44.64982 192.9775 41.21452 192.9775 41.21452 L 173.7657 40.9149 C 173.7657 40.9149 187.523 36.88505 183.1942 37.71444 C 178.8656 38.54391 179.1026 38.89966 178.8656 38.54391 C 178.6284 38.1881 170.9793 37.89034 177.6799 36.7648 C 184.3805 35.63924 184.3805 35.63924 184.3805 35.63924 L 184.3805 35.63924 L 184.3805 35.63924 "
   id="path6279" /><path
   style="font-size:12;fill:none;fill-rule:evenodd;stroke:#000000;stroke-width:0.999953;"
   d="M 187.0156 61.62311 C 205.3334 44.54293 181.6761 41.10763 181.6761 41.10763 L 200.8861 40.80801 C 200.8861 40.80801 187.1301 36.77816 191.4585 37.60755 C 195.7867 38.43702 195.5497 38.79277 195.7867 38.43702 C 196.0239 38.08121 203.6722 37.78345 196.9723 36.65791 C 190.2723 35.53235 190.2723 35.53235 190.2723 35.53235 L 190.2723 35.53235 L 190.2723 35.53235 "
   id="path6280" /></g><g
   id="g6281"
   transform="matrix(-1,0,0,1,374.6518,0)"><path
   style="font-size:12;fill:none;fill-rule:evenodd;stroke:#000000;"
   d="M 187.6375 61.73 C 169.318 44.64982 192.9775 41.21452 192.9775 41.21452 L 173.7657 40.9149 C 173.7657 40.9149 187.523 36.88505 183.1942 37.71444 C 178.8656 38.54391 179.1026 38.89966 178.8656 38.54391 C 178.6284 38.1881 170.9793 37.89034 177.6799 36.7648 C 184.3805 35.63924 184.3805 35.63924 184.3805 35.63924 L 184.3805 35.63924 L 184.3805 35.63924 "
   id="path6282" /><path
   style="font-size:12;fill:none;fill-rule:evenodd;stroke:#000000;stroke-width:0.999953;"
   d="M 187.0156 61.62311 C 205.3334 44.54293 181.6761 41.10763 181.6761 41.10763 L 200.8861 40.80801 C 200.8861 40.80801 187.1301 36.77816 191.4585 37.60755 C 195.7867 38.43702 195.5497 38.79277 195.7867 38.43702 C 196.0239 38.08121 203.6722 37.78345 196.9723 36.65791 C 190.2723 35.53235 190.2723 35.53235 190.2723 35.53235 L 190.2723 35.53235 L 190.2723 35.53235 "
   id="path6283" /></g><g
   id="g6284"
   transform="matrix(-0.217597,-2.976814e-17,2.664706e-17,-0.243084,228.0607,48.61383)"><path
   style="font-size:12;fill:none;fill-rule:evenodd;stroke:#000000;"
   d="M 187.6375 61.73 C 169.318 44.64982 192.9775 41.21452 192.9775 41.21452 L 173.7657 40.9149 C 173.7657 40.9149 187.523 36.88505 183.1942 37.71444 C 178.8656 38.54391 179.1026 38.89966 178.8656 38.54391 C 178.6284 38.1881 170.9793 37.89034 177.6799 36.7648 C 184.3805 35.63924 184.3805 35.63924 184.3805 35.63924 L 184.3805 35.63924 L 184.3805 35.63924 "
   id="path6285" /><path
   style="font-size:12;fill:none;fill-rule:evenodd;stroke:#000000;stroke-width:0.999953;"
   d="M 187.0156 61.62311 C 205.3334 44.54293 181.6761 41.10763 181.6761 41.10763 L 200.8861 40.80801 C 200.8861 40.80801 187.1301 36.77816 191.4585 37.60755 C 195.7867 38.43702 195.5497 38.79277 195.7867 38.43702 C 196.0239 38.08121 203.6722 37.78345 196.9723 36.65791 C 190.2723 35.53235 190.2723 35.53235 190.2723 35.53235 L 190.2723 35.53235 L 190.2723 35.53235 "
   id="path6286" /></g></g><g
   id="g6287"
   transform="matrix(0.999829,-1.849385e-2,1.849385e-2,0.999829,26.44402,0.975475)"><g
   id="g6288"><path
   style="font-size:12;fill:none;fill-rule:evenodd;stroke:#000000;"
   d="M 187.6375 61.73 C 169.318 44.64982 186.7364 42.82987 186.838 43.4588 "
   id="path6289"
   transform="matrix(0.100235,-0.612803,0.604908,9.894416e-2,-45.0161,133.9729)"
   sodipodi:nodetypes="cc" /><path
   style="font-size:12;fill:none;fill-rule:evenodd;stroke:#000000;stroke-width:0.999953;"
   d="M 187.0156 61.62311 C 205.3334 44.54293 187.1224 42.46533 185.8886 43.50928 "
   id="path6290"
   transform="matrix(0.100235,-0.612803,0.604908,9.894416e-2,-45.0161,133.9729)"
   sodipodi:nodetypes="cc" /></g><g
   id="g6291"
   transform="matrix(-0.970244,0.242131,-0.242131,-0.970244,29.14801,47.12188)"><path
   style="font-size:12;fill:none;fill-rule:evenodd;stroke:#000000;"
   d="M 187.6375 61.73 C 169.318 44.64982 186.7364 42.82987 186.838 43.4588 "
   id="path6292"
   transform="matrix(0.100235,-0.612803,0.604908,9.894416e-2,-45.0161,133.9729)"
   sodipodi:nodetypes="cc" /><path
   style="font-size:12;fill:none;fill-rule:evenodd;stroke:#000000;stroke-width:0.999953;"
   d="M 187.0156 61.62311 C 205.3334 44.54293 187.1224 42.46533 185.8886 43.50928 "
   id="path6293"
   transform="matrix(0.100235,-0.612803,0.604908,9.894416e-2,-45.0161,133.9729)"
   sodipodi:nodetypes="cc" /></g><g
   id="g6294"
   transform="matrix(-0.134063,-0.990973,0.990973,-0.134063,-11.89367,39.97605)"><path
   style="font-size:12;fill:none;fill-rule:evenodd;stroke:#000000;"
   d="M 187.6375 61.73 C 169.318 44.64982 186.7364 42.82987 186.838 43.4588 "
   id="path6295"
   transform="matrix(0.100235,-0.612803,0.604908,9.894416e-2,-45.0161,133.9729)"
   sodipodi:nodetypes="cc" /><path
   style="font-size:12;fill:none;fill-rule:evenodd;stroke:#000000;stroke-width:0.999953;"
   d="M 187.0156 61.62311 C 205.3334 44.54293 187.1224 42.46533 185.8886 43.50928 "
   id="path6296"
   transform="matrix(0.100235,-0.612803,0.604908,9.894416e-2,-45.0161,133.9729)"
   sodipodi:nodetypes="cc" /></g></g></g></g><g
   id="g6340"
   transform="translate(163.4874,-1.581741)"
   style="font-size:12;"><g
   id="g6341"
   transform="translate(6.389873e-2,-3.466606e-3)"><g
   id="g6342"
   transform="matrix(0.620947,0,0,0.612946,-104.5224,-13.36362)"
   style="font-size:12;"><g
   id="g6343"><path
   style="font-size:12;fill:none;fill-rule:evenodd;stroke:#000000;"
   d="M 187.6375 61.73 C 169.318 44.64982 192.9775 41.21452 192.9775 41.21452 L 173.7657 40.9149 C 173.7657 40.9149 187.523 36.88505 183.1942 37.71444 C 178.8656 38.54391 179.1026 38.89966 178.8656 38.54391 C 178.6284 38.1881 170.9793 37.89034 177.6799 36.7648 C 184.3805 35.63924 184.3805 35.63924 184.3805 35.63924 L 184.3805 35.63924 L 184.3805 35.63924 "
   id="path6344" /><path
   style="font-size:12;fill:none;fill-rule:evenodd;stroke:#000000;stroke-width:0.999953;"
   d="M 187.0156 61.62311 C 205.3334 44.54293 181.6761 41.10763 181.6761 41.10763 L 200.8861 40.80801 C 200.8861 40.80801 187.1301 36.77816 191.4585 37.60755 C 195.7867 38.43702 195.5497 38.79277 195.7867 38.43702 C 196.0239 38.08121 203.6722 37.78345 196.9723 36.65791 C 190.2723 35.53235 190.2723 35.53235 190.2723 35.53235 L 190.2723 35.53235 L 190.2723 35.53235 "
   id="path6345" /></g><g
   id="g6346"
   transform="matrix(-1,0,0,1,374.6518,0)"><path
   style="font-size:12;fill:none;fill-rule:evenodd;stroke:#000000;"
   d="M 187.6375 61.73 C 169.318 44.64982 192.9775 41.21452 192.9775 41.21452 L 173.7657 40.9149 C 173.7657 40.9149 187.523 36.88505 183.1942 37.71444 C 178.8656 38.54391 179.1026 38.89966 178.8656 38.54391 C 178.6284 38.1881 170.9793 37.89034 177.6799 36.7648 C 184.3805 35.63924 184.3805 35.63924 184.3805 35.63924 L 184.3805 35.63924 L 184.3805 35.63924 "
   id="path6347" /><path
   style="font-size:12;fill:none;fill-rule:evenodd;stroke:#000000;stroke-width:0.999953;"
   d="M 187.0156 61.62311 C 205.3334 44.54293 181.6761 41.10763 181.6761 41.10763 L 200.8861 40.80801 C 200.8861 40.80801 187.1301 36.77816 191.4585 37.60755 C 195.7867 38.43702 195.5497 38.79277 195.7867 38.43702 C 196.0239 38.08121 203.6722 37.78345 196.9723 36.65791 C 190.2723 35.53235 190.2723 35.53235 190.2723 35.53235 L 190.2723 35.53235 L 190.2723 35.53235 "
   id="path6348" /></g><g
   id="g6349"
   transform="matrix(-0.217597,-2.976814e-17,2.664706e-17,-0.243084,228.0607,48.61383)"><path
   style="font-size:12;fill:none;fill-rule:evenodd;stroke:#000000;"
   d="M 187.6375 61.73 C 169.318 44.64982 192.9775 41.21452 192.9775 41.21452 L 173.7657 40.9149 C 173.7657 40.9149 187.523 36.88505 183.1942 37.71444 C 178.8656 38.54391 179.1026 38.89966 178.8656 38.54391 C 178.6284 38.1881 170.9793 37.89034 177.6799 36.7648 C 184.3805 35.63924 184.3805 35.63924 184.3805 35.63924 L 184.3805 35.63924 L 184.3805 35.63924 "
   id="path6350" /><path
   style="font-size:12;fill:none;fill-rule:evenodd;stroke:#000000;stroke-width:0.999953;"
   d="M 187.0156 61.62311 C 205.3334 44.54293 181.6761 41.10763 181.6761 41.10763 L 200.8861 40.80801 C 200.8861 40.80801 187.1301 36.77816 191.4585 37.60755 C 195.7867 38.43702 195.5497 38.79277 195.7867 38.43702 C 196.0239 38.08121 203.6722 37.78345 196.9723 36.65791 C 190.2723 35.53235 190.2723 35.53235 190.2723 35.53235 L 190.2723 35.53235 L 190.2723 35.53235 "
   id="path6351" /></g></g><g
   id="g6352"
   transform="matrix(0.999829,-1.849385e-2,1.849385e-2,0.999829,-0.360528,0.5334)"><g
   id="g6353"><path
   style="font-size:12;fill:none;fill-rule:evenodd;stroke:#000000;"
   d="M 187.6375 61.73 C 169.318 44.64982 186.7364 42.82987 186.838 43.4588 "
   id="path6354"
   transform="matrix(0.100235,-0.612803,0.604908,9.894416e-2,-45.0161,133.9729)"
   sodipodi:nodetypes="cc" /><path
   style="font-size:12;fill:none;fill-rule:evenodd;stroke:#000000;stroke-width:0.999953;"
   d="M 187.0156 61.62311 C 205.3334 44.54293 187.1224 42.46533 185.8886 43.50928 "
   id="path6355"
   transform="matrix(0.100235,-0.612803,0.604908,9.894416e-2,-45.0161,133.9729)"
   sodipodi:nodetypes="cc" /></g><g
   id="g6356"
   transform="matrix(-0.970244,0.242131,-0.242131,-0.970244,29.14801,47.12188)"><path
   style="font-size:12;fill:none;fill-rule:evenodd;stroke:#000000;"
   d="M 187.6375 61.73 C 169.318 44.64982 186.7364 42.82987 186.838 43.4588 "
   id="path6357"
   transform="matrix(0.100235,-0.612803,0.604908,9.894416e-2,-45.0161,133.9729)"
   sodipodi:nodetypes="cc" /><path
   style="font-size:12;fill:none;fill-rule:evenodd;stroke:#000000;stroke-width:0.999953;"
   d="M 187.0156 61.62311 C 205.3334 44.54293 187.1224 42.46533 185.8886 43.50928 "
   id="path6358"
   transform="matrix(0.100235,-0.612803,0.604908,9.894416e-2,-45.0161,133.9729)"
   sodipodi:nodetypes="cc" /></g><g
   id="g6359"
   transform="matrix(-0.134063,-0.990973,0.990973,-0.134063,-11.89367,39.97605)"><path
   style="font-size:12;fill:none;fill-rule:evenodd;stroke:#000000;"
   d="M 187.6375 61.73 C 169.318 44.64982 186.7364 42.82987 186.838 43.4588 "
   id="path6360"
   transform="matrix(0.100235,-0.612803,0.604908,9.894416e-2,-45.0161,133.9729)"
   sodipodi:nodetypes="cc" /><path
   style="font-size:12;fill:none;fill-rule:evenodd;stroke:#000000;stroke-width:0.999953;"
   d="M 187.0156 61.62311 C 205.3334 44.54293 187.1224 42.46533 185.8886 43.50928 "
   id="path6361"
   transform="matrix(0.100235,-0.612803,0.604908,9.894416e-2,-45.0161,133.9729)"
   sodipodi:nodetypes="cc" /></g></g></g><g
   id="g6362"
   transform="translate(0.759349,-0.445542)"><g
   id="g6363"
   transform="matrix(0.620947,0,0,0.612946,-77.53062,-12.92154)"
   style="font-size:12;"><g
   id="g6364"><path
   style="font-size:12;fill:none;fill-rule:evenodd;stroke:#000000;"
   d="M 187.6375 61.73 C 169.318 44.64982 192.9775 41.21452 192.9775 41.21452 L 173.7657 40.9149 C 173.7657 40.9149 187.523 36.88505 183.1942 37.71444 C 178.8656 38.54391 179.1026 38.89966 178.8656 38.54391 C 178.6284 38.1881 170.9793 37.89034 177.6799 36.7648 C 184.3805 35.63924 184.3805 35.63924 184.3805 35.63924 L 184.3805 35.63924 L 184.3805 35.63924 "
   id="path6365" /><path
   style="font-size:12;fill:none;fill-rule:evenodd;stroke:#000000;stroke-width:0.999953;"
   d="M 187.0156 61.62311 C 205.3334 44.54293 181.6761 41.10763 181.6761 41.10763 L 200.8861 40.80801 C 200.8861 40.80801 187.1301 36.77816 191.4585 37.60755 C 195.7867 38.43702 195.5497 38.79277 195.7867 38.43702 C 196.0239 38.08121 203.6722 37.78345 196.9723 36.65791 C 190.2723 35.53235 190.2723 35.53235 190.2723 35.53235 L 190.2723 35.53235 L 190.2723 35.53235 "
   id="path6366" /></g><g
   id="g6367"
   transform="matrix(-1,0,0,1,374.6518,0)"><path
   style="font-size:12;fill:none;fill-rule:evenodd;stroke:#000000;"
   d="M 187.6375 61.73 C 169.318 44.64982 192.9775 41.21452 192.9775 41.21452 L 173.7657 40.9149 C 173.7657 40.9149 187.523 36.88505 183.1942 37.71444 C 178.8656 38.54391 179.1026 38.89966 178.8656 38.54391 C 178.6284 38.1881 170.9793 37.89034 177.6799 36.7648 C 184.3805 35.63924 184.3805 35.63924 184.3805 35.63924 L 184.3805 35.63924 L 184.3805 35.63924 "
   id="path6368" /><path
   style="font-size:12;fill:none;fill-rule:evenodd;stroke:#000000;stroke-width:0.999953;"
   d="M 187.0156 61.62311 C 205.3334 44.54293 181.6761 41.10763 181.6761 41.10763 L 200.8861 40.80801 C 200.8861 40.80801 187.1301 36.77816 191.4585 37.60755 C 195.7867 38.43702 195.5497 38.79277 195.7867 38.43702 C 196.0239 38.08121 203.6722 37.78345 196.9723 36.65791 C 190.2723 35.53235 190.2723 35.53235 190.2723 35.53235 L 190.2723 35.53235 L 190.2723 35.53235 "
   id="path6369" /></g><g
   id="g6370"
   transform="matrix(-0.217597,-2.976814e-17,2.664706e-17,-0.243084,228.0607,48.61383)"><path
   style="font-size:12;fill:none;fill-rule:evenodd;stroke:#000000;"
   d="M 187.6375 61.73 C 169.318 44.64982 192.9775 41.21452 192.9775 41.21452 L 173.7657 40.9149 C 173.7657 40.9149 187.523 36.88505 183.1942 37.71444 C 178.8656 38.54391 179.1026 38.89966 178.8656 38.54391 C 178.6284 38.1881 170.9793 37.89034 177.6799 36.7648 C 184.3805 35.63924 184.3805 35.63924 184.3805 35.63924 L 184.3805 35.63924 L 184.3805 35.63924 "
   id="path6371" /><path
   style="font-size:12;fill:none;fill-rule:evenodd;stroke:#000000;stroke-width:0.999953;"
   d="M 187.0156 61.62311 C 205.3334 44.54293 181.6761 41.10763 181.6761 41.10763 L 200.8861 40.80801 C 200.8861 40.80801 187.1301 36.77816 191.4585 37.60755 C 195.7867 38.43702 195.5497 38.79277 195.7867 38.43702 C 196.0239 38.08121 203.6722 37.78345 196.9723 36.65791 C 190.2723 35.53235 190.2723 35.53235 190.2723 35.53235 L 190.2723 35.53235 L 190.2723 35.53235 "
   id="path6372" /></g></g><g
   id="g6373"
   transform="matrix(0.999829,-1.849385e-2,1.849385e-2,0.999829,26.44402,0.975475)"><g
   id="g6374"><path
   style="font-size:12;fill:none;fill-rule:evenodd;stroke:#000000;"
   d="M 187.6375 61.73 C 169.318 44.64982 186.7364 42.82987 186.838 43.4588 "
   id="path6375"
   transform="matrix(0.100235,-0.612803,0.604908,9.894416e-2,-45.0161,133.9729)"
   sodipodi:nodetypes="cc" /><path
   style="font-size:12;fill:none;fill-rule:evenodd;stroke:#000000;stroke-width:0.999953;"
   d="M 187.0156 61.62311 C 205.3334 44.54293 187.1224 42.46533 185.8886 43.50928 "
   id="path6376"
   transform="matrix(0.100235,-0.612803,0.604908,9.894416e-2,-45.0161,133.9729)"
   sodipodi:nodetypes="cc" /></g><g
   id="g6377"
   transform="matrix(-0.970244,0.242131,-0.242131,-0.970244,29.14801,47.12188)"><path
   style="font-size:12;fill:none;fill-rule:evenodd;stroke:#000000;"
   d="M 187.6375 61.73 C 169.318 44.64982 186.7364 42.82987 186.838 43.4588 "
   id="path6378"
   transform="matrix(0.100235,-0.612803,0.604908,9.894416e-2,-45.0161,133.9729)"
   sodipodi:nodetypes="cc" /><path
   style="font-size:12;fill:none;fill-rule:evenodd;stroke:#000000;stroke-width:0.999953;"
   d="M 187.0156 61.62311 C 205.3334 44.54293 187.1224 42.46533 185.8886 43.50928 "
   id="path6379"
   transform="matrix(0.100235,-0.612803,0.604908,9.894416e-2,-45.0161,133.9729)"
   sodipodi:nodetypes="cc" /></g><g
   id="g6380"
   transform="matrix(-0.134063,-0.990973,0.990973,-0.134063,-11.89367,39.97605)"><path
   style="font-size:12;fill:none;fill-rule:evenodd;stroke:#000000;"
   d="M 187.6375 61.73 C 169.318 44.64982 186.7364 42.82987 186.838 43.4588 "
   id="path6381"
   transform="matrix(0.100235,-0.612803,0.604908,9.894416e-2,-45.0161,133.9729)"
   sodipodi:nodetypes="cc" /><path
   style="font-size:12;fill:none;fill-rule:evenodd;stroke:#000000;stroke-width:0.999953;"
   d="M 187.0156 61.62311 C 205.3334 44.54293 187.1224 42.46533 185.8886 43.50928 "
   id="path6382"
   transform="matrix(0.100235,-0.612803,0.604908,9.894416e-2,-45.0161,133.9729)"
   sodipodi:nodetypes="cc" /></g></g></g></g><g
   id="g6383"
   transform="translate(273.4874,-1.581741)"
   style="font-size:12;"><g
   id="g6384"
   transform="translate(6.389873e-2,-3.466606e-3)"><g
   id="g6385"
   transform="matrix(0.620947,0,0,0.612946,-104.5224,-13.36362)"
   style="font-size:12;"><g
   id="g6386"><path
   style="font-size:12;fill:none;fill-rule:evenodd;stroke:#000000;"
   d="M 187.6375 61.73 C 169.318 44.64982 192.9775 41.21452 192.9775 41.21452 L 173.7657 40.9149 C 173.7657 40.9149 187.523 36.88505 183.1942 37.71444 C 178.8656 38.54391 179.1026 38.89966 178.8656 38.54391 C 178.6284 38.1881 170.9793 37.89034 177.6799 36.7648 C 184.3805 35.63924 184.3805 35.63924 184.3805 35.63924 L 184.3805 35.63924 L 184.3805 35.63924 "
   id="path6387" /><path
   style="font-size:12;fill:none;fill-rule:evenodd;stroke:#000000;stroke-width:0.999953;"
   d="M 187.0156 61.62311 C 205.3334 44.54293 181.6761 41.10763 181.6761 41.10763 L 200.8861 40.80801 C 200.8861 40.80801 187.1301 36.77816 191.4585 37.60755 C 195.7867 38.43702 195.5497 38.79277 195.7867 38.43702 C 196.0239 38.08121 203.6722 37.78345 196.9723 36.65791 C 190.2723 35.53235 190.2723 35.53235 190.2723 35.53235 L 190.2723 35.53235 L 190.2723 35.53235 "
   id="path6388" /></g><g
   id="g6389"
   transform="matrix(-1,0,0,1,374.6518,0)"><path
   style="font-size:12;fill:none;fill-rule:evenodd;stroke:#000000;"
   d="M 187.6375 61.73 C 169.318 44.64982 192.9775 41.21452 192.9775 41.21452 L 173.7657 40.9149 C 173.7657 40.9149 187.523 36.88505 183.1942 37.71444 C 178.8656 38.54391 179.1026 38.89966 178.8656 38.54391 C 178.6284 38.1881 170.9793 37.89034 177.6799 36.7648 C 184.3805 35.63924 184.3805 35.63924 184.3805 35.63924 L 184.3805 35.63924 L 184.3805 35.63924 "
   id="path6390" /><path
   style="font-size:12;fill:none;fill-rule:evenodd;stroke:#000000;stroke-width:0.999953;"
   d="M 187.0156 61.62311 C 205.3334 44.54293 181.6761 41.10763 181.6761 41.10763 L 200.8861 40.80801 C 200.8861 40.80801 187.1301 36.77816 191.4585 37.60755 C 195.7867 38.43702 195.5497 38.79277 195.7867 38.43702 C 196.0239 38.08121 203.6722 37.78345 196.9723 36.65791 C 190.2723 35.53235 190.2723 35.53235 190.2723 35.53235 L 190.2723 35.53235 L 190.2723 35.53235 "
   id="path6391" /></g><g
   id="g6392"
   transform="matrix(-0.217597,-2.976814e-17,2.664706e-17,-0.243084,228.0607,48.61383)"><path
   style="font-size:12;fill:none;fill-rule:evenodd;stroke:#000000;"
   d="M 187.6375 61.73 C 169.318 44.64982 192.9775 41.21452 192.9775 41.21452 L 173.7657 40.9149 C 173.7657 40.9149 187.523 36.88505 183.1942 37.71444 C 178.8656 38.54391 179.1026 38.89966 178.8656 38.54391 C 178.6284 38.1881 170.9793 37.89034 177.6799 36.7648 C 184.3805 35.63924 184.3805 35.63924 184.3805 35.63924 L 184.3805 35.63924 L 184.3805 35.63924 "
   id="path6393" /><path
   style="font-size:12;fill:none;fill-rule:evenodd;stroke:#000000;stroke-width:0.999953;"
   d="M 187.0156 61.62311 C 205.3334 44.54293 181.6761 41.10763 181.6761 41.10763 L 200.8861 40.80801 C 200.8861 40.80801 187.1301 36.77816 191.4585 37.60755 C 195.7867 38.43702 195.5497 38.79277 195.7867 38.43702 C 196.0239 38.08121 203.6722 37.78345 196.9723 36.65791 C 190.2723 35.53235 190.2723 35.53235 190.2723 35.53235 L 190.2723 35.53235 L 190.2723 35.53235 "
   id="path6394" /></g></g><g
   id="g6395"
   transform="matrix(0.999829,-1.849385e-2,1.849385e-2,0.999829,-0.360528,0.5334)"><g
   id="g6396"><path
   style="font-size:12;fill:none;fill-rule:evenodd;stroke:#000000;"
   d="M 187.6375 61.73 C 169.318 44.64982 186.7364 42.82987 186.838 43.4588 "
   id="path6397"
   transform="matrix(0.100235,-0.612803,0.604908,9.894416e-2,-45.0161,133.9729)"
   sodipodi:nodetypes="cc" /><path
   style="font-size:12;fill:none;fill-rule:evenodd;stroke:#000000;stroke-width:0.999953;"
   d="M 187.0156 61.62311 C 205.3334 44.54293 187.1224 42.46533 185.8886 43.50928 "
   id="path6398"
   transform="matrix(0.100235,-0.612803,0.604908,9.894416e-2,-45.0161,133.9729)"
   sodipodi:nodetypes="cc" /></g><g
   id="g6399"
   transform="matrix(-0.970244,0.242131,-0.242131,-0.970244,29.14801,47.12188)"><path
   style="font-size:12;fill:none;fill-rule:evenodd;stroke:#000000;"
   d="M 187.6375 61.73 C 169.318 44.64982 186.7364 42.82987 186.838 43.4588 "
   id="path6400"
   transform="matrix(0.100235,-0.612803,0.604908,9.894416e-2,-45.0161,133.9729)"
   sodipodi:nodetypes="cc" /><path
   style="font-size:12;fill:none;fill-rule:evenodd;stroke:#000000;stroke-width:0.999953;"
   d="M 187.0156 61.62311 C 205.3334 44.54293 187.1224 42.46533 185.8886 43.50928 "
   id="path6401"
   transform="matrix(0.100235,-0.612803,0.604908,9.894416e-2,-45.0161,133.9729)"
   sodipodi:nodetypes="cc" /></g><g
   id="g6402"
   transform="matrix(-0.134063,-0.990973,0.990973,-0.134063,-11.89367,39.97605)"><path
   style="font-size:12;fill:none;fill-rule:evenodd;stroke:#000000;"
   d="M 187.6375 61.73 C 169.318 44.64982 186.7364 42.82987 186.838 43.4588 "
   id="path6403"
   transform="matrix(0.100235,-0.612803,0.604908,9.894416e-2,-45.0161,133.9729)"
   sodipodi:nodetypes="cc" /><path
   style="font-size:12;fill:none;fill-rule:evenodd;stroke:#000000;stroke-width:0.999953;"
   d="M 187.0156 61.62311 C 205.3334 44.54293 187.1224 42.46533 185.8886 43.50928 "
   id="path6404"
   transform="matrix(0.100235,-0.612803,0.604908,9.894416e-2,-45.0161,133.9729)"
   sodipodi:nodetypes="cc" /></g></g></g><g
   id="g6405"
   transform="translate(0.759349,-0.445542)"><g
   id="g6406"
   transform="matrix(0.620947,0,0,0.612946,-77.53062,-12.92154)"
   style="font-size:12;"><g
   id="g6407"><path
   style="font-size:12;fill:none;fill-rule:evenodd;stroke:#000000;"
   d="M 187.6375 61.73 C 169.318 44.64982 192.9775 41.21452 192.9775 41.21452 L 173.7657 40.9149 C 173.7657 40.9149 187.523 36.88505 183.1942 37.71444 C 178.8656 38.54391 179.1026 38.89966 178.8656 38.54391 C 178.6284 38.1881 170.9793 37.89034 177.6799 36.7648 C 184.3805 35.63924 184.3805 35.63924 184.3805 35.63924 L 184.3805 35.63924 L 184.3805 35.63924 "
   id="path6408" /><path
   style="font-size:12;fill:none;fill-rule:evenodd;stroke:#000000;stroke-width:0.999953;"
   d="M 187.0156 61.62311 C 205.3334 44.54293 181.6761 41.10763 181.6761 41.10763 L 200.8861 40.80801 C 200.8861 40.80801 187.1301 36.77816 191.4585 37.60755 C 195.7867 38.43702 195.5497 38.79277 195.7867 38.43702 C 196.0239 38.08121 203.6722 37.78345 196.9723 36.65791 C 190.2723 35.53235 190.2723 35.53235 190.2723 35.53235 L 190.2723 35.53235 L 190.2723 35.53235 "
   id="path6409" /></g><g
   id="g6410"
   transform="matrix(-1,0,0,1,374.6518,0)"><path
   style="font-size:12;fill:none;fill-rule:evenodd;stroke:#000000;"
   d="M 187.6375 61.73 C 169.318 44.64982 192.9775 41.21452 192.9775 41.21452 L 173.7657 40.9149 C 173.7657 40.9149 187.523 36.88505 183.1942 37.71444 C 178.8656 38.54391 179.1026 38.89966 178.8656 38.54391 C 178.6284 38.1881 170.9793 37.89034 177.6799 36.7648 C 184.3805 35.63924 184.3805 35.63924 184.3805 35.63924 L 184.3805 35.63924 L 184.3805 35.63924 "
   id="path6411" /><path
   style="font-size:12;fill:none;fill-rule:evenodd;stroke:#000000;stroke-width:0.999953;"
   d="M 187.0156 61.62311 C 205.3334 44.54293 181.6761 41.10763 181.6761 41.10763 L 200.8861 40.80801 C 200.8861 40.80801 187.1301 36.77816 191.4585 37.60755 C 195.7867 38.43702 195.5497 38.79277 195.7867 38.43702 C 196.0239 38.08121 203.6722 37.78345 196.9723 36.65791 C 190.2723 35.53235 190.2723 35.53235 190.2723 35.53235 L 190.2723 35.53235 L 190.2723 35.53235 "
   id="path6412" /></g><g
   id="g6413"
   transform="matrix(-0.217597,-2.976814e-17,2.664706e-17,-0.243084,228.0607,48.61383)"><path
   style="font-size:12;fill:none;fill-rule:evenodd;stroke:#000000;"
   d="M 187.6375 61.73 C 169.318 44.64982 192.9775 41.21452 192.9775 41.21452 L 173.7657 40.9149 C 173.7657 40.9149 187.523 36.88505 183.1942 37.71444 C 178.8656 38.54391 179.1026 38.89966 178.8656 38.54391 C 178.6284 38.1881 170.9793 37.89034 177.6799 36.7648 C 184.3805 35.63924 184.3805 35.63924 184.3805 35.63924 L 184.3805 35.63924 L 184.3805 35.63924 "
   id="path6414" /><path
   style="font-size:12;fill:none;fill-rule:evenodd;stroke:#000000;stroke-width:0.999953;"
   d="M 187.0156 61.62311 C 205.3334 44.54293 181.6761 41.10763 181.6761 41.10763 L 200.8861 40.80801 C 200.8861 40.80801 187.1301 36.77816 191.4585 37.60755 C 195.7867 38.43702 195.5497 38.79277 195.7867 38.43702 C 196.0239 38.08121 203.6722 37.78345 196.9723 36.65791 C 190.2723 35.53235 190.2723 35.53235 190.2723 35.53235 L 190.2723 35.53235 L 190.2723 35.53235 "
   id="path6415" /></g></g><g
   id="g6416"
   transform="matrix(0.999829,-1.849385e-2,1.849385e-2,0.999829,26.44402,0.975475)"><g
   id="g6417"><path
   style="font-size:12;fill:none;fill-rule:evenodd;stroke:#000000;"
   d="M 187.6375 61.73 C 169.318 44.64982 186.7364 42.82987 186.838 43.4588 "
   id="path6418"
   transform="matrix(0.100235,-0.612803,0.604908,9.894416e-2,-45.0161,133.9729)"
   sodipodi:nodetypes="cc" /><path
   style="font-size:12;fill:none;fill-rule:evenodd;stroke:#000000;stroke-width:0.999953;"
   d="M 187.0156 61.62311 C 205.3334 44.54293 187.1224 42.46533 185.8886 43.50928 "
   id="path6419"
   transform="matrix(0.100235,-0.612803,0.604908,9.894416e-2,-45.0161,133.9729)"
   sodipodi:nodetypes="cc" /></g><g
   id="g6420"
   transform="matrix(-0.970244,0.242131,-0.242131,-0.970244,29.14801,47.12188)"><path
   style="font-size:12;fill:none;fill-rule:evenodd;stroke:#000000;"
   d="M 187.6375 61.73 C 169.318 44.64982 186.7364 42.82987 186.838 43.4588 "
   id="path6421"
   transform="matrix(0.100235,-0.612803,0.604908,9.894416e-2,-45.0161,133.9729)"
   sodipodi:nodetypes="cc" /><path
   style="font-size:12;fill:none;fill-rule:evenodd;stroke:#000000;stroke-width:0.999953;"
   d="M 187.0156 61.62311 C 205.3334 44.54293 187.1224 42.46533 185.8886 43.50928 "
   id="path6422"
   transform="matrix(0.100235,-0.612803,0.604908,9.894416e-2,-45.0161,133.9729)"
   sodipodi:nodetypes="cc" /></g><g
   id="g6423"
   transform="matrix(-0.134063,-0.990973,0.990973,-0.134063,-11.89367,39.97605)"><path
   style="font-size:12;fill:none;fill-rule:evenodd;stroke:#000000;"
   d="M 187.6375 61.73 C 169.318 44.64982 186.7364 42.82987 186.838 43.4588 "
   id="path6424"
   transform="matrix(0.100235,-0.612803,0.604908,9.894416e-2,-45.0161,133.9729)"
   sodipodi:nodetypes="cc" /><path
   style="font-size:12;fill:none;fill-rule:evenodd;stroke:#000000;stroke-width:0.999953;"
   d="M 187.0156 61.62311 C 205.3334 44.54293 187.1224 42.46533 185.8886 43.50928 "
   id="path6425"
   transform="matrix(0.100235,-0.612803,0.604908,9.894416e-2,-45.0161,133.9729)"
   sodipodi:nodetypes="cc" /></g></g></g></g><g
   id="g6426"
   transform="translate(218.4874,-1.581741)"
   style="font-size:12;"><g
   id="g6427"
   transform="translate(6.389873e-2,-3.466606e-3)"><g
   id="g6428"
   transform="matrix(0.620947,0,0,0.612946,-104.5224,-13.36362)"
   style="font-size:12;"><g
   id="g6429"><path
   style="font-size:12;fill:none;fill-rule:evenodd;stroke:#000000;"
   d="M 187.6375 61.73 C 169.318 44.64982 192.9775 41.21452 192.9775 41.21452 L 173.7657 40.9149 C 173.7657 40.9149 187.523 36.88505 183.1942 37.71444 C 178.8656 38.54391 179.1026 38.89966 178.8656 38.54391 C 178.6284 38.1881 170.9793 37.89034 177.6799 36.7648 C 184.3805 35.63924 184.3805 35.63924 184.3805 35.63924 L 184.3805 35.63924 L 184.3805 35.63924 "
   id="path6430" /><path
   style="font-size:12;fill:none;fill-rule:evenodd;stroke:#000000;stroke-width:0.999953;"
   d="M 187.0156 61.62311 C 205.3334 44.54293 181.6761 41.10763 181.6761 41.10763 L 200.8861 40.80801 C 200.8861 40.80801 187.1301 36.77816 191.4585 37.60755 C 195.7867 38.43702 195.5497 38.79277 195.7867 38.43702 C 196.0239 38.08121 203.6722 37.78345 196.9723 36.65791 C 190.2723 35.53235 190.2723 35.53235 190.2723 35.53235 L 190.2723 35.53235 L 190.2723 35.53235 "
   id="path6431" /></g><g
   id="g6432"
   transform="matrix(-1,0,0,1,374.6518,0)"><path
   style="font-size:12;fill:none;fill-rule:evenodd;stroke:#000000;"
   d="M 187.6375 61.73 C 169.318 44.64982 192.9775 41.21452 192.9775 41.21452 L 173.7657 40.9149 C 173.7657 40.9149 187.523 36.88505 183.1942 37.71444 C 178.8656 38.54391 179.1026 38.89966 178.8656 38.54391 C 178.6284 38.1881 170.9793 37.89034 177.6799 36.7648 C 184.3805 35.63924 184.3805 35.63924 184.3805 35.63924 L 184.3805 35.63924 L 184.3805 35.63924 "
   id="path6433" /><path
   style="font-size:12;fill:none;fill-rule:evenodd;stroke:#000000;stroke-width:0.999953;"
   d="M 187.0156 61.62311 C 205.3334 44.54293 181.6761 41.10763 181.6761 41.10763 L 200.8861 40.80801 C 200.8861 40.80801 187.1301 36.77816 191.4585 37.60755 C 195.7867 38.43702 195.5497 38.79277 195.7867 38.43702 C 196.0239 38.08121 203.6722 37.78345 196.9723 36.65791 C 190.2723 35.53235 190.2723 35.53235 190.2723 35.53235 L 190.2723 35.53235 L 190.2723 35.53235 "
   id="path6434" /></g><g
   id="g6435"
   transform="matrix(-0.217597,-2.976814e-17,2.664706e-17,-0.243084,228.0607,48.61383)"><path
   style="font-size:12;fill:none;fill-rule:evenodd;stroke:#000000;"
   d="M 187.6375 61.73 C 169.318 44.64982 192.9775 41.21452 192.9775 41.21452 L 173.7657 40.9149 C 173.7657 40.9149 187.523 36.88505 183.1942 37.71444 C 178.8656 38.54391 179.1026 38.89966 178.8656 38.54391 C 178.6284 38.1881 170.9793 37.89034 177.6799 36.7648 C 184.3805 35.63924 184.3805 35.63924 184.3805 35.63924 L 184.3805 35.63924 L 184.3805 35.63924 "
   id="path6436" /><path
   style="font-size:12;fill:none;fill-rule:evenodd;stroke:#000000;stroke-width:0.999953;"
   d="M 187.0156 61.62311 C 205.3334 44.54293 181.6761 41.10763 181.6761 41.10763 L 200.8861 40.80801 C 200.8861 40.80801 187.1301 36.77816 191.4585 37.60755 C 195.7867 38.43702 195.5497 38.79277 195.7867 38.43702 C 196.0239 38.08121 203.6722 37.78345 196.9723 36.65791 C 190.2723 35.53235 190.2723 35.53235 190.2723 35.53235 L 190.2723 35.53235 L 190.2723 35.53235 "
   id="path6437" /></g></g><g
   id="g6438"
   transform="matrix(0.999829,-1.849385e-2,1.849385e-2,0.999829,-0.360528,0.5334)"><g
   id="g6439"><path
   style="font-size:12;fill:none;fill-rule:evenodd;stroke:#000000;"
   d="M 187.6375 61.73 C 169.318 44.64982 186.7364 42.82987 186.838 43.4588 "
   id="path6440"
   transform="matrix(0.100235,-0.612803,0.604908,9.894416e-2,-45.0161,133.9729)"
   sodipodi:nodetypes="cc" /><path
   style="font-size:12;fill:none;fill-rule:evenodd;stroke:#000000;stroke-width:0.999953;"
   d="M 187.0156 61.62311 C 205.3334 44.54293 187.1224 42.46533 185.8886 43.50928 "
   id="path6441"
   transform="matrix(0.100235,-0.612803,0.604908,9.894416e-2,-45.0161,133.9729)"
   sodipodi:nodetypes="cc" /></g><g
   id="g6442"
   transform="matrix(-0.970244,0.242131,-0.242131,-0.970244,29.14801,47.12188)"><path
   style="font-size:12;fill:none;fill-rule:evenodd;stroke:#000000;"
   d="M 187.6375 61.73 C 169.318 44.64982 186.7364 42.82987 186.838 43.4588 "
   id="path6443"
   transform="matrix(0.100235,-0.612803,0.604908,9.894416e-2,-45.0161,133.9729)"
   sodipodi:nodetypes="cc" /><path
   style="font-size:12;fill:none;fill-rule:evenodd;stroke:#000000;stroke-width:0.999953;"
   d="M 187.0156 61.62311 C 205.3334 44.54293 187.1224 42.46533 185.8886 43.50928 "
   id="path6444"
   transform="matrix(0.100235,-0.612803,0.604908,9.894416e-2,-45.0161,133.9729)"
   sodipodi:nodetypes="cc" /></g><g
   id="g6445"
   transform="matrix(-0.134063,-0.990973,0.990973,-0.134063,-11.89367,39.97605)"><path
   style="font-size:12;fill:none;fill-rule:evenodd;stroke:#000000;"
   d="M 187.6375 61.73 C 169.318 44.64982 186.7364 42.82987 186.838 43.4588 "
   id="path6446"
   transform="matrix(0.100235,-0.612803,0.604908,9.894416e-2,-45.0161,133.9729)"
   sodipodi:nodetypes="cc" /><path
   style="font-size:12;fill:none;fill-rule:evenodd;stroke:#000000;stroke-width:0.999953;"
   d="M 187.0156 61.62311 C 205.3334 44.54293 187.1224 42.46533 185.8886 43.50928 "
   id="path6447"
   transform="matrix(0.100235,-0.612803,0.604908,9.894416e-2,-45.0161,133.9729)"
   sodipodi:nodetypes="cc" /></g></g></g><g
   id="g6448"
   transform="translate(0.759349,-0.445542)"><g
   id="g6449"
   transform="matrix(0.620947,0,0,0.612946,-77.53062,-12.92154)"
   style="font-size:12;"><g
   id="g6450"><path
   style="font-size:12;fill:none;fill-rule:evenodd;stroke:#000000;"
   d="M 187.6375 61.73 C 169.318 44.64982 192.9775 41.21452 192.9775 41.21452 L 173.7657 40.9149 C 173.7657 40.9149 187.523 36.88505 183.1942 37.71444 C 178.8656 38.54391 179.1026 38.89966 178.8656 38.54391 C 178.6284 38.1881 170.9793 37.89034 177.6799 36.7648 C 184.3805 35.63924 184.3805 35.63924 184.3805 35.63924 L 184.3805 35.63924 L 184.3805 35.63924 "
   id="path6451" /><path
   style="font-size:12;fill:none;fill-rule:evenodd;stroke:#000000;stroke-width:0.999953;"
   d="M 187.0156 61.62311 C 205.3334 44.54293 181.6761 41.10763 181.6761 41.10763 L 200.8861 40.80801 C 200.8861 40.80801 187.1301 36.77816 191.4585 37.60755 C 195.7867 38.43702 195.5497 38.79277 195.7867 38.43702 C 196.0239 38.08121 203.6722 37.78345 196.9723 36.65791 C 190.2723 35.53235 190.2723 35.53235 190.2723 35.53235 L 190.2723 35.53235 L 190.2723 35.53235 "
   id="path6452" /></g><g
   id="g6453"
   transform="matrix(-1,0,0,1,374.6518,0)"><path
   style="font-size:12;fill:none;fill-rule:evenodd;stroke:#000000;"
   d="M 187.6375 61.73 C 169.318 44.64982 192.9775 41.21452 192.9775 41.21452 L 173.7657 40.9149 C 173.7657 40.9149 187.523 36.88505 183.1942 37.71444 C 178.8656 38.54391 179.1026 38.89966 178.8656 38.54391 C 178.6284 38.1881 170.9793 37.89034 177.6799 36.7648 C 184.3805 35.63924 184.3805 35.63924 184.3805 35.63924 L 184.3805 35.63924 L 184.3805 35.63924 "
   id="path6454" /><path
   style="font-size:12;fill:none;fill-rule:evenodd;stroke:#000000;stroke-width:0.999953;"
   d="M 187.0156 61.62311 C 205.3334 44.54293 181.6761 41.10763 181.6761 41.10763 L 200.8861 40.80801 C 200.8861 40.80801 187.1301 36.77816 191.4585 37.60755 C 195.7867 38.43702 195.5497 38.79277 195.7867 38.43702 C 196.0239 38.08121 203.6722 37.78345 196.9723 36.65791 C 190.2723 35.53235 190.2723 35.53235 190.2723 35.53235 L 190.2723 35.53235 L 190.2723 35.53235 "
   id="path6455" /></g><g
   id="g6456"
   transform="matrix(-0.217597,-2.976814e-17,2.664706e-17,-0.243084,228.0607,48.61383)"><path
   style="font-size:12;fill:none;fill-rule:evenodd;stroke:#000000;"
   d="M 187.6375 61.73 C 169.318 44.64982 192.9775 41.21452 192.9775 41.21452 L 173.7657 40.9149 C 173.7657 40.9149 187.523 36.88505 183.1942 37.71444 C 178.8656 38.54391 179.1026 38.89966 178.8656 38.54391 C 178.6284 38.1881 170.9793 37.89034 177.6799 36.7648 C 184.3805 35.63924 184.3805 35.63924 184.3805 35.63924 L 184.3805 35.63924 L 184.3805 35.63924 "
   id="path6457" /><path
   style="font-size:12;fill:none;fill-rule:evenodd;stroke:#000000;stroke-width:0.999953;"
   d="M 187.0156 61.62311 C 205.3334 44.54293 181.6761 41.10763 181.6761 41.10763 L 200.8861 40.80801 C 200.8861 40.80801 187.1301 36.77816 191.4585 37.60755 C 195.7867 38.43702 195.5497 38.79277 195.7867 38.43702 C 196.0239 38.08121 203.6722 37.78345 196.9723 36.65791 C 190.2723 35.53235 190.2723 35.53235 190.2723 35.53235 L 190.2723 35.53235 L 190.2723 35.53235 "
   id="path6458" /></g></g><g
   id="g6459"
   transform="matrix(0.999829,-1.849385e-2,1.849385e-2,0.999829,26.44402,0.975475)"><g
   id="g6460"><path
   style="font-size:12;fill:none;fill-rule:evenodd;stroke:#000000;"
   d="M 187.6375 61.73 C 169.318 44.64982 186.7364 42.82987 186.838 43.4588 "
   id="path6461"
   transform="matrix(0.100235,-0.612803,0.604908,9.894416e-2,-45.0161,133.9729)"
   sodipodi:nodetypes="cc" /><path
   style="font-size:12;fill:none;fill-rule:evenodd;stroke:#000000;stroke-width:0.999953;"
   d="M 187.0156 61.62311 C 205.3334 44.54293 187.1224 42.46533 185.8886 43.50928 "
   id="path6462"
   transform="matrix(0.100235,-0.612803,0.604908,9.894416e-2,-45.0161,133.9729)"
   sodipodi:nodetypes="cc" /></g><g
   id="g6463"
   transform="matrix(-0.970244,0.242131,-0.242131,-0.970244,29.14801,47.12188)"><path
   style="font-size:12;fill:none;fill-rule:evenodd;stroke:#000000;"
   d="M 187.6375 61.73 C 169.318 44.64982 186.7364 42.82987 186.838 43.4588 "
   id="path6464"
   transform="matrix(0.100235,-0.612803,0.604908,9.894416e-2,-45.0161,133.9729)"
   sodipodi:nodetypes="cc" /><path
   style="font-size:12;fill:none;fill-rule:evenodd;stroke:#000000;stroke-width:0.999953;"
   d="M 187.0156 61.62311 C 205.3334 44.54293 187.1224 42.46533 185.8886 43.50928 "
   id="path6465"
   transform="matrix(0.100235,-0.612803,0.604908,9.894416e-2,-45.0161,133.9729)"
   sodipodi:nodetypes="cc" /></g><g
   id="g6466"
   transform="matrix(-0.134063,-0.990973,0.990973,-0.134063,-11.89367,39.97605)"><path
   style="font-size:12;fill:none;fill-rule:evenodd;stroke:#000000;"
   d="M 187.6375 61.73 C 169.318 44.64982 186.7364 42.82987 186.838 43.4588 "
   id="path6467"
   transform="matrix(0.100235,-0.612803,0.604908,9.894416e-2,-45.0161,133.9729)"
   sodipodi:nodetypes="cc" /><path
   style="font-size:12;fill:none;fill-rule:evenodd;stroke:#000000;stroke-width:0.999953;"
   d="M 187.0156 61.62311 C 205.3334 44.54293 187.1224 42.46533 185.8886 43.50928 "
   id="path6468"
   transform="matrix(0.100235,-0.612803,0.604908,9.894416e-2,-45.0161,133.9729)"
   sodipodi:nodetypes="cc" /></g></g></g></g><g
   id="g6469"
   transform="translate(328.4874,-1.581741)"
   style="font-size:12;"><g
   id="g6470"
   transform="translate(6.389873e-2,-3.466606e-3)"><g
   id="g6471"
   transform="matrix(0.620947,0,0,0.612946,-104.5224,-13.36362)"
   style="font-size:12;"><g
   id="g6472"><path
   style="font-size:12;fill:none;fill-rule:evenodd;stroke:#000000;"
   d="M 187.6375 61.73 C 169.318 44.64982 192.9775 41.21452 192.9775 41.21452 L 173.7657 40.9149 C 173.7657 40.9149 187.523 36.88505 183.1942 37.71444 C 178.8656 38.54391 179.1026 38.89966 178.8656 38.54391 C 178.6284 38.1881 170.9793 37.89034 177.6799 36.7648 C 184.3805 35.63924 184.3805 35.63924 184.3805 35.63924 L 184.3805 35.63924 L 184.3805 35.63924 "
   id="path6473" /><path
   style="font-size:12;fill:none;fill-rule:evenodd;stroke:#000000;stroke-width:0.999953;"
   d="M 187.0156 61.62311 C 205.3334 44.54293 181.6761 41.10763 181.6761 41.10763 L 200.8861 40.80801 C 200.8861 40.80801 187.1301 36.77816 191.4585 37.60755 C 195.7867 38.43702 195.5497 38.79277 195.7867 38.43702 C 196.0239 38.08121 203.6722 37.78345 196.9723 36.65791 C 190.2723 35.53235 190.2723 35.53235 190.2723 35.53235 L 190.2723 35.53235 L 190.2723 35.53235 "
   id="path6474" /></g><g
   id="g6475"
   transform="matrix(-1,0,0,1,374.6518,0)"><path
   style="font-size:12;fill:none;fill-rule:evenodd;stroke:#000000;"
   d="M 187.6375 61.73 C 169.318 44.64982 192.9775 41.21452 192.9775 41.21452 L 173.7657 40.9149 C 173.7657 40.9149 187.523 36.88505 183.1942 37.71444 C 178.8656 38.54391 179.1026 38.89966 178.8656 38.54391 C 178.6284 38.1881 170.9793 37.89034 177.6799 36.7648 C 184.3805 35.63924 184.3805 35.63924 184.3805 35.63924 L 184.3805 35.63924 L 184.3805 35.63924 "
   id="path6476" /><path
   style="font-size:12;fill:none;fill-rule:evenodd;stroke:#000000;stroke-width:0.999953;"
   d="M 187.0156 61.62311 C 205.3334 44.54293 181.6761 41.10763 181.6761 41.10763 L 200.8861 40.80801 C 200.8861 40.80801 187.1301 36.77816 191.4585 37.60755 C 195.7867 38.43702 195.5497 38.79277 195.7867 38.43702 C 196.0239 38.08121 203.6722 37.78345 196.9723 36.65791 C 190.2723 35.53235 190.2723 35.53235 190.2723 35.53235 L 190.2723 35.53235 L 190.2723 35.53235 "
   id="path6477" /></g><g
   id="g6478"
   transform="matrix(-0.217597,-2.976814e-17,2.664706e-17,-0.243084,228.0607,48.61383)"><path
   style="font-size:12;fill:none;fill-rule:evenodd;stroke:#000000;"
   d="M 187.6375 61.73 C 169.318 44.64982 192.9775 41.21452 192.9775 41.21452 L 173.7657 40.9149 C 173.7657 40.9149 187.523 36.88505 183.1942 37.71444 C 178.8656 38.54391 179.1026 38.89966 178.8656 38.54391 C 178.6284 38.1881 170.9793 37.89034 177.6799 36.7648 C 184.3805 35.63924 184.3805 35.63924 184.3805 35.63924 L 184.3805 35.63924 L 184.3805 35.63924 "
   id="path6479" /><path
   style="font-size:12;fill:none;fill-rule:evenodd;stroke:#000000;stroke-width:0.999953;"
   d="M 187.0156 61.62311 C 205.3334 44.54293 181.6761 41.10763 181.6761 41.10763 L 200.8861 40.80801 C 200.8861 40.80801 187.1301 36.77816 191.4585 37.60755 C 195.7867 38.43702 195.5497 38.79277 195.7867 38.43702 C 196.0239 38.08121 203.6722 37.78345 196.9723 36.65791 C 190.2723 35.53235 190.2723 35.53235 190.2723 35.53235 L 190.2723 35.53235 L 190.2723 35.53235 "
   id="path6480" /></g></g><g
   id="g6481"
   transform="matrix(0.999829,-1.849385e-2,1.849385e-2,0.999829,-0.360528,0.5334)"><g
   id="g6482"><path
   style="font-size:12;fill:none;fill-rule:evenodd;stroke:#000000;"
   d="M 187.6375 61.73 C 169.318 44.64982 186.7364 42.82987 186.838 43.4588 "
   id="path6483"
   transform="matrix(0.100235,-0.612803,0.604908,9.894416e-2,-45.0161,133.9729)"
   sodipodi:nodetypes="cc" /><path
   style="font-size:12;fill:none;fill-rule:evenodd;stroke:#000000;stroke-width:0.999953;"
   d="M 187.0156 61.62311 C 205.3334 44.54293 187.1224 42.46533 185.8886 43.50928 "
   id="path6484"
   transform="matrix(0.100235,-0.612803,0.604908,9.894416e-2,-45.0161,133.9729)"
   sodipodi:nodetypes="cc" /></g><g
   id="g6485"
   transform="matrix(-0.970244,0.242131,-0.242131,-0.970244,29.14801,47.12188)"><path
   style="font-size:12;fill:none;fill-rule:evenodd;stroke:#000000;"
   d="M 187.6375 61.73 C 169.318 44.64982 186.7364 42.82987 186.838 43.4588 "
   id="path6486"
   transform="matrix(0.100235,-0.612803,0.604908,9.894416e-2,-45.0161,133.9729)"
   sodipodi:nodetypes="cc" /><path
   style="font-size:12;fill:none;fill-rule:evenodd;stroke:#000000;stroke-width:0.999953;"
   d="M 187.0156 61.62311 C 205.3334 44.54293 187.1224 42.46533 185.8886 43.50928 "
   id="path6487"
   transform="matrix(0.100235,-0.612803,0.604908,9.894416e-2,-45.0161,133.9729)"
   sodipodi:nodetypes="cc" /></g><g
   id="g6488"
   transform="matrix(-0.134063,-0.990973,0.990973,-0.134063,-11.89367,39.97605)"><path
   style="font-size:12;fill:none;fill-rule:evenodd;stroke:#000000;"
   d="M 187.6375 61.73 C 169.318 44.64982 186.7364 42.82987 186.838 43.4588 "
   id="path6489"
   transform="matrix(0.100235,-0.612803,0.604908,9.894416e-2,-45.0161,133.9729)"
   sodipodi:nodetypes="cc" /><path
   style="font-size:12;fill:none;fill-rule:evenodd;stroke:#000000;stroke-width:0.999953;"
   d="M 187.0156 61.62311 C 205.3334 44.54293 187.1224 42.46533 185.8886 43.50928 "
   id="path6490"
   transform="matrix(0.100235,-0.612803,0.604908,9.894416e-2,-45.0161,133.9729)"
   sodipodi:nodetypes="cc" /></g></g></g><g
   id="g6491"
   transform="translate(0.759349,-0.445542)"><g
   id="g6492"
   transform="matrix(0.620947,0,0,0.612946,-77.53062,-12.92154)"
   style="font-size:12;"><g
   id="g6493"><path
   style="font-size:12;fill:none;fill-rule:evenodd;stroke:#000000;"
   d="M 187.6375 61.73 C 169.318 44.64982 192.9775 41.21452 192.9775 41.21452 L 173.7657 40.9149 C 173.7657 40.9149 187.523 36.88505 183.1942 37.71444 C 178.8656 38.54391 179.1026 38.89966 178.8656 38.54391 C 178.6284 38.1881 170.9793 37.89034 177.6799 36.7648 C 184.3805 35.63924 184.3805 35.63924 184.3805 35.63924 L 184.3805 35.63924 L 184.3805 35.63924 "
   id="path6494" /><path
   style="font-size:12;fill:none;fill-rule:evenodd;stroke:#000000;stroke-width:0.999953;"
   d="M 187.0156 61.62311 C 205.3334 44.54293 181.6761 41.10763 181.6761 41.10763 L 200.8861 40.80801 C 200.8861 40.80801 187.1301 36.77816 191.4585 37.60755 C 195.7867 38.43702 195.5497 38.79277 195.7867 38.43702 C 196.0239 38.08121 203.6722 37.78345 196.9723 36.65791 C 190.2723 35.53235 190.2723 35.53235 190.2723 35.53235 L 190.2723 35.53235 L 190.2723 35.53235 "
   id="path6495" /></g><g
   id="g6496"
   transform="matrix(-1,0,0,1,374.6518,0)"><path
   style="font-size:12;fill:none;fill-rule:evenodd;stroke:#000000;"
   d="M 187.6375 61.73 C 169.318 44.64982 192.9775 41.21452 192.9775 41.21452 L 173.7657 40.9149 C 173.7657 40.9149 187.523 36.88505 183.1942 37.71444 C 178.8656 38.54391 179.1026 38.89966 178.8656 38.54391 C 178.6284 38.1881 170.9793 37.89034 177.6799 36.7648 C 184.3805 35.63924 184.3805 35.63924 184.3805 35.63924 L 184.3805 35.63924 L 184.3805 35.63924 "
   id="path6497" /><path
   style="font-size:12;fill:none;fill-rule:evenodd;stroke:#000000;stroke-width:0.999953;"
   d="M 187.0156 61.62311 C 205.3334 44.54293 181.6761 41.10763 181.6761 41.10763 L 200.8861 40.80801 C 200.8861 40.80801 187.1301 36.77816 191.4585 37.60755 C 195.7867 38.43702 195.5497 38.79277 195.7867 38.43702 C 196.0239 38.08121 203.6722 37.78345 196.9723 36.65791 C 190.2723 35.53235 190.2723 35.53235 190.2723 35.53235 L 190.2723 35.53235 L 190.2723 35.53235 "
   id="path6498" /></g><g
   id="g6499"
   transform="matrix(-0.217597,-2.976814e-17,2.664706e-17,-0.243084,228.0607,48.61383)"><path
   style="font-size:12;fill:none;fill-rule:evenodd;stroke:#000000;"
   d="M 187.6375 61.73 C 169.318 44.64982 192.9775 41.21452 192.9775 41.21452 L 173.7657 40.9149 C 173.7657 40.9149 187.523 36.88505 183.1942 37.71444 C 178.8656 38.54391 179.1026 38.89966 178.8656 38.54391 C 178.6284 38.1881 170.9793 37.89034 177.6799 36.7648 C 184.3805 35.63924 184.3805 35.63924 184.3805 35.63924 L 184.3805 35.63924 L 184.3805 35.63924 "
   id="path6500" /><path
   style="font-size:12;fill:none;fill-rule:evenodd;stroke:#000000;stroke-width:0.999953;"
   d="M 187.0156 61.62311 C 205.3334 44.54293 181.6761 41.10763 181.6761 41.10763 L 200.8861 40.80801 C 200.8861 40.80801 187.1301 36.77816 191.4585 37.60755 C 195.7867 38.43702 195.5497 38.79277 195.7867 38.43702 C 196.0239 38.08121 203.6722 37.78345 196.9723 36.65791 C 190.2723 35.53235 190.2723 35.53235 190.2723 35.53235 L 190.2723 35.53235 L 190.2723 35.53235 "
   id="path6501" /></g></g><g
   id="g6502"
   transform="matrix(0.999829,-1.849385e-2,1.849385e-2,0.999829,26.44402,0.975475)"><g
   id="g6503"><path
   style="font-size:12;fill:none;fill-rule:evenodd;stroke:#000000;"
   d="M 187.6375 61.73 C 169.318 44.64982 186.7364 42.82987 186.838 43.4588 "
   id="path6504"
   transform="matrix(0.100235,-0.612803,0.604908,9.894416e-2,-45.0161,133.9729)"
   sodipodi:nodetypes="cc" /><path
   style="font-size:12;fill:none;fill-rule:evenodd;stroke:#000000;stroke-width:0.999953;"
   d="M 187.0156 61.62311 C 205.3334 44.54293 187.1224 42.46533 185.8886 43.50928 "
   id="path6505"
   transform="matrix(0.100235,-0.612803,0.604908,9.894416e-2,-45.0161,133.9729)"
   sodipodi:nodetypes="cc" /></g><g
   id="g6506"
   transform="matrix(-0.970244,0.242131,-0.242131,-0.970244,29.14801,47.12188)"><path
   style="font-size:12;fill:none;fill-rule:evenodd;stroke:#000000;"
   d="M 187.6375 61.73 C 169.318 44.64982 186.7364 42.82987 186.838 43.4588 "
   id="path6507"
   transform="matrix(0.100235,-0.612803,0.604908,9.894416e-2,-45.0161,133.9729)"
   sodipodi:nodetypes="cc" /><path
   style="font-size:12;fill:none;fill-rule:evenodd;stroke:#000000;stroke-width:0.999953;"
   d="M 187.0156 61.62311 C 205.3334 44.54293 187.1224 42.46533 185.8886 43.50928 "
   id="path6508"
   transform="matrix(0.100235,-0.612803,0.604908,9.894416e-2,-45.0161,133.9729)"
   sodipodi:nodetypes="cc" /></g><g
   id="g6509"
   transform="matrix(-0.134063,-0.990973,0.990973,-0.134063,-11.89367,39.97605)"><path
   style="font-size:12;fill:none;fill-rule:evenodd;stroke:#000000;"
   d="M 187.6375 61.73 C 169.318 44.64982 186.7364 42.82987 186.838 43.4588 "
   id="path6510"
   transform="matrix(0.100235,-0.612803,0.604908,9.894416e-2,-45.0161,133.9729)"
   sodipodi:nodetypes="cc" /><path
   style="font-size:12;fill:none;fill-rule:evenodd;stroke:#000000;stroke-width:0.999953;"
   d="M 187.0156 61.62311 C 205.3334 44.54293 187.1224 42.46533 185.8886 43.50928 "
   id="path6511"
   transform="matrix(0.100235,-0.612803,0.604908,9.894416e-2,-45.0161,133.9729)"
   sodipodi:nodetypes="cc" /></g></g></g></g><g
   id="g6512"
   transform="translate(383.4874,-1.581741)"
   style="font-size:12;"><g
   id="g6513"
   transform="translate(6.389873e-2,-3.466606e-3)"><g
   id="g6514"
   transform="matrix(0.620947,0,0,0.612946,-104.5224,-13.36362)"
   style="font-size:12;"><g
   id="g6515"><path
   style="font-size:12;fill:none;fill-rule:evenodd;stroke:#000000;"
   d="M 187.6375 61.73 C 169.318 44.64982 192.9775 41.21452 192.9775 41.21452 L 173.7657 40.9149 C 173.7657 40.9149 187.523 36.88505 183.1942 37.71444 C 178.8656 38.54391 179.1026 38.89966 178.8656 38.54391 C 178.6284 38.1881 170.9793 37.89034 177.6799 36.7648 C 184.3805 35.63924 184.3805 35.63924 184.3805 35.63924 L 184.3805 35.63924 L 184.3805 35.63924 "
   id="path6516" /><path
   style="font-size:12;fill:none;fill-rule:evenodd;stroke:#000000;stroke-width:0.999953;"
   d="M 187.0156 61.62311 C 205.3334 44.54293 181.6761 41.10763 181.6761 41.10763 L 200.8861 40.80801 C 200.8861 40.80801 187.1301 36.77816 191.4585 37.60755 C 195.7867 38.43702 195.5497 38.79277 195.7867 38.43702 C 196.0239 38.08121 203.6722 37.78345 196.9723 36.65791 C 190.2723 35.53235 190.2723 35.53235 190.2723 35.53235 L 190.2723 35.53235 L 190.2723 35.53235 "
   id="path6517" /></g><g
   id="g6518"
   transform="matrix(-1,0,0,1,374.6518,0)"><path
   style="font-size:12;fill:none;fill-rule:evenodd;stroke:#000000;"
   d="M 187.6375 61.73 C 169.318 44.64982 192.9775 41.21452 192.9775 41.21452 L 173.7657 40.9149 C 173.7657 40.9149 187.523 36.88505 183.1942 37.71444 C 178.8656 38.54391 179.1026 38.89966 178.8656 38.54391 C 178.6284 38.1881 170.9793 37.89034 177.6799 36.7648 C 184.3805 35.63924 184.3805 35.63924 184.3805 35.63924 L 184.3805 35.63924 L 184.3805 35.63924 "
   id="path6519" /><path
   style="font-size:12;fill:none;fill-rule:evenodd;stroke:#000000;stroke-width:0.999953;"
   d="M 187.0156 61.62311 C 205.3334 44.54293 181.6761 41.10763 181.6761 41.10763 L 200.8861 40.80801 C 200.8861 40.80801 187.1301 36.77816 191.4585 37.60755 C 195.7867 38.43702 195.5497 38.79277 195.7867 38.43702 C 196.0239 38.08121 203.6722 37.78345 196.9723 36.65791 C 190.2723 35.53235 190.2723 35.53235 190.2723 35.53235 L 190.2723 35.53235 L 190.2723 35.53235 "
   id="path6520" /></g><g
   id="g6521"
   transform="matrix(-0.217597,-2.976814e-17,2.664706e-17,-0.243084,228.0607,48.61383)"><path
   style="font-size:12;fill:none;fill-rule:evenodd;stroke:#000000;"
   d="M 187.6375 61.73 C 169.318 44.64982 192.9775 41.21452 192.9775 41.21452 L 173.7657 40.9149 C 173.7657 40.9149 187.523 36.88505 183.1942 37.71444 C 178.8656 38.54391 179.1026 38.89966 178.8656 38.54391 C 178.6284 38.1881 170.9793 37.89034 177.6799 36.7648 C 184.3805 35.63924 184.3805 35.63924 184.3805 35.63924 L 184.3805 35.63924 L 184.3805 35.63924 "
   id="path6522" /><path
   style="font-size:12;fill:none;fill-rule:evenodd;stroke:#000000;stroke-width:0.999953;"
   d="M 187.0156 61.62311 C 205.3334 44.54293 181.6761 41.10763 181.6761 41.10763 L 200.8861 40.80801 C 200.8861 40.80801 187.1301 36.77816 191.4585 37.60755 C 195.7867 38.43702 195.5497 38.79277 195.7867 38.43702 C 196.0239 38.08121 203.6722 37.78345 196.9723 36.65791 C 190.2723 35.53235 190.2723 35.53235 190.2723 35.53235 L 190.2723 35.53235 L 190.2723 35.53235 "
   id="path6523" /></g></g><g
   id="g6524"
   transform="matrix(0.999829,-1.849385e-2,1.849385e-2,0.999829,-0.360528,0.5334)"><g
   id="g6525"><path
   style="font-size:12;fill:none;fill-rule:evenodd;stroke:#000000;"
   d="M 187.6375 61.73 C 169.318 44.64982 186.7364 42.82987 186.838 43.4588 "
   id="path6526"
   transform="matrix(0.100235,-0.612803,0.604908,9.894416e-2,-45.0161,133.9729)"
   sodipodi:nodetypes="cc" /><path
   style="font-size:12;fill:none;fill-rule:evenodd;stroke:#000000;stroke-width:0.999953;"
   d="M 187.0156 61.62311 C 205.3334 44.54293 187.1224 42.46533 185.8886 43.50928 "
   id="path6527"
   transform="matrix(0.100235,-0.612803,0.604908,9.894416e-2,-45.0161,133.9729)"
   sodipodi:nodetypes="cc" /></g><g
   id="g6528"
   transform="matrix(-0.970244,0.242131,-0.242131,-0.970244,29.14801,47.12188)"><path
   style="font-size:12;fill:none;fill-rule:evenodd;stroke:#000000;"
   d="M 187.6375 61.73 C 169.318 44.64982 186.7364 42.82987 186.838 43.4588 "
   id="path6529"
   transform="matrix(0.100235,-0.612803,0.604908,9.894416e-2,-45.0161,133.9729)"
   sodipodi:nodetypes="cc" /><path
   style="font-size:12;fill:none;fill-rule:evenodd;stroke:#000000;stroke-width:0.999953;"
   d="M 187.0156 61.62311 C 205.3334 44.54293 187.1224 42.46533 185.8886 43.50928 "
   id="path6530"
   transform="matrix(0.100235,-0.612803,0.604908,9.894416e-2,-45.0161,133.9729)"
   sodipodi:nodetypes="cc" /></g><g
   id="g6531"
   transform="matrix(-0.134063,-0.990973,0.990973,-0.134063,-11.89367,39.97605)"><path
   style="font-size:12;fill:none;fill-rule:evenodd;stroke:#000000;"
   d="M 187.6375 61.73 C 169.318 44.64982 186.7364 42.82987 186.838 43.4588 "
   id="path6532"
   transform="matrix(0.100235,-0.612803,0.604908,9.894416e-2,-45.0161,133.9729)"
   sodipodi:nodetypes="cc" /><path
   style="font-size:12;fill:none;fill-rule:evenodd;stroke:#000000;stroke-width:0.999953;"
   d="M 187.0156 61.62311 C 205.3334 44.54293 187.1224 42.46533 185.8886 43.50928 "
   id="path6533"
   transform="matrix(0.100235,-0.612803,0.604908,9.894416e-2,-45.0161,133.9729)"
   sodipodi:nodetypes="cc" /></g></g></g><g
   id="g6534"
   transform="translate(0.759349,-0.445542)"><g
   id="g6535"
   transform="matrix(0.620947,0,0,0.612946,-77.53062,-12.92154)"
   style="font-size:12;"><g
   id="g6536"><path
   style="font-size:12;fill:none;fill-rule:evenodd;stroke:#000000;"
   d="M 187.6375 61.73 C 169.318 44.64982 192.9775 41.21452 192.9775 41.21452 L 173.7657 40.9149 C 173.7657 40.9149 187.523 36.88505 183.1942 37.71444 C 178.8656 38.54391 179.1026 38.89966 178.8656 38.54391 C 178.6284 38.1881 170.9793 37.89034 177.6799 36.7648 C 184.3805 35.63924 184.3805 35.63924 184.3805 35.63924 L 184.3805 35.63924 L 184.3805 35.63924 "
   id="path6537" /><path
   style="font-size:12;fill:none;fill-rule:evenodd;stroke:#000000;stroke-width:0.999953;"
   d="M 187.0156 61.62311 C 205.3334 44.54293 181.6761 41.10763 181.6761 41.10763 L 200.8861 40.80801 C 200.8861 40.80801 187.1301 36.77816 191.4585 37.60755 C 195.7867 38.43702 195.5497 38.79277 195.7867 38.43702 C 196.0239 38.08121 203.6722 37.78345 196.9723 36.65791 C 190.2723 35.53235 190.2723 35.53235 190.2723 35.53235 L 190.2723 35.53235 L 190.2723 35.53235 "
   id="path6538" /></g><g
   id="g6539"
   transform="matrix(-1,0,0,1,374.6518,0)"><path
   style="font-size:12;fill:none;fill-rule:evenodd;stroke:#000000;"
   d="M 187.6375 61.73 C 169.318 44.64982 192.9775 41.21452 192.9775 41.21452 L 173.7657 40.9149 C 173.7657 40.9149 187.523 36.88505 183.1942 37.71444 C 178.8656 38.54391 179.1026 38.89966 178.8656 38.54391 C 178.6284 38.1881 170.9793 37.89034 177.6799 36.7648 C 184.3805 35.63924 184.3805 35.63924 184.3805 35.63924 L 184.3805 35.63924 L 184.3805 35.63924 "
   id="path6540" /><path
   style="font-size:12;fill:none;fill-rule:evenodd;stroke:#000000;stroke-width:0.999953;"
   d="M 187.0156 61.62311 C 205.3334 44.54293 181.6761 41.10763 181.6761 41.10763 L 200.8861 40.80801 C 200.8861 40.80801 187.1301 36.77816 191.4585 37.60755 C 195.7867 38.43702 195.5497 38.79277 195.7867 38.43702 C 196.0239 38.08121 203.6722 37.78345 196.9723 36.65791 C 190.2723 35.53235 190.2723 35.53235 190.2723 35.53235 L 190.2723 35.53235 L 190.2723 35.53235 "
   id="path6541" /></g><g
   id="g6542"
   transform="matrix(-0.217597,-2.976814e-17,2.664706e-17,-0.243084,228.0607,48.61383)"><path
   style="font-size:12;fill:none;fill-rule:evenodd;stroke:#000000;"
   d="M 187.6375 61.73 C 169.318 44.64982 192.9775 41.21452 192.9775 41.21452 L 173.7657 40.9149 C 173.7657 40.9149 187.523 36.88505 183.1942 37.71444 C 178.8656 38.54391 179.1026 38.89966 178.8656 38.54391 C 178.6284 38.1881 170.9793 37.89034 177.6799 36.7648 C 184.3805 35.63924 184.3805 35.63924 184.3805 35.63924 L 184.3805 35.63924 L 184.3805 35.63924 "
   id="path6543" /><path
   style="font-size:12;fill:none;fill-rule:evenodd;stroke:#000000;stroke-width:0.999953;"
   d="M 187.0156 61.62311 C 205.3334 44.54293 181.6761 41.10763 181.6761 41.10763 L 200.8861 40.80801 C 200.8861 40.80801 187.1301 36.77816 191.4585 37.60755 C 195.7867 38.43702 195.5497 38.79277 195.7867 38.43702 C 196.0239 38.08121 203.6722 37.78345 196.9723 36.65791 C 190.2723 35.53235 190.2723 35.53235 190.2723 35.53235 L 190.2723 35.53235 L 190.2723 35.53235 "
   id="path6544" /></g></g><g
   id="g6545"
   transform="matrix(0.999829,-1.849385e-2,1.849385e-2,0.999829,26.44402,0.975475)"><g
   id="g6546"><path
   style="font-size:12;fill:none;fill-rule:evenodd;stroke:#000000;"
   d="M 187.6375 61.73 C 169.318 44.64982 186.7364 42.82987 186.838 43.4588 "
   id="path6547"
   transform="matrix(0.100235,-0.612803,0.604908,9.894416e-2,-45.0161,133.9729)"
   sodipodi:nodetypes="cc" /><path
   style="font-size:12;fill:none;fill-rule:evenodd;stroke:#000000;stroke-width:0.999953;"
   d="M 187.0156 61.62311 C 205.3334 44.54293 187.1224 42.46533 185.8886 43.50928 "
   id="path6548"
   transform="matrix(0.100235,-0.612803,0.604908,9.894416e-2,-45.0161,133.9729)"
   sodipodi:nodetypes="cc" /></g><g
   id="g6549"
   transform="matrix(-0.970244,0.242131,-0.242131,-0.970244,29.14801,47.12188)"><path
   style="font-size:12;fill:none;fill-rule:evenodd;stroke:#000000;"
   d="M 187.6375 61.73 C 169.318 44.64982 186.7364 42.82987 186.838 43.4588 "
   id="path6550"
   transform="matrix(0.100235,-0.612803,0.604908,9.894416e-2,-45.0161,133.9729)"
   sodipodi:nodetypes="cc" /><path
   style="font-size:12;fill:none;fill-rule:evenodd;stroke:#000000;stroke-width:0.999953;"
   d="M 187.0156 61.62311 C 205.3334 44.54293 187.1224 42.46533 185.8886 43.50928 "
   id="path6551"
   transform="matrix(0.100235,-0.612803,0.604908,9.894416e-2,-45.0161,133.9729)"
   sodipodi:nodetypes="cc" /></g><g
   id="g6552"
   transform="matrix(-0.134063,-0.990973,0.990973,-0.134063,-11.89367,39.97605)"><path
   style="font-size:12;fill:none;fill-rule:evenodd;stroke:#000000;"
   d="M 187.6375 61.73 C 169.318 44.64982 186.7364 42.82987 186.838 43.4588 "
   id="path6553"
   transform="matrix(0.100235,-0.612803,0.604908,9.894416e-2,-45.0161,133.9729)"
   sodipodi:nodetypes="cc" /><path
   style="font-size:12;fill:none;fill-rule:evenodd;stroke:#000000;stroke-width:0.999953;"
   d="M 187.0156 61.62311 C 205.3334 44.54293 187.1224 42.46533 185.8886 43.50928 "
   id="path6554"
   transform="matrix(0.100235,-0.612803,0.604908,9.894416e-2,-45.0161,133.9729)"
   sodipodi:nodetypes="cc" /></g></g></g></g></g></g></svg>
