<svg xmlns="http://www.w3.org/2000/svg" width="25" height="25" viewBox="0 0 25 25">
  <path fill-rule="evenodd" d="M13.2071068,12.5 L16.6012193,15.8941125 C16.6793242,15.9722174 16.6793242,16.0988504 16.6012193,16.1769553 L16.1769553,16.6012193 C16.0988504,16.6793242 15.9722174,16.6793242 15.8941125,16.6012193 L12.5,13.2071068 L9.10588745,16.6012193 C9.02778259,16.6793242 8.9011496,16.6793242 8.82304474,16.6012193 L8.39878067,16.1769553 C8.32067581,16.0988504 8.32067581,15.9722174 8.39878067,15.8941125 L11.7928932,12.5 L8.39878067,9.10588745 C8.32067581,9.02778259 8.32067581,8.9011496 8.39878067,8.82304474 L8.82304474,8.39878067 C8.9011496,8.32067581 9.02778259,8.32067581 9.10588745,8.39878067 L12.5,11.7928932 L15.8941125,8.39878067 C15.9722174,8.32067581 16.0988504,8.32067581 16.1769553,8.39878067 L16.6012193,8.82304474 C16.6793242,8.9011496 16.6793242,9.02778259 16.6012193,9.10588745 L13.2071068,12.5 Z M12.5,25 C5.59644063,25 0,19.4035594 0,12.5 C0,5.59644063 5.59644063,0 12.5,0 C19.4035594,0 25,5.59644063 25,12.5 C25,19.4035594 19.4035594,25 12.5,25 Z M12.5,24 C18.8512746,24 24,18.8512746 24,12.5 C24,6.14872538 18.8512746,1 12.5,1 C6.14872538,1 1,6.14872538 1,12.5 C1,18.8512746 6.14872538,24 12.5,24 Z"/>
</svg>
