<?xml version="1.0" encoding="UTF-8" standalone="no"?>
<svg viewBox="0 0 20 19" version="1.1" xmlns="http://www.w3.org/2000/svg" xmlns:xlink="http://www.w3.org/1999/xlink">
    <g stroke="none" stroke-width="1" fill-rule="evenodd">
        <g fill-rule="nonzero">
            <path d="M11,6 L11,14.8 C11,14.9104569 10.9104569,15 10.8,15 L9.2,15 C9.08954305,15 9,14.9104569 9,14.8 L9,6 L5.2,6 C5.08954305,6 5,5.91045695 5,5.8 L5,4.2 L5,4.2 C5,4.08954305 5.08954305,4 5.2,4 L5.2,4 L14.8,4 L14.8,4 C14.9104569,4 15,4.08954305 15,4.2 L15,5.8 C15,5.91045695 14.9104569,6 14.8,6 L11,6 Z M14,12 L13.2,12 C13.0895431,12 13,11.9104569 13,11.8 L13,11.2 C13,11.0895431 13.0895431,11 13.2,11 L14.8,11 C14.9104569,11 15,11.0895431 15,11.2 L15,14.8 C15,14.9104569 14.9104569,15 14.8,15 L14.2,15 C14.0895431,15 14,14.9104569 14,14.8 L14,12 Z"></path>
        </g>
    </g>
</svg>
