<?xml version="1.0" encoding="UTF-8" standalone="no"?>
<svg viewBox="0 0 20 19" version="1.1" xmlns="http://www.w3.org/2000/svg" xmlns:xlink="http://www.w3.org/1999/xlink">
    <defs></defs>
    <g stroke="none" stroke-width="1" fill-rule="evenodd">
        <g fill-rule="nonzero" >
            <path d="M10,8 L10,14.8 C10,14.9104569 9.91045695,15 9.8,15 L8.2,15 C8.08954305,15 8,14.9104569 8,14.8 L8,8 L5.2,8 C5.08954305,8 5,7.91045695 5,7.8 L5,6.2 L5,6.2 C5,6.08954305 5.08954305,6 5.2,6 L5.2,6 L12.8,6 L12.8,6 C12.9104569,6 13,6.08954305 13,6.2 L13,7.8 C13,7.91045695 12.9104569,8 12.8,8 L10,8 Z M12.2,14 L13,14 L13,13.2 C13,13.0895431 13.0895431,13 13.2,13 L14,13 L14,14 L14.8,14 C14.9104569,14 15,14.0895431 15,14.2 L15,14.8 C15,14.9104569 14.9104569,15 14.8,15 L12.2,15 C12.0895431,15 12,14.9104569 12,14.8 L12,14.2 C12,14.0895431 12.0895431,14 12.2,14 Z M12,11.8 L12,11.2 C12,11.0895431 12.0895431,11 12.2,11 L14.8,11 C14.9104569,11 15,11.0895431 15,11.2 L15,12.8 C15,12.9104569 14.9104569,13 14.8,13 L14,13 L14,12 L12.2,12 C12.0895431,12 12,11.9104569 12,11.8 Z"></path>
        </g>
    </g>
</svg>
