<?xml version="1.0" encoding="UTF-8" standalone="no"?>
<svg viewBox="0 0 19 19" version="1.1" xmlns="http://www.w3.org/2000/svg" xmlns:xlink="http://www.w3.org/1999/xlink">
    <g stroke="none" stroke-width="1" fill-rule="evenodd">
        <g fill-rule="nonzero">
            <path d="M10,6 L10,14.8 C10,14.9104569 9.91045695,15 9.8,15 L8.2,15 C8.08954305,15 8,14.9104569 8,14.8 L8,6 L4.2,6 C4.08954305,6 4,5.91045695 4,5.8 L4,4.2 L4,4.2 C4,4.08954305 4.08954305,4 4.2,4 L4.2,4 L13.8,4 L13.8,4 C13.9104569,4 14,4.08954305 14,4.2 L14,5.8 C14,5.91045695 13.9104569,6 13.8,6 L10,6 Z M14,12 L13.2,12 C13.0895431,12 13,11.9104569 13,11.8 L13,11.2 C13,11.0895431 13.0895431,11 13.2,11 L14.8,11 C14.9104569,11 15,11.0895431 15,11.2 L15,14.8 C15,14.9104569 14.9104569,15 14.8,15 L14.2,15 C14.0895431,15 14,14.9104569 14,14.8 L14,12 Z"></path>
        </g>
    </g>
</svg>
