<svg xmlns="http://www.w3.org/2000/svg" xmlns:xlink="http://www.w3.org/1999/xlink" viewBox="0 0 19 19">
    <defs>
        <path id="gallery-plugin-insert-path" d="M3 3h7a1 1 0 0 1 1 1v4a1 1 0 0 1-1 1H3a1 1 0 0 1-1-1V4a1 1 0 0 1 1-1zm0 1v4h7V4H3zm10-1h3a1 1 0 0 1 1 1v4a1 1 0 0 1-1 1h-3a1 1 0 0 1-1-1V4a1 1 0 0 1 1-1zm0 1v4h3V4h-3zM3 10h3a1 1 0 0 1 1 1v4a1 1 0 0 1-1 1H3a1 1 0 0 1-1-1v-4a1 1 0 0 1 1-1zm0 1v4h3v-4H3zm6-1h7a1 1 0 0 1 1 1v4a1 1 0 0 1-1 1H9a1 1 0 0 1-1-1v-4a1 1 0 0 1 1-1zm0 1v4h7v-4H9z"/>
    </defs>
    <g fill-rule="evenodd">
        <mask id="gallery-plugin-insert-mask">
            <use xlink:href="#gallery-plugin-insert-path"/>
        </mask>
        <use fill-rule="nonzero" xlink:href="#gallery-plugin-insert-path"/>
        <g mask="url(#gallery-plugin-insert-mask)">
            <!-- <path d="M1 1h17v17H1z"/> -->
        </g>
    </g>
</svg>
