<svg xmlns="http://www.w3.org/2000/svg" width="50" height="50" viewBox="0 0 50 50">
  <path fill-rule="evenodd" fill="currentColor" d="M3,2 L23,2 C23.5522847,2 24,2.44771525 24,3 L24,23 C24,23.5522847 23.5522847,24 23,24 L3,24 C2.44771525,24 2,23.5522847 2,23 L2,3 C2,2.44771525 2.44771525,2 3,2 Z M3,3 L3,23 L23,23 L23,3 L3,3 Z M27,2 L47,2 C47.5522847,2 48,2.44771525 48,3 L48,23 C48,23.5522847 47.5522847,24 47,24 L27,24 C26.4477153,24 26,23.5522847 26,23 L26,3 C26,2.44771525 26.4477153,2 27,2 Z M27,3 L27,23 L47,23 L47,3 L27,3 Z M3,26 L23,26 C23.5522847,26 24,26.4477153 24,27 L24,47 C24,47.5522847 23.5522847,48 23,48 L3,48 C2.44771525,48 2,47.5522847 2,47 L2,27 C2,26.4477153 2.44771525,26 3,26 Z M3,27 L3,47 L23,47 L23,27 L3,27 Z M27,26 L47,26 C47.5522847,26 48,26.4477153 48,27 L48,47 C48,47.5522847 47.5522847,48 47,48 L27,48 C26.4477153,48 26,47.5522847 26,47 L26,27 C26,26.4477153 26.4477153,26 27,26 Z M27,27 L27,47 L47,47 L47,27 L27,27 Z"/>
</svg>
