<?xml version="1.0" encoding="UTF-8" standalone="no"?>
<!-- Created with Inkscape (http://www.inkscape.org/) -->
<svg
   xmlns:dc="http://purl.org/dc/elements/1.1/"
   xmlns:cc="http://creativecommons.org/ns#"
   xmlns:rdf="http://www.w3.org/1999/02/22-rdf-syntax-ns#"
   xmlns:svg="http://www.w3.org/2000/svg"
   xmlns="http://www.w3.org/2000/svg"
   xmlns:sodipodi="http://sodipodi.sourceforge.net/DTD/sodipodi-0.dtd"
   xmlns:inkscape="http://www.inkscape.org/namespaces/inkscape"
   width="700.00012"
   height="108.47688"
   id="svg4329"
   sodipodi:version="0.32"
   inkscape:version="0.46"
   version="1.0"
   sodipodi:docname="celtic.svg"
   inkscape:output_extension="org.inkscape.output.svg.inkscape"
   inkscape:export-filename="/home/roger/mis-dibujos/open/celtic.png"
   inkscape:export-xdpi="90"
   inkscape:export-ydpi="90">
  <defs
     id="defs4331">
    <inkscape:perspective
       sodipodi:type="inkscape:persp3d"
       inkscape:vp_x="0 : 526.18109 : 1"
       inkscape:vp_y="0 : 1000 : 0"
       inkscape:vp_z="744.09448 : 526.18109 : 1"
       inkscape:persp3d-origin="372.04724 : 350.78739 : 1"
       id="perspective4337" />
  </defs>
  <sodipodi:namedview
     id="base"
     pagecolor="#ffffff"
     bordercolor="#666666"
     borderopacity="1.0"
     gridtolerance="10000"
     guidetolerance="10"
     objecttolerance="10"
     inkscape:pageopacity="0.0"
     inkscape:pageshadow="2"
     inkscape:zoom="0.35"
     inkscape:cx="375"
     inkscape:cy="520"
     inkscape:document-units="px"
     inkscape:current-layer="layer1"
     showgrid="false"
     inkscape:window-width="640"
     inkscape:window-height="676"
     inkscape:window-x="0"
     inkscape:window-y="38" />
  <metadata
     id="metadata4334">
    <rdf:RDF>
      <cc:Work
         rdf:about="">
        <dc:format>image/svg+xml</dc:format>
        <dc:type
           rdf:resource="http://purl.org/dc/dcmitype/StillImage" />
      </cc:Work>
    </rdf:RDF>
  </metadata>
  <g
     inkscape:label="Layer 1"
     inkscape:groupmode="layer"
     id="layer1"
     transform="translate(-24.999956,-478.12374)">
    <g
       transform="matrix(0.2719272,0,0,0.2719272,179.51409,111.83102)"
       id="g2871">
      <g
         transform="translate(1286,0)"
         id="g2716">
        <g
           id="g2485"
           transform="translate(164,-10)">
          <g
             transform="translate(-24,138)"
             id="g2446">
            <path
               style="opacity:1;fill:#000000;fill-opacity:1;fill-rule:nonzero;stroke:none;stroke-width:42.51968384;stroke-linecap:round;stroke-linejoin:bevel;marker:none;marker-start:none;marker-mid:none;marker-end:none;stroke-miterlimit:4;stroke-dasharray:none;stroke-dashoffset:0;stroke-opacity:1;visibility:visible;display:inline;overflow:visible;enable-background:accumulate"
               d="M 309.13354,1321.8856 C 201.65812,1385.2267 139.90788,1479.8612 171.29816,1533.1234 C 202.68845,1586.3855 315.39105,1578.2055 422.86646,1514.8644 C 530.34188,1451.5233 592.09212,1356.8888 560.70184,1303.6266 C 529.31155,1250.3645 416.60895,1258.5445 309.13354,1321.8856 z M 312.17996,1327.0547 C 408.1401,1270.5 508.76362,1263.1988 536.79066,1310.7543 C 564.81776,1358.3098 509.6874,1442.8026 413.72721,1499.3572 C 317.76708,1555.9118 217.14354,1563.2131 189.1165,1515.6576 C 161.08952,1468.1022 216.21977,1383.6092 312.17996,1327.0547 z"
               id="path2409" />
            <path
               id="path2414"
               d="M 422.86646,1321.8856 C 530.34188,1385.2267 592.09212,1479.8612 560.70184,1533.1234 C 529.31155,1586.3855 416.60895,1578.2055 309.13354,1514.8644 C 201.65812,1451.5233 139.90788,1356.8888 171.29816,1303.6266 C 202.68845,1250.3645 315.39105,1258.5445 422.86646,1321.8856 z M 419.82004,1327.0547 C 323.8599,1270.5 223.23638,1263.1988 195.20934,1310.7543 C 167.18224,1358.3098 222.3126,1442.8026 318.27279,1499.3572 C 414.23292,1555.9118 514.85646,1563.2131 542.8835,1515.6576 C 570.91048,1468.1022 515.78023,1383.6092 419.82004,1327.0547 z"
               style="opacity:1;fill:#000000;fill-opacity:1;fill-rule:nonzero;stroke:none;stroke-width:42.51968384;stroke-linecap:round;stroke-linejoin:bevel;marker:none;marker-start:none;marker-mid:none;marker-end:none;stroke-miterlimit:4;stroke-dasharray:none;stroke-dashoffset:0;stroke-opacity:1;visibility:visible;display:inline;overflow:visible;enable-background:accumulate" />
            <path
               style="fill:#000000;fill-opacity:1;fill-rule:nonzero;stroke:none;stroke-width:42.51968384;stroke-linecap:round;stroke-linejoin:bevel;marker:none;marker-start:none;marker-mid:none;marker-end:none;stroke-miterlimit:4;stroke-dashoffset:0;stroke-opacity:1;visibility:visible;display:inline;overflow:visible;enable-background:accumulate"
               d="M 264.03125,1297.5312 C 235.07743,1298.6783 218.0083,1308.2587 210.6875,1320.5938 C 204.09359,1331.704 203.11713,1348.4345 214.21875,1372.2188 L 217.15625,1369.4062 C 244.08818,1343.6592 275.34856,1320.7394 308.90625,1301.875 C 292.19147,1298.4818 276.98742,1297.018 264.03125,1297.5312 z"
               id="path2437" />
            <path
               id="path2440"
               d="M 476.65741,1534.1188 C 505.61123,1532.9717 522.68036,1523.3913 530.00116,1511.0562 C 536.59507,1499.946 537.57153,1483.2155 526.46991,1459.4312 L 523.53241,1462.2438 C 496.60048,1487.9908 465.3401,1510.9106 431.78241,1529.775 C 448.49719,1533.1682 463.70124,1534.632 476.65741,1534.1188 z"
               style="fill:#000000;fill-opacity:1;fill-rule:nonzero;stroke:none;stroke-width:42.51968384;stroke-linecap:round;stroke-linejoin:bevel;marker:none;marker-start:none;marker-mid:none;marker-end:none;stroke-miterlimit:4;stroke-dashoffset:0;stroke-opacity:1;visibility:visible;display:inline;overflow:visible;enable-background:accumulate" />
          </g>
          <path
             id="path2468"
             d="M 342.6875,1449.375 L 337.875,1451.2812 C 325.53457,1456.1555 290.12742,1475.3125 274.53125,1485.7812 C 257.34311,1497.3185 237.98588,1513.2531 223.6875,1526.875 C 216.53831,1533.686 210.61425,1539.9749 207,1544.5312 C 205.80212,1546.0414 205.3375,1546.8676 204.71875,1547.8438 C 205.49493,1548.9011 205.68438,1549.2016 207,1550.7812 C 209.49846,1553.7812 212.79282,1557.5044 216.40625,1561.4375 C 223.63312,1569.3037 232.19661,1578.0669 238.53125,1583.8438 C 262.84654,1606.0178 302.36395,1632.3686 331.34375,1645.7812 C 334.67093,1647.3212 337.88772,1648.7205 340.28125,1649.7188 C 340.95758,1650.0008 341.35547,1650.138 341.875,1650.3438 C 342.51052,1650.1092 343.09201,1649.9247 344.03125,1649.5312 C 346.81326,1648.3658 350.6549,1646.5859 354.96875,1644.4688 C 363.59645,1640.2345 374.17085,1634.6098 382.90625,1629.4688 C 415.89576,1610.0534 448.77217,1583.4077 469.8125,1559.25 C 474.02401,1554.4145 477.12555,1550.9279 478.6875,1548.8125 C 479.23485,1548.0712 479.31021,1547.8921 479.46875,1547.625 C 479.24218,1547.2572 478.98067,1546.7942 478.1875,1545.8438 C 476.2623,1543.5369 472.76579,1539.9716 468,1535 C 438.21899,1503.933 405.51857,1480.2834 363.53125,1459.625 L 342.6875,1449.375 z M 203.8125,1549.1875 C 203.7757,1549.2556 203.59144,1549.4734 203.5625,1549.5312 C 203.3516,1549.9526 203.69896,1549.8957 203.8125,1549.1875 z"
             style="fill:#000000;fill-opacity:1;fill-rule:nonzero;stroke:none;stroke-width:42.51968384;stroke-linecap:round;stroke-linejoin:bevel;marker:none;marker-start:none;marker-mid:none;marker-end:none;stroke-miterlimit:4;stroke-dashoffset:0;stroke-opacity:1;visibility:visible;display:inline;overflow:visible;enable-background:accumulate" />
          <path
             style="fill:#ffffff;fill-opacity:1;fill-rule:nonzero;stroke:none;stroke-width:42.51968384;stroke-linecap:round;stroke-linejoin:bevel;marker:none;marker-start:none;marker-mid:none;marker-end:none;stroke-miterlimit:4;stroke-dashoffset:0;stroke-opacity:1;visibility:visible;display:inline;overflow:visible;enable-background:accumulate"
             d="M 342.41478,1472.1136 L 338.6913,1473.5885 C 329.14339,1477.3598 301.74853,1492.1818 289.68163,1500.2815 C 276.38299,1509.208 261.40611,1521.5368 250.34332,1532.0761 C 244.81192,1537.3459 240.22841,1542.2117 237.43204,1545.737 C 236.50522,1546.9053 236.14574,1547.5446 235.66701,1548.2999 C 236.26754,1549.1179 236.41412,1549.3504 237.43204,1550.5726 C 239.36512,1552.8937 241.91399,1555.7744 244.70974,1558.8175 C 250.30124,1564.9036 256.92689,1571.6838 261.82807,1576.1534 C 280.64105,1593.3097 311.21605,1613.6976 333.63801,1624.0751 C 336.21228,1625.2665 338.70115,1626.3492 340.55304,1627.1216 C 341.07633,1627.3398 341.38417,1627.446 341.78614,1627.6052 C 342.27785,1627.4237 342.72775,1627.2809 343.45445,1626.9764 C 345.60693,1626.0748 348.57924,1624.6977 351.9169,1623.0596 C 358.59224,1619.7835 366.77376,1615.4316 373.53243,1611.454 C 399.05673,1596.4321 424.49353,1575.8161 440.77264,1557.125 C 444.03113,1553.3838 446.43082,1550.6861 447.63931,1549.0494 C 448.0628,1548.4758 448.12112,1548.3373 448.24378,1548.1306 C 448.06847,1547.8461 447.86615,1547.4879 447.25246,1546.7525 C 445.76292,1544.9676 443.05763,1542.2091 439.37029,1538.3625 C 416.32843,1514.3257 391.02779,1496.0278 358.54179,1480.0441 L 342.41478,1472.1136 z M 234.96583,1549.3395 C 234.93736,1549.3922 234.79479,1549.5608 234.77241,1549.6054 C 234.60923,1549.9315 234.87798,1549.8874 234.96583,1549.3395 z"
             id="path2475" />
          <path
             id="path2477"
             d="M 342.15276,1493.9602 L 339.47558,1495.0206 C 332.61064,1497.7322 312.91374,1508.3892 304.23764,1514.2129 C 294.67592,1520.6311 283.90755,1529.4955 275.95341,1537.0732 C 271.97634,1540.8622 268.68079,1544.3607 266.6702,1546.8954 C 266.00382,1547.7354 265.74535,1548.1951 265.40115,1548.7381 C 265.83293,1549.3263 265.93832,1549.4934 266.6702,1550.3722 C 268.06009,1552.0411 269.89272,1554.1123 271.90287,1556.3003 C 275.92315,1560.6762 280.68699,1565.5511 284.21094,1568.7648 C 297.73747,1581.1002 319.72088,1595.759 335.84227,1603.2205 C 337.69317,1604.0771 339.48266,1604.8555 340.81417,1605.4109 C 341.19042,1605.5678 341.41175,1605.6441 341.70077,1605.7586 C 342.05431,1605.6281 342.37779,1605.5254 342.90028,1605.3065 C 344.44792,1604.6582 346.58501,1603.6681 348.98478,1602.4903 C 353.78435,1600.1348 359.66686,1597.0058 364.52634,1594.1459 C 382.87831,1583.3452 401.16736,1568.5223 412.87203,1555.0834 C 415.21489,1552.3934 416.94026,1550.4538 417.80917,1549.277 C 418.11366,1548.8646 418.15559,1548.765 418.24378,1548.6164 C 418.11773,1548.4118 417.97226,1548.1543 417.53102,1547.6255 C 416.46004,1546.3422 414.51494,1544.3588 411.86374,1541.5931 C 395.29665,1524.3107 377.1055,1511.1545 353.74808,1499.6622 L 342.15276,1493.9602 z M 264.897,1549.4856 C 264.87653,1549.5235 264.77402,1549.6447 264.75793,1549.6768 C 264.6406,1549.9112 264.83384,1549.8795 264.897,1549.4856 z"
             style="fill:#000000;fill-opacity:1;fill-rule:nonzero;stroke:none;stroke-width:42.51968384;stroke-linecap:round;stroke-linejoin:bevel;marker:none;marker-start:none;marker-mid:none;marker-end:none;stroke-miterlimit:4;stroke-dashoffset:0;stroke-opacity:1;visibility:visible;display:inline;overflow:visible;enable-background:accumulate" />
          <path
             id="path2479"
             d="M 217.6731,1663.4442 C 194.50718,1658.1651 181.6709,1642.2555 183.38673,1620.9486 C 184.05449,1612.6569 189.15595,1597.7469 194.31974,1588.9949 L 196.93687,1584.5591 L 209.59811,1597.6501 C 229.23615,1617.9549 253.27359,1636.0271 278.97334,1649.8088 C 284.44512,1652.743 288.93253,1655.5275 288.94538,1655.9966 C 288.96967,1656.884 283.50609,1658.4998 268.33693,1662.0911 C 255.32063,1665.1728 228.41199,1665.8914 217.67306,1663.4442 L 217.6731,1663.4442 z"
             style="opacity:1;fill:#000000;fill-opacity:1;fill-rule:nonzero;stroke:none;stroke-width:42.51968384;stroke-linecap:round;stroke-linejoin:bevel;marker:none;marker-start:none;marker-mid:none;marker-end:none;stroke-miterlimit:4;stroke-dasharray:none;stroke-dashoffset:0;stroke-opacity:1;visibility:visible;display:inline;overflow:visible;enable-background:accumulate" />
          <path
             id="path2481"
             d="M 464.92312,1505.5443 C 444.54678,1486.0217 419.77467,1468.6904 393.4292,1455.5252 C 387.40368,1452.5142 382.4737,1449.8167 382.4737,1449.5307 C 382.4737,1449.2448 386.50732,1447.8131 391.43729,1446.3491 C 424.18372,1436.6248 450.53029,1435.905 468.78973,1444.2358 C 488.80349,1453.367 495.61004,1470.8493 488.23095,1494.1696 C 486.31312,1500.2306 483.09593,1507.9633 481.08169,1511.3533 L 477.41947,1517.5169 L 464.92312,1505.5443 z"
             style="opacity:1;fill:#000000;fill-opacity:1;fill-rule:nonzero;stroke:none;stroke-width:42.51968384;stroke-linecap:round;stroke-linejoin:bevel;marker:none;marker-start:none;marker-mid:none;marker-end:none;stroke-miterlimit:4;stroke-dasharray:none;stroke-dashoffset:0;stroke-opacity:1;visibility:visible;display:inline;overflow:visible;enable-background:accumulate" />
        </g>
        <g
           id="g2497"
           transform="translate(-268,-10)">
          <g
             id="g2499"
             transform="translate(-24,138)">
            <path
               id="path2501"
               d="M 309.13354,1321.8856 C 201.65812,1385.2267 139.90788,1479.8612 171.29816,1533.1234 C 202.68845,1586.3855 315.39105,1578.2055 422.86646,1514.8644 C 530.34188,1451.5233 592.09212,1356.8888 560.70184,1303.6266 C 529.31155,1250.3645 416.60895,1258.5445 309.13354,1321.8856 z M 312.17996,1327.0547 C 408.1401,1270.5 508.76362,1263.1988 536.79066,1310.7543 C 564.81776,1358.3098 509.6874,1442.8026 413.72721,1499.3572 C 317.76708,1555.9118 217.14354,1563.2131 189.1165,1515.6576 C 161.08952,1468.1022 216.21977,1383.6092 312.17996,1327.0547 z"
               style="opacity:1;fill:#000000;fill-opacity:1;fill-rule:nonzero;stroke:none;stroke-width:42.51968384;stroke-linecap:round;stroke-linejoin:bevel;marker:none;marker-start:none;marker-mid:none;marker-end:none;stroke-miterlimit:4;stroke-dasharray:none;stroke-dashoffset:0;stroke-opacity:1;visibility:visible;display:inline;overflow:visible;enable-background:accumulate" />
            <path
               style="opacity:1;fill:#000000;fill-opacity:1;fill-rule:nonzero;stroke:none;stroke-width:42.51968384;stroke-linecap:round;stroke-linejoin:bevel;marker:none;marker-start:none;marker-mid:none;marker-end:none;stroke-miterlimit:4;stroke-dasharray:none;stroke-dashoffset:0;stroke-opacity:1;visibility:visible;display:inline;overflow:visible;enable-background:accumulate"
               d="M 422.86646,1321.8856 C 530.34188,1385.2267 592.09212,1479.8612 560.70184,1533.1234 C 529.31155,1586.3855 416.60895,1578.2055 309.13354,1514.8644 C 201.65812,1451.5233 139.90788,1356.8888 171.29816,1303.6266 C 202.68845,1250.3645 315.39105,1258.5445 422.86646,1321.8856 z M 419.82004,1327.0547 C 323.8599,1270.5 223.23638,1263.1988 195.20934,1310.7543 C 167.18224,1358.3098 222.3126,1442.8026 318.27279,1499.3572 C 414.23292,1555.9118 514.85646,1563.2131 542.8835,1515.6576 C 570.91048,1468.1022 515.78023,1383.6092 419.82004,1327.0547 z"
               id="path2503" />
            <path
               id="path2505"
               d="M 264.03125,1297.5312 C 235.07743,1298.6783 218.0083,1308.2587 210.6875,1320.5938 C 204.09359,1331.704 203.11713,1348.4345 214.21875,1372.2188 L 217.15625,1369.4062 C 244.08818,1343.6592 275.34856,1320.7394 308.90625,1301.875 C 292.19147,1298.4818 276.98742,1297.018 264.03125,1297.5312 z"
               style="fill:#000000;fill-opacity:1;fill-rule:nonzero;stroke:none;stroke-width:42.51968384;stroke-linecap:round;stroke-linejoin:bevel;marker:none;marker-start:none;marker-mid:none;marker-end:none;stroke-miterlimit:4;stroke-dashoffset:0;stroke-opacity:1;visibility:visible;display:inline;overflow:visible;enable-background:accumulate" />
            <path
               style="fill:#000000;fill-opacity:1;fill-rule:nonzero;stroke:none;stroke-width:42.51968384;stroke-linecap:round;stroke-linejoin:bevel;marker:none;marker-start:none;marker-mid:none;marker-end:none;stroke-miterlimit:4;stroke-dashoffset:0;stroke-opacity:1;visibility:visible;display:inline;overflow:visible;enable-background:accumulate"
               d="M 476.65741,1534.1188 C 505.61123,1532.9717 522.68036,1523.3913 530.00116,1511.0562 C 536.59507,1499.946 537.57153,1483.2155 526.46991,1459.4312 L 523.53241,1462.2438 C 496.60048,1487.9908 465.3401,1510.9106 431.78241,1529.775 C 448.49719,1533.1682 463.70124,1534.632 476.65741,1534.1188 z"
               id="path2507" />
          </g>
          <path
             style="fill:#000000;fill-opacity:1;fill-rule:nonzero;stroke:none;stroke-width:42.51968384;stroke-linecap:round;stroke-linejoin:bevel;marker:none;marker-start:none;marker-mid:none;marker-end:none;stroke-miterlimit:4;stroke-dashoffset:0;stroke-opacity:1;visibility:visible;display:inline;overflow:visible;enable-background:accumulate"
             d="M 342.6875,1449.375 L 337.875,1451.2812 C 325.53457,1456.1555 290.12742,1475.3125 274.53125,1485.7812 C 257.34311,1497.3185 237.98588,1513.2531 223.6875,1526.875 C 216.53831,1533.686 210.61425,1539.9749 207,1544.5312 C 205.80212,1546.0414 205.3375,1546.8676 204.71875,1547.8438 C 205.49493,1548.9011 205.68438,1549.2016 207,1550.7812 C 209.49846,1553.7812 212.79282,1557.5044 216.40625,1561.4375 C 223.63312,1569.3037 232.19661,1578.0669 238.53125,1583.8438 C 262.84654,1606.0178 302.36395,1632.3686 331.34375,1645.7812 C 334.67093,1647.3212 337.88772,1648.7205 340.28125,1649.7188 C 340.95758,1650.0008 341.35547,1650.138 341.875,1650.3438 C 342.51052,1650.1092 343.09201,1649.9247 344.03125,1649.5312 C 346.81326,1648.3658 350.6549,1646.5859 354.96875,1644.4688 C 363.59645,1640.2345 374.17085,1634.6098 382.90625,1629.4688 C 415.89576,1610.0534 448.77217,1583.4077 469.8125,1559.25 C 474.02401,1554.4145 477.12555,1550.9279 478.6875,1548.8125 C 479.23485,1548.0712 479.31021,1547.8921 479.46875,1547.625 C 479.24218,1547.2572 478.98067,1546.7942 478.1875,1545.8438 C 476.2623,1543.5369 472.76579,1539.9716 468,1535 C 438.21899,1503.933 405.51857,1480.2834 363.53125,1459.625 L 342.6875,1449.375 z M 203.8125,1549.1875 C 203.7757,1549.2556 203.59144,1549.4734 203.5625,1549.5312 C 203.3516,1549.9526 203.69896,1549.8957 203.8125,1549.1875 z"
             id="path2509" />
          <path
             id="path2511"
             d="M 342.41478,1472.1136 L 338.6913,1473.5885 C 329.14339,1477.3598 301.74853,1492.1818 289.68163,1500.2815 C 276.38299,1509.208 261.40611,1521.5368 250.34332,1532.0761 C 244.81192,1537.3459 240.22841,1542.2117 237.43204,1545.737 C 236.50522,1546.9053 236.14574,1547.5446 235.66701,1548.2999 C 236.26754,1549.1179 236.41412,1549.3504 237.43204,1550.5726 C 239.36512,1552.8937 241.91399,1555.7744 244.70974,1558.8175 C 250.30124,1564.9036 256.92689,1571.6838 261.82807,1576.1534 C 280.64105,1593.3097 311.21605,1613.6976 333.63801,1624.0751 C 336.21228,1625.2665 338.70115,1626.3492 340.55304,1627.1216 C 341.07633,1627.3398 341.38417,1627.446 341.78614,1627.6052 C 342.27785,1627.4237 342.72775,1627.2809 343.45445,1626.9764 C 345.60693,1626.0748 348.57924,1624.6977 351.9169,1623.0596 C 358.59224,1619.7835 366.77376,1615.4316 373.53243,1611.454 C 399.05673,1596.4321 424.49353,1575.8161 440.77264,1557.125 C 444.03113,1553.3838 446.43082,1550.6861 447.63931,1549.0494 C 448.0628,1548.4758 448.12112,1548.3373 448.24378,1548.1306 C 448.06847,1547.8461 447.86615,1547.4879 447.25246,1546.7525 C 445.76292,1544.9676 443.05763,1542.2091 439.37029,1538.3625 C 416.32843,1514.3257 391.02779,1496.0278 358.54179,1480.0441 L 342.41478,1472.1136 z M 234.96583,1549.3395 C 234.93736,1549.3922 234.79479,1549.5608 234.77241,1549.6054 C 234.60923,1549.9315 234.87798,1549.8874 234.96583,1549.3395 z"
             style="fill:#ffffff;fill-opacity:1;fill-rule:nonzero;stroke:none;stroke-width:42.51968384;stroke-linecap:round;stroke-linejoin:bevel;marker:none;marker-start:none;marker-mid:none;marker-end:none;stroke-miterlimit:4;stroke-dashoffset:0;stroke-opacity:1;visibility:visible;display:inline;overflow:visible;enable-background:accumulate" />
          <path
             style="fill:#000000;fill-opacity:1;fill-rule:nonzero;stroke:none;stroke-width:42.51968384;stroke-linecap:round;stroke-linejoin:bevel;marker:none;marker-start:none;marker-mid:none;marker-end:none;stroke-miterlimit:4;stroke-dashoffset:0;stroke-opacity:1;visibility:visible;display:inline;overflow:visible;enable-background:accumulate"
             d="M 342.15276,1493.9602 L 339.47558,1495.0206 C 332.61064,1497.7322 312.91374,1508.3892 304.23764,1514.2129 C 294.67592,1520.6311 283.90755,1529.4955 275.95341,1537.0732 C 271.97634,1540.8622 268.68079,1544.3607 266.6702,1546.8954 C 266.00382,1547.7354 265.74535,1548.1951 265.40115,1548.7381 C 265.83293,1549.3263 265.93832,1549.4934 266.6702,1550.3722 C 268.06009,1552.0411 269.89272,1554.1123 271.90287,1556.3003 C 275.92315,1560.6762 280.68699,1565.5511 284.21094,1568.7648 C 297.73747,1581.1002 319.72088,1595.759 335.84227,1603.2205 C 337.69317,1604.0771 339.48266,1604.8555 340.81417,1605.4109 C 341.19042,1605.5678 341.41175,1605.6441 341.70077,1605.7586 C 342.05431,1605.6281 342.37779,1605.5254 342.90028,1605.3065 C 344.44792,1604.6582 346.58501,1603.6681 348.98478,1602.4903 C 353.78435,1600.1348 359.66686,1597.0058 364.52634,1594.1459 C 382.87831,1583.3452 401.16736,1568.5223 412.87203,1555.0834 C 415.21489,1552.3934 416.94026,1550.4538 417.80917,1549.277 C 418.11366,1548.8646 418.15559,1548.765 418.24378,1548.6164 C 418.11773,1548.4118 417.97226,1548.1543 417.53102,1547.6255 C 416.46004,1546.3422 414.51494,1544.3588 411.86374,1541.5931 C 395.29665,1524.3107 377.1055,1511.1545 353.74808,1499.6622 L 342.15276,1493.9602 z M 264.897,1549.4856 C 264.87653,1549.5235 264.77402,1549.6447 264.75793,1549.6768 C 264.6406,1549.9112 264.83384,1549.8795 264.897,1549.4856 z"
             id="path2513" />
          <path
             style="opacity:1;fill:#000000;fill-opacity:1;fill-rule:nonzero;stroke:none;stroke-width:42.51968384;stroke-linecap:round;stroke-linejoin:bevel;marker:none;marker-start:none;marker-mid:none;marker-end:none;stroke-miterlimit:4;stroke-dasharray:none;stroke-dashoffset:0;stroke-opacity:1;visibility:visible;display:inline;overflow:visible;enable-background:accumulate"
             d="M 217.6731,1663.4442 C 194.50718,1658.1651 181.6709,1642.2555 183.38673,1620.9486 C 184.05449,1612.6569 189.15595,1597.7469 194.31974,1588.9949 L 196.93687,1584.5591 L 209.59811,1597.6501 C 229.23615,1617.9549 253.27359,1636.0271 278.97334,1649.8088 C 284.44512,1652.743 288.93253,1655.5275 288.94538,1655.9966 C 288.96967,1656.884 283.50609,1658.4998 268.33693,1662.0911 C 255.32063,1665.1728 228.41199,1665.8914 217.67306,1663.4442 L 217.6731,1663.4442 z"
             id="path2515" />
          <path
             style="opacity:1;fill:#000000;fill-opacity:1;fill-rule:nonzero;stroke:none;stroke-width:42.51968384;stroke-linecap:round;stroke-linejoin:bevel;marker:none;marker-start:none;marker-mid:none;marker-end:none;stroke-miterlimit:4;stroke-dasharray:none;stroke-dashoffset:0;stroke-opacity:1;visibility:visible;display:inline;overflow:visible;enable-background:accumulate"
             d="M 464.92312,1505.5443 C 444.54678,1486.0217 419.77467,1468.6904 393.4292,1455.5252 C 387.40368,1452.5142 382.4737,1449.8167 382.4737,1449.5307 C 382.4737,1449.2448 386.50732,1447.8131 391.43729,1446.3491 C 424.18372,1436.6248 450.53029,1435.905 468.78973,1444.2358 C 488.80349,1453.367 495.61004,1470.8493 488.23095,1494.1696 C 486.31312,1500.2306 483.09593,1507.9633 481.08169,1511.3533 L 477.41947,1517.5169 L 464.92312,1505.5443 z"
             id="path2517" />
        </g>
        <path
           style="fill:#000000;fill-opacity:1;fill-rule:nonzero;stroke:none;stroke-width:42.51968384;stroke-linecap:round;stroke-linejoin:bevel;marker:none;marker-start:none;marker-mid:none;marker-end:none;stroke-miterlimit:4;stroke-dasharray:none;stroke-dashoffset:0;stroke-opacity:1;visibility:visible;display:inline;overflow:visible;enable-background:accumulate"
           d="M 286.71208,1584.5801 C 284.3705,1579.284 278.39858,1568.4417 273.44122,1560.486 L 264.42778,1546.0211 L 270.28448,1537.4859 C 273.50558,1532.7917 279.52852,1522.2124 283.66876,1513.9764 L 291.19646,1499.0018 L 295.62834,1509.044 C 298.06594,1514.5673 303.7971,1525.0031 308.36428,1532.2347 C 312.93144,1539.4664 316.66826,1546.0237 316.66826,1546.8067 C 316.66826,1547.5896 313.95168,1552.1786 310.63142,1557.0044 C 307.31118,1561.8302 301.52898,1572.1755 297.78212,1579.9939 L 290.96966,1594.2091 L 286.71208,1584.5801 z"
           id="path2519" />
        <g
           transform="translate(-690,-10)"
           id="g2521">
          <g
             transform="translate(-24,138)"
             id="g2523">
            <path
               style="opacity:1;fill:#000000;fill-opacity:1;fill-rule:nonzero;stroke:none;stroke-width:42.51968384;stroke-linecap:round;stroke-linejoin:bevel;marker:none;marker-start:none;marker-mid:none;marker-end:none;stroke-miterlimit:4;stroke-dasharray:none;stroke-dashoffset:0;stroke-opacity:1;visibility:visible;display:inline;overflow:visible;enable-background:accumulate"
               d="M 309.13354,1321.8856 C 201.65812,1385.2267 139.90788,1479.8612 171.29816,1533.1234 C 202.68845,1586.3855 315.39105,1578.2055 422.86646,1514.8644 C 530.34188,1451.5233 592.09212,1356.8888 560.70184,1303.6266 C 529.31155,1250.3645 416.60895,1258.5445 309.13354,1321.8856 z M 312.17996,1327.0547 C 408.1401,1270.5 508.76362,1263.1988 536.79066,1310.7543 C 564.81776,1358.3098 509.6874,1442.8026 413.72721,1499.3572 C 317.76708,1555.9118 217.14354,1563.2131 189.1165,1515.6576 C 161.08952,1468.1022 216.21977,1383.6092 312.17996,1327.0547 z"
               id="path2525" />
            <path
               id="path2527"
               d="M 422.86646,1321.8856 C 530.34188,1385.2267 592.09212,1479.8612 560.70184,1533.1234 C 529.31155,1586.3855 416.60895,1578.2055 309.13354,1514.8644 C 201.65812,1451.5233 139.90788,1356.8888 171.29816,1303.6266 C 202.68845,1250.3645 315.39105,1258.5445 422.86646,1321.8856 z M 419.82004,1327.0547 C 323.8599,1270.5 223.23638,1263.1988 195.20934,1310.7543 C 167.18224,1358.3098 222.3126,1442.8026 318.27279,1499.3572 C 414.23292,1555.9118 514.85646,1563.2131 542.8835,1515.6576 C 570.91048,1468.1022 515.78023,1383.6092 419.82004,1327.0547 z"
               style="opacity:1;fill:#000000;fill-opacity:1;fill-rule:nonzero;stroke:none;stroke-width:42.51968384;stroke-linecap:round;stroke-linejoin:bevel;marker:none;marker-start:none;marker-mid:none;marker-end:none;stroke-miterlimit:4;stroke-dasharray:none;stroke-dashoffset:0;stroke-opacity:1;visibility:visible;display:inline;overflow:visible;enable-background:accumulate" />
            <path
               style="fill:#000000;fill-opacity:1;fill-rule:nonzero;stroke:none;stroke-width:42.51968384;stroke-linecap:round;stroke-linejoin:bevel;marker:none;marker-start:none;marker-mid:none;marker-end:none;stroke-miterlimit:4;stroke-dashoffset:0;stroke-opacity:1;visibility:visible;display:inline;overflow:visible;enable-background:accumulate"
               d="M 264.03125,1297.5312 C 235.07743,1298.6783 218.0083,1308.2587 210.6875,1320.5938 C 204.09359,1331.704 203.11713,1348.4345 214.21875,1372.2188 L 217.15625,1369.4062 C 244.08818,1343.6592 275.34856,1320.7394 308.90625,1301.875 C 292.19147,1298.4818 276.98742,1297.018 264.03125,1297.5312 z"
               id="path2529" />
            <path
               id="path2531"
               d="M 476.65741,1534.1188 C 505.61123,1532.9717 522.68036,1523.3913 530.00116,1511.0562 C 536.59507,1499.946 537.57153,1483.2155 526.46991,1459.4312 L 523.53241,1462.2438 C 496.60048,1487.9908 465.3401,1510.9106 431.78241,1529.775 C 448.49719,1533.1682 463.70124,1534.632 476.65741,1534.1188 z"
               style="fill:#000000;fill-opacity:1;fill-rule:nonzero;stroke:none;stroke-width:42.51968384;stroke-linecap:round;stroke-linejoin:bevel;marker:none;marker-start:none;marker-mid:none;marker-end:none;stroke-miterlimit:4;stroke-dashoffset:0;stroke-opacity:1;visibility:visible;display:inline;overflow:visible;enable-background:accumulate" />
          </g>
          <path
             id="path2533"
             d="M 342.6875,1449.375 L 337.875,1451.2812 C 325.53457,1456.1555 290.12742,1475.3125 274.53125,1485.7812 C 257.34311,1497.3185 237.98588,1513.2531 223.6875,1526.875 C 216.53831,1533.686 210.61425,1539.9749 207,1544.5312 C 205.80212,1546.0414 205.3375,1546.8676 204.71875,1547.8438 C 205.49493,1548.9011 205.68438,1549.2016 207,1550.7812 C 209.49846,1553.7812 212.79282,1557.5044 216.40625,1561.4375 C 223.63312,1569.3037 232.19661,1578.0669 238.53125,1583.8438 C 262.84654,1606.0178 302.36395,1632.3686 331.34375,1645.7812 C 334.67093,1647.3212 337.88772,1648.7205 340.28125,1649.7188 C 340.95758,1650.0008 341.35547,1650.138 341.875,1650.3438 C 342.51052,1650.1092 343.09201,1649.9247 344.03125,1649.5312 C 346.81326,1648.3658 350.6549,1646.5859 354.96875,1644.4688 C 363.59645,1640.2345 374.17085,1634.6098 382.90625,1629.4688 C 415.89576,1610.0534 448.77217,1583.4077 469.8125,1559.25 C 474.02401,1554.4145 477.12555,1550.9279 478.6875,1548.8125 C 479.23485,1548.0712 479.31021,1547.8921 479.46875,1547.625 C 479.24218,1547.2572 478.98067,1546.7942 478.1875,1545.8438 C 476.2623,1543.5369 472.76579,1539.9716 468,1535 C 438.21899,1503.933 405.51857,1480.2834 363.53125,1459.625 L 342.6875,1449.375 z M 203.8125,1549.1875 C 203.7757,1549.2556 203.59144,1549.4734 203.5625,1549.5312 C 203.3516,1549.9526 203.69896,1549.8957 203.8125,1549.1875 z"
             style="fill:#000000;fill-opacity:1;fill-rule:nonzero;stroke:none;stroke-width:42.51968384;stroke-linecap:round;stroke-linejoin:bevel;marker:none;marker-start:none;marker-mid:none;marker-end:none;stroke-miterlimit:4;stroke-dashoffset:0;stroke-opacity:1;visibility:visible;display:inline;overflow:visible;enable-background:accumulate" />
          <path
             style="fill:#ffffff;fill-opacity:1;fill-rule:nonzero;stroke:none;stroke-width:42.51968384;stroke-linecap:round;stroke-linejoin:bevel;marker:none;marker-start:none;marker-mid:none;marker-end:none;stroke-miterlimit:4;stroke-dashoffset:0;stroke-opacity:1;visibility:visible;display:inline;overflow:visible;enable-background:accumulate"
             d="M 342.41478,1472.1136 L 338.6913,1473.5885 C 329.14339,1477.3598 301.74853,1492.1818 289.68163,1500.2815 C 276.38299,1509.208 261.40611,1521.5368 250.34332,1532.0761 C 244.81192,1537.3459 240.22841,1542.2117 237.43204,1545.737 C 236.50522,1546.9053 236.14574,1547.5446 235.66701,1548.2999 C 236.26754,1549.1179 236.41412,1549.3504 237.43204,1550.5726 C 239.36512,1552.8937 241.91399,1555.7744 244.70974,1558.8175 C 250.30124,1564.9036 256.92689,1571.6838 261.82807,1576.1534 C 280.64105,1593.3097 311.21605,1613.6976 333.63801,1624.0751 C 336.21228,1625.2665 338.70115,1626.3492 340.55304,1627.1216 C 341.07633,1627.3398 341.38417,1627.446 341.78614,1627.6052 C 342.27785,1627.4237 342.72775,1627.2809 343.45445,1626.9764 C 345.60693,1626.0748 348.57924,1624.6977 351.9169,1623.0596 C 358.59224,1619.7835 366.77376,1615.4316 373.53243,1611.454 C 399.05673,1596.4321 424.49353,1575.8161 440.77264,1557.125 C 444.03113,1553.3838 446.43082,1550.6861 447.63931,1549.0494 C 448.0628,1548.4758 448.12112,1548.3373 448.24378,1548.1306 C 448.06847,1547.8461 447.86615,1547.4879 447.25246,1546.7525 C 445.76292,1544.9676 443.05763,1542.2091 439.37029,1538.3625 C 416.32843,1514.3257 391.02779,1496.0278 358.54179,1480.0441 L 342.41478,1472.1136 z M 234.96583,1549.3395 C 234.93736,1549.3922 234.79479,1549.5608 234.77241,1549.6054 C 234.60923,1549.9315 234.87798,1549.8874 234.96583,1549.3395 z"
             id="path2535" />
          <path
             id="path2537"
             d="M 342.15276,1493.9602 L 339.47558,1495.0206 C 332.61064,1497.7322 312.91374,1508.3892 304.23764,1514.2129 C 294.67592,1520.6311 283.90755,1529.4955 275.95341,1537.0732 C 271.97634,1540.8622 268.68079,1544.3607 266.6702,1546.8954 C 266.00382,1547.7354 265.74535,1548.1951 265.40115,1548.7381 C 265.83293,1549.3263 265.93832,1549.4934 266.6702,1550.3722 C 268.06009,1552.0411 269.89272,1554.1123 271.90287,1556.3003 C 275.92315,1560.6762 280.68699,1565.5511 284.21094,1568.7648 C 297.73747,1581.1002 319.72088,1595.759 335.84227,1603.2205 C 337.69317,1604.0771 339.48266,1604.8555 340.81417,1605.4109 C 341.19042,1605.5678 341.41175,1605.6441 341.70077,1605.7586 C 342.05431,1605.6281 342.37779,1605.5254 342.90028,1605.3065 C 344.44792,1604.6582 346.58501,1603.6681 348.98478,1602.4903 C 353.78435,1600.1348 359.66686,1597.0058 364.52634,1594.1459 C 382.87831,1583.3452 401.16736,1568.5223 412.87203,1555.0834 C 415.21489,1552.3934 416.94026,1550.4538 417.80917,1549.277 C 418.11366,1548.8646 418.15559,1548.765 418.24378,1548.6164 C 418.11773,1548.4118 417.97226,1548.1543 417.53102,1547.6255 C 416.46004,1546.3422 414.51494,1544.3588 411.86374,1541.5931 C 395.29665,1524.3107 377.1055,1511.1545 353.74808,1499.6622 L 342.15276,1493.9602 z M 264.897,1549.4856 C 264.87653,1549.5235 264.77402,1549.6447 264.75793,1549.6768 C 264.6406,1549.9112 264.83384,1549.8795 264.897,1549.4856 z"
             style="fill:#000000;fill-opacity:1;fill-rule:nonzero;stroke:none;stroke-width:42.51968384;stroke-linecap:round;stroke-linejoin:bevel;marker:none;marker-start:none;marker-mid:none;marker-end:none;stroke-miterlimit:4;stroke-dashoffset:0;stroke-opacity:1;visibility:visible;display:inline;overflow:visible;enable-background:accumulate" />
          <path
             id="path2539"
             d="M 217.6731,1663.4442 C 194.50718,1658.1651 181.6709,1642.2555 183.38673,1620.9486 C 184.05449,1612.6569 189.15595,1597.7469 194.31974,1588.9949 L 196.93687,1584.5591 L 209.59811,1597.6501 C 229.23615,1617.9549 253.27359,1636.0271 278.97334,1649.8088 C 284.44512,1652.743 288.93253,1655.5275 288.94538,1655.9966 C 288.96967,1656.884 283.50609,1658.4998 268.33693,1662.0911 C 255.32063,1665.1728 228.41199,1665.8914 217.67306,1663.4442 L 217.6731,1663.4442 z"
             style="opacity:1;fill:#000000;fill-opacity:1;fill-rule:nonzero;stroke:none;stroke-width:42.51968384;stroke-linecap:round;stroke-linejoin:bevel;marker:none;marker-start:none;marker-mid:none;marker-end:none;stroke-miterlimit:4;stroke-dasharray:none;stroke-dashoffset:0;stroke-opacity:1;visibility:visible;display:inline;overflow:visible;enable-background:accumulate" />
          <path
             id="path2541"
             d="M 464.92312,1505.5443 C 444.54678,1486.0217 419.77467,1468.6904 393.4292,1455.5252 C 387.40368,1452.5142 382.4737,1449.8167 382.4737,1449.5307 C 382.4737,1449.2448 386.50732,1447.8131 391.43729,1446.3491 C 424.18372,1436.6248 450.53029,1435.905 468.78973,1444.2358 C 488.80349,1453.367 495.61004,1470.8493 488.23095,1494.1696 C 486.31312,1500.2306 483.09593,1507.9633 481.08169,1511.3533 L 477.41947,1517.5169 L 464.92312,1505.5443 z"
             style="opacity:1;fill:#000000;fill-opacity:1;fill-rule:nonzero;stroke:none;stroke-width:42.51968384;stroke-linecap:round;stroke-linejoin:bevel;marker:none;marker-start:none;marker-mid:none;marker-end:none;stroke-miterlimit:4;stroke-dasharray:none;stroke-dashoffset:0;stroke-opacity:1;visibility:visible;display:inline;overflow:visible;enable-background:accumulate" />
        </g>
        <path
           id="path2543"
           d="M -141.28792,1588.5801 C -143.6295,1583.284 -149.60142,1572.4417 -154.55878,1564.486 L -163.57222,1550.0211 L -157.71552,1541.4859 C -154.49442,1536.7917 -148.47148,1526.2124 -144.33124,1517.9764 L -136.80354,1503.0018 L -132.37166,1513.044 C -129.93406,1518.5673 -124.2029,1529.0031 -119.63572,1536.2347 C -115.06856,1543.4664 -111.33174,1550.0237 -111.33174,1550.8067 C -111.33174,1551.5896 -114.04832,1556.1786 -117.36858,1561.0044 C -120.68882,1565.8302 -126.47102,1576.1755 -130.21788,1583.9939 L -137.03034,1598.2091 L -141.28792,1588.5801 z"
           style="fill:#000000;fill-opacity:1;fill-rule:nonzero;stroke:none;stroke-width:42.51968384;stroke-linecap:round;stroke-linejoin:bevel;marker:none;marker-start:none;marker-mid:none;marker-end:none;stroke-miterlimit:4;stroke-dasharray:none;stroke-dashoffset:0;stroke-opacity:1;visibility:visible;display:inline;overflow:visible;enable-background:accumulate" />
        <path
           style="fill:#000000;fill-opacity:1;fill-rule:nonzero;stroke:none;stroke-width:42.51968384;stroke-linecap:round;stroke-linejoin:bevel;marker:none;marker-start:none;marker-mid:none;marker-end:none;stroke-miterlimit:4;stroke-dasharray:none;stroke-dashoffset:0;stroke-opacity:1;visibility:visible;display:inline;overflow:visible;enable-background:accumulate"
           d="M -566.21875,1671.0312 L -566.21875,1697.0312 L -555.53125,1697.0312 L -544.84375,1697.0312 L -542.46875,1704.875 C -539.49693,1714.7941 -525.53672,1729.2882 -512.90625,1735.5625 C -496.67093,1743.6274 -486.41157,1745.7665 -459.75,1745.9375 C -457.97256,1745.9488 -456.14864,1745.9424 -454.21875,1745.9375 C -420.95137,1745.8527 -404.04818,1742.895 -367.53125,1730.75 L -343.875,1722.875 L -322.53125,1730.125 C -286.88839,1742.1957 -267.05562,1745.7217 -234.21875,1745.875 C -203.43367,1746.0187 -192.86827,1744.2016 -175.78125,1735.7188 C -162.05303,1728.9035 -153.08869,1720.192 -147.0625,1707.875 L -141.71875,1697.0312 L -132.28125,1697.0312 C -123.01981,1697.0312 -122.77524,1697.1766 -120.46875,1704.875 C -117.49693,1714.7941 -103.5367,1729.2882 -90.90625,1735.5625 C -73.58857,1744.1651 -63.09695,1746.0161 -32.21875,1745.9375 C 1.04863,1745.8527 17.95176,1742.895 54.46875,1730.75 L 78.125,1722.875 L 99.46875,1730.125 C 135.11161,1742.1957 154.94437,1745.7217 187.78125,1745.875 C 218.56633,1746.0187 229.13174,1744.2016 246.21875,1735.7188 C 259.94697,1728.9035 268.9113,1720.192 274.9375,1707.875 L 280.28125,1697.0312 L 294.71875,1697.0312 L 309.15625,1697.0312 L 311.53125,1704.875 C 314.50307,1714.7941 328.4633,1729.2882 341.09375,1735.5625 C 358.41143,1744.1651 368.90305,1746.0161 399.78125,1745.9375 C 433.04863,1745.8527 449.95176,1742.895 486.46875,1730.75 L 510.125,1722.875 L 531.46875,1730.125 C 567.11161,1742.1957 586.94438,1745.7217 619.78125,1745.875 C 650.56633,1746.0187 661.13173,1744.2016 678.21875,1735.7188 C 691.94697,1728.9035 700.91128,1720.192 706.9375,1707.875 L 712.28125,1697.0312 L 720,1697.0312 L 720,1671.0312 L 712.28125,1671.0312 L 706.9375,1681.875 C 700.91128,1694.1921 691.94697,1702.9034 678.21875,1709.7188 C 661.13173,1718.2016 650.56633,1720.0186 619.78125,1719.875 C 586.94438,1719.7218 567.11161,1716.1956 531.46875,1704.125 L 510.125,1696.875 L 486.46875,1704.75 C 449.95176,1716.8951 433.04863,1719.8527 399.78125,1719.9375 C 368.90305,1720.0161 358.41143,1718.1651 341.09375,1709.5625 C 328.4633,1703.2882 314.50307,1688.794 311.53125,1678.875 L 309.15625,1671.0312 L 294.71875,1671.0312 L 280.28125,1671.0312 L 274.9375,1681.875 C 268.9113,1694.1921 259.94697,1702.9034 246.21875,1709.7188 C 229.13174,1718.2016 218.56633,1720.0186 187.78125,1719.875 C 154.94437,1719.7218 135.11161,1716.1956 99.46875,1704.125 L 78.125,1696.875 L 54.46875,1704.75 C 17.95176,1716.8951 1.04863,1719.8527 -32.21875,1719.9375 C -63.09695,1720.0161 -73.58857,1718.1651 -90.90625,1709.5625 C -103.5367,1703.2882 -117.49693,1688.794 -120.46875,1678.875 C -122.77524,1671.1767 -123.01981,1671.0312 -132.28125,1671.0312 L -141.71875,1671.0312 L -147.0625,1681.875 C -153.08869,1694.1921 -162.05303,1702.9034 -175.78125,1709.7188 C -192.86827,1718.2016 -203.43367,1720.0186 -234.21875,1719.875 C -267.05562,1719.7218 -286.88839,1716.1956 -322.53125,1704.125 L -343.875,1696.875 L -367.53125,1704.75 C -404.04818,1716.8951 -420.95137,1719.8527 -454.21875,1719.9375 C -485.09697,1720.0161 -495.58857,1718.1651 -512.90625,1709.5625 C -525.53672,1703.2882 -539.49693,1688.794 -542.46875,1678.875 L -544.84375,1671.0312 L -555.53125,1671.0312 L -566.21875,1671.0312 z"
           id="path2547" />
        <path
           style="fill:#000000;fill-opacity:1;fill-rule:nonzero;stroke:none;stroke-width:42.51968384;stroke-linecap:round;stroke-linejoin:bevel;marker:none;marker-start:none;marker-mid:none;marker-end:none;stroke-miterlimit:4;stroke-dasharray:none;stroke-dashoffset:0;stroke-opacity:1;visibility:visible;display:inline;overflow:visible;enable-background:accumulate"
           d="M -461.75,1347.0312 C -488.41157,1347.2022 -498.67093,1349.3413 -514.90625,1357.4062 C -527.53672,1363.6805 -541.49693,1378.1746 -544.46875,1388.0938 L -546.84375,1395.9375 L -557.53125,1395.9375 L -568.21875,1395.9375 L -568.21875,1421.9375 L -557.53125,1421.9375 L -546.84375,1421.9375 L -544.46875,1414.0938 C -541.49693,1404.1747 -527.53672,1389.6805 -514.90625,1383.4062 C -497.58857,1374.8036 -487.09697,1372.9527 -456.21875,1373.0312 C -422.95137,1373.116 -406.04818,1376.0736 -369.53125,1388.2188 L -345.875,1396.0938 L -324.53125,1388.8438 C -288.88839,1376.7731 -269.05562,1373.247 -236.21875,1373.0938 C -205.43367,1372.9501 -194.86827,1374.7671 -177.78125,1383.25 C -164.05303,1390.0653 -155.08869,1398.7767 -149.0625,1411.0938 L -143.71875,1421.9375 L -134.28125,1421.9375 C -125.01981,1421.9375 -124.77524,1421.7921 -122.46875,1414.0938 C -119.49693,1404.1747 -105.5367,1389.6805 -92.90625,1383.4062 C -75.58857,1374.8036 -65.09695,1372.9527 -34.21875,1373.0312 C -0.95137,1373.116 15.95176,1376.0736 52.46875,1388.2188 L 76.125,1396.0938 L 97.46875,1388.8438 C 133.11161,1376.7731 152.94437,1373.247 185.78125,1373.0938 C 216.56633,1372.9501 227.13174,1374.7671 244.21875,1383.25 C 257.94697,1390.0653 266.9113,1398.7767 272.9375,1411.0938 L 278.28125,1421.9375 L 292.71875,1421.9375 L 307.15625,1421.9375 L 309.53125,1414.0938 C 312.50307,1404.1747 326.4633,1389.6805 339.09375,1383.4062 C 356.41143,1374.8036 366.90305,1372.9527 397.78125,1373.0312 C 431.04863,1373.116 447.95176,1376.0736 484.46875,1388.2188 L 508.125,1396.0938 L 529.46875,1388.8438 C 565.11161,1376.7731 584.94438,1373.247 617.78125,1373.0938 C 648.56633,1372.9501 659.13173,1374.7671 676.21875,1383.25 C 689.94697,1390.0653 698.91128,1398.7767 704.9375,1411.0938 L 710.28125,1421.9375 L 720,1421.9375 L 720,1395.9375 L 710.28125,1395.9375 L 704.9375,1385.0938 C 698.91128,1372.7767 689.94697,1364.0653 676.21875,1357.25 C 659.13173,1348.7671 648.56633,1346.9501 617.78125,1347.0938 C 584.94438,1347.247 565.11161,1350.7731 529.46875,1362.8438 L 508.125,1370.0938 L 484.46875,1362.2188 C 447.95176,1350.0737 431.04863,1347.1161 397.78125,1347.0312 C 366.90305,1346.9526 356.41143,1348.8036 339.09375,1357.4062 C 326.4633,1363.6805 312.50307,1378.1746 309.53125,1388.0938 L 307.15625,1395.9375 L 292.71875,1395.9375 L 278.28125,1395.9375 L 272.9375,1385.0938 C 266.9113,1372.7767 257.94697,1364.0653 244.21875,1357.25 C 227.13174,1348.7671 216.56633,1346.9501 185.78125,1347.0938 C 152.94437,1347.247 133.11161,1350.7731 97.46875,1362.8438 L 76.125,1370.0938 L 52.46875,1362.2188 C 15.95176,1350.0737 -0.95137,1347.1161 -34.21875,1347.0312 C -65.09695,1346.9526 -75.58857,1348.8036 -92.90625,1357.4062 C -105.5367,1363.6805 -119.49693,1378.1746 -122.46875,1388.0938 C -124.77524,1395.7921 -125.01981,1395.9375 -134.28125,1395.9375 L -143.71875,1395.9375 L -149.0625,1385.0938 C -155.08869,1372.7767 -164.05303,1364.0653 -177.78125,1357.25 C -194.86827,1348.7671 -205.43367,1346.9501 -236.21875,1347.0938 C -269.05562,1347.247 -288.88839,1350.7731 -324.53125,1362.8438 L -345.875,1370.0938 L -369.53125,1362.2188 C -406.04818,1350.0737 -422.95137,1347.1161 -456.21875,1347.0312 C -458.14864,1347.0263 -459.97256,1347.02 -461.75,1347.0312 z"
           id="path2552" />
      </g>
      <g
         transform="translate(164,-10)"
         id="g2757">
        <g
           id="g2759"
           transform="translate(-24,138)">
          <path
             id="path2761"
             d="M 309.13354,1321.8856 C 201.65812,1385.2267 139.90788,1479.8612 171.29816,1533.1234 C 202.68845,1586.3855 315.39105,1578.2055 422.86646,1514.8644 C 530.34188,1451.5233 592.09212,1356.8888 560.70184,1303.6266 C 529.31155,1250.3645 416.60895,1258.5445 309.13354,1321.8856 z M 312.17996,1327.0547 C 408.1401,1270.5 508.76362,1263.1988 536.79066,1310.7543 C 564.81776,1358.3098 509.6874,1442.8026 413.72721,1499.3572 C 317.76708,1555.9118 217.14354,1563.2131 189.1165,1515.6576 C 161.08952,1468.1022 216.21977,1383.6092 312.17996,1327.0547 z"
             style="opacity:1;fill:#000000;fill-opacity:1;fill-rule:nonzero;stroke:none;stroke-width:42.51968384;stroke-linecap:round;stroke-linejoin:bevel;marker:none;marker-start:none;marker-mid:none;marker-end:none;stroke-miterlimit:4;stroke-dasharray:none;stroke-dashoffset:0;stroke-opacity:1;visibility:visible;display:inline;overflow:visible;enable-background:accumulate" />
          <path
             style="opacity:1;fill:#000000;fill-opacity:1;fill-rule:nonzero;stroke:none;stroke-width:42.51968384;stroke-linecap:round;stroke-linejoin:bevel;marker:none;marker-start:none;marker-mid:none;marker-end:none;stroke-miterlimit:4;stroke-dasharray:none;stroke-dashoffset:0;stroke-opacity:1;visibility:visible;display:inline;overflow:visible;enable-background:accumulate"
             d="M 422.86646,1321.8856 C 530.34188,1385.2267 592.09212,1479.8612 560.70184,1533.1234 C 529.31155,1586.3855 416.60895,1578.2055 309.13354,1514.8644 C 201.65812,1451.5233 139.90788,1356.8888 171.29816,1303.6266 C 202.68845,1250.3645 315.39105,1258.5445 422.86646,1321.8856 z M 419.82004,1327.0547 C 323.8599,1270.5 223.23638,1263.1988 195.20934,1310.7543 C 167.18224,1358.3098 222.3126,1442.8026 318.27279,1499.3572 C 414.23292,1555.9118 514.85646,1563.2131 542.8835,1515.6576 C 570.91048,1468.1022 515.78023,1383.6092 419.82004,1327.0547 z"
             id="path2763" />
          <path
             id="path2765"
             d="M 264.03125,1297.5312 C 235.07743,1298.6783 218.0083,1308.2587 210.6875,1320.5938 C 204.09359,1331.704 203.11713,1348.4345 214.21875,1372.2188 L 217.15625,1369.4062 C 244.08818,1343.6592 275.34856,1320.7394 308.90625,1301.875 C 292.19147,1298.4818 276.98742,1297.018 264.03125,1297.5312 z"
             style="fill:#000000;fill-opacity:1;fill-rule:nonzero;stroke:none;stroke-width:42.51968384;stroke-linecap:round;stroke-linejoin:bevel;marker:none;marker-start:none;marker-mid:none;marker-end:none;stroke-miterlimit:4;stroke-dashoffset:0;stroke-opacity:1;visibility:visible;display:inline;overflow:visible;enable-background:accumulate" />
          <path
             style="fill:#000000;fill-opacity:1;fill-rule:nonzero;stroke:none;stroke-width:42.51968384;stroke-linecap:round;stroke-linejoin:bevel;marker:none;marker-start:none;marker-mid:none;marker-end:none;stroke-miterlimit:4;stroke-dashoffset:0;stroke-opacity:1;visibility:visible;display:inline;overflow:visible;enable-background:accumulate"
             d="M 476.65741,1534.1188 C 505.61123,1532.9717 522.68036,1523.3913 530.00116,1511.0562 C 536.59507,1499.946 537.57153,1483.2155 526.46991,1459.4312 L 523.53241,1462.2438 C 496.60048,1487.9908 465.3401,1510.9106 431.78241,1529.775 C 448.49719,1533.1682 463.70124,1534.632 476.65741,1534.1188 z"
             id="path2767" />
        </g>
        <path
           style="fill:#000000;fill-opacity:1;fill-rule:nonzero;stroke:none;stroke-width:42.51968384;stroke-linecap:round;stroke-linejoin:bevel;marker:none;marker-start:none;marker-mid:none;marker-end:none;stroke-miterlimit:4;stroke-dashoffset:0;stroke-opacity:1;visibility:visible;display:inline;overflow:visible;enable-background:accumulate"
           d="M 342.6875,1449.375 L 337.875,1451.2812 C 325.53457,1456.1555 290.12742,1475.3125 274.53125,1485.7812 C 257.34311,1497.3185 237.98588,1513.2531 223.6875,1526.875 C 216.53831,1533.686 210.61425,1539.9749 207,1544.5312 C 205.80212,1546.0414 205.3375,1546.8676 204.71875,1547.8438 C 205.49493,1548.9011 205.68438,1549.2016 207,1550.7812 C 209.49846,1553.7812 212.79282,1557.5044 216.40625,1561.4375 C 223.63312,1569.3037 232.19661,1578.0669 238.53125,1583.8438 C 262.84654,1606.0178 302.36395,1632.3686 331.34375,1645.7812 C 334.67093,1647.3212 337.88772,1648.7205 340.28125,1649.7188 C 340.95758,1650.0008 341.35547,1650.138 341.875,1650.3438 C 342.51052,1650.1092 343.09201,1649.9247 344.03125,1649.5312 C 346.81326,1648.3658 350.6549,1646.5859 354.96875,1644.4688 C 363.59645,1640.2345 374.17085,1634.6098 382.90625,1629.4688 C 415.89576,1610.0534 448.77217,1583.4077 469.8125,1559.25 C 474.02401,1554.4145 477.12555,1550.9279 478.6875,1548.8125 C 479.23485,1548.0712 479.31021,1547.8921 479.46875,1547.625 C 479.24218,1547.2572 478.98067,1546.7942 478.1875,1545.8438 C 476.2623,1543.5369 472.76579,1539.9716 468,1535 C 438.21899,1503.933 405.51857,1480.2834 363.53125,1459.625 L 342.6875,1449.375 z M 203.8125,1549.1875 C 203.7757,1549.2556 203.59144,1549.4734 203.5625,1549.5312 C 203.3516,1549.9526 203.69896,1549.8957 203.8125,1549.1875 z"
           id="path2769" />
        <path
           id="path2771"
           d="M 342.41478,1472.1136 L 338.6913,1473.5885 C 329.14339,1477.3598 301.74853,1492.1818 289.68163,1500.2815 C 276.38299,1509.208 261.40611,1521.5368 250.34332,1532.0761 C 244.81192,1537.3459 240.22841,1542.2117 237.43204,1545.737 C 236.50522,1546.9053 236.14574,1547.5446 235.66701,1548.2999 C 236.26754,1549.1179 236.41412,1549.3504 237.43204,1550.5726 C 239.36512,1552.8937 241.91399,1555.7744 244.70974,1558.8175 C 250.30124,1564.9036 256.92689,1571.6838 261.82807,1576.1534 C 280.64105,1593.3097 311.21605,1613.6976 333.63801,1624.0751 C 336.21228,1625.2665 338.70115,1626.3492 340.55304,1627.1216 C 341.07633,1627.3398 341.38417,1627.446 341.78614,1627.6052 C 342.27785,1627.4237 342.72775,1627.2809 343.45445,1626.9764 C 345.60693,1626.0748 348.57924,1624.6977 351.9169,1623.0596 C 358.59224,1619.7835 366.77376,1615.4316 373.53243,1611.454 C 399.05673,1596.4321 424.49353,1575.8161 440.77264,1557.125 C 444.03113,1553.3838 446.43082,1550.6861 447.63931,1549.0494 C 448.0628,1548.4758 448.12112,1548.3373 448.24378,1548.1306 C 448.06847,1547.8461 447.86615,1547.4879 447.25246,1546.7525 C 445.76292,1544.9676 443.05763,1542.2091 439.37029,1538.3625 C 416.32843,1514.3257 391.02779,1496.0278 358.54179,1480.0441 L 342.41478,1472.1136 z M 234.96583,1549.3395 C 234.93736,1549.3922 234.79479,1549.5608 234.77241,1549.6054 C 234.60923,1549.9315 234.87798,1549.8874 234.96583,1549.3395 z"
           style="fill:#ffffff;fill-opacity:1;fill-rule:nonzero;stroke:none;stroke-width:42.51968384;stroke-linecap:round;stroke-linejoin:bevel;marker:none;marker-start:none;marker-mid:none;marker-end:none;stroke-miterlimit:4;stroke-dashoffset:0;stroke-opacity:1;visibility:visible;display:inline;overflow:visible;enable-background:accumulate" />
        <path
           style="fill:#000000;fill-opacity:1;fill-rule:nonzero;stroke:none;stroke-width:42.51968384;stroke-linecap:round;stroke-linejoin:bevel;marker:none;marker-start:none;marker-mid:none;marker-end:none;stroke-miterlimit:4;stroke-dashoffset:0;stroke-opacity:1;visibility:visible;display:inline;overflow:visible;enable-background:accumulate"
           d="M 342.15276,1493.9602 L 339.47558,1495.0206 C 332.61064,1497.7322 312.91374,1508.3892 304.23764,1514.2129 C 294.67592,1520.6311 283.90755,1529.4955 275.95341,1537.0732 C 271.97634,1540.8622 268.68079,1544.3607 266.6702,1546.8954 C 266.00382,1547.7354 265.74535,1548.1951 265.40115,1548.7381 C 265.83293,1549.3263 265.93832,1549.4934 266.6702,1550.3722 C 268.06009,1552.0411 269.89272,1554.1123 271.90287,1556.3003 C 275.92315,1560.6762 280.68699,1565.5511 284.21094,1568.7648 C 297.73747,1581.1002 319.72088,1595.759 335.84227,1603.2205 C 337.69317,1604.0771 339.48266,1604.8555 340.81417,1605.4109 C 341.19042,1605.5678 341.41175,1605.6441 341.70077,1605.7586 C 342.05431,1605.6281 342.37779,1605.5254 342.90028,1605.3065 C 344.44792,1604.6582 346.58501,1603.6681 348.98478,1602.4903 C 353.78435,1600.1348 359.66686,1597.0058 364.52634,1594.1459 C 382.87831,1583.3452 401.16736,1568.5223 412.87203,1555.0834 C 415.21489,1552.3934 416.94026,1550.4538 417.80917,1549.277 C 418.11366,1548.8646 418.15559,1548.765 418.24378,1548.6164 C 418.11773,1548.4118 417.97226,1548.1543 417.53102,1547.6255 C 416.46004,1546.3422 414.51494,1544.3588 411.86374,1541.5931 C 395.29665,1524.3107 377.1055,1511.1545 353.74808,1499.6622 L 342.15276,1493.9602 z M 264.897,1549.4856 C 264.87653,1549.5235 264.77402,1549.6447 264.75793,1549.6768 C 264.6406,1549.9112 264.83384,1549.8795 264.897,1549.4856 z"
           id="path2773" />
        <path
           style="opacity:1;fill:#000000;fill-opacity:1;fill-rule:nonzero;stroke:none;stroke-width:42.51968384;stroke-linecap:round;stroke-linejoin:bevel;marker:none;marker-start:none;marker-mid:none;marker-end:none;stroke-miterlimit:4;stroke-dasharray:none;stroke-dashoffset:0;stroke-opacity:1;visibility:visible;display:inline;overflow:visible;enable-background:accumulate"
           d="M 217.6731,1663.4442 C 194.50718,1658.1651 181.6709,1642.2555 183.38673,1620.9486 C 184.05449,1612.6569 189.15595,1597.7469 194.31974,1588.9949 L 196.93687,1584.5591 L 209.59811,1597.6501 C 229.23615,1617.9549 253.27359,1636.0271 278.97334,1649.8088 C 284.44512,1652.743 288.93253,1655.5275 288.94538,1655.9966 C 288.96967,1656.884 283.50609,1658.4998 268.33693,1662.0911 C 255.32063,1665.1728 228.41199,1665.8914 217.67306,1663.4442 L 217.6731,1663.4442 z"
           id="path2775" />
        <path
           style="opacity:1;fill:#000000;fill-opacity:1;fill-rule:nonzero;stroke:none;stroke-width:42.51968384;stroke-linecap:round;stroke-linejoin:bevel;marker:none;marker-start:none;marker-mid:none;marker-end:none;stroke-miterlimit:4;stroke-dasharray:none;stroke-dashoffset:0;stroke-opacity:1;visibility:visible;display:inline;overflow:visible;enable-background:accumulate"
           d="M 464.92312,1505.5443 C 444.54678,1486.0217 419.77467,1468.6904 393.4292,1455.5252 C 387.40368,1452.5142 382.4737,1449.8167 382.4737,1449.5307 C 382.4737,1449.2448 386.50732,1447.8131 391.43729,1446.3491 C 424.18372,1436.6248 450.53029,1435.905 468.78973,1444.2358 C 488.80349,1453.367 495.61004,1470.8493 488.23095,1494.1696 C 486.31312,1500.2306 483.09593,1507.9633 481.08169,1511.3533 L 477.41947,1517.5169 L 464.92312,1505.5443 z"
           id="path2777" />
      </g>
      <g
         transform="translate(-268,-10)"
         id="g2779">
        <g
           transform="translate(-24,138)"
           id="g2781">
          <path
             style="opacity:1;fill:#000000;fill-opacity:1;fill-rule:nonzero;stroke:none;stroke-width:42.51968384;stroke-linecap:round;stroke-linejoin:bevel;marker:none;marker-start:none;marker-mid:none;marker-end:none;stroke-miterlimit:4;stroke-dasharray:none;stroke-dashoffset:0;stroke-opacity:1;visibility:visible;display:inline;overflow:visible;enable-background:accumulate"
             d="M 309.13354,1321.8856 C 201.65812,1385.2267 139.90788,1479.8612 171.29816,1533.1234 C 202.68845,1586.3855 315.39105,1578.2055 422.86646,1514.8644 C 530.34188,1451.5233 592.09212,1356.8888 560.70184,1303.6266 C 529.31155,1250.3645 416.60895,1258.5445 309.13354,1321.8856 z M 312.17996,1327.0547 C 408.1401,1270.5 508.76362,1263.1988 536.79066,1310.7543 C 564.81776,1358.3098 509.6874,1442.8026 413.72721,1499.3572 C 317.76708,1555.9118 217.14354,1563.2131 189.1165,1515.6576 C 161.08952,1468.1022 216.21977,1383.6092 312.17996,1327.0547 z"
             id="path2783" />
          <path
             id="path2785"
             d="M 422.86646,1321.8856 C 530.34188,1385.2267 592.09212,1479.8612 560.70184,1533.1234 C 529.31155,1586.3855 416.60895,1578.2055 309.13354,1514.8644 C 201.65812,1451.5233 139.90788,1356.8888 171.29816,1303.6266 C 202.68845,1250.3645 315.39105,1258.5445 422.86646,1321.8856 z M 419.82004,1327.0547 C 323.8599,1270.5 223.23638,1263.1988 195.20934,1310.7543 C 167.18224,1358.3098 222.3126,1442.8026 318.27279,1499.3572 C 414.23292,1555.9118 514.85646,1563.2131 542.8835,1515.6576 C 570.91048,1468.1022 515.78023,1383.6092 419.82004,1327.0547 z"
             style="opacity:1;fill:#000000;fill-opacity:1;fill-rule:nonzero;stroke:none;stroke-width:42.51968384;stroke-linecap:round;stroke-linejoin:bevel;marker:none;marker-start:none;marker-mid:none;marker-end:none;stroke-miterlimit:4;stroke-dasharray:none;stroke-dashoffset:0;stroke-opacity:1;visibility:visible;display:inline;overflow:visible;enable-background:accumulate" />
          <path
             style="fill:#000000;fill-opacity:1;fill-rule:nonzero;stroke:none;stroke-width:42.51968384;stroke-linecap:round;stroke-linejoin:bevel;marker:none;marker-start:none;marker-mid:none;marker-end:none;stroke-miterlimit:4;stroke-dashoffset:0;stroke-opacity:1;visibility:visible;display:inline;overflow:visible;enable-background:accumulate"
             d="M 264.03125,1297.5312 C 235.07743,1298.6783 218.0083,1308.2587 210.6875,1320.5938 C 204.09359,1331.704 203.11713,1348.4345 214.21875,1372.2188 L 217.15625,1369.4062 C 244.08818,1343.6592 275.34856,1320.7394 308.90625,1301.875 C 292.19147,1298.4818 276.98742,1297.018 264.03125,1297.5312 z"
             id="path2787" />
          <path
             id="path2789"
             d="M 476.65741,1534.1188 C 505.61123,1532.9717 522.68036,1523.3913 530.00116,1511.0562 C 536.59507,1499.946 537.57153,1483.2155 526.46991,1459.4312 L 523.53241,1462.2438 C 496.60048,1487.9908 465.3401,1510.9106 431.78241,1529.775 C 448.49719,1533.1682 463.70124,1534.632 476.65741,1534.1188 z"
             style="fill:#000000;fill-opacity:1;fill-rule:nonzero;stroke:none;stroke-width:42.51968384;stroke-linecap:round;stroke-linejoin:bevel;marker:none;marker-start:none;marker-mid:none;marker-end:none;stroke-miterlimit:4;stroke-dashoffset:0;stroke-opacity:1;visibility:visible;display:inline;overflow:visible;enable-background:accumulate" />
        </g>
        <path
           id="path2791"
           d="M 342.6875,1449.375 L 337.875,1451.2812 C 325.53457,1456.1555 290.12742,1475.3125 274.53125,1485.7812 C 257.34311,1497.3185 237.98588,1513.2531 223.6875,1526.875 C 216.53831,1533.686 210.61425,1539.9749 207,1544.5312 C 205.80212,1546.0414 205.3375,1546.8676 204.71875,1547.8438 C 205.49493,1548.9011 205.68438,1549.2016 207,1550.7812 C 209.49846,1553.7812 212.79282,1557.5044 216.40625,1561.4375 C 223.63312,1569.3037 232.19661,1578.0669 238.53125,1583.8438 C 262.84654,1606.0178 302.36395,1632.3686 331.34375,1645.7812 C 334.67093,1647.3212 337.88772,1648.7205 340.28125,1649.7188 C 340.95758,1650.0008 341.35547,1650.138 341.875,1650.3438 C 342.51052,1650.1092 343.09201,1649.9247 344.03125,1649.5312 C 346.81326,1648.3658 350.6549,1646.5859 354.96875,1644.4688 C 363.59645,1640.2345 374.17085,1634.6098 382.90625,1629.4688 C 415.89576,1610.0534 448.77217,1583.4077 469.8125,1559.25 C 474.02401,1554.4145 477.12555,1550.9279 478.6875,1548.8125 C 479.23485,1548.0712 479.31021,1547.8921 479.46875,1547.625 C 479.24218,1547.2572 478.98067,1546.7942 478.1875,1545.8438 C 476.2623,1543.5369 472.76579,1539.9716 468,1535 C 438.21899,1503.933 405.51857,1480.2834 363.53125,1459.625 L 342.6875,1449.375 z M 203.8125,1549.1875 C 203.7757,1549.2556 203.59144,1549.4734 203.5625,1549.5312 C 203.3516,1549.9526 203.69896,1549.8957 203.8125,1549.1875 z"
           style="fill:#000000;fill-opacity:1;fill-rule:nonzero;stroke:none;stroke-width:42.51968384;stroke-linecap:round;stroke-linejoin:bevel;marker:none;marker-start:none;marker-mid:none;marker-end:none;stroke-miterlimit:4;stroke-dashoffset:0;stroke-opacity:1;visibility:visible;display:inline;overflow:visible;enable-background:accumulate" />
        <path
           style="fill:#ffffff;fill-opacity:1;fill-rule:nonzero;stroke:none;stroke-width:42.51968384;stroke-linecap:round;stroke-linejoin:bevel;marker:none;marker-start:none;marker-mid:none;marker-end:none;stroke-miterlimit:4;stroke-dashoffset:0;stroke-opacity:1;visibility:visible;display:inline;overflow:visible;enable-background:accumulate"
           d="M 342.41478,1472.1136 L 338.6913,1473.5885 C 329.14339,1477.3598 301.74853,1492.1818 289.68163,1500.2815 C 276.38299,1509.208 261.40611,1521.5368 250.34332,1532.0761 C 244.81192,1537.3459 240.22841,1542.2117 237.43204,1545.737 C 236.50522,1546.9053 236.14574,1547.5446 235.66701,1548.2999 C 236.26754,1549.1179 236.41412,1549.3504 237.43204,1550.5726 C 239.36512,1552.8937 241.91399,1555.7744 244.70974,1558.8175 C 250.30124,1564.9036 256.92689,1571.6838 261.82807,1576.1534 C 280.64105,1593.3097 311.21605,1613.6976 333.63801,1624.0751 C 336.21228,1625.2665 338.70115,1626.3492 340.55304,1627.1216 C 341.07633,1627.3398 341.38417,1627.446 341.78614,1627.6052 C 342.27785,1627.4237 342.72775,1627.2809 343.45445,1626.9764 C 345.60693,1626.0748 348.57924,1624.6977 351.9169,1623.0596 C 358.59224,1619.7835 366.77376,1615.4316 373.53243,1611.454 C 399.05673,1596.4321 424.49353,1575.8161 440.77264,1557.125 C 444.03113,1553.3838 446.43082,1550.6861 447.63931,1549.0494 C 448.0628,1548.4758 448.12112,1548.3373 448.24378,1548.1306 C 448.06847,1547.8461 447.86615,1547.4879 447.25246,1546.7525 C 445.76292,1544.9676 443.05763,1542.2091 439.37029,1538.3625 C 416.32843,1514.3257 391.02779,1496.0278 358.54179,1480.0441 L 342.41478,1472.1136 z M 234.96583,1549.3395 C 234.93736,1549.3922 234.79479,1549.5608 234.77241,1549.6054 C 234.60923,1549.9315 234.87798,1549.8874 234.96583,1549.3395 z"
           id="path2793" />
        <path
           id="path2795"
           d="M 342.15276,1493.9602 L 339.47558,1495.0206 C 332.61064,1497.7322 312.91374,1508.3892 304.23764,1514.2129 C 294.67592,1520.6311 283.90755,1529.4955 275.95341,1537.0732 C 271.97634,1540.8622 268.68079,1544.3607 266.6702,1546.8954 C 266.00382,1547.7354 265.74535,1548.1951 265.40115,1548.7381 C 265.83293,1549.3263 265.93832,1549.4934 266.6702,1550.3722 C 268.06009,1552.0411 269.89272,1554.1123 271.90287,1556.3003 C 275.92315,1560.6762 280.68699,1565.5511 284.21094,1568.7648 C 297.73747,1581.1002 319.72088,1595.759 335.84227,1603.2205 C 337.69317,1604.0771 339.48266,1604.8555 340.81417,1605.4109 C 341.19042,1605.5678 341.41175,1605.6441 341.70077,1605.7586 C 342.05431,1605.6281 342.37779,1605.5254 342.90028,1605.3065 C 344.44792,1604.6582 346.58501,1603.6681 348.98478,1602.4903 C 353.78435,1600.1348 359.66686,1597.0058 364.52634,1594.1459 C 382.87831,1583.3452 401.16736,1568.5223 412.87203,1555.0834 C 415.21489,1552.3934 416.94026,1550.4538 417.80917,1549.277 C 418.11366,1548.8646 418.15559,1548.765 418.24378,1548.6164 C 418.11773,1548.4118 417.97226,1548.1543 417.53102,1547.6255 C 416.46004,1546.3422 414.51494,1544.3588 411.86374,1541.5931 C 395.29665,1524.3107 377.1055,1511.1545 353.74808,1499.6622 L 342.15276,1493.9602 z M 264.897,1549.4856 C 264.87653,1549.5235 264.77402,1549.6447 264.75793,1549.6768 C 264.6406,1549.9112 264.83384,1549.8795 264.897,1549.4856 z"
           style="fill:#000000;fill-opacity:1;fill-rule:nonzero;stroke:none;stroke-width:42.51968384;stroke-linecap:round;stroke-linejoin:bevel;marker:none;marker-start:none;marker-mid:none;marker-end:none;stroke-miterlimit:4;stroke-dashoffset:0;stroke-opacity:1;visibility:visible;display:inline;overflow:visible;enable-background:accumulate" />
        <path
           id="path2797"
           d="M 217.6731,1663.4442 C 194.50718,1658.1651 181.6709,1642.2555 183.38673,1620.9486 C 184.05449,1612.6569 189.15595,1597.7469 194.31974,1588.9949 L 196.93687,1584.5591 L 209.59811,1597.6501 C 229.23615,1617.9549 253.27359,1636.0271 278.97334,1649.8088 C 284.44512,1652.743 288.93253,1655.5275 288.94538,1655.9966 C 288.96967,1656.884 283.50609,1658.4998 268.33693,1662.0911 C 255.32063,1665.1728 228.41199,1665.8914 217.67306,1663.4442 L 217.6731,1663.4442 z"
           style="opacity:1;fill:#000000;fill-opacity:1;fill-rule:nonzero;stroke:none;stroke-width:42.51968384;stroke-linecap:round;stroke-linejoin:bevel;marker:none;marker-start:none;marker-mid:none;marker-end:none;stroke-miterlimit:4;stroke-dasharray:none;stroke-dashoffset:0;stroke-opacity:1;visibility:visible;display:inline;overflow:visible;enable-background:accumulate" />
        <path
           id="path2799"
           d="M 464.92312,1505.5443 C 444.54678,1486.0217 419.77467,1468.6904 393.4292,1455.5252 C 387.40368,1452.5142 382.4737,1449.8167 382.4737,1449.5307 C 382.4737,1449.2448 386.50732,1447.8131 391.43729,1446.3491 C 424.18372,1436.6248 450.53029,1435.905 468.78973,1444.2358 C 488.80349,1453.367 495.61004,1470.8493 488.23095,1494.1696 C 486.31312,1500.2306 483.09593,1507.9633 481.08169,1511.3533 L 477.41947,1517.5169 L 464.92312,1505.5443 z"
           style="opacity:1;fill:#000000;fill-opacity:1;fill-rule:nonzero;stroke:none;stroke-width:42.51968384;stroke-linecap:round;stroke-linejoin:bevel;marker:none;marker-start:none;marker-mid:none;marker-end:none;stroke-miterlimit:4;stroke-dasharray:none;stroke-dashoffset:0;stroke-opacity:1;visibility:visible;display:inline;overflow:visible;enable-background:accumulate" />
      </g>
      <path
         id="path2801"
         d="M 286.71208,1584.5801 C 284.3705,1579.284 278.39858,1568.4417 273.44122,1560.486 L 264.42778,1546.0211 L 270.28448,1537.4859 C 273.50558,1532.7917 279.52852,1522.2124 283.66876,1513.9764 L 291.19646,1499.0018 L 295.62834,1509.044 C 298.06594,1514.5673 303.7971,1525.0031 308.36428,1532.2347 C 312.93144,1539.4664 316.66826,1546.0237 316.66826,1546.8067 C 316.66826,1547.5896 313.95168,1552.1786 310.63142,1557.0044 C 307.31118,1561.8302 301.52898,1572.1755 297.78212,1579.9939 L 290.96966,1594.2091 L 286.71208,1584.5801 z"
         style="fill:#000000;fill-opacity:1;fill-rule:nonzero;stroke:none;stroke-width:42.51968384;stroke-linecap:round;stroke-linejoin:bevel;marker:none;marker-start:none;marker-mid:none;marker-end:none;stroke-miterlimit:4;stroke-dasharray:none;stroke-dashoffset:0;stroke-opacity:1;visibility:visible;display:inline;overflow:visible;enable-background:accumulate" />
      <g
         id="g2803"
         transform="translate(-690,-10)">
        <g
           id="g2805"
           transform="translate(-24,138)">
          <path
             id="path2807"
             d="M 309.13354,1321.8856 C 201.65812,1385.2267 139.90788,1479.8612 171.29816,1533.1234 C 202.68845,1586.3855 315.39105,1578.2055 422.86646,1514.8644 C 530.34188,1451.5233 592.09212,1356.8888 560.70184,1303.6266 C 529.31155,1250.3645 416.60895,1258.5445 309.13354,1321.8856 z M 312.17996,1327.0547 C 408.1401,1270.5 508.76362,1263.1988 536.79066,1310.7543 C 564.81776,1358.3098 509.6874,1442.8026 413.72721,1499.3572 C 317.76708,1555.9118 217.14354,1563.2131 189.1165,1515.6576 C 161.08952,1468.1022 216.21977,1383.6092 312.17996,1327.0547 z"
             style="opacity:1;fill:#000000;fill-opacity:1;fill-rule:nonzero;stroke:none;stroke-width:42.51968384;stroke-linecap:round;stroke-linejoin:bevel;marker:none;marker-start:none;marker-mid:none;marker-end:none;stroke-miterlimit:4;stroke-dasharray:none;stroke-dashoffset:0;stroke-opacity:1;visibility:visible;display:inline;overflow:visible;enable-background:accumulate" />
          <path
             style="opacity:1;fill:#000000;fill-opacity:1;fill-rule:nonzero;stroke:none;stroke-width:42.51968384;stroke-linecap:round;stroke-linejoin:bevel;marker:none;marker-start:none;marker-mid:none;marker-end:none;stroke-miterlimit:4;stroke-dasharray:none;stroke-dashoffset:0;stroke-opacity:1;visibility:visible;display:inline;overflow:visible;enable-background:accumulate"
             d="M 422.86646,1321.8856 C 530.34188,1385.2267 592.09212,1479.8612 560.70184,1533.1234 C 529.31155,1586.3855 416.60895,1578.2055 309.13354,1514.8644 C 201.65812,1451.5233 139.90788,1356.8888 171.29816,1303.6266 C 202.68845,1250.3645 315.39105,1258.5445 422.86646,1321.8856 z M 419.82004,1327.0547 C 323.8599,1270.5 223.23638,1263.1988 195.20934,1310.7543 C 167.18224,1358.3098 222.3126,1442.8026 318.27279,1499.3572 C 414.23292,1555.9118 514.85646,1563.2131 542.8835,1515.6576 C 570.91048,1468.1022 515.78023,1383.6092 419.82004,1327.0547 z"
             id="path2809" />
          <path
             id="path2811"
             d="M 264.03125,1297.5312 C 235.07743,1298.6783 218.0083,1308.2587 210.6875,1320.5938 C 204.09359,1331.704 203.11713,1348.4345 214.21875,1372.2188 L 217.15625,1369.4062 C 244.08818,1343.6592 275.34856,1320.7394 308.90625,1301.875 C 292.19147,1298.4818 276.98742,1297.018 264.03125,1297.5312 z"
             style="fill:#000000;fill-opacity:1;fill-rule:nonzero;stroke:none;stroke-width:42.51968384;stroke-linecap:round;stroke-linejoin:bevel;marker:none;marker-start:none;marker-mid:none;marker-end:none;stroke-miterlimit:4;stroke-dashoffset:0;stroke-opacity:1;visibility:visible;display:inline;overflow:visible;enable-background:accumulate" />
          <path
             style="fill:#000000;fill-opacity:1;fill-rule:nonzero;stroke:none;stroke-width:42.51968384;stroke-linecap:round;stroke-linejoin:bevel;marker:none;marker-start:none;marker-mid:none;marker-end:none;stroke-miterlimit:4;stroke-dashoffset:0;stroke-opacity:1;visibility:visible;display:inline;overflow:visible;enable-background:accumulate"
             d="M 476.65741,1534.1188 C 505.61123,1532.9717 522.68036,1523.3913 530.00116,1511.0562 C 536.59507,1499.946 537.57153,1483.2155 526.46991,1459.4312 L 523.53241,1462.2438 C 496.60048,1487.9908 465.3401,1510.9106 431.78241,1529.775 C 448.49719,1533.1682 463.70124,1534.632 476.65741,1534.1188 z"
             id="path2813" />
        </g>
        <path
           style="fill:#000000;fill-opacity:1;fill-rule:nonzero;stroke:none;stroke-width:42.51968384;stroke-linecap:round;stroke-linejoin:bevel;marker:none;marker-start:none;marker-mid:none;marker-end:none;stroke-miterlimit:4;stroke-dashoffset:0;stroke-opacity:1;visibility:visible;display:inline;overflow:visible;enable-background:accumulate"
           d="M 342.6875,1449.375 L 337.875,1451.2812 C 325.53457,1456.1555 290.12742,1475.3125 274.53125,1485.7812 C 257.34311,1497.3185 237.98588,1513.2531 223.6875,1526.875 C 216.53831,1533.686 210.61425,1539.9749 207,1544.5312 C 205.80212,1546.0414 205.3375,1546.8676 204.71875,1547.8438 C 205.49493,1548.9011 205.68438,1549.2016 207,1550.7812 C 209.49846,1553.7812 212.79282,1557.5044 216.40625,1561.4375 C 223.63312,1569.3037 232.19661,1578.0669 238.53125,1583.8438 C 262.84654,1606.0178 302.36395,1632.3686 331.34375,1645.7812 C 334.67093,1647.3212 337.88772,1648.7205 340.28125,1649.7188 C 340.95758,1650.0008 341.35547,1650.138 341.875,1650.3438 C 342.51052,1650.1092 343.09201,1649.9247 344.03125,1649.5312 C 346.81326,1648.3658 350.6549,1646.5859 354.96875,1644.4688 C 363.59645,1640.2345 374.17085,1634.6098 382.90625,1629.4688 C 415.89576,1610.0534 448.77217,1583.4077 469.8125,1559.25 C 474.02401,1554.4145 477.12555,1550.9279 478.6875,1548.8125 C 479.23485,1548.0712 479.31021,1547.8921 479.46875,1547.625 C 479.24218,1547.2572 478.98067,1546.7942 478.1875,1545.8438 C 476.2623,1543.5369 472.76579,1539.9716 468,1535 C 438.21899,1503.933 405.51857,1480.2834 363.53125,1459.625 L 342.6875,1449.375 z M 203.8125,1549.1875 C 203.7757,1549.2556 203.59144,1549.4734 203.5625,1549.5312 C 203.3516,1549.9526 203.69896,1549.8957 203.8125,1549.1875 z"
           id="path2815" />
        <path
           id="path2817"
           d="M 342.41478,1472.1136 L 338.6913,1473.5885 C 329.14339,1477.3598 301.74853,1492.1818 289.68163,1500.2815 C 276.38299,1509.208 261.40611,1521.5368 250.34332,1532.0761 C 244.81192,1537.3459 240.22841,1542.2117 237.43204,1545.737 C 236.50522,1546.9053 236.14574,1547.5446 235.66701,1548.2999 C 236.26754,1549.1179 236.41412,1549.3504 237.43204,1550.5726 C 239.36512,1552.8937 241.91399,1555.7744 244.70974,1558.8175 C 250.30124,1564.9036 256.92689,1571.6838 261.82807,1576.1534 C 280.64105,1593.3097 311.21605,1613.6976 333.63801,1624.0751 C 336.21228,1625.2665 338.70115,1626.3492 340.55304,1627.1216 C 341.07633,1627.3398 341.38417,1627.446 341.78614,1627.6052 C 342.27785,1627.4237 342.72775,1627.2809 343.45445,1626.9764 C 345.60693,1626.0748 348.57924,1624.6977 351.9169,1623.0596 C 358.59224,1619.7835 366.77376,1615.4316 373.53243,1611.454 C 399.05673,1596.4321 424.49353,1575.8161 440.77264,1557.125 C 444.03113,1553.3838 446.43082,1550.6861 447.63931,1549.0494 C 448.0628,1548.4758 448.12112,1548.3373 448.24378,1548.1306 C 448.06847,1547.8461 447.86615,1547.4879 447.25246,1546.7525 C 445.76292,1544.9676 443.05763,1542.2091 439.37029,1538.3625 C 416.32843,1514.3257 391.02779,1496.0278 358.54179,1480.0441 L 342.41478,1472.1136 z M 234.96583,1549.3395 C 234.93736,1549.3922 234.79479,1549.5608 234.77241,1549.6054 C 234.60923,1549.9315 234.87798,1549.8874 234.96583,1549.3395 z"
           style="fill:#ffffff;fill-opacity:1;fill-rule:nonzero;stroke:none;stroke-width:42.51968384;stroke-linecap:round;stroke-linejoin:bevel;marker:none;marker-start:none;marker-mid:none;marker-end:none;stroke-miterlimit:4;stroke-dashoffset:0;stroke-opacity:1;visibility:visible;display:inline;overflow:visible;enable-background:accumulate" />
        <path
           style="fill:#000000;fill-opacity:1;fill-rule:nonzero;stroke:none;stroke-width:42.51968384;stroke-linecap:round;stroke-linejoin:bevel;marker:none;marker-start:none;marker-mid:none;marker-end:none;stroke-miterlimit:4;stroke-dashoffset:0;stroke-opacity:1;visibility:visible;display:inline;overflow:visible;enable-background:accumulate"
           d="M 342.15276,1493.9602 L 339.47558,1495.0206 C 332.61064,1497.7322 312.91374,1508.3892 304.23764,1514.2129 C 294.67592,1520.6311 283.90755,1529.4955 275.95341,1537.0732 C 271.97634,1540.8622 268.68079,1544.3607 266.6702,1546.8954 C 266.00382,1547.7354 265.74535,1548.1951 265.40115,1548.7381 C 265.83293,1549.3263 265.93832,1549.4934 266.6702,1550.3722 C 268.06009,1552.0411 269.89272,1554.1123 271.90287,1556.3003 C 275.92315,1560.6762 280.68699,1565.5511 284.21094,1568.7648 C 297.73747,1581.1002 319.72088,1595.759 335.84227,1603.2205 C 337.69317,1604.0771 339.48266,1604.8555 340.81417,1605.4109 C 341.19042,1605.5678 341.41175,1605.6441 341.70077,1605.7586 C 342.05431,1605.6281 342.37779,1605.5254 342.90028,1605.3065 C 344.44792,1604.6582 346.58501,1603.6681 348.98478,1602.4903 C 353.78435,1600.1348 359.66686,1597.0058 364.52634,1594.1459 C 382.87831,1583.3452 401.16736,1568.5223 412.87203,1555.0834 C 415.21489,1552.3934 416.94026,1550.4538 417.80917,1549.277 C 418.11366,1548.8646 418.15559,1548.765 418.24378,1548.6164 C 418.11773,1548.4118 417.97226,1548.1543 417.53102,1547.6255 C 416.46004,1546.3422 414.51494,1544.3588 411.86374,1541.5931 C 395.29665,1524.3107 377.1055,1511.1545 353.74808,1499.6622 L 342.15276,1493.9602 z M 264.897,1549.4856 C 264.87653,1549.5235 264.77402,1549.6447 264.75793,1549.6768 C 264.6406,1549.9112 264.83384,1549.8795 264.897,1549.4856 z"
           id="path2819" />
        <path
           style="opacity:1;fill:#000000;fill-opacity:1;fill-rule:nonzero;stroke:none;stroke-width:42.51968384;stroke-linecap:round;stroke-linejoin:bevel;marker:none;marker-start:none;marker-mid:none;marker-end:none;stroke-miterlimit:4;stroke-dasharray:none;stroke-dashoffset:0;stroke-opacity:1;visibility:visible;display:inline;overflow:visible;enable-background:accumulate"
           d="M 217.6731,1663.4442 C 194.50718,1658.1651 181.6709,1642.2555 183.38673,1620.9486 C 184.05449,1612.6569 189.15595,1597.7469 194.31974,1588.9949 L 196.93687,1584.5591 L 209.59811,1597.6501 C 229.23615,1617.9549 253.27359,1636.0271 278.97334,1649.8088 C 284.44512,1652.743 288.93253,1655.5275 288.94538,1655.9966 C 288.96967,1656.884 283.50609,1658.4998 268.33693,1662.0911 C 255.32063,1665.1728 228.41199,1665.8914 217.67306,1663.4442 L 217.6731,1663.4442 z"
           id="path2821" />
        <path
           style="opacity:1;fill:#000000;fill-opacity:1;fill-rule:nonzero;stroke:none;stroke-width:42.51968384;stroke-linecap:round;stroke-linejoin:bevel;marker:none;marker-start:none;marker-mid:none;marker-end:none;stroke-miterlimit:4;stroke-dasharray:none;stroke-dashoffset:0;stroke-opacity:1;visibility:visible;display:inline;overflow:visible;enable-background:accumulate"
           d="M 464.92312,1505.5443 C 444.54678,1486.0217 419.77467,1468.6904 393.4292,1455.5252 C 387.40368,1452.5142 382.4737,1449.8167 382.4737,1449.5307 C 382.4737,1449.2448 386.50732,1447.8131 391.43729,1446.3491 C 424.18372,1436.6248 450.53029,1435.905 468.78973,1444.2358 C 488.80349,1453.367 495.61004,1470.8493 488.23095,1494.1696 C 486.31312,1500.2306 483.09593,1507.9633 481.08169,1511.3533 L 477.41947,1517.5169 L 464.92312,1505.5443 z"
           id="path2823" />
      </g>
      <path
         style="fill:#000000;fill-opacity:1;fill-rule:nonzero;stroke:none;stroke-width:42.51968384;stroke-linecap:round;stroke-linejoin:bevel;marker:none;marker-start:none;marker-mid:none;marker-end:none;stroke-miterlimit:4;stroke-dasharray:none;stroke-dashoffset:0;stroke-opacity:1;visibility:visible;display:inline;overflow:visible;enable-background:accumulate"
         d="M -141.28792,1588.5801 C -143.6295,1583.284 -149.60142,1572.4417 -154.55878,1564.486 L -163.57222,1550.0211 L -157.71552,1541.4859 C -154.49442,1536.7917 -148.47148,1526.2124 -144.33124,1517.9764 L -136.80354,1503.0018 L -132.37166,1513.044 C -129.93406,1518.5673 -124.2029,1529.0031 -119.63572,1536.2347 C -115.06856,1543.4664 -111.33174,1550.0237 -111.33174,1550.8067 C -111.33174,1551.5896 -114.04832,1556.1786 -117.36858,1561.0044 C -120.68882,1565.8302 -126.47102,1576.1755 -130.21788,1583.9939 L -137.03034,1598.2091 L -141.28792,1588.5801 z"
         id="path2825" />
      <path
         id="path2827"
         d="M -566.21875,1671.0312 L -566.21875,1697.0312 L -555.53125,1697.0312 L -544.84375,1697.0312 L -542.46875,1704.875 C -539.49693,1714.7941 -525.53672,1729.2882 -512.90625,1735.5625 C -496.67093,1743.6274 -486.41157,1745.7665 -459.75,1745.9375 C -457.97256,1745.9488 -456.14864,1745.9424 -454.21875,1745.9375 C -420.95137,1745.8527 -404.04818,1742.895 -367.53125,1730.75 L -343.875,1722.875 L -322.53125,1730.125 C -286.88839,1742.1957 -267.05562,1745.7217 -234.21875,1745.875 C -203.43367,1746.0187 -192.86827,1744.2016 -175.78125,1735.7188 C -162.05303,1728.9035 -153.08869,1720.192 -147.0625,1707.875 L -141.71875,1697.0312 L -132.28125,1697.0312 C -123.01981,1697.0312 -122.77524,1697.1766 -120.46875,1704.875 C -117.49693,1714.7941 -103.5367,1729.2882 -90.90625,1735.5625 C -73.58857,1744.1651 -63.09695,1746.0161 -32.21875,1745.9375 C 1.04863,1745.8527 17.95176,1742.895 54.46875,1730.75 L 78.125,1722.875 L 99.46875,1730.125 C 135.11161,1742.1957 154.94437,1745.7217 187.78125,1745.875 C 218.56633,1746.0187 229.13174,1744.2016 246.21875,1735.7188 C 259.94697,1728.9035 268.9113,1720.192 274.9375,1707.875 L 280.28125,1697.0312 L 294.71875,1697.0312 L 309.15625,1697.0312 L 311.53125,1704.875 C 314.50307,1714.7941 328.4633,1729.2882 341.09375,1735.5625 C 358.41143,1744.1651 368.90305,1746.0161 399.78125,1745.9375 C 433.04863,1745.8527 449.95176,1742.895 486.46875,1730.75 L 510.125,1722.875 L 531.46875,1730.125 C 567.11161,1742.1957 586.94438,1745.7217 619.78125,1745.875 C 650.56633,1746.0187 661.13173,1744.2016 678.21875,1735.7188 C 691.94697,1728.9035 700.91128,1720.192 706.9375,1707.875 L 712.28125,1697.0312 L 720,1697.0312 L 720,1671.0312 L 712.28125,1671.0312 L 706.9375,1681.875 C 700.91128,1694.1921 691.94697,1702.9034 678.21875,1709.7188 C 661.13173,1718.2016 650.56633,1720.0186 619.78125,1719.875 C 586.94438,1719.7218 567.11161,1716.1956 531.46875,1704.125 L 510.125,1696.875 L 486.46875,1704.75 C 449.95176,1716.8951 433.04863,1719.8527 399.78125,1719.9375 C 368.90305,1720.0161 358.41143,1718.1651 341.09375,1709.5625 C 328.4633,1703.2882 314.50307,1688.794 311.53125,1678.875 L 309.15625,1671.0312 L 294.71875,1671.0312 L 280.28125,1671.0312 L 274.9375,1681.875 C 268.9113,1694.1921 259.94697,1702.9034 246.21875,1709.7188 C 229.13174,1718.2016 218.56633,1720.0186 187.78125,1719.875 C 154.94437,1719.7218 135.11161,1716.1956 99.46875,1704.125 L 78.125,1696.875 L 54.46875,1704.75 C 17.95176,1716.8951 1.04863,1719.8527 -32.21875,1719.9375 C -63.09695,1720.0161 -73.58857,1718.1651 -90.90625,1709.5625 C -103.5367,1703.2882 -117.49693,1688.794 -120.46875,1678.875 C -122.77524,1671.1767 -123.01981,1671.0312 -132.28125,1671.0312 L -141.71875,1671.0312 L -147.0625,1681.875 C -153.08869,1694.1921 -162.05303,1702.9034 -175.78125,1709.7188 C -192.86827,1718.2016 -203.43367,1720.0186 -234.21875,1719.875 C -267.05562,1719.7218 -286.88839,1716.1956 -322.53125,1704.125 L -343.875,1696.875 L -367.53125,1704.75 C -404.04818,1716.8951 -420.95137,1719.8527 -454.21875,1719.9375 C -485.09697,1720.0161 -495.58857,1718.1651 -512.90625,1709.5625 C -525.53672,1703.2882 -539.49693,1688.794 -542.46875,1678.875 L -544.84375,1671.0312 L -555.53125,1671.0312 L -566.21875,1671.0312 z"
         style="fill:#000000;fill-opacity:1;fill-rule:nonzero;stroke:none;stroke-width:42.51968384;stroke-linecap:round;stroke-linejoin:bevel;marker:none;marker-start:none;marker-mid:none;marker-end:none;stroke-miterlimit:4;stroke-dasharray:none;stroke-dashoffset:0;stroke-opacity:1;visibility:visible;display:inline;overflow:visible;enable-background:accumulate" />
      <path
         id="path2829"
         d="M -461.75,1347.0312 C -488.41157,1347.2022 -498.67093,1349.3413 -514.90625,1357.4062 C -527.53672,1363.6805 -541.49693,1378.1746 -544.46875,1388.0938 L -546.84375,1395.9375 L -557.53125,1395.9375 L -568.21875,1395.9375 L -568.21875,1421.9375 L -557.53125,1421.9375 L -546.84375,1421.9375 L -544.46875,1414.0938 C -541.49693,1404.1747 -527.53672,1389.6805 -514.90625,1383.4062 C -497.58857,1374.8036 -487.09697,1372.9527 -456.21875,1373.0312 C -422.95137,1373.116 -406.04818,1376.0736 -369.53125,1388.2188 L -345.875,1396.0938 L -324.53125,1388.8438 C -288.88839,1376.7731 -269.05562,1373.247 -236.21875,1373.0938 C -205.43367,1372.9501 -194.86827,1374.7671 -177.78125,1383.25 C -164.05303,1390.0653 -155.08869,1398.7767 -149.0625,1411.0938 L -143.71875,1421.9375 L -134.28125,1421.9375 C -125.01981,1421.9375 -124.77524,1421.7921 -122.46875,1414.0938 C -119.49693,1404.1747 -105.5367,1389.6805 -92.90625,1383.4062 C -75.58857,1374.8036 -65.09695,1372.9527 -34.21875,1373.0312 C -0.95137,1373.116 15.95176,1376.0736 52.46875,1388.2188 L 76.125,1396.0938 L 97.46875,1388.8438 C 133.11161,1376.7731 152.94437,1373.247 185.78125,1373.0938 C 216.56633,1372.9501 227.13174,1374.7671 244.21875,1383.25 C 257.94697,1390.0653 266.9113,1398.7767 272.9375,1411.0938 L 278.28125,1421.9375 L 292.71875,1421.9375 L 307.15625,1421.9375 L 309.53125,1414.0938 C 312.50307,1404.1747 326.4633,1389.6805 339.09375,1383.4062 C 356.41143,1374.8036 366.90305,1372.9527 397.78125,1373.0312 C 431.04863,1373.116 447.95176,1376.0736 484.46875,1388.2188 L 508.125,1396.0938 L 529.46875,1388.8438 C 565.11161,1376.7731 584.94438,1373.247 617.78125,1373.0938 C 648.56633,1372.9501 659.13173,1374.7671 676.21875,1383.25 C 689.94697,1390.0653 698.91128,1398.7767 704.9375,1411.0938 L 710.28125,1421.9375 L 720,1421.9375 L 720,1395.9375 L 710.28125,1395.9375 L 704.9375,1385.0938 C 698.91128,1372.7767 689.94697,1364.0653 676.21875,1357.25 C 659.13173,1348.7671 648.56633,1346.9501 617.78125,1347.0938 C 584.94438,1347.247 565.11161,1350.7731 529.46875,1362.8438 L 508.125,1370.0938 L 484.46875,1362.2188 C 447.95176,1350.0737 431.04863,1347.1161 397.78125,1347.0312 C 366.90305,1346.9526 356.41143,1348.8036 339.09375,1357.4062 C 326.4633,1363.6805 312.50307,1378.1746 309.53125,1388.0938 L 307.15625,1395.9375 L 292.71875,1395.9375 L 278.28125,1395.9375 L 272.9375,1385.0938 C 266.9113,1372.7767 257.94697,1364.0653 244.21875,1357.25 C 227.13174,1348.7671 216.56633,1346.9501 185.78125,1347.0938 C 152.94437,1347.247 133.11161,1350.7731 97.46875,1362.8438 L 76.125,1370.0938 L 52.46875,1362.2188 C 15.95176,1350.0737 -0.95137,1347.1161 -34.21875,1347.0312 C -65.09695,1346.9526 -75.58857,1348.8036 -92.90625,1357.4062 C -105.5367,1363.6805 -119.49693,1378.1746 -122.46875,1388.0938 C -124.77524,1395.7921 -125.01981,1395.9375 -134.28125,1395.9375 L -143.71875,1395.9375 L -149.0625,1385.0938 C -155.08869,1372.7767 -164.05303,1364.0653 -177.78125,1357.25 C -194.86827,1348.7671 -205.43367,1346.9501 -236.21875,1347.0938 C -269.05562,1347.247 -288.88839,1350.7731 -324.53125,1362.8438 L -345.875,1370.0938 L -369.53125,1362.2188 C -406.04818,1350.0737 -422.95137,1347.1161 -456.21875,1347.0312 C -458.14864,1347.0263 -459.97256,1347.02 -461.75,1347.0312 z"
         style="fill:#000000;fill-opacity:1;fill-rule:nonzero;stroke:none;stroke-width:42.51968384;stroke-linecap:round;stroke-linejoin:bevel;marker:none;marker-start:none;marker-mid:none;marker-end:none;stroke-miterlimit:4;stroke-dasharray:none;stroke-dashoffset:0;stroke-opacity:1;visibility:visible;display:inline;overflow:visible;enable-background:accumulate" />
      <path
         style="fill:#000000;fill-opacity:1;fill-rule:nonzero;stroke:none;stroke-width:42.51968384;stroke-linecap:round;stroke-linejoin:bevel;marker:none;marker-start:none;marker-mid:none;marker-end:none;stroke-miterlimit:4;stroke-dasharray:none;stroke-dashoffset:0;stroke-opacity:1;visibility:visible;display:inline;overflow:visible;enable-background:accumulate"
         d="M 716.71208,1580.5801 C 714.3705,1575.284 708.39858,1564.4417 703.44122,1556.486 L 694.42778,1542.0211 L 700.28448,1533.4859 C 703.50558,1528.7917 709.52852,1518.2124 713.66876,1509.9764 L 721.19646,1495.0018 L 725.62834,1505.044 C 728.06594,1510.5673 733.7971,1521.0031 738.36428,1528.2347 C 742.93144,1535.4664 746.66826,1542.0237 746.66826,1542.8067 C 746.66826,1543.5896 743.95168,1548.1786 740.63142,1553.0044 C 737.31118,1557.8302 731.52898,1568.1755 727.78212,1575.9939 L 720.96966,1590.2091 L 716.71208,1580.5801 z"
         id="path2831" />
    </g>
  </g>
</svg>
