<?xml version="1.0" encoding="UTF-8" standalone="no"?>
<svg width="19px" height="19px" viewBox="0 0 19 19" version="1.1" xmlns="http://www.w3.org/2000/svg" xmlns:xlink="http://www.w3.org/1999/xlink">
    <!-- Generator: Sketch 47.1 (45422) - http://www.bohemiancoding.com/sketch -->
    <title>Small / Collage / Default</title>
    <desc>Created with Sketch.</desc>
    <defs>
        <path d="M3,2 L11,2 C11.5522847,2 12,2.44771525 12,3 L12,10 C12,10.5522847 11.5522847,11 11,11 L3,11 C2.44771525,11 2,10.5522847 2,10 L2,3 C2,2.44771525 2.44771525,2 3,2 Z M3,3 L3,10 L11,10 L11,3 L3,3 Z M8,12 L16,12 C16.5522847,12 17,12.4477153 17,13 L17,16 C17,16.5522847 16.5522847,17 16,17 L8,17 C7.44771525,17 7,16.5522847 7,16 L7,13 C7,12.4477153 7.44771525,12 8,12 Z M8,13 L8,16 L16,16 L16,13 L8,13 Z M3,12 L5,12 C5.55228475,12 6,12.4477153 6,13 L6,16 C6,16.5522847 5.55228475,17 5,17 L3,17 C2.44771525,17 2,16.5522847 2,16 L2,13 C2,12.4477153 2.44771525,12 3,12 Z M3,13 L3,16 L5,16 L5,13 L3,13 Z M14,2 L16,2 C16.5522847,2 17,2.44771525 17,3 L17,5 C17,5.55228475 16.5522847,6 16,6 L14,6 C13.4477153,6 13,5.55228475 13,5 L13,3 C13,2.44771525 13.4477153,2 14,2 Z M14,3 L14,5 L16,5 L16,3 L14,3 Z M14,7 L16,7 C16.5522847,7 17,7.44771525 17,8 L17,10 C17,10.5522847 16.5522847,11 16,11 L14,11 C13.4477153,11 13,10.5522847 13,10 L13,8 C13,7.44771525 13.4477153,7 14,7 Z M14,8 L14,10 L16,10 L16,8 L14,8 Z" id="Collage-path-1"></path>
    </defs>
    <g id="Collage" stroke-width="0" fill="none" fill-rule="evenodd">
        <g id="Small-Collage-Default-2" stroke-width="0">
            <mask id="Collage-mask-2" fill="white">
                <use xlink:href="#Collage-path-1"></use>
            </mask>
            <use id="Collage-collage-a" fill="#000000" fill-rule="nonzero" xlink:href="#Collage-path-1"></use>
            <g id="Collage-05" transform="translate(1.000000, 1.000000)" stroke-width="0"></g>
        </g>
    </g>
</svg>
