<?xml version="1.0" encoding="UTF-8" standalone="no"?>
<svg width="19px" height="19px" viewBox="0 0 19 19" version="1.1" xmlns="http://www.w3.org/2000/svg" xmlns:xlink="http://www.w3.org/1999/xlink">
    <!-- Generator: Sketch 47.1 (45422) - http://www.bohemiancoding.com/sketch -->
    <title>Small / Gird Layout / Default</title>
    <desc>Created with Sketch.</desc>
    <defs>
        <path d="M3,2 L8,2 C8.55228475,2 9,2.44771525 9,3 L9,8 C9,8.55228475 8.55228475,9 8,9 L3,9 C2.44771525,9 2,8.55228475 2,8 L2,3 C2,2.44771525 2.44771525,2 3,2 Z M3,3 L3,8 L8,8 L8,3 L3,3 Z M11,2 L16,2 C16.5522847,2 17,2.44771525 17,3 L17,8 C17,8.55228475 16.5522847,9 16,9 L11,9 C10.4477153,9 10,8.55228475 10,8 L10,3 C10,2.44771525 10.4477153,2 11,2 Z M11,3 L11,8 L16,8 L16,3 L11,3 Z M11,10 L16,10 C16.5522847,10 17,10.4477153 17,11 L17,16 C17,16.5522847 16.5522847,17 16,17 L11,17 C10.4477153,17 10,16.5522847 10,16 L10,11 C10,10.4477153 10.4477153,10 11,10 Z M11,11 L11,16 L16,16 L16,11 L11,11 Z M3,10 L8,10 C8.55228475,10 9,10.4477153 9,11 L9,16 C9,16.5522847 8.55228475,17 8,17 L3,17 C2.44771525,17 2,16.5522847 2,16 L2,11 C2,10.4477153 2.44771525,10 3,10 Z M3,11 L3,16 L8,16 L8,11 L3,11 Z" id="Grid-path-1"></path>
    </defs>
    <g id="Grid" stroke-width="0" fill="none" fill-rule="evenodd">
        <g stroke-width="0" id="Small-/-Gird-Layout-/-Default">
            <mask id="Grid-mask-2" fill="white">
                <use xlink:href="#Grid-path-1"></use>
            </mask>
            <use id="Grid-grid-a" fill="#000000" fill-rule="nonzero" xlink:href="#Grid-path-1"></use>
            <g stroke-width="0" id="05" transform="translate(1.000000, 1.000000)"></g>
        </g>
    </g>
</svg>
