<?xml version="1.0" encoding="UTF-8" standalone="no"?>
<svg width="19px" height="19px" viewBox="0 0 19 19" version="1.1" xmlns="http://www.w3.org/2000/svg" xmlns:xlink="http://www.w3.org/1999/xlink">
    <!-- Generator: Sketch 47.1 (45422) - http://www.bohemiancoding.com/sketch -->
    <title>Small / Thumbnails</title>
    <desc>Created with Sketch.</desc>
    <defs>
        <path d="M2,2 L17,2 C17.5522847,2 18,2.44771525 18,3 L18,11 C18,11.5522847 17.5522847,12 17,12 L2,12 C1.44771525,12 1,11.5522847 1,11 L1,3 C1,2.44771525 1.44771525,2 2,2 Z M2,3 L2,11 L17,11 L17,3 L2,3 Z M8,13 L11,13 C11.5522847,13 12,13.4477153 12,14 L12,16 C12,16.5522847 11.5522847,17 11,17 L8,17 C7.44771525,17 7,16.5522847 7,16 L7,14 C7,13.4477153 7.44771525,13 8,13 Z M2,13 L5,13 C5.55228475,13 6,13.4477153 6,14 L6,16 C6,16.5522847 5.55228475,17 5,17 L2,17 C1.44771525,17 1,16.5522847 1,16 L1,14 C1,13.4477153 1.44771525,13 2,13 Z M8,14 L8,16 L11,16 L11,14 L8,14 Z M2,14 L2,16 L5,16 L5,14 L2,14 Z M14,13 L17,13 C17.5522847,13 18,13.4477153 18,14 L18,16 C18,16.5522847 17.5522847,17 17,17 L14,17 C13.4477153,17 13,16.5522847 13,16 L13,14 C13,13.4477153 13.4477153,13 14,13 Z M14,14 L14,16 L17,16 L17,14 L14,14 Z" id="path-1"></path>
    </defs>
    <g id="Thumbnails" stroke-width="0" fill="none" fill-rule="evenodd">
        <g stroke-width="0" id="Small-/-Thumbnails">
            <mask id="mask-2" fill="white">
                <use xlink:href="#path-1"></use>
            </mask>
            <use id="thumbnails-a" fill="#000000" fill-rule="nonzero" xlink:href="#path-1"></use>
        </g>
    </g>
</svg>
