<svg xmlns="http://www.w3.org/2000/svg" width="50" height="50" viewBox="0 0 50 50">
  <path fill="currentColor" d="M3,2 L23,2 C23.5522847,2 24,2.44771525 24,3 L24,23 C24,23.5522847 23.5522847,24 23,24 L3,24 C2.44771525,24 2,23.5522847 2,23 L2,3 C2,2.44771525 2.44771525,2 3,2 Z M3,3 L3,23 L23,23 L23,3 L3,3 Z M27,2 L47,2 C47.5522847,2 48,2.44771525 48,3 L48,13 C48,13.5522847 47.5522847,14 47,14 L27,14 C26.4477153,14 26,13.5522847 26,13 L26,3 C26,2.44771525 26.4477153,2 27,2 Z M27,3 L27,13 L47,13 L47,3 L27,3 Z M27,16 L35,16 C35.5522847,16 36,16.4477153 36,17 L36,23 C36,23.5522847 35.5522847,24 35,24 L27,24 C26.4477153,24 26,23.5522847 26,23 L26,17 C26,16.4477153 26.4477153,16 27,16 Z M27,17 L27,23 L35,23 L35,17 L27,17 Z M39,16 L47,16 C47.5522847,16 48,16.4477153 48,17 L48,23 C48,23.5522847 47.5522847,24 47,24 L39,24 C38.4477153,24 38,23.5522847 38,23 L38,17 C38,16.4477153 38.4477153,16 39,16 Z M39,17 L39,23 L47,23 L47,17 L39,17 Z M3,38 L29,38 C29.5522847,38 30,38.4477153 30,39 L30,47 C30,47.5522847 29.5522847,48 29,48 L3,48 C2.44771525,48 2,47.5522847 2,47 L2,39 C2,38.4477153 2.44771525,38 3,38 Z M3,39 L3,47 L29,47 L29,39 L3,39 Z M3,26 L29,26 C29.5522847,26 30,26.4477153 30,27 L30,35 C30,35.5522847 29.5522847,36 29,36 L3,36 C2.44771525,36 2,35.5522847 2,35 L2,27 C2,26.4477153 2.44771525,26 3,26 Z M3,27 L3,35 L29,35 L29,27 L3,27 Z M33,26 L47,26 C47.5522847,26 48,26.4477153 48,27 L48,47 C48,47.5522847 47.5522847,48 47,48 L33,48 C32.4477153,48 32,47.5522847 32,47 L32,27 C32,26.4477153 32.4477153,26 33,26 Z M33,27 L33,47 L47,47 L47,27 L33,27 Z"/>
</svg>
