<svg width="38" viewBox="0 0 19 19" xmlns="http://www.w3.org/2000/svg">
    <path d="M10.846 3.71v3.787l4.356-4.356a.2.2 0 0 1 .283 0l.374.374a.2.2 0 0 1 0 .283l-4.356 4.356h3.786c.11 0 .2.09.2.2v.528a.2.2 0 0 1-.2.2H9.918V3.711c0-.11.09-.2.2-.2h.528c.11 0 .2.09.2.2zm-7.335 6.936v-.528c0-.11.09-.2.2-.2h5.371v5.371a.2.2 0 0 1-.2.2h-.528a.2.2 0 0 1-.2-.2v-3.786l-4.356 4.356a.2.2 0 0 1-.283 0l-.374-.374a.2.2 0 0 1 0-.283l4.356-4.356H3.711a.2.2 0 0 1-.2-.2z" fill="#000" fill-rule="nonzero"/>
</svg>
